G04 #@! TF.GenerationSoftware,KiCad,Pcbnew,8.0.8*
G04 #@! TF.CreationDate,2025-12-05T15:55:18-05:00*
G04 #@! TF.ProjectId,hellen121vag,68656c6c-656e-4313-9231-7661672e6b69,d*
G04 #@! TF.SameCoordinates,PX2b953a0PY6943058*
G04 #@! TF.FileFunction,Soldermask,Bot*
G04 #@! TF.FilePolarity,Negative*
%FSLAX46Y46*%
G04 Gerber Fmt 4.6, Leading zero omitted, Abs format (unit mm)*
G04 Created by KiCad (PCBNEW 8.0.8) date 2025-12-05 15:55:18*
%MOMM*%
%LPD*%
G01*
G04 APERTURE LIST*
%ADD10C,2.600000*%
%ADD11C,1.500000*%
%ADD12C,3.700000*%
%ADD13C,2.200000*%
G04 APERTURE END LIST*
D10*
G04 #@! TO.C,P1*
X138448000Y18622000D03*
X132548000Y18622000D03*
X126748000Y18622000D03*
X135548000Y12822000D03*
X129648000Y12822000D03*
X138448000Y10492000D03*
X132548000Y10492000D03*
X126748000Y10492000D03*
D11*
X118918000Y18622000D03*
X116378000Y18622000D03*
X113838000Y18622000D03*
X111298000Y18622000D03*
X108758000Y18622000D03*
X106218000Y18622000D03*
X103678000Y18622000D03*
X101138000Y18622000D03*
X118918000Y16082000D03*
X116378000Y16082000D03*
X113838000Y16082000D03*
X111298000Y16082000D03*
X108758000Y16082000D03*
X106218000Y16082000D03*
X103678000Y16082000D03*
X101138000Y16082000D03*
X118918000Y10032000D03*
X116378000Y10032000D03*
X113838000Y10032000D03*
X111298000Y10032000D03*
X108758000Y10032000D03*
X106218000Y10032000D03*
X103678000Y10032000D03*
X101138000Y10032000D03*
X118918000Y7492000D03*
X116378000Y7492000D03*
X113838000Y7492000D03*
X111298000Y7492000D03*
X108758000Y7492000D03*
X106218000Y7492000D03*
X103678000Y7492000D03*
X101138000Y7492000D03*
X39448000Y7492000D03*
X41988000Y7492000D03*
X44528000Y7492000D03*
X47068000Y7492000D03*
X49608000Y7492000D03*
X52148000Y7492000D03*
X54688000Y7492000D03*
X57228000Y7492000D03*
X59768000Y7492000D03*
X62308000Y7492000D03*
X64848000Y7492000D03*
X67388000Y7492000D03*
X69928000Y7492000D03*
X72468000Y7492000D03*
X75008000Y7492000D03*
X77548000Y7492000D03*
X80088000Y7492000D03*
X82628000Y7492000D03*
X85168000Y7492000D03*
X39448000Y10032000D03*
X41988000Y10032000D03*
X44528000Y10032000D03*
X47068000Y10032000D03*
X49608000Y10032000D03*
X52148000Y10032000D03*
X54688000Y10032000D03*
X57228000Y10032000D03*
X59768000Y10032000D03*
X62308000Y10032000D03*
X64848000Y10032000D03*
X67388000Y10032000D03*
X69928000Y10032000D03*
X72468000Y10032000D03*
X75008000Y10032000D03*
X77548000Y10032000D03*
X80088000Y10032000D03*
X82628000Y10032000D03*
X85168000Y10032000D03*
X39448000Y16082000D03*
X41988000Y16082000D03*
X44528000Y16082000D03*
X47068000Y16082000D03*
X49608000Y16082000D03*
X52148000Y16082000D03*
X54688000Y16082000D03*
X57228000Y16082000D03*
X59768000Y16082000D03*
X62308000Y16082000D03*
X64848000Y16082000D03*
X67388000Y16082000D03*
X69928000Y16082000D03*
X72468000Y16082000D03*
X75008000Y16082000D03*
X77548000Y16082000D03*
X80088000Y16082000D03*
X82628000Y16082000D03*
X85168000Y16082000D03*
X39448000Y18622000D03*
X41988000Y18622000D03*
X44528000Y18622000D03*
X47068000Y18622000D03*
X49608000Y18622000D03*
X52148000Y18622000D03*
X54688000Y18622000D03*
X57228000Y18622000D03*
X59768000Y18622000D03*
X62308000Y18622000D03*
X64848000Y18622000D03*
X67388000Y18622000D03*
X69928000Y18622000D03*
X72468000Y18622000D03*
X75008000Y18622000D03*
X77548000Y18622000D03*
X80088000Y18622000D03*
X82628000Y18622000D03*
X85168000Y18622000D03*
D10*
X31548000Y18622000D03*
X25748000Y18622000D03*
X28648000Y12822000D03*
X31548000Y10492000D03*
X25748000Y10492000D03*
D12*
X18648000Y5492000D03*
X93148000Y5492000D03*
X145348000Y5492000D03*
D13*
X142898000Y13292000D03*
X21098000Y13292000D03*
G04 #@! TD*
M02*
