G04 #@! TF.GenerationSoftware,KiCad,Pcbnew,8.0.8*
G04 #@! TF.CreationDate,2025-12-05T15:55:18-05:00*
G04 #@! TF.ProjectId,hellen121vag,68656c6c-656e-4313-9231-7661672e6b69,d*
G04 #@! TF.SameCoordinates,PX2b953a0PY6943058*
G04 #@! TF.FileFunction,Soldermask,Top*
G04 #@! TF.FilePolarity,Negative*
%FSLAX46Y46*%
G04 Gerber Fmt 4.6, Leading zero omitted, Abs format (unit mm)*
G04 Created by KiCad (PCBNEW 8.0.8) date 2025-12-05 15:55:18*
%MOMM*%
%LPD*%
G01*
G04 APERTURE LIST*
%ADD10C,2.600000*%
%ADD11C,1.500000*%
%ADD12C,3.700000*%
%ADD13C,2.200000*%
G04 APERTURE END LIST*
D10*
G04 #@! TO.C,P1*
X138448000Y18622000D03*
X132548000Y18622000D03*
X126748000Y18622000D03*
X135548000Y12822000D03*
X129648000Y12822000D03*
X138448000Y10492000D03*
X132548000Y10492000D03*
X126748000Y10492000D03*
D11*
X118918000Y18622000D03*
X116378000Y18622000D03*
X113838000Y18622000D03*
X111298000Y18622000D03*
X108758000Y18622000D03*
X106218000Y18622000D03*
X103678000Y18622000D03*
X101138000Y18622000D03*
X118918000Y16082000D03*
X116378000Y16082000D03*
X113838000Y16082000D03*
X111298000Y16082000D03*
X108758000Y16082000D03*
X106218000Y16082000D03*
X103678000Y16082000D03*
X101138000Y16082000D03*
X118918000Y10032000D03*
X116378000Y10032000D03*
X113838000Y10032000D03*
X111298000Y10032000D03*
X108758000Y10032000D03*
X106218000Y10032000D03*
X103678000Y10032000D03*
X101138000Y10032000D03*
X118918000Y7492000D03*
X116378000Y7492000D03*
X113838000Y7492000D03*
X111298000Y7492000D03*
X108758000Y7492000D03*
X106218000Y7492000D03*
X103678000Y7492000D03*
X101138000Y7492000D03*
X39448000Y7492000D03*
X41988000Y7492000D03*
X44528000Y7492000D03*
X47068000Y7492000D03*
X49608000Y7492000D03*
X52148000Y7492000D03*
X54688000Y7492000D03*
X57228000Y7492000D03*
X59768000Y7492000D03*
X62308000Y7492000D03*
X64848000Y7492000D03*
X67388000Y7492000D03*
X69928000Y7492000D03*
X72468000Y7492000D03*
X75008000Y7492000D03*
X77548000Y7492000D03*
X80088000Y7492000D03*
X82628000Y7492000D03*
X85168000Y7492000D03*
X39448000Y10032000D03*
X41988000Y10032000D03*
X44528000Y10032000D03*
X47068000Y10032000D03*
X49608000Y10032000D03*
X52148000Y10032000D03*
X54688000Y10032000D03*
X57228000Y10032000D03*
X59768000Y10032000D03*
X62308000Y10032000D03*
X64848000Y10032000D03*
X67388000Y10032000D03*
X69928000Y10032000D03*
X72468000Y10032000D03*
X75008000Y10032000D03*
X77548000Y10032000D03*
X80088000Y10032000D03*
X82628000Y10032000D03*
X85168000Y10032000D03*
X39448000Y16082000D03*
X41988000Y16082000D03*
X44528000Y16082000D03*
X47068000Y16082000D03*
X49608000Y16082000D03*
X52148000Y16082000D03*
X54688000Y16082000D03*
X57228000Y16082000D03*
X59768000Y16082000D03*
X62308000Y16082000D03*
X64848000Y16082000D03*
X67388000Y16082000D03*
X69928000Y16082000D03*
X72468000Y16082000D03*
X75008000Y16082000D03*
X77548000Y16082000D03*
X80088000Y16082000D03*
X82628000Y16082000D03*
X85168000Y16082000D03*
X39448000Y18622000D03*
X41988000Y18622000D03*
X44528000Y18622000D03*
X47068000Y18622000D03*
X49608000Y18622000D03*
X52148000Y18622000D03*
X54688000Y18622000D03*
X57228000Y18622000D03*
X59768000Y18622000D03*
X62308000Y18622000D03*
X64848000Y18622000D03*
X67388000Y18622000D03*
X69928000Y18622000D03*
X72468000Y18622000D03*
X75008000Y18622000D03*
X77548000Y18622000D03*
X80088000Y18622000D03*
X82628000Y18622000D03*
X85168000Y18622000D03*
D10*
X31548000Y18622000D03*
X25748000Y18622000D03*
X28648000Y12822000D03*
X31548000Y10492000D03*
X25748000Y10492000D03*
D12*
X18648000Y5492000D03*
X93148000Y5492000D03*
X145348000Y5492000D03*
D13*
X142898000Y13292000D03*
X21098000Y13292000D03*
G04 #@! TD*
G36*
X157926578Y105418042D02*
G01*
X157992825Y105400291D01*
X158044140Y105366967D01*
X158056462Y105334866D01*
X158066287Y105325000D01*
X158325856Y105325000D01*
X158345170Y105323098D01*
X158673544Y105257781D01*
X158673550Y105257780D01*
X159257594Y105180889D01*
X159845432Y105142361D01*
X159845442Y105142360D01*
X160140022Y105140001D01*
X162544779Y105140001D01*
X162602970Y105121094D01*
X162614783Y105111005D01*
X163771004Y103954784D01*
X163798781Y103900267D01*
X163800000Y103884780D01*
X163800000Y80249001D01*
X163781093Y80190810D01*
X163731593Y80154846D01*
X163701000Y80150001D01*
X161700005Y80150001D01*
X161575916Y80147439D01*
X161331144Y80106594D01*
X161096420Y80026014D01*
X160878170Y79907902D01*
X160878167Y79907900D01*
X160682339Y79755481D01*
X160514259Y79572898D01*
X160378527Y79365143D01*
X160278842Y79137885D01*
X160217921Y78897314D01*
X160197429Y78650000D01*
X160217921Y78402687D01*
X160278842Y78162116D01*
X160378527Y77934858D01*
X160514259Y77727103D01*
X160682339Y77544520D01*
X160878167Y77392101D01*
X160878170Y77392099D01*
X161096420Y77273987D01*
X161331144Y77193407D01*
X161575917Y77152562D01*
X161700003Y77150001D01*
X163701000Y77150001D01*
X163759191Y77131094D01*
X163795155Y77081594D01*
X163800000Y77051001D01*
X163800000Y14214430D01*
X163781093Y14156239D01*
X163772892Y14146367D01*
X162504095Y12806178D01*
X162450359Y12776920D01*
X162431650Y12775243D01*
X158098028Y12799454D01*
X158039944Y12818686D01*
X158004257Y12868386D01*
X157999581Y12898452D01*
X157999973Y99677146D01*
X157882246Y99697328D01*
X157828087Y99725796D01*
X157801004Y99780661D01*
X157799974Y99794905D01*
X157799999Y105313845D01*
X157802481Y105335874D01*
X157804437Y105344444D01*
X157835819Y105396969D01*
X157892080Y105421016D01*
X157926578Y105418042D01*
G37*
G36*
X151134191Y112275893D02*
G01*
X151170155Y112226393D01*
X151175000Y112195800D01*
X151175000Y112094801D01*
X151175001Y112094800D01*
X151297000Y112094800D01*
X151355191Y112075893D01*
X151391155Y112026393D01*
X151392627Y112021423D01*
X151525183Y111526715D01*
X151714544Y110968880D01*
X151939985Y110424617D01*
X151939990Y110424606D01*
X152200539Y109896265D01*
X152495089Y109386091D01*
X152495093Y109386084D01*
X152822383Y108896261D01*
X153180982Y108428925D01*
X153181010Y108428892D01*
X153569408Y107986007D01*
X153569427Y107985987D01*
X153985985Y107569429D01*
X153986005Y107569410D01*
X154428891Y107181011D01*
X154428924Y107180983D01*
X154896260Y106822384D01*
X155386079Y106495097D01*
X155386093Y106495088D01*
X155896269Y106200538D01*
X156424605Y105939992D01*
X156424616Y105939987D01*
X156968883Y105714543D01*
X157526709Y105525187D01*
X157992825Y105400291D01*
X158044139Y105366967D01*
X158056461Y105334866D01*
X158066287Y105325000D01*
X158166877Y105325000D01*
X158225068Y105306093D01*
X158261032Y105256593D01*
X158265876Y105225589D01*
X158242865Y99680127D01*
X158240292Y99658109D01*
X158227772Y99604284D01*
X158208490Y99564666D01*
X158181031Y99530526D01*
X158146480Y99503204D01*
X158141566Y99500862D01*
X158080902Y99492894D01*
X158027140Y99522106D01*
X158000816Y99577339D01*
X157999973Y99590232D01*
X157999973Y99677146D01*
X157171175Y99819225D01*
X157164503Y99820607D01*
X156245492Y100044151D01*
X156240180Y100045601D01*
X155421279Y100293752D01*
X155414451Y100296096D01*
X154770007Y100543960D01*
X154765675Y100545745D01*
X154144431Y100819092D01*
X154141262Y100820553D01*
X153420611Y101168453D01*
X153415115Y101171322D01*
X152621972Y101617465D01*
X152613901Y101622532D01*
X151794678Y102193506D01*
X151791050Y102196158D01*
X151046345Y102767098D01*
X151039551Y102772808D01*
X150419346Y103343397D01*
X150416371Y103346250D01*
X149720991Y104041630D01*
X149714941Y104048256D01*
X149095063Y104792110D01*
X149090775Y104797642D01*
X148643860Y105418357D01*
X148641829Y105421288D01*
X148194599Y106092133D01*
X148191220Y106097575D01*
X147818963Y106742820D01*
X147816781Y106746810D01*
X147444551Y107466455D01*
X147441347Y107473274D01*
X147093642Y108292864D01*
X147092083Y108296767D01*
X146719695Y109289802D01*
X146716494Y109299974D01*
X146468760Y110266136D01*
X146467164Y110273520D01*
X146318183Y111117747D01*
X146317545Y111121868D01*
X146217958Y111868765D01*
X146217695Y111870917D01*
X146206131Y111975000D01*
X146093834Y111975000D01*
X146035643Y111993907D01*
X145999679Y112043407D01*
X145995474Y112085236D01*
X146001581Y112138695D01*
X146016197Y112180260D01*
X146039566Y112217324D01*
X146070767Y112248429D01*
X146110399Y112273247D01*
X146146434Y112286955D01*
X146184626Y112293414D01*
X146201134Y112294800D01*
X151076000Y112294800D01*
X151134191Y112275893D01*
G37*
G36*
X6010874Y105372518D02*
G01*
X6064745Y105360223D01*
X6104444Y105341105D01*
X6138700Y105313786D01*
X6166169Y105279341D01*
X6187684Y105234665D01*
X6196867Y105202782D01*
X6199377Y105180480D01*
X6199998Y105169381D01*
X6198682Y100363141D01*
X6179759Y100304955D01*
X6130249Y100269005D01*
X6112766Y100265036D01*
X6001098Y100250147D01*
X5998893Y100249879D01*
X5998652Y100249853D01*
X5998651Y100249852D01*
X5975000Y13824987D01*
X5975000Y12749002D01*
X5956093Y12690811D01*
X5906593Y12654847D01*
X5876000Y12650002D01*
X1455221Y12650001D01*
X1397030Y12668908D01*
X1385217Y12678997D01*
X220281Y13843933D01*
X192504Y13898450D01*
X191285Y13913946D01*
X197315Y77051009D01*
X216228Y77109198D01*
X265731Y77145158D01*
X296315Y77150000D01*
X2300018Y77150000D01*
X2424098Y77152408D01*
X2424104Y77152409D01*
X2668915Y77193234D01*
X2668925Y77193237D01*
X2903680Y77273804D01*
X2903681Y77273805D01*
X3121984Y77391921D01*
X3317858Y77544356D01*
X3317865Y77544362D01*
X3485977Y77726961D01*
X3621736Y77934735D01*
X3621742Y77934747D01*
X3721449Y78162038D01*
X3782383Y78402640D01*
X3782384Y78402645D01*
X3802881Y78650000D01*
X3782384Y78897356D01*
X3782383Y78897361D01*
X3721449Y79137963D01*
X3621742Y79365254D01*
X3621736Y79365266D01*
X3485977Y79573040D01*
X3317865Y79755639D01*
X3317858Y79755645D01*
X3121984Y79908080D01*
X2903681Y80026196D01*
X2903680Y80026197D01*
X2668925Y80106764D01*
X2668915Y80106767D01*
X2424104Y80147592D01*
X2424098Y80147593D01*
X2300018Y80150000D01*
X296620Y80150000D01*
X238429Y80168907D01*
X202465Y80218407D01*
X197620Y80249009D01*
X199876Y103884666D01*
X218789Y103942855D01*
X228873Y103954661D01*
X1385219Y105111004D01*
X1439735Y105138781D01*
X1455222Y105140000D01*
X3859962Y105140000D01*
X4154562Y105142411D01*
X4648545Y105174788D01*
X4655020Y105175000D01*
X5774999Y105175000D01*
X5775000Y105175001D01*
X5775000Y105265807D01*
X5793907Y105323998D01*
X5843407Y105359962D01*
X5854687Y105362905D01*
X5905824Y105373076D01*
X5905885Y105372767D01*
X5925231Y105375000D01*
X5988846Y105375000D01*
X6010874Y105372518D01*
G37*
G36*
X149884564Y117800232D02*
G01*
X149942751Y117781314D01*
X149954550Y117771236D01*
X151111004Y116614783D01*
X151138781Y116560266D01*
X151140000Y116544779D01*
X151140000Y114140023D01*
X151142358Y113845443D01*
X151142359Y113845433D01*
X151174788Y113350670D01*
X151175000Y113344195D01*
X151175000Y112094801D01*
X151175001Y112094800D01*
X151276000Y112094800D01*
X151334191Y112075893D01*
X151370155Y112026393D01*
X151375000Y111995800D01*
X151375000Y111986154D01*
X151372518Y111964124D01*
X151360222Y111910252D01*
X151341104Y111870555D01*
X151313785Y111836299D01*
X151279341Y111808831D01*
X151234660Y111787313D01*
X151202785Y111778130D01*
X151180518Y111775622D01*
X151169437Y111775000D01*
X146317138Y111775000D01*
X146258947Y111793907D01*
X146222983Y111843407D01*
X146219009Y111860898D01*
X146217961Y111868747D01*
X146217695Y111870917D01*
X146206131Y111975000D01*
X18182857Y111975000D01*
X18162675Y111857272D01*
X18134207Y111803113D01*
X18079342Y111776030D01*
X18065098Y111775000D01*
X12670311Y111775000D01*
X12612120Y111793907D01*
X12576156Y111843407D01*
X12574684Y111899623D01*
X12627241Y112095771D01*
X12742168Y112673552D01*
X12742169Y112673558D01*
X12819061Y113257614D01*
X12857589Y113845437D01*
X12860000Y114140038D01*
X12860000Y116544778D01*
X12878907Y116602969D01*
X12888996Y116614782D01*
X14069926Y117795712D01*
X14124443Y117823489D01*
X14139948Y117824708D01*
X149884564Y117800232D01*
G37*
G36*
X18189673Y112275044D02*
G01*
X18211691Y112272471D01*
X18265516Y112259951D01*
X18305134Y112240669D01*
X18339274Y112213210D01*
X18366600Y112178651D01*
X18386104Y112137718D01*
X18395699Y112097634D01*
X18396233Y112076501D01*
X18378802Y112017851D01*
X18330226Y111980648D01*
X18297265Y111975000D01*
X18182857Y111975000D01*
X18050575Y111203354D01*
X18049193Y111196682D01*
X17825649Y110277672D01*
X17824199Y110272360D01*
X17576048Y109453459D01*
X17573704Y109446631D01*
X17325840Y108802187D01*
X17324055Y108797855D01*
X17050708Y108176611D01*
X17049247Y108173442D01*
X16701347Y107452791D01*
X16698478Y107447295D01*
X16252335Y106654152D01*
X16247268Y106646081D01*
X15676294Y105826858D01*
X15673642Y105823230D01*
X15102702Y105078525D01*
X15096992Y105071731D01*
X14526403Y104451525D01*
X14523550Y104448550D01*
X13828170Y103753170D01*
X13821544Y103747120D01*
X13077690Y103127243D01*
X13072158Y103122955D01*
X12451443Y102676040D01*
X12448512Y102674009D01*
X11777667Y102226779D01*
X11772225Y102223400D01*
X11126980Y101851143D01*
X11122990Y101848961D01*
X10403345Y101476731D01*
X10396526Y101473527D01*
X9576936Y101125822D01*
X9573033Y101124263D01*
X8579998Y100751875D01*
X8569826Y100748674D01*
X7603664Y100500940D01*
X7596280Y100499344D01*
X6752052Y100350363D01*
X6747931Y100349725D01*
X6001098Y100250147D01*
X5998893Y100249879D01*
X5998653Y100249853D01*
X5998652Y100249852D01*
X5998620Y100137198D01*
X5979696Y100079012D01*
X5930186Y100043063D01*
X5910554Y100038832D01*
X5808173Y100027455D01*
X5786002Y100027489D01*
X5731103Y100033761D01*
X5689539Y100048377D01*
X5652475Y100071746D01*
X5621370Y100102947D01*
X5596552Y100142579D01*
X5582844Y100178616D01*
X5576386Y100216807D01*
X5575000Y100233313D01*
X5575000Y105076000D01*
X5593907Y105134191D01*
X5643407Y105170155D01*
X5674000Y105175000D01*
X5774999Y105175000D01*
X5775000Y105175001D01*
X5775000Y105265807D01*
X5793907Y105323998D01*
X5843407Y105359962D01*
X5854687Y105362905D01*
X5904225Y105372759D01*
X6473270Y105525233D01*
X7031102Y105714593D01*
X7575362Y105940033D01*
X7575373Y105940038D01*
X8103700Y106200580D01*
X8613879Y106495131D01*
X8613893Y106495140D01*
X9103687Y106822410D01*
X9103717Y106822431D01*
X9571043Y107181023D01*
X9571076Y107181051D01*
X10013959Y107569447D01*
X10013979Y107569466D01*
X10430534Y107986021D01*
X10430553Y107986041D01*
X10818949Y108428924D01*
X10818977Y108428957D01*
X11177569Y108896283D01*
X11177590Y108896313D01*
X11504860Y109386107D01*
X11504869Y109386121D01*
X11799420Y109896300D01*
X12059962Y110424626D01*
X12059967Y110424637D01*
X12285407Y110968897D01*
X12474767Y111526729D01*
X12627241Y112095774D01*
X12651540Y112217933D01*
X12681436Y112271318D01*
X12737001Y112296934D01*
X12749049Y112297619D01*
X18189673Y112275044D01*
G37*
M02*
