G04 #@! TF.GenerationSoftware,KiCad,Pcbnew,8.0.8*
G04 #@! TF.CreationDate,2025-12-05T20:32:17-05:00*
G04 #@! TF.ProjectId,hellen121vag,68656c6c-656e-4313-9231-7661672e6b69,d*
G04 #@! TF.SameCoordinates,PX2b953a0PY6943058*
G04 #@! TF.FileFunction,Soldermask,Top*
G04 #@! TF.FilePolarity,Negative*
%FSLAX46Y46*%
G04 Gerber Fmt 4.6, Leading zero omitted, Abs format (unit mm)*
G04 Created by KiCad (PCBNEW 8.0.8) date 2025-12-05 20:32:17*
%MOMM*%
%LPD*%
G01*
G04 APERTURE LIST*
%ADD10C,0.120000*%
%ADD11C,2.600000*%
%ADD12C,1.500000*%
%ADD13C,3.700000*%
%ADD14C,2.200000*%
%ADD15C,3.302000*%
%ADD16R,0.690000X1.350000*%
%ADD17C,1.524000*%
%ADD18R,1.300000X1.000000*%
%ADD19R,2.000000X0.650000*%
%ADD20R,4.500000X8.100000*%
%ADD21C,0.600000*%
%ADD22R,1.700000X1.700000*%
%ADD23O,1.700000X1.700000*%
%ADD24C,1.700000*%
%ADD25O,1.700000X1.850000*%
%ADD26R,1.100000X1.100000*%
%ADD27C,1.100000*%
%ADD28O,2.400000X1.100000*%
%ADD29C,0.599999*%
%ADD30O,0.250000X0.499999*%
%ADD31O,0.499999X0.250000*%
G04 APERTURE END LIST*
D10*
G04 #@! TO.C,U5*
X136800000Y19475000D02*
X123800000Y19475000D01*
X123800000Y26475000D01*
X136800000Y26475000D01*
X136800000Y19475000D01*
G36*
X136800000Y19475000D02*
G01*
X123800000Y19475000D01*
X123800000Y26475000D01*
X136800000Y26475000D01*
X136800000Y19475000D01*
G37*
G04 #@! TD*
D11*
G04 #@! TO.C,P1*
X25152000Y100128000D03*
X31052000Y100128000D03*
X36852000Y100128000D03*
X28052000Y105928000D03*
X33952000Y105928000D03*
X25152000Y108258000D03*
X31052000Y108258000D03*
X36852000Y108258000D03*
D12*
X44682000Y100128000D03*
X47222000Y100128000D03*
X49762000Y100128000D03*
X52302000Y100128000D03*
X54842000Y100128000D03*
X57382000Y100128000D03*
X59922000Y100128000D03*
X62462000Y100128000D03*
X44682000Y102668000D03*
X47222000Y102668000D03*
X49762000Y102668000D03*
X52302000Y102668000D03*
X54842000Y102668000D03*
X57382000Y102668000D03*
X59922000Y102668000D03*
X62462000Y102668000D03*
X44682000Y108718000D03*
X47222000Y108718000D03*
X49762000Y108718000D03*
X52302000Y108718000D03*
X54842000Y108718000D03*
X57382000Y108718000D03*
X59922000Y108718000D03*
X62462000Y108718000D03*
X44682000Y111258000D03*
X47222000Y111258000D03*
X49762000Y111258000D03*
X52302000Y111258000D03*
X54842000Y111258000D03*
X57382000Y111258000D03*
X59922000Y111258000D03*
X62462000Y111258000D03*
X124152000Y111258000D03*
X121612000Y111258000D03*
X119072000Y111258000D03*
X116532000Y111258000D03*
X113992000Y111258000D03*
X111452000Y111258000D03*
X108912000Y111258000D03*
X106372000Y111258000D03*
X103832000Y111258000D03*
X101292000Y111258000D03*
X98752000Y111258000D03*
X96212000Y111258000D03*
X93672000Y111258000D03*
X91132000Y111258000D03*
X88592000Y111258000D03*
X86052000Y111258000D03*
X83512000Y111258000D03*
X80972000Y111258000D03*
X78432000Y111258000D03*
X124152000Y108718000D03*
X121612000Y108718000D03*
X119072000Y108718000D03*
X116532000Y108718000D03*
X113992000Y108718000D03*
X111452000Y108718000D03*
X108912000Y108718000D03*
X106372000Y108718000D03*
X103832000Y108718000D03*
X101292000Y108718000D03*
X98752000Y108718000D03*
X96212000Y108718000D03*
X93672000Y108718000D03*
X91132000Y108718000D03*
X88592000Y108718000D03*
X86052000Y108718000D03*
X83512000Y108718000D03*
X80972000Y108718000D03*
X78432000Y108718000D03*
X124152000Y102668000D03*
X121612000Y102668000D03*
X119072000Y102668000D03*
X116532000Y102668000D03*
X113992000Y102668000D03*
X111452000Y102668000D03*
X108912000Y102668000D03*
X106372000Y102668000D03*
X103832000Y102668000D03*
X101292000Y102668000D03*
X98752000Y102668000D03*
X96212000Y102668000D03*
X93672000Y102668000D03*
X91132000Y102668000D03*
X88592000Y102668000D03*
X86052000Y102668000D03*
X83512000Y102668000D03*
X80972000Y102668000D03*
X78432000Y102668000D03*
X124152000Y100128000D03*
X121612000Y100128000D03*
X119072000Y100128000D03*
X116532000Y100128000D03*
X113992000Y100128000D03*
X111452000Y100128000D03*
X108912000Y100128000D03*
X106372000Y100128000D03*
X103832000Y100128000D03*
X101292000Y100128000D03*
X98752000Y100128000D03*
X96212000Y100128000D03*
X93672000Y100128000D03*
X91132000Y100128000D03*
X88592000Y100128000D03*
X86052000Y100128000D03*
X83512000Y100128000D03*
X80972000Y100128000D03*
X78432000Y100128000D03*
D11*
X132052000Y100128000D03*
X137852000Y100128000D03*
X134952000Y105928000D03*
X132052000Y108258000D03*
X137852000Y108258000D03*
D13*
X144952000Y113258000D03*
X70452000Y113258000D03*
X18252000Y113258000D03*
D14*
X20702000Y105458000D03*
X142502000Y105458000D03*
G04 #@! TD*
G04 #@! TO.C,U10*
G36*
G01*
X49140000Y60950000D02*
X48840000Y60950000D01*
G75*
G02*
X48690000Y61100000I0J150000D01*
G01*
X48690000Y62750000D01*
G75*
G02*
X48840000Y62900000I150000J0D01*
G01*
X49140000Y62900000D01*
G75*
G02*
X49290000Y62750000I0J-150000D01*
G01*
X49290000Y61100000D01*
G75*
G02*
X49140000Y60950000I-150000J0D01*
G01*
G37*
G36*
G01*
X50410000Y60950000D02*
X50110000Y60950000D01*
G75*
G02*
X49960000Y61100000I0J150000D01*
G01*
X49960000Y62750000D01*
G75*
G02*
X50110000Y62900000I150000J0D01*
G01*
X50410000Y62900000D01*
G75*
G02*
X50560000Y62750000I0J-150000D01*
G01*
X50560000Y61100000D01*
G75*
G02*
X50410000Y60950000I-150000J0D01*
G01*
G37*
G36*
G01*
X51680000Y60950000D02*
X51380000Y60950000D01*
G75*
G02*
X51230000Y61100000I0J150000D01*
G01*
X51230000Y62750000D01*
G75*
G02*
X51380000Y62900000I150000J0D01*
G01*
X51680000Y62900000D01*
G75*
G02*
X51830000Y62750000I0J-150000D01*
G01*
X51830000Y61100000D01*
G75*
G02*
X51680000Y60950000I-150000J0D01*
G01*
G37*
G36*
G01*
X52950000Y60950000D02*
X52650000Y60950000D01*
G75*
G02*
X52500000Y61100000I0J150000D01*
G01*
X52500000Y62750000D01*
G75*
G02*
X52650000Y62900000I150000J0D01*
G01*
X52950000Y62900000D01*
G75*
G02*
X53100000Y62750000I0J-150000D01*
G01*
X53100000Y61100000D01*
G75*
G02*
X52950000Y60950000I-150000J0D01*
G01*
G37*
G36*
G01*
X52950000Y65900000D02*
X52650000Y65900000D01*
G75*
G02*
X52500000Y66050000I0J150000D01*
G01*
X52500000Y67700000D01*
G75*
G02*
X52650000Y67850000I150000J0D01*
G01*
X52950000Y67850000D01*
G75*
G02*
X53100000Y67700000I0J-150000D01*
G01*
X53100000Y66050000D01*
G75*
G02*
X52950000Y65900000I-150000J0D01*
G01*
G37*
G36*
G01*
X51680000Y65900000D02*
X51380000Y65900000D01*
G75*
G02*
X51230000Y66050000I0J150000D01*
G01*
X51230000Y67700000D01*
G75*
G02*
X51380000Y67850000I150000J0D01*
G01*
X51680000Y67850000D01*
G75*
G02*
X51830000Y67700000I0J-150000D01*
G01*
X51830000Y66050000D01*
G75*
G02*
X51680000Y65900000I-150000J0D01*
G01*
G37*
G36*
G01*
X50410000Y65900000D02*
X50110000Y65900000D01*
G75*
G02*
X49960000Y66050000I0J150000D01*
G01*
X49960000Y67700000D01*
G75*
G02*
X50110000Y67850000I150000J0D01*
G01*
X50410000Y67850000D01*
G75*
G02*
X50560000Y67700000I0J-150000D01*
G01*
X50560000Y66050000D01*
G75*
G02*
X50410000Y65900000I-150000J0D01*
G01*
G37*
G36*
G01*
X49140000Y65900000D02*
X48840000Y65900000D01*
G75*
G02*
X48690000Y66050000I0J150000D01*
G01*
X48690000Y67700000D01*
G75*
G02*
X48840000Y67850000I150000J0D01*
G01*
X49140000Y67850000D01*
G75*
G02*
X49290000Y67700000I0J-150000D01*
G01*
X49290000Y66050000D01*
G75*
G02*
X49140000Y65900000I-150000J0D01*
G01*
G37*
G04 #@! TD*
D15*
G04 #@! TO.C,U3*
X107680000Y46362500D03*
X107680000Y23502500D03*
D16*
X105800000Y39875000D03*
X105800000Y30032500D03*
X104530000Y30032500D03*
X103260000Y30032500D03*
X101990000Y30032500D03*
D17*
X94980000Y41282500D03*
D16*
X101990000Y39875000D03*
X103260000Y39875000D03*
D17*
X94980000Y38742500D03*
D16*
X104530000Y39875000D03*
D17*
X94980000Y36202500D03*
X94980000Y33662500D03*
X94980000Y31122500D03*
X94980000Y28582500D03*
G04 #@! TD*
G04 #@! TO.C,U11*
G36*
G01*
X43140000Y60950000D02*
X42840000Y60950000D01*
G75*
G02*
X42690000Y61100000I0J150000D01*
G01*
X42690000Y62750000D01*
G75*
G02*
X42840000Y62900000I150000J0D01*
G01*
X43140000Y62900000D01*
G75*
G02*
X43290000Y62750000I0J-150000D01*
G01*
X43290000Y61100000D01*
G75*
G02*
X43140000Y60950000I-150000J0D01*
G01*
G37*
G36*
G01*
X44410000Y60950000D02*
X44110000Y60950000D01*
G75*
G02*
X43960000Y61100000I0J150000D01*
G01*
X43960000Y62750000D01*
G75*
G02*
X44110000Y62900000I150000J0D01*
G01*
X44410000Y62900000D01*
G75*
G02*
X44560000Y62750000I0J-150000D01*
G01*
X44560000Y61100000D01*
G75*
G02*
X44410000Y60950000I-150000J0D01*
G01*
G37*
G36*
G01*
X45680000Y60950000D02*
X45380000Y60950000D01*
G75*
G02*
X45230000Y61100000I0J150000D01*
G01*
X45230000Y62750000D01*
G75*
G02*
X45380000Y62900000I150000J0D01*
G01*
X45680000Y62900000D01*
G75*
G02*
X45830000Y62750000I0J-150000D01*
G01*
X45830000Y61100000D01*
G75*
G02*
X45680000Y60950000I-150000J0D01*
G01*
G37*
G36*
G01*
X46950000Y60950000D02*
X46650000Y60950000D01*
G75*
G02*
X46500000Y61100000I0J150000D01*
G01*
X46500000Y62750000D01*
G75*
G02*
X46650000Y62900000I150000J0D01*
G01*
X46950000Y62900000D01*
G75*
G02*
X47100000Y62750000I0J-150000D01*
G01*
X47100000Y61100000D01*
G75*
G02*
X46950000Y60950000I-150000J0D01*
G01*
G37*
G36*
G01*
X46950000Y65900000D02*
X46650000Y65900000D01*
G75*
G02*
X46500000Y66050000I0J150000D01*
G01*
X46500000Y67700000D01*
G75*
G02*
X46650000Y67850000I150000J0D01*
G01*
X46950000Y67850000D01*
G75*
G02*
X47100000Y67700000I0J-150000D01*
G01*
X47100000Y66050000D01*
G75*
G02*
X46950000Y65900000I-150000J0D01*
G01*
G37*
G36*
G01*
X45680000Y65900000D02*
X45380000Y65900000D01*
G75*
G02*
X45230000Y66050000I0J150000D01*
G01*
X45230000Y67700000D01*
G75*
G02*
X45380000Y67850000I150000J0D01*
G01*
X45680000Y67850000D01*
G75*
G02*
X45830000Y67700000I0J-150000D01*
G01*
X45830000Y66050000D01*
G75*
G02*
X45680000Y65900000I-150000J0D01*
G01*
G37*
G36*
G01*
X44410000Y65900000D02*
X44110000Y65900000D01*
G75*
G02*
X43960000Y66050000I0J150000D01*
G01*
X43960000Y67700000D01*
G75*
G02*
X44110000Y67850000I150000J0D01*
G01*
X44410000Y67850000D01*
G75*
G02*
X44560000Y67700000I0J-150000D01*
G01*
X44560000Y66050000D01*
G75*
G02*
X44410000Y65900000I-150000J0D01*
G01*
G37*
G36*
G01*
X43140000Y65900000D02*
X42840000Y65900000D01*
G75*
G02*
X42690000Y66050000I0J150000D01*
G01*
X42690000Y67700000D01*
G75*
G02*
X42840000Y67850000I150000J0D01*
G01*
X43140000Y67850000D01*
G75*
G02*
X43290000Y67700000I0J-150000D01*
G01*
X43290000Y66050000D01*
G75*
G02*
X43140000Y65900000I-150000J0D01*
G01*
G37*
G04 #@! TD*
G04 #@! TO.C,U4*
G36*
G01*
X67140000Y60900000D02*
X66840000Y60900000D01*
G75*
G02*
X66690000Y61050000I0J150000D01*
G01*
X66690000Y62700000D01*
G75*
G02*
X66840000Y62850000I150000J0D01*
G01*
X67140000Y62850000D01*
G75*
G02*
X67290000Y62700000I0J-150000D01*
G01*
X67290000Y61050000D01*
G75*
G02*
X67140000Y60900000I-150000J0D01*
G01*
G37*
G36*
G01*
X68410000Y60900000D02*
X68110000Y60900000D01*
G75*
G02*
X67960000Y61050000I0J150000D01*
G01*
X67960000Y62700000D01*
G75*
G02*
X68110000Y62850000I150000J0D01*
G01*
X68410000Y62850000D01*
G75*
G02*
X68560000Y62700000I0J-150000D01*
G01*
X68560000Y61050000D01*
G75*
G02*
X68410000Y60900000I-150000J0D01*
G01*
G37*
G36*
G01*
X69680000Y60900000D02*
X69380000Y60900000D01*
G75*
G02*
X69230000Y61050000I0J150000D01*
G01*
X69230000Y62700000D01*
G75*
G02*
X69380000Y62850000I150000J0D01*
G01*
X69680000Y62850000D01*
G75*
G02*
X69830000Y62700000I0J-150000D01*
G01*
X69830000Y61050000D01*
G75*
G02*
X69680000Y60900000I-150000J0D01*
G01*
G37*
G36*
G01*
X70950000Y60900000D02*
X70650000Y60900000D01*
G75*
G02*
X70500000Y61050000I0J150000D01*
G01*
X70500000Y62700000D01*
G75*
G02*
X70650000Y62850000I150000J0D01*
G01*
X70950000Y62850000D01*
G75*
G02*
X71100000Y62700000I0J-150000D01*
G01*
X71100000Y61050000D01*
G75*
G02*
X70950000Y60900000I-150000J0D01*
G01*
G37*
G36*
G01*
X70950000Y65850000D02*
X70650000Y65850000D01*
G75*
G02*
X70500000Y66000000I0J150000D01*
G01*
X70500000Y67650000D01*
G75*
G02*
X70650000Y67800000I150000J0D01*
G01*
X70950000Y67800000D01*
G75*
G02*
X71100000Y67650000I0J-150000D01*
G01*
X71100000Y66000000D01*
G75*
G02*
X70950000Y65850000I-150000J0D01*
G01*
G37*
G36*
G01*
X69680000Y65850000D02*
X69380000Y65850000D01*
G75*
G02*
X69230000Y66000000I0J150000D01*
G01*
X69230000Y67650000D01*
G75*
G02*
X69380000Y67800000I150000J0D01*
G01*
X69680000Y67800000D01*
G75*
G02*
X69830000Y67650000I0J-150000D01*
G01*
X69830000Y66000000D01*
G75*
G02*
X69680000Y65850000I-150000J0D01*
G01*
G37*
G36*
G01*
X68410000Y65850000D02*
X68110000Y65850000D01*
G75*
G02*
X67960000Y66000000I0J150000D01*
G01*
X67960000Y67650000D01*
G75*
G02*
X68110000Y67800000I150000J0D01*
G01*
X68410000Y67800000D01*
G75*
G02*
X68560000Y67650000I0J-150000D01*
G01*
X68560000Y66000000D01*
G75*
G02*
X68410000Y65850000I-150000J0D01*
G01*
G37*
G36*
G01*
X67140000Y65850000D02*
X66840000Y65850000D01*
G75*
G02*
X66690000Y66000000I0J150000D01*
G01*
X66690000Y67650000D01*
G75*
G02*
X66840000Y67800000I150000J0D01*
G01*
X67140000Y67800000D01*
G75*
G02*
X67290000Y67650000I0J-150000D01*
G01*
X67290000Y66000000D01*
G75*
G02*
X67140000Y65850000I-150000J0D01*
G01*
G37*
G04 #@! TD*
G04 #@! TO.C,U9*
G36*
G01*
X55045000Y65900000D02*
X54745000Y65900000D01*
G75*
G02*
X54595000Y66050000I0J150000D01*
G01*
X54595000Y67700000D01*
G75*
G02*
X54745000Y67850000I150000J0D01*
G01*
X55045000Y67850000D01*
G75*
G02*
X55195000Y67700000I0J-150000D01*
G01*
X55195000Y66050000D01*
G75*
G02*
X55045000Y65900000I-150000J0D01*
G01*
G37*
G36*
G01*
X56315000Y65900000D02*
X56015000Y65900000D01*
G75*
G02*
X55865000Y66050000I0J150000D01*
G01*
X55865000Y67700000D01*
G75*
G02*
X56015000Y67850000I150000J0D01*
G01*
X56315000Y67850000D01*
G75*
G02*
X56465000Y67700000I0J-150000D01*
G01*
X56465000Y66050000D01*
G75*
G02*
X56315000Y65900000I-150000J0D01*
G01*
G37*
G36*
G01*
X57585000Y65900000D02*
X57285000Y65900000D01*
G75*
G02*
X57135000Y66050000I0J150000D01*
G01*
X57135000Y67700000D01*
G75*
G02*
X57285000Y67850000I150000J0D01*
G01*
X57585000Y67850000D01*
G75*
G02*
X57735000Y67700000I0J-150000D01*
G01*
X57735000Y66050000D01*
G75*
G02*
X57585000Y65900000I-150000J0D01*
G01*
G37*
G36*
G01*
X58855000Y65900000D02*
X58555000Y65900000D01*
G75*
G02*
X58405000Y66050000I0J150000D01*
G01*
X58405000Y67700000D01*
G75*
G02*
X58555000Y67850000I150000J0D01*
G01*
X58855000Y67850000D01*
G75*
G02*
X59005000Y67700000I0J-150000D01*
G01*
X59005000Y66050000D01*
G75*
G02*
X58855000Y65900000I-150000J0D01*
G01*
G37*
G36*
G01*
X58855000Y60950000D02*
X58555000Y60950000D01*
G75*
G02*
X58405000Y61100000I0J150000D01*
G01*
X58405000Y62750000D01*
G75*
G02*
X58555000Y62900000I150000J0D01*
G01*
X58855000Y62900000D01*
G75*
G02*
X59005000Y62750000I0J-150000D01*
G01*
X59005000Y61100000D01*
G75*
G02*
X58855000Y60950000I-150000J0D01*
G01*
G37*
G36*
G01*
X57585000Y60950000D02*
X57285000Y60950000D01*
G75*
G02*
X57135000Y61100000I0J150000D01*
G01*
X57135000Y62750000D01*
G75*
G02*
X57285000Y62900000I150000J0D01*
G01*
X57585000Y62900000D01*
G75*
G02*
X57735000Y62750000I0J-150000D01*
G01*
X57735000Y61100000D01*
G75*
G02*
X57585000Y60950000I-150000J0D01*
G01*
G37*
G36*
G01*
X56315000Y60950000D02*
X56015000Y60950000D01*
G75*
G02*
X55865000Y61100000I0J150000D01*
G01*
X55865000Y62750000D01*
G75*
G02*
X56015000Y62900000I150000J0D01*
G01*
X56315000Y62900000D01*
G75*
G02*
X56465000Y62750000I0J-150000D01*
G01*
X56465000Y61100000D01*
G75*
G02*
X56315000Y60950000I-150000J0D01*
G01*
G37*
G36*
G01*
X55045000Y60950000D02*
X54745000Y60950000D01*
G75*
G02*
X54595000Y61100000I0J150000D01*
G01*
X54595000Y62750000D01*
G75*
G02*
X54745000Y62900000I150000J0D01*
G01*
X55045000Y62900000D01*
G75*
G02*
X55195000Y62750000I0J-150000D01*
G01*
X55195000Y61100000D01*
G75*
G02*
X55045000Y60950000I-150000J0D01*
G01*
G37*
G04 #@! TD*
G04 #@! TO.C,U6*
G36*
G01*
X61045000Y60950000D02*
X60745000Y60950000D01*
G75*
G02*
X60595000Y61100000I0J150000D01*
G01*
X60595000Y62750000D01*
G75*
G02*
X60745000Y62900000I150000J0D01*
G01*
X61045000Y62900000D01*
G75*
G02*
X61195000Y62750000I0J-150000D01*
G01*
X61195000Y61100000D01*
G75*
G02*
X61045000Y60950000I-150000J0D01*
G01*
G37*
G36*
G01*
X62315000Y60950000D02*
X62015000Y60950000D01*
G75*
G02*
X61865000Y61100000I0J150000D01*
G01*
X61865000Y62750000D01*
G75*
G02*
X62015000Y62900000I150000J0D01*
G01*
X62315000Y62900000D01*
G75*
G02*
X62465000Y62750000I0J-150000D01*
G01*
X62465000Y61100000D01*
G75*
G02*
X62315000Y60950000I-150000J0D01*
G01*
G37*
G36*
G01*
X63585000Y60950000D02*
X63285000Y60950000D01*
G75*
G02*
X63135000Y61100000I0J150000D01*
G01*
X63135000Y62750000D01*
G75*
G02*
X63285000Y62900000I150000J0D01*
G01*
X63585000Y62900000D01*
G75*
G02*
X63735000Y62750000I0J-150000D01*
G01*
X63735000Y61100000D01*
G75*
G02*
X63585000Y60950000I-150000J0D01*
G01*
G37*
G36*
G01*
X64855000Y60950000D02*
X64555000Y60950000D01*
G75*
G02*
X64405000Y61100000I0J150000D01*
G01*
X64405000Y62750000D01*
G75*
G02*
X64555000Y62900000I150000J0D01*
G01*
X64855000Y62900000D01*
G75*
G02*
X65005000Y62750000I0J-150000D01*
G01*
X65005000Y61100000D01*
G75*
G02*
X64855000Y60950000I-150000J0D01*
G01*
G37*
G36*
G01*
X64855000Y65900000D02*
X64555000Y65900000D01*
G75*
G02*
X64405000Y66050000I0J150000D01*
G01*
X64405000Y67700000D01*
G75*
G02*
X64555000Y67850000I150000J0D01*
G01*
X64855000Y67850000D01*
G75*
G02*
X65005000Y67700000I0J-150000D01*
G01*
X65005000Y66050000D01*
G75*
G02*
X64855000Y65900000I-150000J0D01*
G01*
G37*
G36*
G01*
X63585000Y65900000D02*
X63285000Y65900000D01*
G75*
G02*
X63135000Y66050000I0J150000D01*
G01*
X63135000Y67700000D01*
G75*
G02*
X63285000Y67850000I150000J0D01*
G01*
X63585000Y67850000D01*
G75*
G02*
X63735000Y67700000I0J-150000D01*
G01*
X63735000Y66050000D01*
G75*
G02*
X63585000Y65900000I-150000J0D01*
G01*
G37*
G36*
G01*
X62315000Y65900000D02*
X62015000Y65900000D01*
G75*
G02*
X61865000Y66050000I0J150000D01*
G01*
X61865000Y67700000D01*
G75*
G02*
X62015000Y67850000I150000J0D01*
G01*
X62315000Y67850000D01*
G75*
G02*
X62465000Y67700000I0J-150000D01*
G01*
X62465000Y66050000D01*
G75*
G02*
X62315000Y65900000I-150000J0D01*
G01*
G37*
G36*
G01*
X61045000Y65900000D02*
X60745000Y65900000D01*
G75*
G02*
X60595000Y66050000I0J150000D01*
G01*
X60595000Y67700000D01*
G75*
G02*
X60745000Y67850000I150000J0D01*
G01*
X61045000Y67850000D01*
G75*
G02*
X61195000Y67700000I0J-150000D01*
G01*
X61195000Y66050000D01*
G75*
G02*
X61045000Y65900000I-150000J0D01*
G01*
G37*
G04 #@! TD*
G04 #@! TO.C,U8*
G36*
G01*
X73140000Y60790000D02*
X72840000Y60790000D01*
G75*
G02*
X72690000Y60940000I0J150000D01*
G01*
X72690000Y62590000D01*
G75*
G02*
X72840000Y62740000I150000J0D01*
G01*
X73140000Y62740000D01*
G75*
G02*
X73290000Y62590000I0J-150000D01*
G01*
X73290000Y60940000D01*
G75*
G02*
X73140000Y60790000I-150000J0D01*
G01*
G37*
G36*
G01*
X74410000Y60790000D02*
X74110000Y60790000D01*
G75*
G02*
X73960000Y60940000I0J150000D01*
G01*
X73960000Y62590000D01*
G75*
G02*
X74110000Y62740000I150000J0D01*
G01*
X74410000Y62740000D01*
G75*
G02*
X74560000Y62590000I0J-150000D01*
G01*
X74560000Y60940000D01*
G75*
G02*
X74410000Y60790000I-150000J0D01*
G01*
G37*
G36*
G01*
X75680000Y60790000D02*
X75380000Y60790000D01*
G75*
G02*
X75230000Y60940000I0J150000D01*
G01*
X75230000Y62590000D01*
G75*
G02*
X75380000Y62740000I150000J0D01*
G01*
X75680000Y62740000D01*
G75*
G02*
X75830000Y62590000I0J-150000D01*
G01*
X75830000Y60940000D01*
G75*
G02*
X75680000Y60790000I-150000J0D01*
G01*
G37*
G36*
G01*
X76950000Y60790000D02*
X76650000Y60790000D01*
G75*
G02*
X76500000Y60940000I0J150000D01*
G01*
X76500000Y62590000D01*
G75*
G02*
X76650000Y62740000I150000J0D01*
G01*
X76950000Y62740000D01*
G75*
G02*
X77100000Y62590000I0J-150000D01*
G01*
X77100000Y60940000D01*
G75*
G02*
X76950000Y60790000I-150000J0D01*
G01*
G37*
G36*
G01*
X76950000Y65740000D02*
X76650000Y65740000D01*
G75*
G02*
X76500000Y65890000I0J150000D01*
G01*
X76500000Y67540000D01*
G75*
G02*
X76650000Y67690000I150000J0D01*
G01*
X76950000Y67690000D01*
G75*
G02*
X77100000Y67540000I0J-150000D01*
G01*
X77100000Y65890000D01*
G75*
G02*
X76950000Y65740000I-150000J0D01*
G01*
G37*
G36*
G01*
X75680000Y65740000D02*
X75380000Y65740000D01*
G75*
G02*
X75230000Y65890000I0J150000D01*
G01*
X75230000Y67540000D01*
G75*
G02*
X75380000Y67690000I150000J0D01*
G01*
X75680000Y67690000D01*
G75*
G02*
X75830000Y67540000I0J-150000D01*
G01*
X75830000Y65890000D01*
G75*
G02*
X75680000Y65740000I-150000J0D01*
G01*
G37*
G36*
G01*
X74410000Y65740000D02*
X74110000Y65740000D01*
G75*
G02*
X73960000Y65890000I0J150000D01*
G01*
X73960000Y67540000D01*
G75*
G02*
X74110000Y67690000I150000J0D01*
G01*
X74410000Y67690000D01*
G75*
G02*
X74560000Y67540000I0J-150000D01*
G01*
X74560000Y65890000D01*
G75*
G02*
X74410000Y65740000I-150000J0D01*
G01*
G37*
G36*
G01*
X73140000Y65740000D02*
X72840000Y65740000D01*
G75*
G02*
X72690000Y65890000I0J150000D01*
G01*
X72690000Y67540000D01*
G75*
G02*
X72840000Y67690000I150000J0D01*
G01*
X73140000Y67690000D01*
G75*
G02*
X73290000Y67540000I0J-150000D01*
G01*
X73290000Y65890000D01*
G75*
G02*
X73140000Y65740000I-150000J0D01*
G01*
G37*
G04 #@! TD*
D18*
G04 #@! TO.C,U5*
X136650000Y27050000D03*
X136650000Y28550000D03*
X136650000Y30050000D03*
X136650000Y31550000D03*
X136650000Y33050000D03*
X136650000Y34550000D03*
X136650000Y36050000D03*
X136650000Y37550000D03*
X136650000Y39050000D03*
X136650000Y40550000D03*
X136650000Y42050000D03*
X136650000Y43550000D03*
X136650000Y45050000D03*
X123950000Y45050000D03*
X123950000Y43550000D03*
X123950000Y42050000D03*
X123950000Y40550000D03*
X123950000Y39050000D03*
X123950000Y37550000D03*
X123950000Y36050000D03*
X123950000Y34550000D03*
X123950000Y33050000D03*
X123950000Y31550000D03*
X123950000Y30050000D03*
X123950000Y28550000D03*
X123950000Y27050000D03*
G04 #@! TD*
D19*
G04 #@! TO.C,U1*
X111700000Y83375000D03*
X111700000Y82375000D03*
X111700000Y81375000D03*
X111700000Y80375000D03*
X111700000Y79375000D03*
X111700000Y78375000D03*
X121300000Y78375000D03*
X121300000Y79375000D03*
X121300000Y80375000D03*
X121300000Y81375000D03*
X121300000Y82375000D03*
X121300000Y83375000D03*
D20*
X116500000Y80875000D03*
G04 #@! TD*
D19*
G04 #@! TO.C,U2*
X111700000Y72375000D03*
X111700000Y71375000D03*
X111700000Y70375000D03*
X111700000Y69375000D03*
X111700000Y68375000D03*
X111700000Y67375000D03*
X121300000Y67375000D03*
X121300000Y68375000D03*
X121300000Y69375000D03*
X121300000Y70375000D03*
X121300000Y71375000D03*
X121300000Y72375000D03*
D20*
X116500000Y69875000D03*
G04 #@! TD*
G04 #@! TO.C,Q9*
G36*
G01*
X63870000Y74235000D02*
X63170000Y74235000D01*
G75*
G02*
X62920000Y74485000I0J250000D01*
G01*
X62920000Y76185000D01*
G75*
G02*
X63170000Y76435000I250000J0D01*
G01*
X63870000Y76435000D01*
G75*
G02*
X64120000Y76185000I0J-250000D01*
G01*
X64120000Y74485000D01*
G75*
G02*
X63870000Y74235000I-250000J0D01*
G01*
G37*
G36*
G01*
X68450003Y78435000D02*
X63149997Y78435000D01*
G75*
G02*
X62900000Y78684997I0J249997D01*
G01*
X62900000Y84585003D01*
G75*
G02*
X63149997Y84835000I249997J0D01*
G01*
X68450003Y84835000D01*
G75*
G02*
X68700000Y84585003I0J-249997D01*
G01*
X68700000Y78684997D01*
G75*
G02*
X68450003Y78435000I-249997J0D01*
G01*
G37*
G36*
G01*
X68430000Y74235000D02*
X67730000Y74235000D01*
G75*
G02*
X67480000Y74485000I0J250000D01*
G01*
X67480000Y76185000D01*
G75*
G02*
X67730000Y76435000I250000J0D01*
G01*
X68430000Y76435000D01*
G75*
G02*
X68680000Y76185000I0J-250000D01*
G01*
X68680000Y74485000D01*
G75*
G02*
X68430000Y74235000I-250000J0D01*
G01*
G37*
G04 #@! TD*
G04 #@! TO.C,Q11*
G36*
G01*
X49870000Y74235000D02*
X49170000Y74235000D01*
G75*
G02*
X48920000Y74485000I0J250000D01*
G01*
X48920000Y76185000D01*
G75*
G02*
X49170000Y76435000I250000J0D01*
G01*
X49870000Y76435000D01*
G75*
G02*
X50120000Y76185000I0J-250000D01*
G01*
X50120000Y74485000D01*
G75*
G02*
X49870000Y74235000I-250000J0D01*
G01*
G37*
G36*
G01*
X54450003Y78435000D02*
X49149997Y78435000D01*
G75*
G02*
X48900000Y78684997I0J249997D01*
G01*
X48900000Y84585003D01*
G75*
G02*
X49149997Y84835000I249997J0D01*
G01*
X54450003Y84835000D01*
G75*
G02*
X54700000Y84585003I0J-249997D01*
G01*
X54700000Y78684997D01*
G75*
G02*
X54450003Y78435000I-249997J0D01*
G01*
G37*
G36*
G01*
X54430000Y74235000D02*
X53730000Y74235000D01*
G75*
G02*
X53480000Y74485000I0J250000D01*
G01*
X53480000Y76185000D01*
G75*
G02*
X53730000Y76435000I250000J0D01*
G01*
X54430000Y76435000D01*
G75*
G02*
X54680000Y76185000I0J-250000D01*
G01*
X54680000Y74485000D01*
G75*
G02*
X54430000Y74235000I-250000J0D01*
G01*
G37*
G04 #@! TD*
D21*
G04 #@! TO.C,M4*
X105425000Y70550000D03*
X104225000Y70550000D03*
X106625000Y70550000D03*
X107825000Y70550000D03*
X101365000Y84975000D03*
X100365000Y84975000D03*
G04 #@! TD*
D22*
G04 #@! TO.C,J6*
X136420000Y53875000D03*
D23*
X133880000Y53875000D03*
X131340000Y53875000D03*
X128800000Y53875000D03*
X126260000Y53875000D03*
X123720000Y53875000D03*
G04 #@! TD*
G04 #@! TO.C,Q8*
G36*
G01*
X70870000Y74235000D02*
X70170000Y74235000D01*
G75*
G02*
X69920000Y74485000I0J250000D01*
G01*
X69920000Y76185000D01*
G75*
G02*
X70170000Y76435000I250000J0D01*
G01*
X70870000Y76435000D01*
G75*
G02*
X71120000Y76185000I0J-250000D01*
G01*
X71120000Y74485000D01*
G75*
G02*
X70870000Y74235000I-250000J0D01*
G01*
G37*
G36*
G01*
X75450003Y78435000D02*
X70149997Y78435000D01*
G75*
G02*
X69900000Y78684997I0J249997D01*
G01*
X69900000Y84585003D01*
G75*
G02*
X70149997Y84835000I249997J0D01*
G01*
X75450003Y84835000D01*
G75*
G02*
X75700000Y84585003I0J-249997D01*
G01*
X75700000Y78684997D01*
G75*
G02*
X75450003Y78435000I-249997J0D01*
G01*
G37*
G36*
G01*
X75430000Y74235000D02*
X74730000Y74235000D01*
G75*
G02*
X74480000Y74485000I0J250000D01*
G01*
X74480000Y76185000D01*
G75*
G02*
X74730000Y76435000I250000J0D01*
G01*
X75430000Y76435000D01*
G75*
G02*
X75680000Y76185000I0J-250000D01*
G01*
X75680000Y74485000D01*
G75*
G02*
X75430000Y74235000I-250000J0D01*
G01*
G37*
G04 #@! TD*
D21*
G04 #@! TO.C,M3*
X93550000Y70650000D03*
X92350000Y70650000D03*
X94750000Y70650000D03*
X95950000Y70650000D03*
X89490000Y85075000D03*
X88490000Y85075000D03*
G04 #@! TD*
G04 #@! TO.C,Q7*
G36*
G01*
X82430000Y74235000D02*
X81730000Y74235000D01*
G75*
G02*
X81480000Y74485000I0J250000D01*
G01*
X81480000Y76185000D01*
G75*
G02*
X81730000Y76435000I250000J0D01*
G01*
X82430000Y76435000D01*
G75*
G02*
X82680000Y76185000I0J-250000D01*
G01*
X82680000Y74485000D01*
G75*
G02*
X82430000Y74235000I-250000J0D01*
G01*
G37*
G36*
G01*
X82450003Y78435000D02*
X77149997Y78435000D01*
G75*
G02*
X76900000Y78684997I0J249997D01*
G01*
X76900000Y84585003D01*
G75*
G02*
X77149997Y84835000I249997J0D01*
G01*
X82450003Y84835000D01*
G75*
G02*
X82700000Y84585003I0J-249997D01*
G01*
X82700000Y78684997D01*
G75*
G02*
X82450003Y78435000I-249997J0D01*
G01*
G37*
G36*
G01*
X77870000Y74235000D02*
X77170000Y74235000D01*
G75*
G02*
X76920000Y74485000I0J250000D01*
G01*
X76920000Y76185000D01*
G75*
G02*
X77170000Y76435000I250000J0D01*
G01*
X77870000Y76435000D01*
G75*
G02*
X78120000Y76185000I0J-250000D01*
G01*
X78120000Y74485000D01*
G75*
G02*
X77870000Y74235000I-250000J0D01*
G01*
G37*
G04 #@! TD*
D24*
G04 #@! TO.C,P2*
X32800000Y28775000D03*
G04 #@! TD*
G04 #@! TO.C,P1*
X32800000Y25875000D03*
G04 #@! TD*
G04 #@! TO.C,J7*
G36*
G01*
X34450000Y17700000D02*
X34450000Y19050000D01*
G75*
G02*
X34700000Y19300000I250000J0D01*
G01*
X35900000Y19300000D01*
G75*
G02*
X36150000Y19050000I0J-250000D01*
G01*
X36150000Y17700000D01*
G75*
G02*
X35900000Y17450000I-250000J0D01*
G01*
X34700000Y17450000D01*
G75*
G02*
X34450000Y17700000I0J250000D01*
G01*
G37*
D25*
X37800000Y18375000D03*
X40300000Y18375000D03*
X42800000Y18375000D03*
X45300000Y18375000D03*
G04 #@! TD*
D26*
G04 #@! TO.C,J8*
X54050000Y18975000D03*
D27*
X52300000Y19775000D03*
X54050000Y20575000D03*
X52300000Y21375000D03*
X54050000Y22175000D03*
D28*
X53175000Y16925000D03*
X53175000Y24225000D03*
G04 #@! TD*
D12*
G04 #@! TO.C,M1*
X49049996Y52699999D03*
X49049996Y46300002D03*
X49049996Y44399999D03*
X49049996Y40099999D03*
D21*
X49499995Y37700002D03*
X49499995Y36700001D03*
D12*
X49049996Y33849999D03*
X33549999Y53150001D03*
X33549999Y51300002D03*
X33549999Y46349999D03*
X33549999Y34300001D03*
G04 #@! TD*
G04 #@! TO.C,Q12*
G36*
G01*
X42870000Y74235000D02*
X42170000Y74235000D01*
G75*
G02*
X41920000Y74485000I0J250000D01*
G01*
X41920000Y76185000D01*
G75*
G02*
X42170000Y76435000I250000J0D01*
G01*
X42870000Y76435000D01*
G75*
G02*
X43120000Y76185000I0J-250000D01*
G01*
X43120000Y74485000D01*
G75*
G02*
X42870000Y74235000I-250000J0D01*
G01*
G37*
G36*
G01*
X47450003Y78435000D02*
X42149997Y78435000D01*
G75*
G02*
X41900000Y78684997I0J249997D01*
G01*
X41900000Y84585003D01*
G75*
G02*
X42149997Y84835000I249997J0D01*
G01*
X47450003Y84835000D01*
G75*
G02*
X47700000Y84585003I0J-249997D01*
G01*
X47700000Y78684997D01*
G75*
G02*
X47450003Y78435000I-249997J0D01*
G01*
G37*
G36*
G01*
X47430000Y74235000D02*
X46730000Y74235000D01*
G75*
G02*
X46480000Y74485000I0J250000D01*
G01*
X46480000Y76185000D01*
G75*
G02*
X46730000Y76435000I250000J0D01*
G01*
X47430000Y76435000D01*
G75*
G02*
X47680000Y76185000I0J-250000D01*
G01*
X47680000Y74485000D01*
G75*
G02*
X47430000Y74235000I-250000J0D01*
G01*
G37*
G04 #@! TD*
D29*
G04 #@! TO.C,M7*
X43549998Y30699998D03*
X43625001Y27149997D03*
X42449997Y26399999D03*
X43324999Y25874999D03*
D30*
X36775002Y24825001D03*
X36275001Y24825001D03*
D31*
X46624995Y24775003D03*
G04 #@! TD*
G04 #@! TO.C,U7*
G36*
G01*
X78950000Y60832298D02*
X78650000Y60832298D01*
G75*
G02*
X78500000Y60982298I0J150000D01*
G01*
X78500000Y62632298D01*
G75*
G02*
X78650000Y62782298I150000J0D01*
G01*
X78950000Y62782298D01*
G75*
G02*
X79100000Y62632298I0J-150000D01*
G01*
X79100000Y60982298D01*
G75*
G02*
X78950000Y60832298I-150000J0D01*
G01*
G37*
G36*
G01*
X80220000Y60832298D02*
X79920000Y60832298D01*
G75*
G02*
X79770000Y60982298I0J150000D01*
G01*
X79770000Y62632298D01*
G75*
G02*
X79920000Y62782298I150000J0D01*
G01*
X80220000Y62782298D01*
G75*
G02*
X80370000Y62632298I0J-150000D01*
G01*
X80370000Y60982298D01*
G75*
G02*
X80220000Y60832298I-150000J0D01*
G01*
G37*
G36*
G01*
X81490000Y60832298D02*
X81190000Y60832298D01*
G75*
G02*
X81040000Y60982298I0J150000D01*
G01*
X81040000Y62632298D01*
G75*
G02*
X81190000Y62782298I150000J0D01*
G01*
X81490000Y62782298D01*
G75*
G02*
X81640000Y62632298I0J-150000D01*
G01*
X81640000Y60982298D01*
G75*
G02*
X81490000Y60832298I-150000J0D01*
G01*
G37*
G36*
G01*
X82760000Y60832298D02*
X82460000Y60832298D01*
G75*
G02*
X82310000Y60982298I0J150000D01*
G01*
X82310000Y62632298D01*
G75*
G02*
X82460000Y62782298I150000J0D01*
G01*
X82760000Y62782298D01*
G75*
G02*
X82910000Y62632298I0J-150000D01*
G01*
X82910000Y60982298D01*
G75*
G02*
X82760000Y60832298I-150000J0D01*
G01*
G37*
G36*
G01*
X82760000Y65782298D02*
X82460000Y65782298D01*
G75*
G02*
X82310000Y65932298I0J150000D01*
G01*
X82310000Y67582298D01*
G75*
G02*
X82460000Y67732298I150000J0D01*
G01*
X82760000Y67732298D01*
G75*
G02*
X82910000Y67582298I0J-150000D01*
G01*
X82910000Y65932298D01*
G75*
G02*
X82760000Y65782298I-150000J0D01*
G01*
G37*
G36*
G01*
X81490000Y65782298D02*
X81190000Y65782298D01*
G75*
G02*
X81040000Y65932298I0J150000D01*
G01*
X81040000Y67582298D01*
G75*
G02*
X81190000Y67732298I150000J0D01*
G01*
X81490000Y67732298D01*
G75*
G02*
X81640000Y67582298I0J-150000D01*
G01*
X81640000Y65932298D01*
G75*
G02*
X81490000Y65782298I-150000J0D01*
G01*
G37*
G36*
G01*
X80220000Y65782298D02*
X79920000Y65782298D01*
G75*
G02*
X79770000Y65932298I0J150000D01*
G01*
X79770000Y67582298D01*
G75*
G02*
X79920000Y67732298I150000J0D01*
G01*
X80220000Y67732298D01*
G75*
G02*
X80370000Y67582298I0J-150000D01*
G01*
X80370000Y65932298D01*
G75*
G02*
X80220000Y65782298I-150000J0D01*
G01*
G37*
G36*
G01*
X78950000Y65782298D02*
X78650000Y65782298D01*
G75*
G02*
X78500000Y65932298I0J150000D01*
G01*
X78500000Y67582298D01*
G75*
G02*
X78650000Y67732298I150000J0D01*
G01*
X78950000Y67732298D01*
G75*
G02*
X79100000Y67582298I0J-150000D01*
G01*
X79100000Y65932298D01*
G75*
G02*
X78950000Y65782298I-150000J0D01*
G01*
G37*
G04 #@! TD*
G04 #@! TO.C,Q10*
G36*
G01*
X56870000Y74235000D02*
X56170000Y74235000D01*
G75*
G02*
X55920000Y74485000I0J250000D01*
G01*
X55920000Y76185000D01*
G75*
G02*
X56170000Y76435000I250000J0D01*
G01*
X56870000Y76435000D01*
G75*
G02*
X57120000Y76185000I0J-250000D01*
G01*
X57120000Y74485000D01*
G75*
G02*
X56870000Y74235000I-250000J0D01*
G01*
G37*
G36*
G01*
X61450003Y78435000D02*
X56149997Y78435000D01*
G75*
G02*
X55900000Y78684997I0J249997D01*
G01*
X55900000Y84585003D01*
G75*
G02*
X56149997Y84835000I249997J0D01*
G01*
X61450003Y84835000D01*
G75*
G02*
X61700000Y84585003I0J-249997D01*
G01*
X61700000Y78684997D01*
G75*
G02*
X61450003Y78435000I-249997J0D01*
G01*
G37*
G36*
G01*
X61430000Y74235000D02*
X60730000Y74235000D01*
G75*
G02*
X60480000Y74485000I0J250000D01*
G01*
X60480000Y76185000D01*
G75*
G02*
X60730000Y76435000I250000J0D01*
G01*
X61430000Y76435000D01*
G75*
G02*
X61680000Y76185000I0J-250000D01*
G01*
X61680000Y74485000D01*
G75*
G02*
X61430000Y74235000I-250000J0D01*
G01*
G37*
G04 #@! TD*
G36*
X5501971Y105950547D02*
G01*
X5560055Y105931315D01*
X5595742Y105881615D01*
X5600418Y105851549D01*
X5600025Y19072856D01*
X5717751Y19052674D01*
X5771911Y19024206D01*
X5798994Y18969341D01*
X5800024Y18955097D01*
X5800000Y13436156D01*
X5797517Y13414124D01*
X5795561Y13405555D01*
X5764178Y13353032D01*
X5707916Y13328985D01*
X5673420Y13331961D01*
X5607174Y13349712D01*
X5555860Y13383036D01*
X5543539Y13415133D01*
X5533713Y13425000D01*
X5274144Y13425000D01*
X5254830Y13426902D01*
X4926455Y13492220D01*
X4926449Y13492221D01*
X4342405Y13569112D01*
X3754567Y13607640D01*
X3754557Y13607641D01*
X3459978Y13609999D01*
X1055221Y13609999D01*
X997030Y13628906D01*
X985217Y13638995D01*
X-171004Y14795216D01*
X-198781Y14849733D01*
X-200000Y14865220D01*
X-200000Y38500999D01*
X-181093Y38559190D01*
X-131593Y38595154D01*
X-101000Y38599999D01*
X1899995Y38599999D01*
X2024083Y38602562D01*
X2268855Y38643407D01*
X2503579Y38723987D01*
X2721829Y38842099D01*
X2721832Y38842101D01*
X2917660Y38994520D01*
X3085740Y39177103D01*
X3221472Y39384858D01*
X3321157Y39612116D01*
X3382078Y39852687D01*
X3402571Y40100000D01*
X3382078Y40347314D01*
X3321157Y40587885D01*
X3221472Y40815143D01*
X3085740Y41022898D01*
X2917660Y41205481D01*
X2721832Y41357900D01*
X2721829Y41357902D01*
X2503579Y41476014D01*
X2268855Y41556594D01*
X2024082Y41597439D01*
X1899997Y41599999D01*
X-101000Y41599999D01*
X-159191Y41618906D01*
X-195155Y41668406D01*
X-200000Y41698999D01*
X-200000Y104535571D01*
X-181093Y104593762D01*
X-172892Y104603633D01*
X1095904Y105943822D01*
X1149640Y105973081D01*
X1168349Y105974758D01*
X5501971Y105950547D01*
G37*
G36*
X162202969Y106081093D02*
G01*
X162214782Y106071004D01*
X163379717Y104906069D01*
X163407494Y104851552D01*
X163408713Y104836056D01*
X163402685Y41698991D01*
X163383772Y41640802D01*
X163334269Y41604842D01*
X163303685Y41600000D01*
X161299979Y41600000D01*
X161175896Y41597596D01*
X160931065Y41556769D01*
X160931063Y41556769D01*
X160696303Y41476203D01*
X160696302Y41476202D01*
X160478003Y41358091D01*
X160282121Y41205655D01*
X160282116Y41205650D01*
X160114001Y41023052D01*
X159978235Y40815268D01*
X159878523Y40587970D01*
X159878521Y40587965D01*
X159817587Y40347359D01*
X159817586Y40347353D01*
X159797088Y40100000D01*
X159817586Y39852648D01*
X159817587Y39852642D01*
X159878521Y39612036D01*
X159878523Y39612031D01*
X159978235Y39384733D01*
X160114001Y39176949D01*
X160282116Y38994351D01*
X160282121Y38994346D01*
X160478003Y38841910D01*
X160696302Y38723799D01*
X160696303Y38723798D01*
X160931064Y38643232D01*
X161175896Y38602405D01*
X161299979Y38600000D01*
X163303380Y38600000D01*
X163361571Y38581093D01*
X163397535Y38531593D01*
X163402380Y38500991D01*
X163400122Y14865336D01*
X163381209Y14807147D01*
X163371126Y14795341D01*
X162214782Y13638996D01*
X162160265Y13611219D01*
X162144778Y13610000D01*
X159740038Y13610000D01*
X159445437Y13607590D01*
X158951455Y13575212D01*
X158944980Y13575000D01*
X157825001Y13575000D01*
X157825000Y13574999D01*
X157825000Y13484195D01*
X157806093Y13426004D01*
X157756593Y13390040D01*
X157745316Y13387098D01*
X157694179Y13376925D01*
X157694117Y13377235D01*
X157674769Y13375000D01*
X157611154Y13375000D01*
X157589124Y13377482D01*
X157535252Y13389778D01*
X157495555Y13408896D01*
X157461299Y13436215D01*
X157433830Y13470660D01*
X157412315Y13515336D01*
X157403132Y13547219D01*
X157400622Y13569521D01*
X157400001Y13580620D01*
X157401316Y18386860D01*
X157420239Y18445046D01*
X157469749Y18480996D01*
X157487232Y18484965D01*
X157598947Y18499860D01*
X157601074Y18500120D01*
X157601347Y18500151D01*
X157625000Y104925013D01*
X157625000Y106001000D01*
X157643907Y106059191D01*
X157693407Y106095155D01*
X157724000Y106100000D01*
X162144778Y106100000D01*
X162202969Y106081093D01*
G37*
G36*
X17341053Y6956093D02*
G01*
X17377017Y6906593D01*
X17380993Y6889090D01*
X17382040Y6881241D01*
X17382303Y6879084D01*
X17393867Y6775001D01*
X17393868Y6775000D01*
X145417142Y6775000D01*
X145437325Y6892728D01*
X145465793Y6946887D01*
X145520658Y6973970D01*
X145534902Y6975000D01*
X150929689Y6975000D01*
X150987880Y6956093D01*
X151023844Y6906593D01*
X151025316Y6850377D01*
X150972758Y6654229D01*
X150857831Y6076448D01*
X150857830Y6076442D01*
X150780938Y5492386D01*
X150742410Y4904563D01*
X150740000Y4609962D01*
X150740000Y2205222D01*
X150721093Y2147031D01*
X150711004Y2135218D01*
X149530072Y954288D01*
X149475555Y926511D01*
X149460050Y925292D01*
X13715434Y949768D01*
X13657247Y968686D01*
X13645448Y978764D01*
X12488996Y2135217D01*
X12461219Y2189734D01*
X12460000Y2205221D01*
X12460000Y4609977D01*
X12457641Y4904557D01*
X12457640Y4904567D01*
X12425212Y5399330D01*
X12425000Y5405805D01*
X12425000Y6655199D01*
X12424999Y6655200D01*
X12324000Y6655200D01*
X12265809Y6674107D01*
X12229845Y6723607D01*
X12225000Y6754200D01*
X12225000Y6763846D01*
X12227482Y6785874D01*
X12239777Y6839746D01*
X12258895Y6879445D01*
X12286214Y6913701D01*
X12320658Y6941169D01*
X12365339Y6962687D01*
X12397215Y6971870D01*
X12419483Y6974378D01*
X12430563Y6975000D01*
X17282862Y6975000D01*
X17341053Y6956093D01*
G37*
G36*
X5572864Y19227888D02*
G01*
X5599183Y19172652D01*
X5600025Y19159769D01*
X5600025Y19072856D01*
X6428824Y18930776D01*
X6435496Y18929394D01*
X7354507Y18705850D01*
X7359819Y18704400D01*
X8178720Y18456248D01*
X8185548Y18453904D01*
X8829992Y18206041D01*
X8834324Y18204256D01*
X9455568Y17930909D01*
X9458737Y17929448D01*
X10179388Y17581548D01*
X10184884Y17578679D01*
X10978027Y17132536D01*
X10986098Y17127469D01*
X11805321Y16556495D01*
X11808949Y16553843D01*
X12553654Y15982903D01*
X12560448Y15977193D01*
X13180654Y15406603D01*
X13183629Y15403750D01*
X13879009Y14708370D01*
X13885059Y14701744D01*
X14504936Y13957891D01*
X14509224Y13952359D01*
X14956139Y13331644D01*
X14958170Y13328713D01*
X15405400Y12657868D01*
X15408779Y12652426D01*
X15781036Y12007181D01*
X15783218Y12003191D01*
X16155448Y11283546D01*
X16158652Y11276727D01*
X16506357Y10457137D01*
X16507916Y10453234D01*
X16880304Y9460199D01*
X16883505Y9450027D01*
X17131239Y8483865D01*
X17132835Y8476481D01*
X17281816Y7632253D01*
X17282454Y7628132D01*
X17382041Y6881235D01*
X17382303Y6879084D01*
X17393867Y6775001D01*
X17393868Y6775000D01*
X17506166Y6775000D01*
X17564357Y6756093D01*
X17600321Y6706593D01*
X17604526Y6664762D01*
X17598418Y6611303D01*
X17583802Y6569740D01*
X17560433Y6532676D01*
X17529232Y6501571D01*
X17489600Y6476753D01*
X17453566Y6463045D01*
X17415375Y6456586D01*
X17398866Y6455200D01*
X12524000Y6455200D01*
X12465809Y6474107D01*
X12429845Y6523607D01*
X12425000Y6554200D01*
X12425000Y6655199D01*
X12424999Y6655200D01*
X12303000Y6655200D01*
X12244809Y6674107D01*
X12208845Y6723607D01*
X12207373Y6728577D01*
X12074816Y7223285D01*
X11885455Y7781120D01*
X11660014Y8325383D01*
X11660009Y8325394D01*
X11399460Y8853736D01*
X11104910Y9363910D01*
X11104906Y9363917D01*
X10777616Y9853740D01*
X10419017Y10321076D01*
X10418989Y10321109D01*
X10030591Y10763994D01*
X10030572Y10764014D01*
X9614014Y11180572D01*
X9613994Y11180591D01*
X9171108Y11568990D01*
X9171075Y11569018D01*
X8703739Y11927617D01*
X8213920Y12254904D01*
X8213906Y12254913D01*
X7703730Y12549463D01*
X7175394Y12810009D01*
X7175383Y12810014D01*
X6631116Y13035458D01*
X6073290Y13224814D01*
X5607175Y13349710D01*
X5555860Y13383034D01*
X5543538Y13415134D01*
X5533713Y13425000D01*
X5433123Y13425000D01*
X5374932Y13443907D01*
X5338968Y13493407D01*
X5334124Y13524411D01*
X5357134Y19069874D01*
X5359707Y19091892D01*
X5372227Y19145717D01*
X5391509Y19185335D01*
X5418968Y19219475D01*
X5453527Y19246801D01*
X5458440Y19249142D01*
X5519105Y19257104D01*
X5572864Y19227888D01*
G37*
G36*
X157814000Y18722511D02*
G01*
X157868895Y18716240D01*
X157910460Y18701624D01*
X157947524Y18678255D01*
X157978629Y18647054D01*
X158003447Y18607422D01*
X158017155Y18571388D01*
X158023614Y18533197D01*
X158025000Y18516688D01*
X158025000Y13674000D01*
X158006093Y13615809D01*
X157956593Y13579845D01*
X157926000Y13575000D01*
X157825001Y13575000D01*
X157825000Y13574999D01*
X157825000Y13484195D01*
X157806093Y13426004D01*
X157756593Y13390040D01*
X157745316Y13387098D01*
X157695781Y13377244D01*
X157126729Y13224768D01*
X156568897Y13035408D01*
X156024637Y12809968D01*
X156024626Y12809963D01*
X155496299Y12549421D01*
X154986120Y12254870D01*
X154986106Y12254861D01*
X154496312Y11927591D01*
X154496282Y11927570D01*
X154028956Y11568978D01*
X154028923Y11568950D01*
X153586040Y11180554D01*
X153586020Y11180535D01*
X153169465Y10763980D01*
X153169446Y10763960D01*
X152781050Y10321077D01*
X152781022Y10321044D01*
X152422430Y9853718D01*
X152422409Y9853688D01*
X152095139Y9363894D01*
X152095130Y9363880D01*
X151800579Y8853701D01*
X151540037Y8325374D01*
X151540032Y8325363D01*
X151314592Y7781103D01*
X151125232Y7223271D01*
X150972759Y6654231D01*
X150948458Y6532065D01*
X150918561Y6478681D01*
X150862995Y6453066D01*
X150850949Y6452381D01*
X145410326Y6474956D01*
X145388308Y6477529D01*
X145334483Y6490049D01*
X145294865Y6509331D01*
X145260725Y6536790D01*
X145233399Y6571349D01*
X145213895Y6612282D01*
X145204299Y6652371D01*
X145203766Y6673504D01*
X145221201Y6732153D01*
X145269778Y6769353D01*
X145302735Y6775000D01*
X145417142Y6775000D01*
X145549424Y7546646D01*
X145550806Y7553318D01*
X145774350Y8472329D01*
X145775800Y8477641D01*
X146023952Y9296542D01*
X146026296Y9303370D01*
X146274159Y9947814D01*
X146275944Y9952146D01*
X146549291Y10573390D01*
X146550752Y10576559D01*
X146898652Y11297210D01*
X146901521Y11302706D01*
X147347664Y12095849D01*
X147352731Y12103920D01*
X147923705Y12923143D01*
X147926357Y12926771D01*
X148497297Y13671476D01*
X148503007Y13678270D01*
X149073597Y14298475D01*
X149076450Y14301450D01*
X149771830Y14996830D01*
X149778456Y15002880D01*
X150522309Y15622758D01*
X150527841Y15627046D01*
X151148556Y16073961D01*
X151151487Y16075992D01*
X151822332Y16523222D01*
X151827774Y16526601D01*
X152473019Y16898858D01*
X152477009Y16901040D01*
X153196654Y17273270D01*
X153203473Y17276474D01*
X154023063Y17624179D01*
X154026966Y17625738D01*
X155020001Y17998126D01*
X155030173Y18001327D01*
X155996335Y18249061D01*
X156003719Y18250657D01*
X156847947Y18399638D01*
X156852068Y18400276D01*
X157598947Y18499860D01*
X157601074Y18500120D01*
X157601347Y18500151D01*
X157601377Y18612801D01*
X157620300Y18670987D01*
X157669809Y18706938D01*
X157689445Y18711170D01*
X157791832Y18722546D01*
X157814000Y18722511D01*
G37*
M02*
