G04 #@! TF.GenerationSoftware,KiCad,Pcbnew,8.0.8*
G04 #@! TF.CreationDate,2025-12-05T20:32:17-05:00*
G04 #@! TF.ProjectId,hellen121vag,68656c6c-656e-4313-9231-7661672e6b69,d*
G04 #@! TF.SameCoordinates,PX2b953a0PY6943058*
G04 #@! TF.FileFunction,Copper,L4,Bot*
G04 #@! TF.FilePolarity,Positive*
%FSLAX46Y46*%
G04 Gerber Fmt 4.6, Leading zero omitted, Abs format (unit mm)*
G04 Created by KiCad (PCBNEW 8.0.8) date 2025-12-05 20:32:17*
%MOMM*%
%LPD*%
G01*
G04 APERTURE LIST*
G04 #@! TA.AperFunction,ComponentPad*
%ADD10C,2.600000*%
G04 #@! TD*
G04 #@! TA.AperFunction,ComponentPad*
%ADD11C,1.500000*%
G04 #@! TD*
G04 #@! TA.AperFunction,ComponentPad*
%ADD12C,3.700000*%
G04 #@! TD*
G04 #@! TA.AperFunction,ComponentPad*
%ADD13C,2.200000*%
G04 #@! TD*
G04 #@! TA.AperFunction,ComponentPad*
%ADD14C,3.302000*%
G04 #@! TD*
G04 #@! TA.AperFunction,ComponentPad*
%ADD15C,1.524000*%
G04 #@! TD*
G04 #@! TA.AperFunction,ComponentPad*
%ADD16C,0.600000*%
G04 #@! TD*
G04 #@! TA.AperFunction,SMDPad,CuDef*
%ADD17R,0.200000X6.300000*%
G04 #@! TD*
G04 #@! TA.AperFunction,SMDPad,CuDef*
%ADD18R,0.200000X3.300000*%
G04 #@! TD*
G04 #@! TA.AperFunction,SMDPad,CuDef*
%ADD19R,0.200000X0.400000*%
G04 #@! TD*
G04 #@! TA.AperFunction,SMDPad,CuDef*
%ADD20R,0.200000X7.000000*%
G04 #@! TD*
G04 #@! TA.AperFunction,SMDPad,CuDef*
%ADD21R,6.400000X0.200000*%
G04 #@! TD*
G04 #@! TA.AperFunction,SMDPad,CuDef*
%ADD22R,1.400000X0.200000*%
G04 #@! TD*
G04 #@! TA.AperFunction,SMDPad,CuDef*
%ADD23R,3.300000X0.200000*%
G04 #@! TD*
G04 #@! TA.AperFunction,SMDPad,CuDef*
%ADD24R,1.700000X0.200000*%
G04 #@! TD*
G04 #@! TA.AperFunction,SMDPad,CuDef*
%ADD25R,0.200000X2.300000*%
G04 #@! TD*
G04 #@! TA.AperFunction,SMDPad,CuDef*
%ADD26R,0.200000X9.700000*%
G04 #@! TD*
G04 #@! TA.AperFunction,SMDPad,CuDef*
%ADD27R,0.200000X1.600000*%
G04 #@! TD*
G04 #@! TA.AperFunction,SMDPad,CuDef*
%ADD28R,0.200000X3.700000*%
G04 #@! TD*
G04 #@! TA.AperFunction,SMDPad,CuDef*
%ADD29R,6.185000X0.250000*%
G04 #@! TD*
G04 #@! TA.AperFunction,SMDPad,CuDef*
%ADD30R,1.115000X0.250000*%
G04 #@! TD*
G04 #@! TA.AperFunction,SMDPad,CuDef*
%ADD31R,0.250000X14.275000*%
G04 #@! TD*
G04 #@! TA.AperFunction,SMDPad,CuDef*
%ADD32R,0.250000X15.100000*%
G04 #@! TD*
G04 #@! TA.AperFunction,SMDPad,CuDef*
%ADD33R,5.175000X0.250000*%
G04 #@! TD*
G04 #@! TA.AperFunction,ComponentPad*
%ADD34R,1.700000X1.700000*%
G04 #@! TD*
G04 #@! TA.AperFunction,ComponentPad*
%ADD35O,1.700000X1.700000*%
G04 #@! TD*
G04 #@! TA.AperFunction,ComponentPad*
%ADD36C,0.700000*%
G04 #@! TD*
G04 #@! TA.AperFunction,SMDPad,CuDef*
%ADD37R,1.100000X0.250000*%
G04 #@! TD*
G04 #@! TA.AperFunction,SMDPad,CuDef*
%ADD38R,0.980000X0.250000*%
G04 #@! TD*
G04 #@! TA.AperFunction,SMDPad,CuDef*
%ADD39R,6.300000X0.250000*%
G04 #@! TD*
G04 #@! TA.AperFunction,SMDPad,CuDef*
%ADD40R,0.250000X27.600000*%
G04 #@! TD*
G04 #@! TA.AperFunction,SMDPad,CuDef*
%ADD41R,8.750000X0.250000*%
G04 #@! TD*
G04 #@! TA.AperFunction,SMDPad,CuDef*
%ADD42R,0.950000X0.250000*%
G04 #@! TD*
G04 #@! TA.AperFunction,ComponentPad*
%ADD43C,1.700000*%
G04 #@! TD*
G04 #@! TA.AperFunction,ComponentPad*
%ADD44O,1.700000X1.850000*%
G04 #@! TD*
G04 #@! TA.AperFunction,ComponentPad*
%ADD45R,1.100000X1.100000*%
G04 #@! TD*
G04 #@! TA.AperFunction,ComponentPad*
%ADD46C,1.100000*%
G04 #@! TD*
G04 #@! TA.AperFunction,ComponentPad*
%ADD47O,2.400000X1.100000*%
G04 #@! TD*
G04 #@! TA.AperFunction,SMDPad,CuDef*
%ADD48O,0.200000X3.300000*%
G04 #@! TD*
G04 #@! TA.AperFunction,SMDPad,CuDef*
%ADD49O,0.200000X10.200000*%
G04 #@! TD*
G04 #@! TA.AperFunction,SMDPad,CuDef*
%ADD50O,0.200000X0.300000*%
G04 #@! TD*
G04 #@! TA.AperFunction,SMDPad,CuDef*
%ADD51O,17.000000X0.200000*%
G04 #@! TD*
G04 #@! TA.AperFunction,SMDPad,CuDef*
%ADD52O,15.400000X0.200000*%
G04 #@! TD*
G04 #@! TA.AperFunction,SMDPad,CuDef*
%ADD53O,0.200000X4.800000*%
G04 #@! TD*
G04 #@! TA.AperFunction,SMDPad,CuDef*
%ADD54O,0.200000X2.600000*%
G04 #@! TD*
G04 #@! TA.AperFunction,SMDPad,CuDef*
%ADD55O,0.200000X1.000000*%
G04 #@! TD*
G04 #@! TA.AperFunction,SMDPad,CuDef*
%ADD56O,0.200000X1.500000*%
G04 #@! TD*
G04 #@! TA.AperFunction,ComponentPad*
%ADD57C,0.599999*%
G04 #@! TD*
G04 #@! TA.AperFunction,ViaPad*
%ADD58C,2.000000*%
G04 #@! TD*
G04 APERTURE END LIST*
D10*
G04 #@! TO.P,P1,121,121*
G04 #@! TO.N,unconnected-(P1-Pad121)*
X25152000Y100128000D03*
G04 #@! TO.P,P1,120,120*
G04 #@! TO.N,unconnected-(P1-Pad120)*
X31052000Y100128000D03*
G04 #@! TO.P,P1,119,119*
G04 #@! TO.N,unconnected-(P1-Pad119)*
X36852000Y100128000D03*
G04 #@! TO.P,P1,118,118*
G04 #@! TO.N,unconnected-(P1-Pad118)*
X28052000Y105928000D03*
G04 #@! TO.P,P1,117,117*
G04 #@! TO.N,unconnected-(P1-Pad117)*
X33952000Y105928000D03*
G04 #@! TO.P,P1,116,116*
G04 #@! TO.N,unconnected-(P1-Pad116)*
X25152000Y108258000D03*
G04 #@! TO.P,P1,115,115*
G04 #@! TO.N,unconnected-(P1-Pad115)*
X31052000Y108258000D03*
G04 #@! TO.P,P1,114,114*
G04 #@! TO.N,unconnected-(P1-Pad114)*
X36852000Y108258000D03*
D11*
G04 #@! TO.P,P1,113,113*
G04 #@! TO.N,unconnected-(P1-Pad113)*
X44682000Y100128000D03*
G04 #@! TO.P,P1,112,112*
G04 #@! TO.N,unconnected-(P1-Pad112)*
X47222000Y100128000D03*
G04 #@! TO.P,P1,111,111*
G04 #@! TO.N,unconnected-(P1-Pad111)*
X49762000Y100128000D03*
G04 #@! TO.P,P1,110,110*
G04 #@! TO.N,unconnected-(P1-Pad110)*
X52302000Y100128000D03*
G04 #@! TO.P,P1,109,109*
G04 #@! TO.N,unconnected-(P1-Pad109)*
X54842000Y100128000D03*
G04 #@! TO.P,P1,108,108*
G04 #@! TO.N,unconnected-(P1-Pad108)*
X57382000Y100128000D03*
G04 #@! TO.P,P1,107,107*
G04 #@! TO.N,unconnected-(P1-Pad107)*
X59922000Y100128000D03*
G04 #@! TO.P,P1,106,106*
G04 #@! TO.N,unconnected-(P1-Pad106)*
X62462000Y100128000D03*
G04 #@! TO.P,P1,105,105*
G04 #@! TO.N,unconnected-(P1-Pad105)*
X44682000Y102668000D03*
G04 #@! TO.P,P1,104,104*
G04 #@! TO.N,unconnected-(P1-Pad104)*
X47222000Y102668000D03*
G04 #@! TO.P,P1,103,103*
G04 #@! TO.N,unconnected-(P1-Pad103)*
X49762000Y102668000D03*
G04 #@! TO.P,P1,102,102*
G04 #@! TO.N,unconnected-(P1-Pad102)*
X52302000Y102668000D03*
G04 #@! TO.P,P1,101,101*
G04 #@! TO.N,unconnected-(P1-Pad101)*
X54842000Y102668000D03*
G04 #@! TO.P,P1,100,100*
G04 #@! TO.N,unconnected-(P1-Pad100)*
X57382000Y102668000D03*
G04 #@! TO.P,P1,99,99*
G04 #@! TO.N,unconnected-(P1-Pad99)*
X59922000Y102668000D03*
G04 #@! TO.P,P1,98,98*
G04 #@! TO.N,unconnected-(P1-Pad98)*
X62462000Y102668000D03*
G04 #@! TO.P,P1,97,97*
G04 #@! TO.N,unconnected-(P1-Pad97)*
X44682000Y108718000D03*
G04 #@! TO.P,P1,96,96*
G04 #@! TO.N,unconnected-(P1-Pad96)*
X47222000Y108718000D03*
G04 #@! TO.P,P1,95,95*
G04 #@! TO.N,unconnected-(P1-Pad95)*
X49762000Y108718000D03*
G04 #@! TO.P,P1,94,94*
G04 #@! TO.N,unconnected-(P1-Pad94)*
X52302000Y108718000D03*
G04 #@! TO.P,P1,93,93*
G04 #@! TO.N,unconnected-(P1-Pad93)*
X54842000Y108718000D03*
G04 #@! TO.P,P1,92,92*
G04 #@! TO.N,unconnected-(P1-Pad92)*
X57382000Y108718000D03*
G04 #@! TO.P,P1,91,91*
G04 #@! TO.N,unconnected-(P1-Pad91)*
X59922000Y108718000D03*
G04 #@! TO.P,P1,90,90*
G04 #@! TO.N,unconnected-(P1-Pad90)*
X62462000Y108718000D03*
G04 #@! TO.P,P1,89,89*
G04 #@! TO.N,unconnected-(P1-Pad89)*
X44682000Y111258000D03*
G04 #@! TO.P,P1,88,88*
G04 #@! TO.N,unconnected-(P1-Pad88)*
X47222000Y111258000D03*
G04 #@! TO.P,P1,87,87*
G04 #@! TO.N,unconnected-(P1-Pad87)*
X49762000Y111258000D03*
G04 #@! TO.P,P1,86,86*
G04 #@! TO.N,unconnected-(P1-Pad86)*
X52302000Y111258000D03*
G04 #@! TO.P,P1,85,85*
G04 #@! TO.N,unconnected-(P1-Pad85)*
X54842000Y111258000D03*
G04 #@! TO.P,P1,84,84*
G04 #@! TO.N,unconnected-(P1-Pad84)*
X57382000Y111258000D03*
G04 #@! TO.P,P1,83,83*
G04 #@! TO.N,unconnected-(P1-Pad83)*
X59922000Y111258000D03*
G04 #@! TO.P,P1,82,82*
G04 #@! TO.N,unconnected-(P1-Pad82)*
X62462000Y111258000D03*
G04 #@! TO.P,P1,81,81*
G04 #@! TO.N,unconnected-(P1-Pad81)*
X124152000Y111258000D03*
G04 #@! TO.P,P1,80,80*
G04 #@! TO.N,unconnected-(P1-Pad80)*
X121612000Y111258000D03*
G04 #@! TO.P,P1,79,79*
G04 #@! TO.N,unconnected-(P1-Pad79)*
X119072000Y111258000D03*
G04 #@! TO.P,P1,78,78*
G04 #@! TO.N,unconnected-(P1-Pad78)*
X116532000Y111258000D03*
G04 #@! TO.P,P1,77,77*
G04 #@! TO.N,unconnected-(P1-Pad77)*
X113992000Y111258000D03*
G04 #@! TO.P,P1,76,76*
G04 #@! TO.N,unconnected-(P1-Pad76)*
X111452000Y111258000D03*
G04 #@! TO.P,P1,75,75*
G04 #@! TO.N,unconnected-(P1-Pad75)*
X108912000Y111258000D03*
G04 #@! TO.P,P1,74,74*
G04 #@! TO.N,unconnected-(P1-Pad74)*
X106372000Y111258000D03*
G04 #@! TO.P,P1,73,73*
G04 #@! TO.N,unconnected-(P1-Pad73)*
X103832000Y111258000D03*
G04 #@! TO.P,P1,72,72*
G04 #@! TO.N,unconnected-(P1-Pad72)*
X101292000Y111258000D03*
G04 #@! TO.P,P1,71,71*
G04 #@! TO.N,unconnected-(P1-Pad71)*
X98752000Y111258000D03*
G04 #@! TO.P,P1,70,70*
G04 #@! TO.N,unconnected-(P1-Pad70)*
X96212000Y111258000D03*
G04 #@! TO.P,P1,69,69*
G04 #@! TO.N,unconnected-(P1-Pad69)*
X93672000Y111258000D03*
G04 #@! TO.P,P1,68,68*
G04 #@! TO.N,unconnected-(P1-Pad68)*
X91132000Y111258000D03*
G04 #@! TO.P,P1,67,67*
G04 #@! TO.N,unconnected-(P1-Pad67)*
X88592000Y111258000D03*
G04 #@! TO.P,P1,66,66*
G04 #@! TO.N,unconnected-(P1-Pad66)*
X86052000Y111258000D03*
G04 #@! TO.P,P1,65,65*
G04 #@! TO.N,unconnected-(P1-Pad65)*
X83512000Y111258000D03*
G04 #@! TO.P,P1,64,64*
G04 #@! TO.N,unconnected-(P1-Pad64)*
X80972000Y111258000D03*
G04 #@! TO.P,P1,63,63*
G04 #@! TO.N,unconnected-(P1-Pad63)*
X78432000Y111258000D03*
G04 #@! TO.P,P1,62,62*
G04 #@! TO.N,unconnected-(P1-Pad62)*
X124152000Y108718000D03*
G04 #@! TO.P,P1,61,61*
G04 #@! TO.N,unconnected-(P1-Pad61)*
X121612000Y108718000D03*
G04 #@! TO.P,P1,60,60*
G04 #@! TO.N,unconnected-(P1-Pad60)*
X119072000Y108718000D03*
G04 #@! TO.P,P1,59,59*
G04 #@! TO.N,unconnected-(P1-Pad59)*
X116532000Y108718000D03*
G04 #@! TO.P,P1,58,58*
G04 #@! TO.N,unconnected-(P1-Pad58)*
X113992000Y108718000D03*
G04 #@! TO.P,P1,57,57*
G04 #@! TO.N,unconnected-(P1-Pad57)*
X111452000Y108718000D03*
G04 #@! TO.P,P1,56,56*
G04 #@! TO.N,unconnected-(P1-Pad56)*
X108912000Y108718000D03*
G04 #@! TO.P,P1,55,55*
G04 #@! TO.N,unconnected-(P1-Pad55)*
X106372000Y108718000D03*
G04 #@! TO.P,P1,54,54*
G04 #@! TO.N,unconnected-(P1-Pad54)*
X103832000Y108718000D03*
G04 #@! TO.P,P1,53,53*
G04 #@! TO.N,unconnected-(P1-Pad53)*
X101292000Y108718000D03*
G04 #@! TO.P,P1,52,52*
G04 #@! TO.N,unconnected-(P1-Pad52)*
X98752000Y108718000D03*
G04 #@! TO.P,P1,51,51*
G04 #@! TO.N,unconnected-(P1-Pad51)*
X96212000Y108718000D03*
G04 #@! TO.P,P1,50,50*
G04 #@! TO.N,unconnected-(P1-Pad50)*
X93672000Y108718000D03*
G04 #@! TO.P,P1,49,49*
G04 #@! TO.N,unconnected-(P1-Pad49)*
X91132000Y108718000D03*
G04 #@! TO.P,P1,48,48*
G04 #@! TO.N,unconnected-(P1-Pad48)*
X88592000Y108718000D03*
G04 #@! TO.P,P1,47,47*
G04 #@! TO.N,unconnected-(P1-Pad47)*
X86052000Y108718000D03*
G04 #@! TO.P,P1,46,46*
G04 #@! TO.N,unconnected-(P1-Pad46)*
X83512000Y108718000D03*
G04 #@! TO.P,P1,45,45*
G04 #@! TO.N,unconnected-(P1-Pad45)*
X80972000Y108718000D03*
G04 #@! TO.P,P1,44,44*
G04 #@! TO.N,unconnected-(P1-Pad44)*
X78432000Y108718000D03*
G04 #@! TO.P,P1,43,43*
G04 #@! TO.N,unconnected-(P1-Pad43)*
X124152000Y102668000D03*
G04 #@! TO.P,P1,42,42*
G04 #@! TO.N,unconnected-(P1-Pad42)*
X121612000Y102668000D03*
G04 #@! TO.P,P1,41,41*
G04 #@! TO.N,unconnected-(P1-Pad41)*
X119072000Y102668000D03*
G04 #@! TO.P,P1,40,40*
G04 #@! TO.N,unconnected-(P1-Pad40)*
X116532000Y102668000D03*
G04 #@! TO.P,P1,39,39*
G04 #@! TO.N,unconnected-(P1-Pad39)*
X113992000Y102668000D03*
G04 #@! TO.P,P1,38,38*
G04 #@! TO.N,unconnected-(P1-Pad38)*
X111452000Y102668000D03*
G04 #@! TO.P,P1,37,37*
G04 #@! TO.N,unconnected-(P1-Pad37)*
X108912000Y102668000D03*
G04 #@! TO.P,P1,36,36*
G04 #@! TO.N,unconnected-(P1-Pad36)*
X106372000Y102668000D03*
G04 #@! TO.P,P1,35,35*
G04 #@! TO.N,unconnected-(P1-Pad35)*
X103832000Y102668000D03*
G04 #@! TO.P,P1,34,34*
G04 #@! TO.N,unconnected-(P1-Pad34)*
X101292000Y102668000D03*
G04 #@! TO.P,P1,33,33*
G04 #@! TO.N,unconnected-(P1-Pad33)*
X98752000Y102668000D03*
G04 #@! TO.P,P1,32,32*
G04 #@! TO.N,unconnected-(P1-Pad32)*
X96212000Y102668000D03*
G04 #@! TO.P,P1,31,31*
G04 #@! TO.N,unconnected-(P1-Pad31)*
X93672000Y102668000D03*
G04 #@! TO.P,P1,30,30*
G04 #@! TO.N,unconnected-(P1-Pad30)*
X91132000Y102668000D03*
G04 #@! TO.P,P1,29,29*
G04 #@! TO.N,unconnected-(P1-Pad29)*
X88592000Y102668000D03*
G04 #@! TO.P,P1,28,28*
G04 #@! TO.N,unconnected-(P1-Pad28)*
X86052000Y102668000D03*
G04 #@! TO.P,P1,27,27*
G04 #@! TO.N,unconnected-(P1-Pad27)*
X83512000Y102668000D03*
G04 #@! TO.P,P1,26,26*
G04 #@! TO.N,unconnected-(P1-Pad26)*
X80972000Y102668000D03*
G04 #@! TO.P,P1,25,25*
G04 #@! TO.N,unconnected-(P1-Pad25)*
X78432000Y102668000D03*
G04 #@! TO.P,P1,24,24*
G04 #@! TO.N,unconnected-(P1-Pad24)*
X124152000Y100128000D03*
G04 #@! TO.P,P1,23,23*
G04 #@! TO.N,unconnected-(P1-Pad23)*
X121612000Y100128000D03*
G04 #@! TO.P,P1,22,22*
G04 #@! TO.N,unconnected-(P1-Pad22)*
X119072000Y100128000D03*
G04 #@! TO.P,P1,21,21*
G04 #@! TO.N,unconnected-(P1-Pad21)*
X116532000Y100128000D03*
G04 #@! TO.P,P1,20,20*
G04 #@! TO.N,unconnected-(P1-Pad20)*
X113992000Y100128000D03*
G04 #@! TO.P,P1,19,19*
G04 #@! TO.N,unconnected-(P1-Pad19)*
X111452000Y100128000D03*
G04 #@! TO.P,P1,18,18*
G04 #@! TO.N,unconnected-(P1-Pad18)*
X108912000Y100128000D03*
G04 #@! TO.P,P1,17,17*
G04 #@! TO.N,unconnected-(P1-Pad17)*
X106372000Y100128000D03*
G04 #@! TO.P,P1,16,16*
G04 #@! TO.N,unconnected-(P1-Pad16)*
X103832000Y100128000D03*
G04 #@! TO.P,P1,15,15*
G04 #@! TO.N,unconnected-(P1-Pad15)*
X101292000Y100128000D03*
G04 #@! TO.P,P1,14,14*
G04 #@! TO.N,unconnected-(P1-Pad14)*
X98752000Y100128000D03*
G04 #@! TO.P,P1,13,13*
G04 #@! TO.N,unconnected-(P1-Pad13)*
X96212000Y100128000D03*
G04 #@! TO.P,P1,12,12*
G04 #@! TO.N,unconnected-(P1-Pad12)*
X93672000Y100128000D03*
G04 #@! TO.P,P1,11,11*
G04 #@! TO.N,unconnected-(P1-Pad11)*
X91132000Y100128000D03*
G04 #@! TO.P,P1,10,10*
G04 #@! TO.N,unconnected-(P1-Pad10)*
X88592000Y100128000D03*
G04 #@! TO.P,P1,9,9*
G04 #@! TO.N,unconnected-(P1-Pad9)*
X86052000Y100128000D03*
G04 #@! TO.P,P1,8,8*
G04 #@! TO.N,unconnected-(P1-Pad8)*
X83512000Y100128000D03*
G04 #@! TO.P,P1,7,7*
G04 #@! TO.N,unconnected-(P1-Pad7)*
X80972000Y100128000D03*
G04 #@! TO.P,P1,6,6*
G04 #@! TO.N,unconnected-(P1-Pad6)*
X78432000Y100128000D03*
D10*
G04 #@! TO.P,P1,5,5*
G04 #@! TO.N,unconnected-(P1-Pad5)*
X132052000Y100128000D03*
G04 #@! TO.P,P1,4,4*
G04 #@! TO.N,unconnected-(P1-Pad4)*
X137852000Y100128000D03*
G04 #@! TO.P,P1,3,3*
G04 #@! TO.N,unconnected-(P1-Pad3)*
X134952000Y105928000D03*
G04 #@! TO.P,P1,2,2*
G04 #@! TO.N,unconnected-(P1-Pad2)*
X132052000Y108258000D03*
G04 #@! TO.P,P1,1,1*
G04 #@! TO.N,unconnected-(P1-Pad1)*
X137852000Y108258000D03*
D12*
G04 #@! TO.P,P1,*
G04 #@! TO.N,*
X144952000Y113258000D03*
X70452000Y113258000D03*
X18252000Y113258000D03*
D13*
X20702000Y105458000D03*
X142502000Y105458000D03*
G04 #@! TD*
D14*
G04 #@! TO.P,U3,*
G04 #@! TO.N,*
X107680000Y46362500D03*
X107680000Y23502500D03*
D15*
G04 #@! TO.P,U3,1,VOUT*
G04 #@! TO.N,N/C*
X94980000Y41282500D03*
G04 #@! TO.P,U3,2,GND*
G04 #@! TO.N,GND*
X94980000Y38742500D03*
G04 #@! TO.P,U3,3,VCC*
G04 #@! TO.N,+5VA*
X94980000Y36202500D03*
G04 #@! TO.P,U3,4,V1*
G04 #@! TO.N,N/C*
X94980000Y33662500D03*
G04 #@! TO.P,U3,5,V2*
X94980000Y31122500D03*
G04 #@! TO.P,U3,6,V_EX*
X94980000Y28582500D03*
G04 #@! TD*
D16*
G04 #@! TO.P,M6,W14,V5A_SWITCHABLE*
G04 #@! TO.N,N/C*
X90900010Y22675000D03*
G04 #@! TO.P,M6,W13,V33_REF*
X90900010Y24074990D03*
G04 #@! TO.P,M6,W12,CANL*
G04 #@! TO.N,/CAN-*
X90900010Y28775000D03*
G04 #@! TO.P,M6,W11,CANH*
G04 #@! TO.N,/CAN+*
X90900010Y29575000D03*
G04 #@! TO.P,M6,W10,IGN1_(PC13)*
G04 #@! TO.N,N/C*
X90900010Y32175000D03*
G04 #@! TO.P,M6,W9,IGN2_(PE5)*
X90900010Y33175000D03*
G04 #@! TO.P,M6,W8,IGN3_(PE4)*
X90900010Y34175000D03*
G04 #@! TO.P,M6,W7,IGN4_(PE3)*
X90900010Y35175000D03*
G04 #@! TO.P,M6,W6,IGN5_(PE2)*
X90900010Y36175000D03*
G04 #@! TO.P,M6,W5,IGN6_(PB8)*
X90900010Y37175000D03*
G04 #@! TO.P,M6,W4,IGN7_(PB9)*
X90900010Y38174990D03*
G04 #@! TO.P,M6,W3,IGN8_(PE6)*
X90900010Y39175000D03*
G04 #@! TO.P,M6,W2,V5A_SWITCHABLE*
G04 #@! TO.N,+5VA*
X90900010Y49874990D03*
G04 #@! TO.P,M6,W1,GNDA*
G04 #@! TO.N,N/C*
X90900010Y50874990D03*
G04 #@! TO.P,M6,S22,VREF1*
X90500010Y53375000D03*
G04 #@! TO.P,M6,S21,IN_CLT_(PC2)*
X88100010Y53375000D03*
G04 #@! TO.P,M6,S20,IN_IAT_(PC3)*
X86900010Y53375000D03*
G04 #@! TO.P,M6,S19,IN_PPS_(PA3)*
X85700010Y53375000D03*
G04 #@! TO.P,M6,S18,IN_TPS_(PA4)*
X84500010Y53375000D03*
G04 #@! TO.P,M6,S17,IN_VSS_(PE11)*
X83300000Y53375000D03*
G04 #@! TO.P,M6,S16,IN_CAM_(PA6)*
X82100000Y53375000D03*
G04 #@! TO.P,M6,S15,IN_KNOCK_(PA2)*
X80900000Y53375000D03*
G04 #@! TO.P,M6,S14,IN_CRANK_(PB1)*
X79700000Y53375000D03*
G04 #@! TO.P,M6,S13,IN_MAP1_(PC0)*
X78500000Y53375000D03*
G04 #@! TO.P,M6,S12,IN_MAP2_(PC1)*
X77300000Y53375000D03*
G04 #@! TO.P,M6,S11,IN_O2S_/_CAN_WAKEUP_(PA0)*
X76100000Y53375000D03*
G04 #@! TO.P,M6,S10,IN_O2S2_(PA1)*
X74900000Y53375000D03*
G04 #@! TO.P,M6,S9,IN_AUX1_(PB0)*
X73700000Y53375000D03*
G04 #@! TO.P,M6,S8,IN_AUX2_(PC4/PE9)*
X72500000Y53375000D03*
G04 #@! TO.P,M6,S7,IN_AUX3_(PA7)*
X71300000Y53375000D03*
G04 #@! TO.P,M6,S6,IN_AUX4_(PC5)*
X70100000Y53375000D03*
G04 #@! TO.P,M6,S5,VREF2*
X68900000Y53375000D03*
G04 #@! TO.P,M6,S4,IN_D1_(PE12)*
X67700000Y53375000D03*
G04 #@! TO.P,M6,S3,IN_D2_(PE13)*
X66500000Y53375000D03*
G04 #@! TO.P,M6,S2,IN_D3_(PE14)*
X65300000Y53375000D03*
G04 #@! TO.P,M6,S1,IN_D4_(PE15)*
X64099990Y53375000D03*
G04 #@! TO.P,M6,N23,V33*
X90900010Y17975000D03*
G04 #@! TO.P,M6,N22,VCC*
G04 #@! TO.N,+5V*
X83500000Y17975000D03*
G04 #@! TO.P,M6,N21,V33*
G04 #@! TO.N,N/C*
X82500010Y17975000D03*
G04 #@! TO.P,M6,N20,OUT_PWR_EN_(PE10)*
X79800010Y17975000D03*
G04 #@! TO.P,M6,N19,UART8_TX_(PE1)*
X75500010Y17975000D03*
G04 #@! TO.P,M6,N18,UART8_RX_(PE0)*
X74700010Y17975000D03*
G04 #@! TO.P,M6,N17,VBAT*
X73900010Y17974990D03*
G04 #@! TO.P,M6,N16,BOOT0*
X73100010Y17974990D03*
G04 #@! TO.P,M6,N15,V33_SWITCHABLE*
X72300010Y17974990D03*
G04 #@! TO.P,M6,N14b,LED_YELLOW*
X71500010Y17974990D03*
G04 #@! TO.P,M6,N14a,LED_GREEN*
X70700000Y17974990D03*
G04 #@! TO.P,M6,N14,UART2_RX_(PD6)*
X69900010Y17975000D03*
G04 #@! TO.P,M6,N13,UART2_TX_(PD5)*
X69100010Y17975000D03*
G04 #@! TO.P,M6,N12,SPI3_MOSI_(PC12)*
X66700000Y17975000D03*
G04 #@! TO.P,M6,N11,SPI3_MISO_(PC11)*
X65900000Y17975000D03*
G04 #@! TO.P,M6,N10,SPI3_SCK_(PC10)*
X65100000Y17975000D03*
G04 #@! TO.P,M6,N9,SPI3_CS_(PA15)*
X64300000Y17975000D03*
G04 #@! TO.P,M6,N8,SWO_(PB3)*
X63500010Y17974990D03*
G04 #@! TO.P,M6,N7,nReset*
X62700000Y17974990D03*
G04 #@! TO.P,M6,N6,SWCLK_(PA14)*
X61900000Y17974990D03*
G04 #@! TO.P,M6,N5,SWDIO_(PA13)*
X61100000Y17974990D03*
G04 #@! TO.P,M6,N4,USBID_(PA10)*
X60300010Y17974990D03*
G04 #@! TO.P,M6,N3,USBP_(PA12)*
X59500000Y17974990D03*
G04 #@! TO.P,M6,N2,USBM_(PA11)*
X58700000Y17974990D03*
G04 #@! TO.P,M6,N1,VBUS*
X57900000Y17974990D03*
D17*
G04 #@! TO.P,M6,G,GND*
G04 #@! TO.N,GND*
X57300000Y50525000D03*
D18*
X57300000Y44725000D03*
D19*
X57300000Y29875000D03*
D20*
X57300000Y21174980D03*
D21*
X60400010Y53575000D03*
D22*
X67900010Y17775000D03*
D23*
X77650010Y17775000D03*
D24*
X81150010Y17775000D03*
D21*
X87200010Y17775000D03*
D22*
X89300000Y53575000D03*
D25*
X91100010Y52524990D03*
D26*
X91100010Y44524990D03*
D27*
X91100010Y30874990D03*
D28*
X91100010Y26425000D03*
D19*
X91100010Y23374990D03*
D28*
X91100010Y20325000D03*
D16*
G04 #@! TO.P,M6,E23,OUT_PWM6_(PD14)*
G04 #@! TO.N,N/C*
X57500000Y25174990D03*
G04 #@! TO.P,M6,E22,OUT_PWM5_(PC9)*
X57500000Y25975000D03*
G04 #@! TO.P,M6,E21,OUT_PWM4_(PC8)*
X57500000Y26775000D03*
G04 #@! TO.P,M6,E20,OUT_PWM3_(PC7)*
X57500000Y27575000D03*
G04 #@! TO.P,M6,E19,OUT_PWM2_(PC6)*
X57500000Y28375000D03*
G04 #@! TO.P,M6,E18,OUT_PWM1_(PD13)*
X57500000Y29174990D03*
G04 #@! TO.P,M6,E17,OUT_INJ1_(PD3)*
X57500000Y30574990D03*
G04 #@! TO.P,M6,E16,OUT_INJ2_(PA9)*
X57500010Y31375000D03*
G04 #@! TO.P,M6,E15,OUT_INJ3_(PD11)*
X57500000Y32174990D03*
G04 #@! TO.P,M6,E14,OUT_INJ4_(PD10)*
X57500000Y32974990D03*
G04 #@! TO.P,M6,E13,OUT_INJ5_(PD2)*
X57500000Y33774990D03*
G04 #@! TO.P,M6,E12,OUT_INJ6_(PA8)*
X57500000Y34574990D03*
G04 #@! TO.P,M6,E11,OUT_INJ7_(PD15)*
X57500000Y35374990D03*
G04 #@! TO.P,M6,E10,OUT_INJ8_(PD12)*
X57500000Y36174990D03*
G04 #@! TO.P,M6,E9,SPI2_MOSI_(PB15)*
X57500000Y36974990D03*
G04 #@! TO.P,M6,E8,SPI2_MISO_(PB14)*
X57500000Y37774990D03*
G04 #@! TO.P,M6,E7,SPI2_SCK_/_CAN2_TX_(PB13)*
X57500000Y38574990D03*
G04 #@! TO.P,M6,E6,SPI2_CS_/_CAN2_RX_(PB12)*
X57500000Y39374990D03*
G04 #@! TO.P,M6,E5,IN_VIGN_(PA5)*
X57500000Y40174990D03*
G04 #@! TO.P,M6,E4,I2C_SDA_(PB11)*
X57500000Y40974990D03*
G04 #@! TO.P,M6,E3,I2C_SCL_(PB10)*
X57500000Y41775000D03*
G04 #@! TO.P,M6,E2,GNDA*
X57500000Y42574990D03*
G04 #@! TO.P,M6,E1,V5A_SWITCHABLE*
G04 #@! TO.N,+5VA*
X57500010Y46874990D03*
G04 #@! TD*
G04 #@! TO.P,M4,E1,NC*
G04 #@! TO.N,N/C*
X105425000Y70550000D03*
G04 #@! TO.P,M4,E2,NC*
X104225000Y70550000D03*
G04 #@! TO.P,M4,E3,OUT*
X106625000Y70550000D03*
G04 #@! TO.P,M4,E4,V5_IN*
G04 #@! TO.N,+5VA*
X107825000Y70550000D03*
D29*
G04 #@! TO.P,M4,G,GND*
G04 #@! TO.N,GND*
X105157500Y85200000D03*
D30*
X99107500Y85200000D03*
D31*
X108125000Y78187500D03*
D32*
X98675000Y77775000D03*
D33*
X101137500Y70350000D03*
D16*
G04 #@! TO.P,M4,W1,VR-*
G04 #@! TO.N,N/C*
X101365000Y84975000D03*
G04 #@! TO.P,M4,W2,VR+*
X100365000Y84975000D03*
G04 #@! TD*
D34*
G04 #@! TO.P,J6,1,Pin_1*
G04 #@! TO.N,N/C*
X136420000Y53875000D03*
D35*
G04 #@! TO.P,J6,2,Pin_2*
X133880000Y53875000D03*
G04 #@! TO.P,J6,3,Pin_3*
G04 #@! TO.N,GND*
X131340000Y53875000D03*
G04 #@! TO.P,J6,4,Pin_4*
G04 #@! TO.N,N/C*
X128800000Y53875000D03*
G04 #@! TO.P,J6,5,Pin_5*
X126260000Y53875000D03*
G04 #@! TO.P,J6,6,Pin_6*
X123720000Y53875000D03*
G04 #@! TD*
D16*
G04 #@! TO.P,M3,E1,Thresh_IN*
G04 #@! TO.N,N/C*
X93550000Y70650000D03*
G04 #@! TO.P,M3,E2,OUT_A*
X92350000Y70650000D03*
G04 #@! TO.P,M3,E3,OUT*
X94750000Y70650000D03*
G04 #@! TO.P,M3,E4,V5_IN*
G04 #@! TO.N,+5VA*
X95950000Y70650000D03*
D29*
G04 #@! TO.P,M3,G,GND*
G04 #@! TO.N,GND*
X93282500Y85300000D03*
D30*
X87232500Y85300000D03*
D31*
X96250000Y78287500D03*
D32*
X86800000Y77875000D03*
D33*
X89262500Y70450000D03*
D16*
G04 #@! TO.P,M3,W1,VR-*
G04 #@! TO.N,N/C*
X89490000Y85075000D03*
G04 #@! TO.P,M3,W2,VR+*
X88490000Y85075000D03*
G04 #@! TD*
D36*
G04 #@! TO.P,M5,E1,LSU_Un*
G04 #@! TO.N,N/C*
X137075000Y85300000D03*
G04 #@! TO.P,M5,E2,LSU_Vm*
X134075000Y85300000D03*
G04 #@! TO.P,M5,E3,LSU_Ip*
X135075000Y85300000D03*
G04 #@! TO.P,M5,E4,LSU_Rtrim*
X136075000Y85300000D03*
D37*
G04 #@! TO.P,M5,G,GND*
G04 #@! TO.N,GND*
X125225000Y58325000D03*
D38*
X129565000Y58325000D03*
D39*
X135525000Y58325000D03*
D40*
X124800000Y72000000D03*
X138550000Y72000000D03*
D41*
X129050000Y85675000D03*
D42*
X138200000Y85675000D03*
D36*
G04 #@! TO.P,M5,W1,V5_IN*
G04 #@! TO.N,+5VA*
X127425000Y58708800D03*
G04 #@! TO.P,M5,W2,CAN_VIO*
G04 #@! TO.N,N/C*
X128425000Y58708800D03*
G04 #@! TO.P,M5,W3,CANL*
G04 #@! TO.N,/CAN-*
X131721000Y58708800D03*
G04 #@! TO.P,M5,W4,CANH*
G04 #@! TO.N,/CAN+*
X130705000Y58708800D03*
G04 #@! TO.P,M5,W9,VDDA*
G04 #@! TO.N,N/C*
X126425000Y58708800D03*
G04 #@! TD*
D43*
G04 #@! TO.P,P2,1,Pin_1*
G04 #@! TO.N,N/C*
X32800000Y28775000D03*
G04 #@! TD*
G04 #@! TO.P,P1,1,Pin_1*
G04 #@! TO.N,N/C*
X32800000Y25875000D03*
G04 #@! TD*
G04 #@! TO.P,J7,1,Pin_1*
G04 #@! TO.N,N/C*
G04 #@! TA.AperFunction,ComponentPad*
G36*
G01*
X34450000Y17700000D02*
X34450000Y19050000D01*
G75*
G02*
X34700000Y19300000I250000J0D01*
G01*
X35900000Y19300000D01*
G75*
G02*
X36150000Y19050000I0J-250000D01*
G01*
X36150000Y17700000D01*
G75*
G02*
X35900000Y17450000I-250000J0D01*
G01*
X34700000Y17450000D01*
G75*
G02*
X34450000Y17700000I0J250000D01*
G01*
G37*
G04 #@! TD.AperFunction*
D44*
G04 #@! TO.P,J7,2,Pin_2*
X37800000Y18375000D03*
G04 #@! TO.P,J7,3,Pin_3*
X40300000Y18375000D03*
G04 #@! TO.P,J7,4,Pin_4*
G04 #@! TO.N,GND*
X42800000Y18375000D03*
G04 #@! TO.P,J7,5,Pin_5*
X45300000Y18375000D03*
G04 #@! TD*
D45*
G04 #@! TO.P,J8,1,VBUS*
G04 #@! TO.N,N/C*
X54050000Y18975000D03*
D46*
G04 #@! TO.P,J8,2,D-*
X52300000Y19775000D03*
G04 #@! TO.P,J8,3,D+*
X54050000Y20575000D03*
G04 #@! TO.P,J8,4,ID*
X52300000Y21375000D03*
G04 #@! TO.P,J8,5,GND*
G04 #@! TO.N,GND*
X54050000Y22175000D03*
D47*
G04 #@! TO.P,J8,6,Shield*
X53175000Y16925000D03*
X53175000Y24225000D03*
G04 #@! TD*
D11*
G04 #@! TO.P,M1,E1,VBAT*
G04 #@! TO.N,N/C*
X49049996Y52699999D03*
G04 #@! TO.P,M1,E2,V12*
X49049996Y46300002D03*
G04 #@! TO.P,M1,E3,VIGN*
X49049996Y44399999D03*
G04 #@! TO.P,M1,E4,V5*
G04 #@! TO.N,+5V*
X49049996Y40099999D03*
D16*
G04 #@! TO.P,M1,E5,EN_5VP*
G04 #@! TO.N,N/C*
X49499995Y37700002D03*
G04 #@! TO.P,M1,E6,PG_5VP*
X49499995Y36700001D03*
D48*
G04 #@! TO.P,M1,S1,GND*
G04 #@! TO.N,GND*
X32900000Y48849999D03*
D49*
X32900000Y40350001D03*
D50*
X32900000Y33249999D03*
D51*
X41299998Y33199999D03*
D52*
X42099999Y53799999D03*
D11*
X49049996Y33849999D03*
D50*
X49699997Y53749999D03*
D53*
X49699997Y49550001D03*
D54*
X49699997Y42199999D03*
D55*
X49699997Y38700002D03*
D56*
X49699997Y35400001D03*
D11*
G04 #@! TO.P,M1,V1,V12_PERM*
G04 #@! TO.N,+12V_RAW*
X33549999Y53150001D03*
G04 #@! TO.P,M1,V2,IN_VIGN*
G04 #@! TO.N,/IN_VIGN*
X33549999Y51300002D03*
G04 #@! TO.P,M1,V3,V12_RAW*
G04 #@! TO.N,+12V_RAW*
X33549999Y46349999D03*
G04 #@! TO.P,M1,V4,5VP*
G04 #@! TO.N,+5VP*
X33549999Y34300001D03*
G04 #@! TD*
D57*
G04 #@! TO.P,M7,V6,CAN_RX*
G04 #@! TO.N,N/C*
X43549998Y30699998D03*
G04 #@! TO.P,M7,V5,CAN_TX*
X43625001Y27149997D03*
G04 #@! TO.P,M7,V2,CAN_VIO*
X42449997Y26399999D03*
G04 #@! TO.P,M7,V1,V5*
G04 #@! TO.N,+5VA*
X43324999Y25874999D03*
G04 #@! TD*
D58*
G04 #@! TO.N,unconnected-(P1-Pad59)*
X160850000Y104225000D03*
X161000000Y97400000D03*
X2700000Y31550000D03*
X114725000Y3775000D03*
X2700000Y76500000D03*
X161000000Y88000000D03*
X2700000Y56075000D03*
X92650000Y3775000D03*
X161000000Y77975000D03*
X2700000Y20675000D03*
X2700000Y65975000D03*
X161000000Y46600000D03*
X2700000Y95925000D03*
X102925000Y3775000D03*
X161000000Y67450000D03*
X161000000Y33025000D03*
X147650000Y3775000D03*
X59725000Y3750000D03*
X2700000Y86525000D03*
X161000000Y22150000D03*
X49200000Y3800000D03*
X81775000Y3750000D03*
X161000000Y57550000D03*
X15575000Y3750000D03*
X2700000Y45125000D03*
X136775000Y3775000D03*
X71150000Y3750000D03*
X27125000Y3800000D03*
X126150000Y3775000D03*
X2700000Y103900000D03*
G04 #@! TD*
G04 #@! TA.AperFunction,Conductor*
G04 #@! TO.N,unconnected-(P1-Pad59)*
G36*
X5741212Y105888998D02*
G01*
X5787705Y105835342D01*
X5799091Y105782856D01*
X5699999Y19375001D01*
X5700000Y19375001D01*
X5700000Y19375000D01*
X6683340Y19276666D01*
X6715651Y19269038D01*
X10878998Y17683001D01*
X10916939Y17660233D01*
X14785879Y14287310D01*
X14809926Y14259118D01*
X15164173Y13692323D01*
X16787489Y11095017D01*
X16804416Y11051813D01*
X17600000Y6875000D01*
X145399999Y6875000D01*
X145400000Y6875000D01*
X146096617Y10656637D01*
X146108563Y10691593D01*
X147686944Y13749705D01*
X147722664Y13792226D01*
X152676274Y17556969D01*
X152729287Y17580492D01*
X157500000Y18475000D01*
X157526549Y65255851D01*
X157549551Y105783072D01*
X157569592Y105851181D01*
X157623274Y105897643D01*
X157675551Y105909000D01*
X162054480Y105909000D01*
X162122601Y105888998D01*
X162143575Y105872095D01*
X163372095Y104643576D01*
X163406120Y104581264D01*
X163409000Y104554481D01*
X163409000Y41917000D01*
X163388998Y41848879D01*
X163335342Y41802386D01*
X163283000Y41791000D01*
X161300025Y41791000D01*
X161173295Y41791017D01*
X160922656Y41753271D01*
X160922641Y41753267D01*
X160680436Y41678586D01*
X160452060Y41568632D01*
X160242623Y41425865D01*
X160056807Y41253479D01*
X160056806Y41253477D01*
X159898763Y41055321D01*
X159898755Y41055310D01*
X159772017Y40835815D01*
X159679406Y40599867D01*
X159623002Y40352768D01*
X159623001Y40352762D01*
X159623001Y40352759D01*
X159604058Y40100000D01*
X159622999Y39847263D01*
X159623002Y39847233D01*
X159679406Y39600134D01*
X159772017Y39364186D01*
X159898755Y39144691D01*
X159898763Y39144680D01*
X160056806Y38946524D01*
X160056807Y38946522D01*
X160105200Y38901627D01*
X160242623Y38774135D01*
X160452060Y38631369D01*
X160680436Y38521415D01*
X160680435Y38521415D01*
X160922505Y38446776D01*
X160922651Y38446731D01*
X160922653Y38446731D01*
X160922656Y38446730D01*
X161011244Y38433389D01*
X161173292Y38408984D01*
X161173294Y38408985D01*
X161173295Y38408984D01*
X161300025Y38409000D01*
X163283000Y38409000D01*
X163351121Y38388998D01*
X163397614Y38335342D01*
X163409000Y38283000D01*
X163409000Y15155519D01*
X163388998Y15087398D01*
X163372095Y15066424D01*
X162143576Y13837905D01*
X162081264Y13803879D01*
X162054481Y13801000D01*
X159451150Y13801000D01*
X158874614Y13764727D01*
X158874613Y13764727D01*
X158301506Y13692326D01*
X158301493Y13692324D01*
X157734045Y13584077D01*
X157734037Y13584076D01*
X157174534Y13440419D01*
X157174510Y13440412D01*
X156625119Y13261903D01*
X156088011Y13049247D01*
X156087993Y13049239D01*
X155565321Y12803287D01*
X155565314Y12803283D01*
X155059091Y12524985D01*
X155059088Y12524984D01*
X155059075Y12524976D01*
X154571344Y12215452D01*
X154571332Y12215444D01*
X154104002Y11875909D01*
X154103995Y11875904D01*
X153658898Y11507689D01*
X153658874Y11507667D01*
X153237772Y11112228D01*
X152842333Y10691126D01*
X152842311Y10691102D01*
X152474096Y10246005D01*
X152474091Y10245998D01*
X152134556Y9778668D01*
X152134548Y9778656D01*
X151825024Y9290925D01*
X151825016Y9290912D01*
X151825015Y9290909D01*
X151673058Y9014500D01*
X151546713Y8784679D01*
X151300761Y8262007D01*
X151300753Y8261989D01*
X151088097Y7724881D01*
X150909588Y7175490D01*
X150909581Y7175466D01*
X150765924Y6615963D01*
X150765923Y6615955D01*
X150657676Y6048507D01*
X150657674Y6048494D01*
X150585273Y5475387D01*
X150585273Y5475386D01*
X150549000Y4898851D01*
X150549000Y2295519D01*
X150528998Y2227398D01*
X150512095Y2206424D01*
X149283576Y977905D01*
X149221264Y943879D01*
X149194481Y941000D01*
X14005518Y941000D01*
X13937397Y961002D01*
X13916423Y977905D01*
X12687905Y2206423D01*
X12653879Y2268735D01*
X12651000Y2295518D01*
X12651000Y4658141D01*
X12650999Y4658155D01*
X12650999Y4898849D01*
X12650998Y4898850D01*
X12650998Y4898851D01*
X12614726Y5475375D01*
X12614724Y5475387D01*
X12578794Y5759805D01*
X12542324Y6048498D01*
X12434078Y6615943D01*
X12434074Y6615956D01*
X12434074Y6615962D01*
X12290417Y7175465D01*
X12290410Y7175489D01*
X12203958Y7441560D01*
X12111903Y7724876D01*
X11899246Y8261987D01*
X11653283Y8784685D01*
X11374985Y9290908D01*
X11065450Y9778657D01*
X10725899Y10246008D01*
X10386198Y10656637D01*
X10357671Y10691121D01*
X9962226Y11112227D01*
X9541124Y11507666D01*
X9541123Y11507667D01*
X9541117Y11507673D01*
X9541110Y11507679D01*
X9541100Y11507688D01*
X9096004Y11875903D01*
X9095997Y11875908D01*
X8628667Y12215443D01*
X8628655Y12215451D01*
X8140924Y12524975D01*
X8140917Y12524979D01*
X8140909Y12524984D01*
X7634686Y12803282D01*
X7634680Y12803285D01*
X7634678Y12803286D01*
X7112006Y13049238D01*
X7111988Y13049246D01*
X6574880Y13261902D01*
X6025489Y13440411D01*
X6025465Y13440418D01*
X5465962Y13584075D01*
X5465954Y13584076D01*
X5465938Y13584079D01*
X5343372Y13607460D01*
X4898506Y13692323D01*
X4898493Y13692325D01*
X4325385Y13764726D01*
X3748850Y13800999D01*
X3748839Y13800999D01*
X3497992Y13800999D01*
X1145518Y13800999D01*
X1077397Y13821001D01*
X1056423Y13837904D01*
X-172095Y15066422D01*
X-206121Y15128734D01*
X-209000Y15155517D01*
X-209000Y38282999D01*
X-188998Y38351120D01*
X-135342Y38397613D01*
X-83000Y38408999D01*
X1950004Y38408999D01*
X1950024Y38409001D01*
X2026719Y38409001D01*
X2026723Y38409001D01*
X2277338Y38446775D01*
X2519317Y38521415D01*
X2519515Y38521476D01*
X2519517Y38521478D01*
X2519524Y38521479D01*
X2747871Y38631445D01*
X2957277Y38774216D01*
X3143066Y38946603D01*
X3301087Y39144755D01*
X3381776Y39284513D01*
X3427808Y39364242D01*
X3427810Y39364246D01*
X3520404Y39600172D01*
X3576801Y39847263D01*
X3595741Y40100000D01*
X3576801Y40352737D01*
X3520404Y40599828D01*
X3427810Y40835754D01*
X3427809Y40835755D01*
X3427808Y40835759D01*
X3301089Y41055242D01*
X3301035Y41055310D01*
X3143066Y41253397D01*
X2957277Y41425784D01*
X2957158Y41425865D01*
X2846036Y41501627D01*
X2747873Y41568554D01*
X2519528Y41678520D01*
X2519515Y41678525D01*
X2277348Y41753223D01*
X2277340Y41753225D01*
X2277338Y41753225D01*
X2026723Y41790999D01*
X2026719Y41790999D01*
X-83000Y41790999D01*
X-151121Y41811001D01*
X-197614Y41864657D01*
X-209000Y41916999D01*
X-209000Y104554481D01*
X-188998Y104622602D01*
X-172095Y104643576D01*
X1056424Y105872095D01*
X1118736Y105906121D01*
X1145519Y105909000D01*
X5673091Y105909000D01*
X5741212Y105888998D01*
G37*
G04 #@! TD.AperFunction*
G04 #@! TD*
M02*
