G04 #@! TF.GenerationSoftware,KiCad,Pcbnew,8.0.8*
G04 #@! TF.CreationDate,2025-12-05T18:20:35-05:00*
G04 #@! TF.ProjectId,hellen121vag,68656c6c-656e-4313-9231-7661672e6b69,d*
G04 #@! TF.SameCoordinates,PX2b953a0PY6943058*
G04 #@! TF.FileFunction,Legend,Bot*
G04 #@! TF.FilePolarity,Positive*
%FSLAX46Y46*%
G04 Gerber Fmt 4.6, Leading zero omitted, Abs format (unit mm)*
G04 Created by KiCad (PCBNEW 8.0.8) date 2025-12-05 18:20:35*
%MOMM*%
%LPD*%
G01*
G04 APERTURE LIST*
%ADD10C,0.170000*%
%ADD11C,0.150000*%
%ADD12C,0.200000*%
%ADD13C,0.127000*%
%ADD14C,0.120000*%
%ADD15C,0.150012*%
%ADD16C,0.203200*%
%ADD17C,0.099060*%
G04 APERTURE END LIST*
D10*
X285370508Y2580238D02*
X284550508Y2580238D01*
X284550508Y2580238D02*
X284550508Y2385000D01*
X284550508Y2385000D02*
X284589556Y2267857D01*
X284589556Y2267857D02*
X284667651Y2189762D01*
X284667651Y2189762D02*
X284745746Y2150715D01*
X284745746Y2150715D02*
X284901937Y2111667D01*
X284901937Y2111667D02*
X285019080Y2111667D01*
X285019080Y2111667D02*
X285175270Y2150715D01*
X285175270Y2150715D02*
X285253365Y2189762D01*
X285253365Y2189762D02*
X285331461Y2267857D01*
X285331461Y2267857D02*
X285370508Y2385000D01*
X285370508Y2385000D02*
X285370508Y2580238D01*
X284823841Y1408810D02*
X285370508Y1408810D01*
X284511461Y1604048D02*
X285097175Y1799286D01*
X285097175Y1799286D02*
X285097175Y1291667D01*
X288509347Y-7297668D02*
X288548395Y-7336716D01*
X288548395Y-7336716D02*
X288665538Y-7375763D01*
X288665538Y-7375763D02*
X288743633Y-7375763D01*
X288743633Y-7375763D02*
X288860776Y-7336716D01*
X288860776Y-7336716D02*
X288938872Y-7258620D01*
X288938872Y-7258620D02*
X288977919Y-7180525D01*
X288977919Y-7180525D02*
X289016967Y-7024334D01*
X289016967Y-7024334D02*
X289016967Y-6907191D01*
X289016967Y-6907191D02*
X288977919Y-6751001D01*
X288977919Y-6751001D02*
X288938872Y-6672905D01*
X288938872Y-6672905D02*
X288860776Y-6594810D01*
X288860776Y-6594810D02*
X288743633Y-6555762D01*
X288743633Y-6555762D02*
X288665538Y-6555762D01*
X288665538Y-6555762D02*
X288548395Y-6594810D01*
X288548395Y-6594810D02*
X288509347Y-6633858D01*
X288236014Y-6555762D02*
X287728394Y-6555762D01*
X287728394Y-6555762D02*
X288001728Y-6868144D01*
X288001728Y-6868144D02*
X287884585Y-6868144D01*
X287884585Y-6868144D02*
X287806489Y-6907191D01*
X287806489Y-6907191D02*
X287767442Y-6946239D01*
X287767442Y-6946239D02*
X287728394Y-7024334D01*
X287728394Y-7024334D02*
X287728394Y-7219573D01*
X287728394Y-7219573D02*
X287767442Y-7297668D01*
X287767442Y-7297668D02*
X287806489Y-7336716D01*
X287806489Y-7336716D02*
X287884585Y-7375763D01*
X287884585Y-7375763D02*
X288118871Y-7375763D01*
X288118871Y-7375763D02*
X288196966Y-7336716D01*
X288196966Y-7336716D02*
X288236014Y-7297668D01*
X287220775Y-6555762D02*
X287142679Y-6555762D01*
X287142679Y-6555762D02*
X287064584Y-6594810D01*
X287064584Y-6594810D02*
X287025536Y-6633858D01*
X287025536Y-6633858D02*
X286986489Y-6711953D01*
X286986489Y-6711953D02*
X286947441Y-6868144D01*
X286947441Y-6868144D02*
X286947441Y-7063382D01*
X286947441Y-7063382D02*
X286986489Y-7219573D01*
X286986489Y-7219573D02*
X287025536Y-7297668D01*
X287025536Y-7297668D02*
X287064584Y-7336716D01*
X287064584Y-7336716D02*
X287142679Y-7375763D01*
X287142679Y-7375763D02*
X287220775Y-7375763D01*
X287220775Y-7375763D02*
X287298870Y-7336716D01*
X287298870Y-7336716D02*
X287337918Y-7297668D01*
X287337918Y-7297668D02*
X287376965Y-7219573D01*
X287376965Y-7219573D02*
X287416013Y-7063382D01*
X287416013Y-7063382D02*
X287416013Y-6868144D01*
X287416013Y-6868144D02*
X287376965Y-6711953D01*
X287376965Y-6711953D02*
X287337918Y-6633858D01*
X287337918Y-6633858D02*
X287298870Y-6594810D01*
X287298870Y-6594810D02*
X287220775Y-6555762D01*
D11*
X314984285Y-19269819D02*
X314984285Y-18269819D01*
X314984285Y-18269819D02*
X314603333Y-18269819D01*
X314603333Y-18269819D02*
X314508095Y-18317438D01*
X314508095Y-18317438D02*
X314460476Y-18365057D01*
X314460476Y-18365057D02*
X314412857Y-18460295D01*
X314412857Y-18460295D02*
X314412857Y-18603152D01*
X314412857Y-18603152D02*
X314460476Y-18698390D01*
X314460476Y-18698390D02*
X314508095Y-18746009D01*
X314508095Y-18746009D02*
X314603333Y-18793628D01*
X314603333Y-18793628D02*
X314984285Y-18793628D01*
X313460476Y-19269819D02*
X314031904Y-19269819D01*
X313746190Y-19269819D02*
X313746190Y-18269819D01*
X313746190Y-18269819D02*
X313841428Y-18412676D01*
X313841428Y-18412676D02*
X313936666Y-18507914D01*
X313936666Y-18507914D02*
X314031904Y-18555533D01*
X312603333Y-18269819D02*
X312793809Y-18269819D01*
X312793809Y-18269819D02*
X312889047Y-18317438D01*
X312889047Y-18317438D02*
X312936666Y-18365057D01*
X312936666Y-18365057D02*
X313031904Y-18507914D01*
X313031904Y-18507914D02*
X313079523Y-18698390D01*
X313079523Y-18698390D02*
X313079523Y-19079342D01*
X313079523Y-19079342D02*
X313031904Y-19174580D01*
X313031904Y-19174580D02*
X312984285Y-19222200D01*
X312984285Y-19222200D02*
X312889047Y-19269819D01*
X312889047Y-19269819D02*
X312698571Y-19269819D01*
X312698571Y-19269819D02*
X312603333Y-19222200D01*
X312603333Y-19222200D02*
X312555714Y-19174580D01*
X312555714Y-19174580D02*
X312508095Y-19079342D01*
X312508095Y-19079342D02*
X312508095Y-18841247D01*
X312508095Y-18841247D02*
X312555714Y-18746009D01*
X312555714Y-18746009D02*
X312603333Y-18698390D01*
X312603333Y-18698390D02*
X312698571Y-18650771D01*
X312698571Y-18650771D02*
X312889047Y-18650771D01*
X312889047Y-18650771D02*
X312984285Y-18698390D01*
X312984285Y-18698390D02*
X313031904Y-18746009D01*
X313031904Y-18746009D02*
X313079523Y-18841247D01*
D10*
X296892608Y-84595653D02*
X296931656Y-84556605D01*
X296931656Y-84556605D02*
X296970703Y-84439462D01*
X296970703Y-84439462D02*
X296970703Y-84361367D01*
X296970703Y-84361367D02*
X296931656Y-84244224D01*
X296931656Y-84244224D02*
X296853560Y-84166129D01*
X296853560Y-84166129D02*
X296775465Y-84127081D01*
X296775465Y-84127081D02*
X296619274Y-84088033D01*
X296619274Y-84088033D02*
X296502131Y-84088033D01*
X296502131Y-84088033D02*
X296345941Y-84127081D01*
X296345941Y-84127081D02*
X296267845Y-84166129D01*
X296267845Y-84166129D02*
X296189750Y-84244224D01*
X296189750Y-84244224D02*
X296150702Y-84361367D01*
X296150702Y-84361367D02*
X296150702Y-84439462D01*
X296150702Y-84439462D02*
X296189750Y-84556605D01*
X296189750Y-84556605D02*
X296228798Y-84595653D01*
X296228798Y-84908034D02*
X296189750Y-84947082D01*
X296189750Y-84947082D02*
X296150702Y-85025177D01*
X296150702Y-85025177D02*
X296150702Y-85220416D01*
X296150702Y-85220416D02*
X296189750Y-85298511D01*
X296189750Y-85298511D02*
X296228798Y-85337559D01*
X296228798Y-85337559D02*
X296306893Y-85376606D01*
X296306893Y-85376606D02*
X296384988Y-85376606D01*
X296384988Y-85376606D02*
X296502131Y-85337559D01*
X296502131Y-85337559D02*
X296970703Y-84868987D01*
X296970703Y-84868987D02*
X296970703Y-85376606D01*
X296150702Y-85649940D02*
X296150702Y-86196607D01*
X296150702Y-86196607D02*
X296970703Y-85845178D01*
D11*
X239967857Y-57954819D02*
X240301190Y-57478628D01*
X240539285Y-57954819D02*
X240539285Y-56954819D01*
X240539285Y-56954819D02*
X240158333Y-56954819D01*
X240158333Y-56954819D02*
X240063095Y-57002438D01*
X240063095Y-57002438D02*
X240015476Y-57050057D01*
X240015476Y-57050057D02*
X239967857Y-57145295D01*
X239967857Y-57145295D02*
X239967857Y-57288152D01*
X239967857Y-57288152D02*
X240015476Y-57383390D01*
X240015476Y-57383390D02*
X240063095Y-57431009D01*
X240063095Y-57431009D02*
X240158333Y-57478628D01*
X240158333Y-57478628D02*
X240539285Y-57478628D01*
X239586904Y-57050057D02*
X239539285Y-57002438D01*
X239539285Y-57002438D02*
X239444047Y-56954819D01*
X239444047Y-56954819D02*
X239205952Y-56954819D01*
X239205952Y-56954819D02*
X239110714Y-57002438D01*
X239110714Y-57002438D02*
X239063095Y-57050057D01*
X239063095Y-57050057D02*
X239015476Y-57145295D01*
X239015476Y-57145295D02*
X239015476Y-57240533D01*
X239015476Y-57240533D02*
X239063095Y-57383390D01*
X239063095Y-57383390D02*
X239634523Y-57954819D01*
X239634523Y-57954819D02*
X239015476Y-57954819D01*
X238396428Y-56954819D02*
X238301190Y-56954819D01*
X238301190Y-56954819D02*
X238205952Y-57002438D01*
X238205952Y-57002438D02*
X238158333Y-57050057D01*
X238158333Y-57050057D02*
X238110714Y-57145295D01*
X238110714Y-57145295D02*
X238063095Y-57335771D01*
X238063095Y-57335771D02*
X238063095Y-57573866D01*
X238063095Y-57573866D02*
X238110714Y-57764342D01*
X238110714Y-57764342D02*
X238158333Y-57859580D01*
X238158333Y-57859580D02*
X238205952Y-57907200D01*
X238205952Y-57907200D02*
X238301190Y-57954819D01*
X238301190Y-57954819D02*
X238396428Y-57954819D01*
X238396428Y-57954819D02*
X238491666Y-57907200D01*
X238491666Y-57907200D02*
X238539285Y-57859580D01*
X238539285Y-57859580D02*
X238586904Y-57764342D01*
X238586904Y-57764342D02*
X238634523Y-57573866D01*
X238634523Y-57573866D02*
X238634523Y-57335771D01*
X238634523Y-57335771D02*
X238586904Y-57145295D01*
X238586904Y-57145295D02*
X238539285Y-57050057D01*
X238539285Y-57050057D02*
X238491666Y-57002438D01*
X238491666Y-57002438D02*
X238396428Y-56954819D01*
X315143094Y-90736842D02*
X315143094Y-89736842D01*
X315143094Y-89736842D02*
X314904999Y-89736842D01*
X314904999Y-89736842D02*
X314762142Y-89784461D01*
X314762142Y-89784461D02*
X314666904Y-89879699D01*
X314666904Y-89879699D02*
X314619285Y-89974937D01*
X314619285Y-89974937D02*
X314571666Y-90165413D01*
X314571666Y-90165413D02*
X314571666Y-90308270D01*
X314571666Y-90308270D02*
X314619285Y-90498746D01*
X314619285Y-90498746D02*
X314666904Y-90593984D01*
X314666904Y-90593984D02*
X314762142Y-90689223D01*
X314762142Y-90689223D02*
X314904999Y-90736842D01*
X314904999Y-90736842D02*
X315143094Y-90736842D01*
X314000237Y-90165413D02*
X314095475Y-90117794D01*
X314095475Y-90117794D02*
X314143094Y-90070175D01*
X314143094Y-90070175D02*
X314190713Y-89974937D01*
X314190713Y-89974937D02*
X314190713Y-89927318D01*
X314190713Y-89927318D02*
X314143094Y-89832080D01*
X314143094Y-89832080D02*
X314095475Y-89784461D01*
X314095475Y-89784461D02*
X314000237Y-89736842D01*
X314000237Y-89736842D02*
X313809761Y-89736842D01*
X313809761Y-89736842D02*
X313714523Y-89784461D01*
X313714523Y-89784461D02*
X313666904Y-89832080D01*
X313666904Y-89832080D02*
X313619285Y-89927318D01*
X313619285Y-89927318D02*
X313619285Y-89974937D01*
X313619285Y-89974937D02*
X313666904Y-90070175D01*
X313666904Y-90070175D02*
X313714523Y-90117794D01*
X313714523Y-90117794D02*
X313809761Y-90165413D01*
X313809761Y-90165413D02*
X314000237Y-90165413D01*
X314000237Y-90165413D02*
X314095475Y-90213032D01*
X314095475Y-90213032D02*
X314143094Y-90260651D01*
X314143094Y-90260651D02*
X314190713Y-90355889D01*
X314190713Y-90355889D02*
X314190713Y-90546365D01*
X314190713Y-90546365D02*
X314143094Y-90641603D01*
X314143094Y-90641603D02*
X314095475Y-90689223D01*
X314095475Y-90689223D02*
X314000237Y-90736842D01*
X314000237Y-90736842D02*
X313809761Y-90736842D01*
X313809761Y-90736842D02*
X313714523Y-90689223D01*
X313714523Y-90689223D02*
X313666904Y-90641603D01*
X313666904Y-90641603D02*
X313619285Y-90546365D01*
X313619285Y-90546365D02*
X313619285Y-90355889D01*
X313619285Y-90355889D02*
X313666904Y-90260651D01*
X313666904Y-90260651D02*
X313714523Y-90213032D01*
X313714523Y-90213032D02*
X313809761Y-90165413D01*
X309459819Y-13661905D02*
X310269342Y-13661905D01*
X310269342Y-13661905D02*
X310364580Y-13709524D01*
X310364580Y-13709524D02*
X310412200Y-13757143D01*
X310412200Y-13757143D02*
X310459819Y-13852381D01*
X310459819Y-13852381D02*
X310459819Y-14042857D01*
X310459819Y-14042857D02*
X310412200Y-14138095D01*
X310412200Y-14138095D02*
X310364580Y-14185714D01*
X310364580Y-14185714D02*
X310269342Y-14233333D01*
X310269342Y-14233333D02*
X309459819Y-14233333D01*
X310459819Y-15233333D02*
X310459819Y-14661905D01*
X310459819Y-14947619D02*
X309459819Y-14947619D01*
X309459819Y-14947619D02*
X309602676Y-14852381D01*
X309602676Y-14852381D02*
X309697914Y-14757143D01*
X309697914Y-14757143D02*
X309745533Y-14661905D01*
X309459819Y-15852381D02*
X309459819Y-15947619D01*
X309459819Y-15947619D02*
X309507438Y-16042857D01*
X309507438Y-16042857D02*
X309555057Y-16090476D01*
X309555057Y-16090476D02*
X309650295Y-16138095D01*
X309650295Y-16138095D02*
X309840771Y-16185714D01*
X309840771Y-16185714D02*
X310078866Y-16185714D01*
X310078866Y-16185714D02*
X310269342Y-16138095D01*
X310269342Y-16138095D02*
X310364580Y-16090476D01*
X310364580Y-16090476D02*
X310412200Y-16042857D01*
X310412200Y-16042857D02*
X310459819Y-15947619D01*
X310459819Y-15947619D02*
X310459819Y-15852381D01*
X310459819Y-15852381D02*
X310412200Y-15757143D01*
X310412200Y-15757143D02*
X310364580Y-15709524D01*
X310364580Y-15709524D02*
X310269342Y-15661905D01*
X310269342Y-15661905D02*
X310078866Y-15614286D01*
X310078866Y-15614286D02*
X309840771Y-15614286D01*
X309840771Y-15614286D02*
X309650295Y-15661905D01*
X309650295Y-15661905D02*
X309555057Y-15709524D01*
X309555057Y-15709524D02*
X309507438Y-15757143D01*
X309507438Y-15757143D02*
X309459819Y-15852381D01*
X305499977Y8863986D02*
X305357120Y8816367D01*
X305357120Y8816367D02*
X305309501Y8768748D01*
X305309501Y8768748D02*
X305261882Y8673510D01*
X305261882Y8673510D02*
X305261882Y8530653D01*
X305261882Y8530653D02*
X305309501Y8435415D01*
X305309501Y8435415D02*
X305357120Y8387795D01*
X305357120Y8387795D02*
X305452358Y8340176D01*
X305452358Y8340176D02*
X305833310Y8340176D01*
X305833310Y8340176D02*
X305833310Y9340176D01*
X305833310Y9340176D02*
X305499977Y9340176D01*
X305499977Y9340176D02*
X305404739Y9292557D01*
X305404739Y9292557D02*
X305357120Y9244938D01*
X305357120Y9244938D02*
X305309501Y9149700D01*
X305309501Y9149700D02*
X305309501Y9054462D01*
X305309501Y9054462D02*
X305357120Y8959224D01*
X305357120Y8959224D02*
X305404739Y8911605D01*
X305404739Y8911605D02*
X305499977Y8863986D01*
X305499977Y8863986D02*
X305833310Y8863986D01*
X304976167Y9340176D02*
X304404739Y9340176D01*
X304690453Y8340176D02*
X304690453Y9340176D01*
X303547596Y8340176D02*
X304119024Y8340176D01*
X303833310Y8340176D02*
X303833310Y9340176D01*
X303833310Y9340176D02*
X303928548Y9197319D01*
X303928548Y9197319D02*
X304023786Y9102081D01*
X304023786Y9102081D02*
X304119024Y9054462D01*
D12*
X297763304Y25668242D02*
X297825208Y25606337D01*
X297825208Y25606337D02*
X298010923Y25544433D01*
X298010923Y25544433D02*
X298134732Y25544433D01*
X298134732Y25544433D02*
X298320446Y25606337D01*
X298320446Y25606337D02*
X298444256Y25730147D01*
X298444256Y25730147D02*
X298506161Y25853957D01*
X298506161Y25853957D02*
X298568065Y26101576D01*
X298568065Y26101576D02*
X298568065Y26287290D01*
X298568065Y26287290D02*
X298506161Y26534909D01*
X298506161Y26534909D02*
X298444256Y26658718D01*
X298444256Y26658718D02*
X298320446Y26782528D01*
X298320446Y26782528D02*
X298134732Y26844433D01*
X298134732Y26844433D02*
X298010923Y26844433D01*
X298010923Y26844433D02*
X297825208Y26782528D01*
X297825208Y26782528D02*
X297763304Y26720623D01*
X296463304Y25544433D02*
X296896637Y26163480D01*
X297206161Y25544433D02*
X297206161Y26844433D01*
X297206161Y26844433D02*
X296710923Y26844433D01*
X296710923Y26844433D02*
X296587113Y26782528D01*
X296587113Y26782528D02*
X296525208Y26720623D01*
X296525208Y26720623D02*
X296463304Y26596814D01*
X296463304Y26596814D02*
X296463304Y26411099D01*
X296463304Y26411099D02*
X296525208Y26287290D01*
X296525208Y26287290D02*
X296587113Y26225385D01*
X296587113Y26225385D02*
X296710923Y26163480D01*
X296710923Y26163480D02*
X297206161Y26163480D01*
X295225208Y25544433D02*
X295968065Y25544433D01*
X295596637Y25544433D02*
X295596637Y26844433D01*
X295596637Y26844433D02*
X295720446Y26658718D01*
X295720446Y26658718D02*
X295844256Y26534909D01*
X295844256Y26534909D02*
X295968065Y26473004D01*
X294729970Y26720623D02*
X294668066Y26782528D01*
X294668066Y26782528D02*
X294544256Y26844433D01*
X294544256Y26844433D02*
X294234732Y26844433D01*
X294234732Y26844433D02*
X294110923Y26782528D01*
X294110923Y26782528D02*
X294049018Y26720623D01*
X294049018Y26720623D02*
X293987113Y26596814D01*
X293987113Y26596814D02*
X293987113Y26473004D01*
X293987113Y26473004D02*
X294049018Y26287290D01*
X294049018Y26287290D02*
X294791875Y25544433D01*
X294791875Y25544433D02*
X293987113Y25544433D01*
X293491875Y26720623D02*
X293429971Y26782528D01*
X293429971Y26782528D02*
X293306161Y26844433D01*
X293306161Y26844433D02*
X292996637Y26844433D01*
X292996637Y26844433D02*
X292872828Y26782528D01*
X292872828Y26782528D02*
X292810923Y26720623D01*
X292810923Y26720623D02*
X292749018Y26596814D01*
X292749018Y26596814D02*
X292749018Y26473004D01*
X292749018Y26473004D02*
X292810923Y26287290D01*
X292810923Y26287290D02*
X293553780Y25544433D01*
X293553780Y25544433D02*
X292749018Y25544433D01*
X291944257Y26844433D02*
X291820447Y26844433D01*
X291820447Y26844433D02*
X291696638Y26782528D01*
X291696638Y26782528D02*
X291634733Y26720623D01*
X291634733Y26720623D02*
X291572828Y26596814D01*
X291572828Y26596814D02*
X291510923Y26349195D01*
X291510923Y26349195D02*
X291510923Y26039671D01*
X291510923Y26039671D02*
X291572828Y25792052D01*
X291572828Y25792052D02*
X291634733Y25668242D01*
X291634733Y25668242D02*
X291696638Y25606337D01*
X291696638Y25606337D02*
X291820447Y25544433D01*
X291820447Y25544433D02*
X291944257Y25544433D01*
X291944257Y25544433D02*
X292068066Y25606337D01*
X292068066Y25606337D02*
X292129971Y25668242D01*
X292129971Y25668242D02*
X292191876Y25792052D01*
X292191876Y25792052D02*
X292253780Y26039671D01*
X292253780Y26039671D02*
X292253780Y26349195D01*
X292253780Y26349195D02*
X292191876Y26596814D01*
X292191876Y26596814D02*
X292129971Y26720623D01*
X292129971Y26720623D02*
X292068066Y26782528D01*
X292068066Y26782528D02*
X291944257Y26844433D01*
D10*
X292490397Y-28850651D02*
X292099921Y-28577318D01*
X292490397Y-28382080D02*
X291670397Y-28382080D01*
X291670397Y-28382080D02*
X291670397Y-28694461D01*
X291670397Y-28694461D02*
X291709445Y-28772556D01*
X291709445Y-28772556D02*
X291748492Y-28811603D01*
X291748492Y-28811603D02*
X291826588Y-28850651D01*
X291826588Y-28850651D02*
X291943730Y-28850651D01*
X291943730Y-28850651D02*
X292021826Y-28811603D01*
X292021826Y-28811603D02*
X292060873Y-28772556D01*
X292060873Y-28772556D02*
X292099921Y-28694461D01*
X292099921Y-28694461D02*
X292099921Y-28382080D01*
X291670397Y-29123984D02*
X291670397Y-29631603D01*
X291670397Y-29631603D02*
X291982778Y-29358270D01*
X291982778Y-29358270D02*
X291982778Y-29475413D01*
X291982778Y-29475413D02*
X292021826Y-29553508D01*
X292021826Y-29553508D02*
X292060873Y-29592556D01*
X292060873Y-29592556D02*
X292138969Y-29631603D01*
X292138969Y-29631603D02*
X292334207Y-29631603D01*
X292334207Y-29631603D02*
X292412302Y-29592556D01*
X292412302Y-29592556D02*
X292451350Y-29553508D01*
X292451350Y-29553508D02*
X292490397Y-29475413D01*
X292490397Y-29475413D02*
X292490397Y-29241127D01*
X292490397Y-29241127D02*
X292451350Y-29163032D01*
X292451350Y-29163032D02*
X292412302Y-29123984D01*
X291943730Y-30334460D02*
X292490397Y-30334460D01*
X291631350Y-30139222D02*
X292217064Y-29943984D01*
X292217064Y-29943984D02*
X292217064Y-30451603D01*
X283993259Y-28900651D02*
X283602783Y-28627318D01*
X283993259Y-28432080D02*
X283173259Y-28432080D01*
X283173259Y-28432080D02*
X283173259Y-28744461D01*
X283173259Y-28744461D02*
X283212307Y-28822556D01*
X283212307Y-28822556D02*
X283251354Y-28861603D01*
X283251354Y-28861603D02*
X283329450Y-28900651D01*
X283329450Y-28900651D02*
X283446592Y-28900651D01*
X283446592Y-28900651D02*
X283524688Y-28861603D01*
X283524688Y-28861603D02*
X283563735Y-28822556D01*
X283563735Y-28822556D02*
X283602783Y-28744461D01*
X283602783Y-28744461D02*
X283602783Y-28432080D01*
X283173259Y-29173984D02*
X283173259Y-29681603D01*
X283173259Y-29681603D02*
X283485640Y-29408270D01*
X283485640Y-29408270D02*
X283485640Y-29525413D01*
X283485640Y-29525413D02*
X283524688Y-29603508D01*
X283524688Y-29603508D02*
X283563735Y-29642556D01*
X283563735Y-29642556D02*
X283641831Y-29681603D01*
X283641831Y-29681603D02*
X283837069Y-29681603D01*
X283837069Y-29681603D02*
X283915164Y-29642556D01*
X283915164Y-29642556D02*
X283954212Y-29603508D01*
X283954212Y-29603508D02*
X283993259Y-29525413D01*
X283993259Y-29525413D02*
X283993259Y-29291127D01*
X283993259Y-29291127D02*
X283954212Y-29213032D01*
X283954212Y-29213032D02*
X283915164Y-29173984D01*
X283993259Y-30462555D02*
X283993259Y-29993984D01*
X283993259Y-30228270D02*
X283173259Y-30228270D01*
X283173259Y-30228270D02*
X283290402Y-30150174D01*
X283290402Y-30150174D02*
X283368497Y-30072079D01*
X283368497Y-30072079D02*
X283407545Y-29993984D01*
X301442563Y-87245653D02*
X301481611Y-87206605D01*
X301481611Y-87206605D02*
X301520658Y-87089462D01*
X301520658Y-87089462D02*
X301520658Y-87011367D01*
X301520658Y-87011367D02*
X301481611Y-86894224D01*
X301481611Y-86894224D02*
X301403515Y-86816129D01*
X301403515Y-86816129D02*
X301325420Y-86777081D01*
X301325420Y-86777081D02*
X301169229Y-86738033D01*
X301169229Y-86738033D02*
X301052086Y-86738033D01*
X301052086Y-86738033D02*
X300895896Y-86777081D01*
X300895896Y-86777081D02*
X300817800Y-86816129D01*
X300817800Y-86816129D02*
X300739705Y-86894224D01*
X300739705Y-86894224D02*
X300700657Y-87011367D01*
X300700657Y-87011367D02*
X300700657Y-87089462D01*
X300700657Y-87089462D02*
X300739705Y-87206605D01*
X300739705Y-87206605D02*
X300778753Y-87245653D01*
X300700657Y-87518987D02*
X300700657Y-88026606D01*
X300700657Y-88026606D02*
X301013039Y-87753273D01*
X301013039Y-87753273D02*
X301013039Y-87870416D01*
X301013039Y-87870416D02*
X301052086Y-87948511D01*
X301052086Y-87948511D02*
X301091134Y-87987559D01*
X301091134Y-87987559D02*
X301169229Y-88026606D01*
X301169229Y-88026606D02*
X301364468Y-88026606D01*
X301364468Y-88026606D02*
X301442563Y-87987559D01*
X301442563Y-87987559D02*
X301481611Y-87948511D01*
X301481611Y-87948511D02*
X301520658Y-87870416D01*
X301520658Y-87870416D02*
X301520658Y-87636130D01*
X301520658Y-87636130D02*
X301481611Y-87558034D01*
X301481611Y-87558034D02*
X301442563Y-87518987D01*
X300700657Y-88299940D02*
X300700657Y-88807559D01*
X300700657Y-88807559D02*
X301013039Y-88534226D01*
X301013039Y-88534226D02*
X301013039Y-88651369D01*
X301013039Y-88651369D02*
X301052086Y-88729464D01*
X301052086Y-88729464D02*
X301091134Y-88768512D01*
X301091134Y-88768512D02*
X301169229Y-88807559D01*
X301169229Y-88807559D02*
X301364468Y-88807559D01*
X301364468Y-88807559D02*
X301442563Y-88768512D01*
X301442563Y-88768512D02*
X301481611Y-88729464D01*
X301481611Y-88729464D02*
X301520658Y-88651369D01*
X301520658Y-88651369D02*
X301520658Y-88417083D01*
X301520658Y-88417083D02*
X301481611Y-88338987D01*
X301481611Y-88338987D02*
X301442563Y-88299940D01*
D11*
X239967857Y-62844819D02*
X240301190Y-62368628D01*
X240539285Y-62844819D02*
X240539285Y-61844819D01*
X240539285Y-61844819D02*
X240158333Y-61844819D01*
X240158333Y-61844819D02*
X240063095Y-61892438D01*
X240063095Y-61892438D02*
X240015476Y-61940057D01*
X240015476Y-61940057D02*
X239967857Y-62035295D01*
X239967857Y-62035295D02*
X239967857Y-62178152D01*
X239967857Y-62178152D02*
X240015476Y-62273390D01*
X240015476Y-62273390D02*
X240063095Y-62321009D01*
X240063095Y-62321009D02*
X240158333Y-62368628D01*
X240158333Y-62368628D02*
X240539285Y-62368628D01*
X239586904Y-61940057D02*
X239539285Y-61892438D01*
X239539285Y-61892438D02*
X239444047Y-61844819D01*
X239444047Y-61844819D02*
X239205952Y-61844819D01*
X239205952Y-61844819D02*
X239110714Y-61892438D01*
X239110714Y-61892438D02*
X239063095Y-61940057D01*
X239063095Y-61940057D02*
X239015476Y-62035295D01*
X239015476Y-62035295D02*
X239015476Y-62130533D01*
X239015476Y-62130533D02*
X239063095Y-62273390D01*
X239063095Y-62273390D02*
X239634523Y-62844819D01*
X239634523Y-62844819D02*
X239015476Y-62844819D01*
X238063095Y-62844819D02*
X238634523Y-62844819D01*
X238348809Y-62844819D02*
X238348809Y-61844819D01*
X238348809Y-61844819D02*
X238444047Y-61987676D01*
X238444047Y-61987676D02*
X238539285Y-62082914D01*
X238539285Y-62082914D02*
X238634523Y-62130533D01*
X239967857Y-72624819D02*
X240301190Y-72148628D01*
X240539285Y-72624819D02*
X240539285Y-71624819D01*
X240539285Y-71624819D02*
X240158333Y-71624819D01*
X240158333Y-71624819D02*
X240063095Y-71672438D01*
X240063095Y-71672438D02*
X240015476Y-71720057D01*
X240015476Y-71720057D02*
X239967857Y-71815295D01*
X239967857Y-71815295D02*
X239967857Y-71958152D01*
X239967857Y-71958152D02*
X240015476Y-72053390D01*
X240015476Y-72053390D02*
X240063095Y-72101009D01*
X240063095Y-72101009D02*
X240158333Y-72148628D01*
X240158333Y-72148628D02*
X240539285Y-72148628D01*
X239586904Y-71720057D02*
X239539285Y-71672438D01*
X239539285Y-71672438D02*
X239444047Y-71624819D01*
X239444047Y-71624819D02*
X239205952Y-71624819D01*
X239205952Y-71624819D02*
X239110714Y-71672438D01*
X239110714Y-71672438D02*
X239063095Y-71720057D01*
X239063095Y-71720057D02*
X239015476Y-71815295D01*
X239015476Y-71815295D02*
X239015476Y-71910533D01*
X239015476Y-71910533D02*
X239063095Y-72053390D01*
X239063095Y-72053390D02*
X239634523Y-72624819D01*
X239634523Y-72624819D02*
X239015476Y-72624819D01*
X238158333Y-71624819D02*
X238348809Y-71624819D01*
X238348809Y-71624819D02*
X238444047Y-71672438D01*
X238444047Y-71672438D02*
X238491666Y-71720057D01*
X238491666Y-71720057D02*
X238586904Y-71862914D01*
X238586904Y-71862914D02*
X238634523Y-72053390D01*
X238634523Y-72053390D02*
X238634523Y-72434342D01*
X238634523Y-72434342D02*
X238586904Y-72529580D01*
X238586904Y-72529580D02*
X238539285Y-72577200D01*
X238539285Y-72577200D02*
X238444047Y-72624819D01*
X238444047Y-72624819D02*
X238253571Y-72624819D01*
X238253571Y-72624819D02*
X238158333Y-72577200D01*
X238158333Y-72577200D02*
X238110714Y-72529580D01*
X238110714Y-72529580D02*
X238063095Y-72434342D01*
X238063095Y-72434342D02*
X238063095Y-72196247D01*
X238063095Y-72196247D02*
X238110714Y-72101009D01*
X238110714Y-72101009D02*
X238158333Y-72053390D01*
X238158333Y-72053390D02*
X238253571Y-72005771D01*
X238253571Y-72005771D02*
X238444047Y-72005771D01*
X238444047Y-72005771D02*
X238539285Y-72053390D01*
X238539285Y-72053390D02*
X238586904Y-72101009D01*
X238586904Y-72101009D02*
X238634523Y-72196247D01*
D10*
X289599348Y-4079719D02*
X289638396Y-4118767D01*
X289638396Y-4118767D02*
X289755539Y-4157814D01*
X289755539Y-4157814D02*
X289833634Y-4157814D01*
X289833634Y-4157814D02*
X289950777Y-4118767D01*
X289950777Y-4118767D02*
X290028873Y-4040671D01*
X290028873Y-4040671D02*
X290067920Y-3962576D01*
X290067920Y-3962576D02*
X290106968Y-3806385D01*
X290106968Y-3806385D02*
X290106968Y-3689242D01*
X290106968Y-3689242D02*
X290067920Y-3533052D01*
X290067920Y-3533052D02*
X290028873Y-3454956D01*
X290028873Y-3454956D02*
X289950777Y-3376861D01*
X289950777Y-3376861D02*
X289833634Y-3337813D01*
X289833634Y-3337813D02*
X289755539Y-3337813D01*
X289755539Y-3337813D02*
X289638396Y-3376861D01*
X289638396Y-3376861D02*
X289599348Y-3415909D01*
X289286967Y-3415909D02*
X289247919Y-3376861D01*
X289247919Y-3376861D02*
X289169824Y-3337813D01*
X289169824Y-3337813D02*
X288974586Y-3337813D01*
X288974586Y-3337813D02*
X288896490Y-3376861D01*
X288896490Y-3376861D02*
X288857443Y-3415909D01*
X288857443Y-3415909D02*
X288818395Y-3494004D01*
X288818395Y-3494004D02*
X288818395Y-3572099D01*
X288818395Y-3572099D02*
X288857443Y-3689242D01*
X288857443Y-3689242D02*
X289326015Y-4157814D01*
X289326015Y-4157814D02*
X288818395Y-4157814D01*
X288427919Y-4157814D02*
X288271728Y-4157814D01*
X288271728Y-4157814D02*
X288193633Y-4118767D01*
X288193633Y-4118767D02*
X288154585Y-4079719D01*
X288154585Y-4079719D02*
X288076490Y-3962576D01*
X288076490Y-3962576D02*
X288037442Y-3806385D01*
X288037442Y-3806385D02*
X288037442Y-3494004D01*
X288037442Y-3494004D02*
X288076490Y-3415909D01*
X288076490Y-3415909D02*
X288115537Y-3376861D01*
X288115537Y-3376861D02*
X288193633Y-3337813D01*
X288193633Y-3337813D02*
X288349823Y-3337813D01*
X288349823Y-3337813D02*
X288427919Y-3376861D01*
X288427919Y-3376861D02*
X288466966Y-3415909D01*
X288466966Y-3415909D02*
X288506014Y-3494004D01*
X288506014Y-3494004D02*
X288506014Y-3689242D01*
X288506014Y-3689242D02*
X288466966Y-3767338D01*
X288466966Y-3767338D02*
X288427919Y-3806385D01*
X288427919Y-3806385D02*
X288349823Y-3845433D01*
X288349823Y-3845433D02*
X288193633Y-3845433D01*
X288193633Y-3845433D02*
X288115537Y-3806385D01*
X288115537Y-3806385D02*
X288076490Y-3767338D01*
X288076490Y-3767338D02*
X288037442Y-3689242D01*
D11*
X315909819Y-13461905D02*
X316719342Y-13461905D01*
X316719342Y-13461905D02*
X316814580Y-13509524D01*
X316814580Y-13509524D02*
X316862200Y-13557143D01*
X316862200Y-13557143D02*
X316909819Y-13652381D01*
X316909819Y-13652381D02*
X316909819Y-13842857D01*
X316909819Y-13842857D02*
X316862200Y-13938095D01*
X316862200Y-13938095D02*
X316814580Y-13985714D01*
X316814580Y-13985714D02*
X316719342Y-14033333D01*
X316719342Y-14033333D02*
X315909819Y-14033333D01*
X316909819Y-15033333D02*
X316909819Y-14461905D01*
X316909819Y-14747619D02*
X315909819Y-14747619D01*
X315909819Y-14747619D02*
X316052676Y-14652381D01*
X316052676Y-14652381D02*
X316147914Y-14557143D01*
X316147914Y-14557143D02*
X316195533Y-14461905D01*
X316909819Y-15985714D02*
X316909819Y-15414286D01*
X316909819Y-15700000D02*
X315909819Y-15700000D01*
X315909819Y-15700000D02*
X316052676Y-15604762D01*
X316052676Y-15604762D02*
X316147914Y-15509524D01*
X316147914Y-15509524D02*
X316195533Y-15414286D01*
D10*
X299192606Y-84645653D02*
X299231654Y-84606605D01*
X299231654Y-84606605D02*
X299270701Y-84489462D01*
X299270701Y-84489462D02*
X299270701Y-84411367D01*
X299270701Y-84411367D02*
X299231654Y-84294224D01*
X299231654Y-84294224D02*
X299153558Y-84216129D01*
X299153558Y-84216129D02*
X299075463Y-84177081D01*
X299075463Y-84177081D02*
X298919272Y-84138033D01*
X298919272Y-84138033D02*
X298802129Y-84138033D01*
X298802129Y-84138033D02*
X298645939Y-84177081D01*
X298645939Y-84177081D02*
X298567843Y-84216129D01*
X298567843Y-84216129D02*
X298489748Y-84294224D01*
X298489748Y-84294224D02*
X298450700Y-84411367D01*
X298450700Y-84411367D02*
X298450700Y-84489462D01*
X298450700Y-84489462D02*
X298489748Y-84606605D01*
X298489748Y-84606605D02*
X298528796Y-84645653D01*
X298450700Y-84918987D02*
X298450700Y-85426606D01*
X298450700Y-85426606D02*
X298763082Y-85153273D01*
X298763082Y-85153273D02*
X298763082Y-85270416D01*
X298763082Y-85270416D02*
X298802129Y-85348511D01*
X298802129Y-85348511D02*
X298841177Y-85387559D01*
X298841177Y-85387559D02*
X298919272Y-85426606D01*
X298919272Y-85426606D02*
X299114511Y-85426606D01*
X299114511Y-85426606D02*
X299192606Y-85387559D01*
X299192606Y-85387559D02*
X299231654Y-85348511D01*
X299231654Y-85348511D02*
X299270701Y-85270416D01*
X299270701Y-85270416D02*
X299270701Y-85036130D01*
X299270701Y-85036130D02*
X299231654Y-84958034D01*
X299231654Y-84958034D02*
X299192606Y-84918987D01*
X299270701Y-86207559D02*
X299270701Y-85738987D01*
X299270701Y-85973273D02*
X298450700Y-85973273D01*
X298450700Y-85973273D02*
X298567843Y-85895178D01*
X298567843Y-85895178D02*
X298645939Y-85817083D01*
X298645939Y-85817083D02*
X298684986Y-85738987D01*
D11*
X295206009Y-81216666D02*
X295206009Y-80883333D01*
X295729819Y-80883333D02*
X294729819Y-80883333D01*
X294729819Y-80883333D02*
X294729819Y-81359523D01*
X295729819Y-81788095D02*
X295729819Y-81978571D01*
X295729819Y-81978571D02*
X295682200Y-82073809D01*
X295682200Y-82073809D02*
X295634580Y-82121428D01*
X295634580Y-82121428D02*
X295491723Y-82216666D01*
X295491723Y-82216666D02*
X295301247Y-82264285D01*
X295301247Y-82264285D02*
X294920295Y-82264285D01*
X294920295Y-82264285D02*
X294825057Y-82216666D01*
X294825057Y-82216666D02*
X294777438Y-82169047D01*
X294777438Y-82169047D02*
X294729819Y-82073809D01*
X294729819Y-82073809D02*
X294729819Y-81883333D01*
X294729819Y-81883333D02*
X294777438Y-81788095D01*
X294777438Y-81788095D02*
X294825057Y-81740476D01*
X294825057Y-81740476D02*
X294920295Y-81692857D01*
X294920295Y-81692857D02*
X295158390Y-81692857D01*
X295158390Y-81692857D02*
X295253628Y-81740476D01*
X295253628Y-81740476D02*
X295301247Y-81788095D01*
X295301247Y-81788095D02*
X295348866Y-81883333D01*
X295348866Y-81883333D02*
X295348866Y-82073809D01*
X295348866Y-82073809D02*
X295301247Y-82169047D01*
X295301247Y-82169047D02*
X295253628Y-82216666D01*
X295253628Y-82216666D02*
X295158390Y-82264285D01*
X287726009Y-81266666D02*
X287726009Y-80933333D01*
X288249819Y-80933333D02*
X287249819Y-80933333D01*
X287249819Y-80933333D02*
X287249819Y-81409523D01*
X287249819Y-82219047D02*
X287249819Y-82028571D01*
X287249819Y-82028571D02*
X287297438Y-81933333D01*
X287297438Y-81933333D02*
X287345057Y-81885714D01*
X287345057Y-81885714D02*
X287487914Y-81790476D01*
X287487914Y-81790476D02*
X287678390Y-81742857D01*
X287678390Y-81742857D02*
X288059342Y-81742857D01*
X288059342Y-81742857D02*
X288154580Y-81790476D01*
X288154580Y-81790476D02*
X288202200Y-81838095D01*
X288202200Y-81838095D02*
X288249819Y-81933333D01*
X288249819Y-81933333D02*
X288249819Y-82123809D01*
X288249819Y-82123809D02*
X288202200Y-82219047D01*
X288202200Y-82219047D02*
X288154580Y-82266666D01*
X288154580Y-82266666D02*
X288059342Y-82314285D01*
X288059342Y-82314285D02*
X287821247Y-82314285D01*
X287821247Y-82314285D02*
X287726009Y-82266666D01*
X287726009Y-82266666D02*
X287678390Y-82219047D01*
X287678390Y-82219047D02*
X287630771Y-82123809D01*
X287630771Y-82123809D02*
X287630771Y-81933333D01*
X287630771Y-81933333D02*
X287678390Y-81838095D01*
X287678390Y-81838095D02*
X287726009Y-81790476D01*
X287726009Y-81790476D02*
X287821247Y-81742857D01*
X285766904Y-8654819D02*
X285766904Y-9464342D01*
X285766904Y-9464342D02*
X285719285Y-9559580D01*
X285719285Y-9559580D02*
X285671666Y-9607200D01*
X285671666Y-9607200D02*
X285576428Y-9654819D01*
X285576428Y-9654819D02*
X285385952Y-9654819D01*
X285385952Y-9654819D02*
X285290714Y-9607200D01*
X285290714Y-9607200D02*
X285243095Y-9559580D01*
X285243095Y-9559580D02*
X285195476Y-9464342D01*
X285195476Y-9464342D02*
X285195476Y-8654819D01*
X284290714Y-8988152D02*
X284290714Y-9654819D01*
X284528809Y-8607200D02*
X284766904Y-9321485D01*
X284766904Y-9321485D02*
X284147857Y-9321485D01*
X239967857Y-77514819D02*
X240301190Y-77038628D01*
X240539285Y-77514819D02*
X240539285Y-76514819D01*
X240539285Y-76514819D02*
X240158333Y-76514819D01*
X240158333Y-76514819D02*
X240063095Y-76562438D01*
X240063095Y-76562438D02*
X240015476Y-76610057D01*
X240015476Y-76610057D02*
X239967857Y-76705295D01*
X239967857Y-76705295D02*
X239967857Y-76848152D01*
X239967857Y-76848152D02*
X240015476Y-76943390D01*
X240015476Y-76943390D02*
X240063095Y-76991009D01*
X240063095Y-76991009D02*
X240158333Y-77038628D01*
X240158333Y-77038628D02*
X240539285Y-77038628D01*
X239586904Y-76610057D02*
X239539285Y-76562438D01*
X239539285Y-76562438D02*
X239444047Y-76514819D01*
X239444047Y-76514819D02*
X239205952Y-76514819D01*
X239205952Y-76514819D02*
X239110714Y-76562438D01*
X239110714Y-76562438D02*
X239063095Y-76610057D01*
X239063095Y-76610057D02*
X239015476Y-76705295D01*
X239015476Y-76705295D02*
X239015476Y-76800533D01*
X239015476Y-76800533D02*
X239063095Y-76943390D01*
X239063095Y-76943390D02*
X239634523Y-77514819D01*
X239634523Y-77514819D02*
X239015476Y-77514819D01*
X238682142Y-76514819D02*
X238015476Y-76514819D01*
X238015476Y-76514819D02*
X238444047Y-77514819D01*
X297716009Y-86090476D02*
X297716009Y-85757143D01*
X298239819Y-85757143D02*
X297239819Y-85757143D01*
X297239819Y-85757143D02*
X297239819Y-86233333D01*
X298239819Y-87138095D02*
X298239819Y-86566667D01*
X298239819Y-86852381D02*
X297239819Y-86852381D01*
X297239819Y-86852381D02*
X297382676Y-86757143D01*
X297382676Y-86757143D02*
X297477914Y-86661905D01*
X297477914Y-86661905D02*
X297525533Y-86566667D01*
X297239819Y-87757143D02*
X297239819Y-87852381D01*
X297239819Y-87852381D02*
X297287438Y-87947619D01*
X297287438Y-87947619D02*
X297335057Y-87995238D01*
X297335057Y-87995238D02*
X297430295Y-88042857D01*
X297430295Y-88042857D02*
X297620771Y-88090476D01*
X297620771Y-88090476D02*
X297858866Y-88090476D01*
X297858866Y-88090476D02*
X298049342Y-88042857D01*
X298049342Y-88042857D02*
X298144580Y-87995238D01*
X298144580Y-87995238D02*
X298192200Y-87947619D01*
X298192200Y-87947619D02*
X298239819Y-87852381D01*
X298239819Y-87852381D02*
X298239819Y-87757143D01*
X298239819Y-87757143D02*
X298192200Y-87661905D01*
X298192200Y-87661905D02*
X298144580Y-87614286D01*
X298144580Y-87614286D02*
X298049342Y-87566667D01*
X298049342Y-87566667D02*
X297858866Y-87519048D01*
X297858866Y-87519048D02*
X297620771Y-87519048D01*
X297620771Y-87519048D02*
X297430295Y-87566667D01*
X297430295Y-87566667D02*
X297335057Y-87614286D01*
X297335057Y-87614286D02*
X297287438Y-87661905D01*
X297287438Y-87661905D02*
X297239819Y-87757143D01*
D10*
X279130508Y2580238D02*
X278310508Y2580238D01*
X278310508Y2580238D02*
X278310508Y2385000D01*
X278310508Y2385000D02*
X278349556Y2267857D01*
X278349556Y2267857D02*
X278427651Y2189762D01*
X278427651Y2189762D02*
X278505746Y2150715D01*
X278505746Y2150715D02*
X278661937Y2111667D01*
X278661937Y2111667D02*
X278779080Y2111667D01*
X278779080Y2111667D02*
X278935270Y2150715D01*
X278935270Y2150715D02*
X279013365Y2189762D01*
X279013365Y2189762D02*
X279091461Y2267857D01*
X279091461Y2267857D02*
X279130508Y2385000D01*
X279130508Y2385000D02*
X279130508Y2580238D01*
X278388603Y1799286D02*
X278349556Y1760238D01*
X278349556Y1760238D02*
X278310508Y1682143D01*
X278310508Y1682143D02*
X278310508Y1486905D01*
X278310508Y1486905D02*
X278349556Y1408810D01*
X278349556Y1408810D02*
X278388603Y1369762D01*
X278388603Y1369762D02*
X278466699Y1330715D01*
X278466699Y1330715D02*
X278544794Y1330715D01*
X278544794Y1330715D02*
X278661937Y1369762D01*
X278661937Y1369762D02*
X279130508Y1838334D01*
X279130508Y1838334D02*
X279130508Y1330715D01*
X312240678Y-30098250D02*
X312240678Y-29298250D01*
X312240678Y-29298250D02*
X312050202Y-29298250D01*
X312050202Y-29298250D02*
X311935916Y-29336345D01*
X311935916Y-29336345D02*
X311859726Y-29412535D01*
X311859726Y-29412535D02*
X311821631Y-29488726D01*
X311821631Y-29488726D02*
X311783535Y-29641107D01*
X311783535Y-29641107D02*
X311783535Y-29755393D01*
X311783535Y-29755393D02*
X311821631Y-29907774D01*
X311821631Y-29907774D02*
X311859726Y-29983964D01*
X311859726Y-29983964D02*
X311935916Y-30060155D01*
X311935916Y-30060155D02*
X312050202Y-30098250D01*
X312050202Y-30098250D02*
X312240678Y-30098250D01*
X311021631Y-30098250D02*
X311478774Y-30098250D01*
X311250202Y-30098250D02*
X311250202Y-29298250D01*
X311250202Y-29298250D02*
X311326393Y-29412535D01*
X311326393Y-29412535D02*
X311402583Y-29488726D01*
X311402583Y-29488726D02*
X311478774Y-29526821D01*
X287329805Y-23050651D02*
X286939329Y-22777318D01*
X287329805Y-22582080D02*
X286509805Y-22582080D01*
X286509805Y-22582080D02*
X286509805Y-22894461D01*
X286509805Y-22894461D02*
X286548853Y-22972556D01*
X286548853Y-22972556D02*
X286587900Y-23011603D01*
X286587900Y-23011603D02*
X286665996Y-23050651D01*
X286665996Y-23050651D02*
X286783138Y-23050651D01*
X286783138Y-23050651D02*
X286861234Y-23011603D01*
X286861234Y-23011603D02*
X286900281Y-22972556D01*
X286900281Y-22972556D02*
X286939329Y-22894461D01*
X286939329Y-22894461D02*
X286939329Y-22582080D01*
X287329805Y-23831603D02*
X287329805Y-23363032D01*
X287329805Y-23597318D02*
X286509805Y-23597318D01*
X286509805Y-23597318D02*
X286626948Y-23519222D01*
X286626948Y-23519222D02*
X286705043Y-23441127D01*
X286705043Y-23441127D02*
X286744091Y-23363032D01*
X287329805Y-24222079D02*
X287329805Y-24378270D01*
X287329805Y-24378270D02*
X287290758Y-24456365D01*
X287290758Y-24456365D02*
X287251710Y-24495413D01*
X287251710Y-24495413D02*
X287134567Y-24573508D01*
X287134567Y-24573508D02*
X286978377Y-24612555D01*
X286978377Y-24612555D02*
X286665996Y-24612555D01*
X286665996Y-24612555D02*
X286587900Y-24573508D01*
X286587900Y-24573508D02*
X286548853Y-24534460D01*
X286548853Y-24534460D02*
X286509805Y-24456365D01*
X286509805Y-24456365D02*
X286509805Y-24300174D01*
X286509805Y-24300174D02*
X286548853Y-24222079D01*
X286548853Y-24222079D02*
X286587900Y-24183032D01*
X286587900Y-24183032D02*
X286665996Y-24143984D01*
X286665996Y-24143984D02*
X286861234Y-24143984D01*
X286861234Y-24143984D02*
X286939329Y-24183032D01*
X286939329Y-24183032D02*
X286978377Y-24222079D01*
X286978377Y-24222079D02*
X287017424Y-24300174D01*
X287017424Y-24300174D02*
X287017424Y-24456365D01*
X287017424Y-24456365D02*
X286978377Y-24534460D01*
X286978377Y-24534460D02*
X286939329Y-24573508D01*
X286939329Y-24573508D02*
X286861234Y-24612555D01*
X289245495Y-31550651D02*
X288855019Y-31277318D01*
X289245495Y-31082080D02*
X288425495Y-31082080D01*
X288425495Y-31082080D02*
X288425495Y-31394461D01*
X288425495Y-31394461D02*
X288464543Y-31472556D01*
X288464543Y-31472556D02*
X288503590Y-31511603D01*
X288503590Y-31511603D02*
X288581686Y-31550651D01*
X288581686Y-31550651D02*
X288698828Y-31550651D01*
X288698828Y-31550651D02*
X288776924Y-31511603D01*
X288776924Y-31511603D02*
X288815971Y-31472556D01*
X288815971Y-31472556D02*
X288855019Y-31394461D01*
X288855019Y-31394461D02*
X288855019Y-31082080D01*
X288425495Y-31823984D02*
X288425495Y-32331603D01*
X288425495Y-32331603D02*
X288737876Y-32058270D01*
X288737876Y-32058270D02*
X288737876Y-32175413D01*
X288737876Y-32175413D02*
X288776924Y-32253508D01*
X288776924Y-32253508D02*
X288815971Y-32292556D01*
X288815971Y-32292556D02*
X288894067Y-32331603D01*
X288894067Y-32331603D02*
X289089305Y-32331603D01*
X289089305Y-32331603D02*
X289167400Y-32292556D01*
X289167400Y-32292556D02*
X289206448Y-32253508D01*
X289206448Y-32253508D02*
X289245495Y-32175413D01*
X289245495Y-32175413D02*
X289245495Y-31941127D01*
X289245495Y-31941127D02*
X289206448Y-31863032D01*
X289206448Y-31863032D02*
X289167400Y-31823984D01*
X288425495Y-32604936D02*
X288425495Y-33112555D01*
X288425495Y-33112555D02*
X288737876Y-32839222D01*
X288737876Y-32839222D02*
X288737876Y-32956365D01*
X288737876Y-32956365D02*
X288776924Y-33034460D01*
X288776924Y-33034460D02*
X288815971Y-33073508D01*
X288815971Y-33073508D02*
X288894067Y-33112555D01*
X288894067Y-33112555D02*
X289089305Y-33112555D01*
X289089305Y-33112555D02*
X289167400Y-33073508D01*
X289167400Y-33073508D02*
X289206448Y-33034460D01*
X289206448Y-33034460D02*
X289245495Y-32956365D01*
X289245495Y-32956365D02*
X289245495Y-32722079D01*
X289245495Y-32722079D02*
X289206448Y-32643984D01*
X289206448Y-32643984D02*
X289167400Y-32604936D01*
X297075035Y-19700651D02*
X296684559Y-19427318D01*
X297075035Y-19232080D02*
X296255035Y-19232080D01*
X296255035Y-19232080D02*
X296255035Y-19544461D01*
X296255035Y-19544461D02*
X296294083Y-19622556D01*
X296294083Y-19622556D02*
X296333130Y-19661603D01*
X296333130Y-19661603D02*
X296411226Y-19700651D01*
X296411226Y-19700651D02*
X296528368Y-19700651D01*
X296528368Y-19700651D02*
X296606464Y-19661603D01*
X296606464Y-19661603D02*
X296645511Y-19622556D01*
X296645511Y-19622556D02*
X296684559Y-19544461D01*
X296684559Y-19544461D02*
X296684559Y-19232080D01*
X297075035Y-20481603D02*
X297075035Y-20013032D01*
X297075035Y-20247318D02*
X296255035Y-20247318D01*
X296255035Y-20247318D02*
X296372178Y-20169222D01*
X296372178Y-20169222D02*
X296450273Y-20091127D01*
X296450273Y-20091127D02*
X296489321Y-20013032D01*
X296255035Y-20754936D02*
X296255035Y-21301603D01*
X296255035Y-21301603D02*
X297075035Y-20950174D01*
D11*
X239967857Y-67734819D02*
X240301190Y-67258628D01*
X240539285Y-67734819D02*
X240539285Y-66734819D01*
X240539285Y-66734819D02*
X240158333Y-66734819D01*
X240158333Y-66734819D02*
X240063095Y-66782438D01*
X240063095Y-66782438D02*
X240015476Y-66830057D01*
X240015476Y-66830057D02*
X239967857Y-66925295D01*
X239967857Y-66925295D02*
X239967857Y-67068152D01*
X239967857Y-67068152D02*
X240015476Y-67163390D01*
X240015476Y-67163390D02*
X240063095Y-67211009D01*
X240063095Y-67211009D02*
X240158333Y-67258628D01*
X240158333Y-67258628D02*
X240539285Y-67258628D01*
X239586904Y-66830057D02*
X239539285Y-66782438D01*
X239539285Y-66782438D02*
X239444047Y-66734819D01*
X239444047Y-66734819D02*
X239205952Y-66734819D01*
X239205952Y-66734819D02*
X239110714Y-66782438D01*
X239110714Y-66782438D02*
X239063095Y-66830057D01*
X239063095Y-66830057D02*
X239015476Y-66925295D01*
X239015476Y-66925295D02*
X239015476Y-67020533D01*
X239015476Y-67020533D02*
X239063095Y-67163390D01*
X239063095Y-67163390D02*
X239634523Y-67734819D01*
X239634523Y-67734819D02*
X239015476Y-67734819D01*
X238634523Y-66830057D02*
X238586904Y-66782438D01*
X238586904Y-66782438D02*
X238491666Y-66734819D01*
X238491666Y-66734819D02*
X238253571Y-66734819D01*
X238253571Y-66734819D02*
X238158333Y-66782438D01*
X238158333Y-66782438D02*
X238110714Y-66830057D01*
X238110714Y-66830057D02*
X238063095Y-66925295D01*
X238063095Y-66925295D02*
X238063095Y-67020533D01*
X238063095Y-67020533D02*
X238110714Y-67163390D01*
X238110714Y-67163390D02*
X238682142Y-67734819D01*
X238682142Y-67734819D02*
X238063095Y-67734819D01*
D10*
X288409734Y-25849348D02*
X288800210Y-26122681D01*
X288409734Y-26317919D02*
X289229734Y-26317919D01*
X289229734Y-26317919D02*
X289229734Y-26005538D01*
X289229734Y-26005538D02*
X289190686Y-25927443D01*
X289190686Y-25927443D02*
X289151639Y-25888396D01*
X289151639Y-25888396D02*
X289073543Y-25849348D01*
X289073543Y-25849348D02*
X288956401Y-25849348D01*
X288956401Y-25849348D02*
X288878305Y-25888396D01*
X288878305Y-25888396D02*
X288839258Y-25927443D01*
X288839258Y-25927443D02*
X288800210Y-26005538D01*
X288800210Y-26005538D02*
X288800210Y-26317919D01*
X288409734Y-25068396D02*
X288409734Y-25536967D01*
X288409734Y-25302681D02*
X289229734Y-25302681D01*
X289229734Y-25302681D02*
X289112591Y-25380777D01*
X289112591Y-25380777D02*
X289034496Y-25458872D01*
X289034496Y-25458872D02*
X288995448Y-25536967D01*
X289229734Y-24795063D02*
X289229734Y-24287444D01*
X289229734Y-24287444D02*
X288917353Y-24560777D01*
X288917353Y-24560777D02*
X288917353Y-24443634D01*
X288917353Y-24443634D02*
X288878305Y-24365539D01*
X288878305Y-24365539D02*
X288839258Y-24326491D01*
X288839258Y-24326491D02*
X288761162Y-24287444D01*
X288761162Y-24287444D02*
X288565924Y-24287444D01*
X288565924Y-24287444D02*
X288487829Y-24326491D01*
X288487829Y-24326491D02*
X288448782Y-24365539D01*
X288448782Y-24365539D02*
X288409734Y-24443634D01*
X288409734Y-24443634D02*
X288409734Y-24677920D01*
X288409734Y-24677920D02*
X288448782Y-24756015D01*
X288448782Y-24756015D02*
X288487829Y-24795063D01*
X297087535Y-28150651D02*
X296697059Y-27877318D01*
X297087535Y-27682080D02*
X296267535Y-27682080D01*
X296267535Y-27682080D02*
X296267535Y-27994461D01*
X296267535Y-27994461D02*
X296306583Y-28072556D01*
X296306583Y-28072556D02*
X296345630Y-28111603D01*
X296345630Y-28111603D02*
X296423726Y-28150651D01*
X296423726Y-28150651D02*
X296540868Y-28150651D01*
X296540868Y-28150651D02*
X296618964Y-28111603D01*
X296618964Y-28111603D02*
X296658011Y-28072556D01*
X296658011Y-28072556D02*
X296697059Y-27994461D01*
X296697059Y-27994461D02*
X296697059Y-27682080D01*
X296267535Y-28423984D02*
X296267535Y-28931603D01*
X296267535Y-28931603D02*
X296579916Y-28658270D01*
X296579916Y-28658270D02*
X296579916Y-28775413D01*
X296579916Y-28775413D02*
X296618964Y-28853508D01*
X296618964Y-28853508D02*
X296658011Y-28892556D01*
X296658011Y-28892556D02*
X296736107Y-28931603D01*
X296736107Y-28931603D02*
X296931345Y-28931603D01*
X296931345Y-28931603D02*
X297009440Y-28892556D01*
X297009440Y-28892556D02*
X297048488Y-28853508D01*
X297048488Y-28853508D02*
X297087535Y-28775413D01*
X297087535Y-28775413D02*
X297087535Y-28541127D01*
X297087535Y-28541127D02*
X297048488Y-28463032D01*
X297048488Y-28463032D02*
X297009440Y-28423984D01*
X296267535Y-29439222D02*
X296267535Y-29517317D01*
X296267535Y-29517317D02*
X296306583Y-29595413D01*
X296306583Y-29595413D02*
X296345630Y-29634460D01*
X296345630Y-29634460D02*
X296423726Y-29673508D01*
X296423726Y-29673508D02*
X296579916Y-29712555D01*
X296579916Y-29712555D02*
X296775154Y-29712555D01*
X296775154Y-29712555D02*
X296931345Y-29673508D01*
X296931345Y-29673508D02*
X297009440Y-29634460D01*
X297009440Y-29634460D02*
X297048488Y-29595413D01*
X297048488Y-29595413D02*
X297087535Y-29517317D01*
X297087535Y-29517317D02*
X297087535Y-29439222D01*
X297087535Y-29439222D02*
X297048488Y-29361127D01*
X297048488Y-29361127D02*
X297009440Y-29322079D01*
X297009440Y-29322079D02*
X296931345Y-29283032D01*
X296931345Y-29283032D02*
X296775154Y-29243984D01*
X296775154Y-29243984D02*
X296579916Y-29243984D01*
X296579916Y-29243984D02*
X296423726Y-29283032D01*
X296423726Y-29283032D02*
X296345630Y-29322079D01*
X296345630Y-29322079D02*
X296306583Y-29361127D01*
X296306583Y-29361127D02*
X296267535Y-29439222D01*
X293126943Y-28086210D02*
X292736467Y-27812877D01*
X293126943Y-27617639D02*
X292306943Y-27617639D01*
X292306943Y-27617639D02*
X292306943Y-27930020D01*
X292306943Y-27930020D02*
X292345991Y-28008115D01*
X292345991Y-28008115D02*
X292385038Y-28047162D01*
X292385038Y-28047162D02*
X292463134Y-28086210D01*
X292463134Y-28086210D02*
X292580276Y-28086210D01*
X292580276Y-28086210D02*
X292658372Y-28047162D01*
X292658372Y-28047162D02*
X292697419Y-28008115D01*
X292697419Y-28008115D02*
X292736467Y-27930020D01*
X292736467Y-27930020D02*
X292736467Y-27617639D01*
X292385038Y-28398591D02*
X292345991Y-28437639D01*
X292345991Y-28437639D02*
X292306943Y-28515734D01*
X292306943Y-28515734D02*
X292306943Y-28710972D01*
X292306943Y-28710972D02*
X292345991Y-28789067D01*
X292345991Y-28789067D02*
X292385038Y-28828115D01*
X292385038Y-28828115D02*
X292463134Y-28867162D01*
X292463134Y-28867162D02*
X292541229Y-28867162D01*
X292541229Y-28867162D02*
X292658372Y-28828115D01*
X292658372Y-28828115D02*
X293126943Y-28359543D01*
X293126943Y-28359543D02*
X293126943Y-28867162D01*
X292306943Y-29609067D02*
X292306943Y-29218591D01*
X292306943Y-29218591D02*
X292697419Y-29179543D01*
X292697419Y-29179543D02*
X292658372Y-29218591D01*
X292658372Y-29218591D02*
X292619324Y-29296686D01*
X292619324Y-29296686D02*
X292619324Y-29491924D01*
X292619324Y-29491924D02*
X292658372Y-29570019D01*
X292658372Y-29570019D02*
X292697419Y-29609067D01*
X292697419Y-29609067D02*
X292775515Y-29648114D01*
X292775515Y-29648114D02*
X292970753Y-29648114D01*
X292970753Y-29648114D02*
X293048848Y-29609067D01*
X293048848Y-29609067D02*
X293087896Y-29570019D01*
X293087896Y-29570019D02*
X293126943Y-29491924D01*
X293126943Y-29491924D02*
X293126943Y-29296686D01*
X293126943Y-29296686D02*
X293087896Y-29218591D01*
X293087896Y-29218591D02*
X293048848Y-29179543D01*
X286092305Y-19350651D02*
X285701829Y-19077318D01*
X286092305Y-18882080D02*
X285272305Y-18882080D01*
X285272305Y-18882080D02*
X285272305Y-19194461D01*
X285272305Y-19194461D02*
X285311353Y-19272556D01*
X285311353Y-19272556D02*
X285350400Y-19311603D01*
X285350400Y-19311603D02*
X285428496Y-19350651D01*
X285428496Y-19350651D02*
X285545638Y-19350651D01*
X285545638Y-19350651D02*
X285623734Y-19311603D01*
X285623734Y-19311603D02*
X285662781Y-19272556D01*
X285662781Y-19272556D02*
X285701829Y-19194461D01*
X285701829Y-19194461D02*
X285701829Y-18882080D01*
X285272305Y-19623984D02*
X285272305Y-20131603D01*
X285272305Y-20131603D02*
X285584686Y-19858270D01*
X285584686Y-19858270D02*
X285584686Y-19975413D01*
X285584686Y-19975413D02*
X285623734Y-20053508D01*
X285623734Y-20053508D02*
X285662781Y-20092556D01*
X285662781Y-20092556D02*
X285740877Y-20131603D01*
X285740877Y-20131603D02*
X285936115Y-20131603D01*
X285936115Y-20131603D02*
X286014210Y-20092556D01*
X286014210Y-20092556D02*
X286053258Y-20053508D01*
X286053258Y-20053508D02*
X286092305Y-19975413D01*
X286092305Y-19975413D02*
X286092305Y-19741127D01*
X286092305Y-19741127D02*
X286053258Y-19663032D01*
X286053258Y-19663032D02*
X286014210Y-19623984D01*
X295088489Y-21628969D02*
X294698013Y-21355636D01*
X295088489Y-21160398D02*
X294268489Y-21160398D01*
X294268489Y-21160398D02*
X294268489Y-21472779D01*
X294268489Y-21472779D02*
X294307537Y-21550874D01*
X294307537Y-21550874D02*
X294346584Y-21589921D01*
X294346584Y-21589921D02*
X294424680Y-21628969D01*
X294424680Y-21628969D02*
X294541822Y-21628969D01*
X294541822Y-21628969D02*
X294619918Y-21589921D01*
X294619918Y-21589921D02*
X294658965Y-21550874D01*
X294658965Y-21550874D02*
X294698013Y-21472779D01*
X294698013Y-21472779D02*
X294698013Y-21160398D01*
X294619918Y-22097540D02*
X294580870Y-22019445D01*
X294580870Y-22019445D02*
X294541822Y-21980398D01*
X294541822Y-21980398D02*
X294463727Y-21941350D01*
X294463727Y-21941350D02*
X294424680Y-21941350D01*
X294424680Y-21941350D02*
X294346584Y-21980398D01*
X294346584Y-21980398D02*
X294307537Y-22019445D01*
X294307537Y-22019445D02*
X294268489Y-22097540D01*
X294268489Y-22097540D02*
X294268489Y-22253731D01*
X294268489Y-22253731D02*
X294307537Y-22331826D01*
X294307537Y-22331826D02*
X294346584Y-22370874D01*
X294346584Y-22370874D02*
X294424680Y-22409921D01*
X294424680Y-22409921D02*
X294463727Y-22409921D01*
X294463727Y-22409921D02*
X294541822Y-22370874D01*
X294541822Y-22370874D02*
X294580870Y-22331826D01*
X294580870Y-22331826D02*
X294619918Y-22253731D01*
X294619918Y-22253731D02*
X294619918Y-22097540D01*
X294619918Y-22097540D02*
X294658965Y-22019445D01*
X294658965Y-22019445D02*
X294698013Y-21980398D01*
X294698013Y-21980398D02*
X294776108Y-21941350D01*
X294776108Y-21941350D02*
X294932299Y-21941350D01*
X294932299Y-21941350D02*
X295010394Y-21980398D01*
X295010394Y-21980398D02*
X295049442Y-22019445D01*
X295049442Y-22019445D02*
X295088489Y-22097540D01*
X295088489Y-22097540D02*
X295088489Y-22253731D01*
X295088489Y-22253731D02*
X295049442Y-22331826D01*
X295049442Y-22331826D02*
X295010394Y-22370874D01*
X295010394Y-22370874D02*
X294932299Y-22409921D01*
X294932299Y-22409921D02*
X294776108Y-22409921D01*
X294776108Y-22409921D02*
X294698013Y-22370874D01*
X294698013Y-22370874D02*
X294658965Y-22331826D01*
X294658965Y-22331826D02*
X294619918Y-22253731D01*
D11*
X292396009Y-81266666D02*
X292396009Y-80933333D01*
X292919819Y-80933333D02*
X291919819Y-80933333D01*
X291919819Y-80933333D02*
X291919819Y-81409523D01*
X292348390Y-81933333D02*
X292300771Y-81838095D01*
X292300771Y-81838095D02*
X292253152Y-81790476D01*
X292253152Y-81790476D02*
X292157914Y-81742857D01*
X292157914Y-81742857D02*
X292110295Y-81742857D01*
X292110295Y-81742857D02*
X292015057Y-81790476D01*
X292015057Y-81790476D02*
X291967438Y-81838095D01*
X291967438Y-81838095D02*
X291919819Y-81933333D01*
X291919819Y-81933333D02*
X291919819Y-82123809D01*
X291919819Y-82123809D02*
X291967438Y-82219047D01*
X291967438Y-82219047D02*
X292015057Y-82266666D01*
X292015057Y-82266666D02*
X292110295Y-82314285D01*
X292110295Y-82314285D02*
X292157914Y-82314285D01*
X292157914Y-82314285D02*
X292253152Y-82266666D01*
X292253152Y-82266666D02*
X292300771Y-82219047D01*
X292300771Y-82219047D02*
X292348390Y-82123809D01*
X292348390Y-82123809D02*
X292348390Y-81933333D01*
X292348390Y-81933333D02*
X292396009Y-81838095D01*
X292396009Y-81838095D02*
X292443628Y-81790476D01*
X292443628Y-81790476D02*
X292538866Y-81742857D01*
X292538866Y-81742857D02*
X292729342Y-81742857D01*
X292729342Y-81742857D02*
X292824580Y-81790476D01*
X292824580Y-81790476D02*
X292872200Y-81838095D01*
X292872200Y-81838095D02*
X292919819Y-81933333D01*
X292919819Y-81933333D02*
X292919819Y-82123809D01*
X292919819Y-82123809D02*
X292872200Y-82219047D01*
X292872200Y-82219047D02*
X292824580Y-82266666D01*
X292824580Y-82266666D02*
X292729342Y-82314285D01*
X292729342Y-82314285D02*
X292538866Y-82314285D01*
X292538866Y-82314285D02*
X292443628Y-82266666D01*
X292443628Y-82266666D02*
X292396009Y-82219047D01*
X292396009Y-82219047D02*
X292348390Y-82123809D01*
D10*
X289328851Y-23100651D02*
X288938375Y-22827318D01*
X289328851Y-22632080D02*
X288508851Y-22632080D01*
X288508851Y-22632080D02*
X288508851Y-22944461D01*
X288508851Y-22944461D02*
X288547899Y-23022556D01*
X288547899Y-23022556D02*
X288586946Y-23061603D01*
X288586946Y-23061603D02*
X288665042Y-23100651D01*
X288665042Y-23100651D02*
X288782184Y-23100651D01*
X288782184Y-23100651D02*
X288860280Y-23061603D01*
X288860280Y-23061603D02*
X288899327Y-23022556D01*
X288899327Y-23022556D02*
X288938375Y-22944461D01*
X288938375Y-22944461D02*
X288938375Y-22632080D01*
X288586946Y-23413032D02*
X288547899Y-23452080D01*
X288547899Y-23452080D02*
X288508851Y-23530175D01*
X288508851Y-23530175D02*
X288508851Y-23725413D01*
X288508851Y-23725413D02*
X288547899Y-23803508D01*
X288547899Y-23803508D02*
X288586946Y-23842556D01*
X288586946Y-23842556D02*
X288665042Y-23881603D01*
X288665042Y-23881603D02*
X288743137Y-23881603D01*
X288743137Y-23881603D02*
X288860280Y-23842556D01*
X288860280Y-23842556D02*
X289328851Y-23373984D01*
X289328851Y-23373984D02*
X289328851Y-23881603D01*
X288508851Y-24154936D02*
X288508851Y-24662555D01*
X288508851Y-24662555D02*
X288821232Y-24389222D01*
X288821232Y-24389222D02*
X288821232Y-24506365D01*
X288821232Y-24506365D02*
X288860280Y-24584460D01*
X288860280Y-24584460D02*
X288899327Y-24623508D01*
X288899327Y-24623508D02*
X288977423Y-24662555D01*
X288977423Y-24662555D02*
X289172661Y-24662555D01*
X289172661Y-24662555D02*
X289250756Y-24623508D01*
X289250756Y-24623508D02*
X289289804Y-24584460D01*
X289289804Y-24584460D02*
X289328851Y-24506365D01*
X289328851Y-24506365D02*
X289328851Y-24272079D01*
X289328851Y-24272079D02*
X289289804Y-24193984D01*
X289289804Y-24193984D02*
X289250756Y-24154936D01*
X291227897Y-23050651D02*
X290837421Y-22777318D01*
X291227897Y-22582080D02*
X290407897Y-22582080D01*
X290407897Y-22582080D02*
X290407897Y-22894461D01*
X290407897Y-22894461D02*
X290446945Y-22972556D01*
X290446945Y-22972556D02*
X290485992Y-23011603D01*
X290485992Y-23011603D02*
X290564088Y-23050651D01*
X290564088Y-23050651D02*
X290681230Y-23050651D01*
X290681230Y-23050651D02*
X290759326Y-23011603D01*
X290759326Y-23011603D02*
X290798373Y-22972556D01*
X290798373Y-22972556D02*
X290837421Y-22894461D01*
X290837421Y-22894461D02*
X290837421Y-22582080D01*
X290485992Y-23363032D02*
X290446945Y-23402080D01*
X290446945Y-23402080D02*
X290407897Y-23480175D01*
X290407897Y-23480175D02*
X290407897Y-23675413D01*
X290407897Y-23675413D02*
X290446945Y-23753508D01*
X290446945Y-23753508D02*
X290485992Y-23792556D01*
X290485992Y-23792556D02*
X290564088Y-23831603D01*
X290564088Y-23831603D02*
X290642183Y-23831603D01*
X290642183Y-23831603D02*
X290759326Y-23792556D01*
X290759326Y-23792556D02*
X291227897Y-23323984D01*
X291227897Y-23323984D02*
X291227897Y-23831603D01*
X290681230Y-24534460D02*
X291227897Y-24534460D01*
X290368850Y-24339222D02*
X290954564Y-24143984D01*
X290954564Y-24143984D02*
X290954564Y-24651603D01*
X300842591Y-84645653D02*
X300881639Y-84606605D01*
X300881639Y-84606605D02*
X300920686Y-84489462D01*
X300920686Y-84489462D02*
X300920686Y-84411367D01*
X300920686Y-84411367D02*
X300881639Y-84294224D01*
X300881639Y-84294224D02*
X300803543Y-84216129D01*
X300803543Y-84216129D02*
X300725448Y-84177081D01*
X300725448Y-84177081D02*
X300569257Y-84138033D01*
X300569257Y-84138033D02*
X300452114Y-84138033D01*
X300452114Y-84138033D02*
X300295924Y-84177081D01*
X300295924Y-84177081D02*
X300217828Y-84216129D01*
X300217828Y-84216129D02*
X300139733Y-84294224D01*
X300139733Y-84294224D02*
X300100685Y-84411367D01*
X300100685Y-84411367D02*
X300100685Y-84489462D01*
X300100685Y-84489462D02*
X300139733Y-84606605D01*
X300139733Y-84606605D02*
X300178781Y-84645653D01*
X300100685Y-84918987D02*
X300100685Y-85426606D01*
X300100685Y-85426606D02*
X300413067Y-85153273D01*
X300413067Y-85153273D02*
X300413067Y-85270416D01*
X300413067Y-85270416D02*
X300452114Y-85348511D01*
X300452114Y-85348511D02*
X300491162Y-85387559D01*
X300491162Y-85387559D02*
X300569257Y-85426606D01*
X300569257Y-85426606D02*
X300764496Y-85426606D01*
X300764496Y-85426606D02*
X300842591Y-85387559D01*
X300842591Y-85387559D02*
X300881639Y-85348511D01*
X300881639Y-85348511D02*
X300920686Y-85270416D01*
X300920686Y-85270416D02*
X300920686Y-85036130D01*
X300920686Y-85036130D02*
X300881639Y-84958034D01*
X300881639Y-84958034D02*
X300842591Y-84918987D01*
X300178781Y-85738987D02*
X300139733Y-85778035D01*
X300139733Y-85778035D02*
X300100685Y-85856130D01*
X300100685Y-85856130D02*
X300100685Y-86051369D01*
X300100685Y-86051369D02*
X300139733Y-86129464D01*
X300139733Y-86129464D02*
X300178781Y-86168512D01*
X300178781Y-86168512D02*
X300256876Y-86207559D01*
X300256876Y-86207559D02*
X300334971Y-86207559D01*
X300334971Y-86207559D02*
X300452114Y-86168512D01*
X300452114Y-86168512D02*
X300920686Y-85699940D01*
X300920686Y-85699940D02*
X300920686Y-86207559D01*
X293039443Y-21728969D02*
X292648967Y-21455636D01*
X293039443Y-21260398D02*
X292219443Y-21260398D01*
X292219443Y-21260398D02*
X292219443Y-21572779D01*
X292219443Y-21572779D02*
X292258491Y-21650874D01*
X292258491Y-21650874D02*
X292297538Y-21689921D01*
X292297538Y-21689921D02*
X292375634Y-21728969D01*
X292375634Y-21728969D02*
X292492776Y-21728969D01*
X292492776Y-21728969D02*
X292570872Y-21689921D01*
X292570872Y-21689921D02*
X292609919Y-21650874D01*
X292609919Y-21650874D02*
X292648967Y-21572779D01*
X292648967Y-21572779D02*
X292648967Y-21260398D01*
X292219443Y-22002302D02*
X292219443Y-22548969D01*
X292219443Y-22548969D02*
X293039443Y-22197540D01*
X296288489Y-22250651D02*
X295898013Y-21977318D01*
X296288489Y-21782080D02*
X295468489Y-21782080D01*
X295468489Y-21782080D02*
X295468489Y-22094461D01*
X295468489Y-22094461D02*
X295507537Y-22172556D01*
X295507537Y-22172556D02*
X295546584Y-22211603D01*
X295546584Y-22211603D02*
X295624680Y-22250651D01*
X295624680Y-22250651D02*
X295741822Y-22250651D01*
X295741822Y-22250651D02*
X295819918Y-22211603D01*
X295819918Y-22211603D02*
X295858965Y-22172556D01*
X295858965Y-22172556D02*
X295898013Y-22094461D01*
X295898013Y-22094461D02*
X295898013Y-21782080D01*
X296288489Y-23031603D02*
X296288489Y-22563032D01*
X296288489Y-22797318D02*
X295468489Y-22797318D01*
X295468489Y-22797318D02*
X295585632Y-22719222D01*
X295585632Y-22719222D02*
X295663727Y-22641127D01*
X295663727Y-22641127D02*
X295702775Y-22563032D01*
X295468489Y-23734460D02*
X295468489Y-23578270D01*
X295468489Y-23578270D02*
X295507537Y-23500174D01*
X295507537Y-23500174D02*
X295546584Y-23461127D01*
X295546584Y-23461127D02*
X295663727Y-23383032D01*
X295663727Y-23383032D02*
X295819918Y-23343984D01*
X295819918Y-23343984D02*
X296132299Y-23343984D01*
X296132299Y-23343984D02*
X296210394Y-23383032D01*
X296210394Y-23383032D02*
X296249442Y-23422079D01*
X296249442Y-23422079D02*
X296288489Y-23500174D01*
X296288489Y-23500174D02*
X296288489Y-23656365D01*
X296288489Y-23656365D02*
X296249442Y-23734460D01*
X296249442Y-23734460D02*
X296210394Y-23773508D01*
X296210394Y-23773508D02*
X296132299Y-23812555D01*
X296132299Y-23812555D02*
X295937061Y-23812555D01*
X295937061Y-23812555D02*
X295858965Y-23773508D01*
X295858965Y-23773508D02*
X295819918Y-23734460D01*
X295819918Y-23734460D02*
X295780870Y-23656365D01*
X295780870Y-23656365D02*
X295780870Y-23500174D01*
X295780870Y-23500174D02*
X295819918Y-23422079D01*
X295819918Y-23422079D02*
X295858965Y-23383032D01*
X295858965Y-23383032D02*
X295937061Y-23343984D01*
D11*
X303009819Y-14538095D02*
X303819342Y-14538095D01*
X303819342Y-14538095D02*
X303914580Y-14585714D01*
X303914580Y-14585714D02*
X303962200Y-14633333D01*
X303962200Y-14633333D02*
X304009819Y-14728571D01*
X304009819Y-14728571D02*
X304009819Y-14919047D01*
X304009819Y-14919047D02*
X303962200Y-15014285D01*
X303962200Y-15014285D02*
X303914580Y-15061904D01*
X303914580Y-15061904D02*
X303819342Y-15109523D01*
X303819342Y-15109523D02*
X303009819Y-15109523D01*
X304009819Y-15633333D02*
X304009819Y-15823809D01*
X304009819Y-15823809D02*
X303962200Y-15919047D01*
X303962200Y-15919047D02*
X303914580Y-15966666D01*
X303914580Y-15966666D02*
X303771723Y-16061904D01*
X303771723Y-16061904D02*
X303581247Y-16109523D01*
X303581247Y-16109523D02*
X303200295Y-16109523D01*
X303200295Y-16109523D02*
X303105057Y-16061904D01*
X303105057Y-16061904D02*
X303057438Y-16014285D01*
X303057438Y-16014285D02*
X303009819Y-15919047D01*
X303009819Y-15919047D02*
X303009819Y-15728571D01*
X303009819Y-15728571D02*
X303057438Y-15633333D01*
X303057438Y-15633333D02*
X303105057Y-15585714D01*
X303105057Y-15585714D02*
X303200295Y-15538095D01*
X303200295Y-15538095D02*
X303438390Y-15538095D01*
X303438390Y-15538095D02*
X303533628Y-15585714D01*
X303533628Y-15585714D02*
X303581247Y-15633333D01*
X303581247Y-15633333D02*
X303628866Y-15728571D01*
X303628866Y-15728571D02*
X303628866Y-15919047D01*
X303628866Y-15919047D02*
X303581247Y-16014285D01*
X303581247Y-16014285D02*
X303533628Y-16061904D01*
X303533628Y-16061904D02*
X303438390Y-16109523D01*
X303209819Y-81383333D02*
X303209819Y-80907143D01*
X303209819Y-80907143D02*
X302209819Y-80907143D01*
X302305057Y-81669048D02*
X302257438Y-81716667D01*
X302257438Y-81716667D02*
X302209819Y-81811905D01*
X302209819Y-81811905D02*
X302209819Y-82050000D01*
X302209819Y-82050000D02*
X302257438Y-82145238D01*
X302257438Y-82145238D02*
X302305057Y-82192857D01*
X302305057Y-82192857D02*
X302400295Y-82240476D01*
X302400295Y-82240476D02*
X302495533Y-82240476D01*
X302495533Y-82240476D02*
X302638390Y-82192857D01*
X302638390Y-82192857D02*
X303209819Y-81621429D01*
X303209819Y-81621429D02*
X303209819Y-82240476D01*
X290036009Y-81316666D02*
X290036009Y-80983333D01*
X290559819Y-80983333D02*
X289559819Y-80983333D01*
X289559819Y-80983333D02*
X289559819Y-81459523D01*
X289559819Y-81745238D02*
X289559819Y-82411904D01*
X289559819Y-82411904D02*
X290559819Y-81983333D01*
D10*
X294439443Y-22250651D02*
X294048967Y-21977318D01*
X294439443Y-21782080D02*
X293619443Y-21782080D01*
X293619443Y-21782080D02*
X293619443Y-22094461D01*
X293619443Y-22094461D02*
X293658491Y-22172556D01*
X293658491Y-22172556D02*
X293697538Y-22211603D01*
X293697538Y-22211603D02*
X293775634Y-22250651D01*
X293775634Y-22250651D02*
X293892776Y-22250651D01*
X293892776Y-22250651D02*
X293970872Y-22211603D01*
X293970872Y-22211603D02*
X294009919Y-22172556D01*
X294009919Y-22172556D02*
X294048967Y-22094461D01*
X294048967Y-22094461D02*
X294048967Y-21782080D01*
X294439443Y-23031603D02*
X294439443Y-22563032D01*
X294439443Y-22797318D02*
X293619443Y-22797318D01*
X293619443Y-22797318D02*
X293736586Y-22719222D01*
X293736586Y-22719222D02*
X293814681Y-22641127D01*
X293814681Y-22641127D02*
X293853729Y-22563032D01*
X293619443Y-23773508D02*
X293619443Y-23383032D01*
X293619443Y-23383032D02*
X294009919Y-23343984D01*
X294009919Y-23343984D02*
X293970872Y-23383032D01*
X293970872Y-23383032D02*
X293931824Y-23461127D01*
X293931824Y-23461127D02*
X293931824Y-23656365D01*
X293931824Y-23656365D02*
X293970872Y-23734460D01*
X293970872Y-23734460D02*
X294009919Y-23773508D01*
X294009919Y-23773508D02*
X294088015Y-23812555D01*
X294088015Y-23812555D02*
X294283253Y-23812555D01*
X294283253Y-23812555D02*
X294361348Y-23773508D01*
X294361348Y-23773508D02*
X294400396Y-23734460D01*
X294400396Y-23734460D02*
X294439443Y-23656365D01*
X294439443Y-23656365D02*
X294439443Y-23461127D01*
X294439443Y-23461127D02*
X294400396Y-23383032D01*
X294400396Y-23383032D02*
X294361348Y-23343984D01*
D11*
X300699819Y-81383333D02*
X300699819Y-80907143D01*
X300699819Y-80907143D02*
X299699819Y-80907143D01*
X300699819Y-82240476D02*
X300699819Y-81669048D01*
X300699819Y-81954762D02*
X299699819Y-81954762D01*
X299699819Y-81954762D02*
X299842676Y-81859524D01*
X299842676Y-81859524D02*
X299937914Y-81764286D01*
X299937914Y-81764286D02*
X299985533Y-81669048D01*
X285016009Y-81266666D02*
X285016009Y-80933333D01*
X285539819Y-80933333D02*
X284539819Y-80933333D01*
X284539819Y-80933333D02*
X284539819Y-81409523D01*
X284539819Y-82266666D02*
X284539819Y-81790476D01*
X284539819Y-81790476D02*
X285016009Y-81742857D01*
X285016009Y-81742857D02*
X284968390Y-81790476D01*
X284968390Y-81790476D02*
X284920771Y-81885714D01*
X284920771Y-81885714D02*
X284920771Y-82123809D01*
X284920771Y-82123809D02*
X284968390Y-82219047D01*
X284968390Y-82219047D02*
X285016009Y-82266666D01*
X285016009Y-82266666D02*
X285111247Y-82314285D01*
X285111247Y-82314285D02*
X285349342Y-82314285D01*
X285349342Y-82314285D02*
X285444580Y-82266666D01*
X285444580Y-82266666D02*
X285492200Y-82219047D01*
X285492200Y-82219047D02*
X285539819Y-82123809D01*
X285539819Y-82123809D02*
X285539819Y-81885714D01*
X285539819Y-81885714D02*
X285492200Y-81790476D01*
X285492200Y-81790476D02*
X285444580Y-81742857D01*
D10*
X287346449Y-31350651D02*
X286955973Y-31077318D01*
X287346449Y-30882080D02*
X286526449Y-30882080D01*
X286526449Y-30882080D02*
X286526449Y-31194461D01*
X286526449Y-31194461D02*
X286565497Y-31272556D01*
X286565497Y-31272556D02*
X286604544Y-31311603D01*
X286604544Y-31311603D02*
X286682640Y-31350651D01*
X286682640Y-31350651D02*
X286799782Y-31350651D01*
X286799782Y-31350651D02*
X286877878Y-31311603D01*
X286877878Y-31311603D02*
X286916925Y-31272556D01*
X286916925Y-31272556D02*
X286955973Y-31194461D01*
X286955973Y-31194461D02*
X286955973Y-30882080D01*
X286526449Y-31623984D02*
X286526449Y-32131603D01*
X286526449Y-32131603D02*
X286838830Y-31858270D01*
X286838830Y-31858270D02*
X286838830Y-31975413D01*
X286838830Y-31975413D02*
X286877878Y-32053508D01*
X286877878Y-32053508D02*
X286916925Y-32092556D01*
X286916925Y-32092556D02*
X286995021Y-32131603D01*
X286995021Y-32131603D02*
X287190259Y-32131603D01*
X287190259Y-32131603D02*
X287268354Y-32092556D01*
X287268354Y-32092556D02*
X287307402Y-32053508D01*
X287307402Y-32053508D02*
X287346449Y-31975413D01*
X287346449Y-31975413D02*
X287346449Y-31741127D01*
X287346449Y-31741127D02*
X287307402Y-31663032D01*
X287307402Y-31663032D02*
X287268354Y-31623984D01*
X286604544Y-32443984D02*
X286565497Y-32483032D01*
X286565497Y-32483032D02*
X286526449Y-32561127D01*
X286526449Y-32561127D02*
X286526449Y-32756365D01*
X286526449Y-32756365D02*
X286565497Y-32834460D01*
X286565497Y-32834460D02*
X286604544Y-32873508D01*
X286604544Y-32873508D02*
X286682640Y-32912555D01*
X286682640Y-32912555D02*
X286760735Y-32912555D01*
X286760735Y-32912555D02*
X286877878Y-32873508D01*
X286877878Y-32873508D02*
X287346449Y-32404936D01*
X287346449Y-32404936D02*
X287346449Y-32912555D01*
X285499348Y-3347711D02*
X285538396Y-3386759D01*
X285538396Y-3386759D02*
X285655539Y-3425806D01*
X285655539Y-3425806D02*
X285733634Y-3425806D01*
X285733634Y-3425806D02*
X285850777Y-3386759D01*
X285850777Y-3386759D02*
X285928873Y-3308663D01*
X285928873Y-3308663D02*
X285967920Y-3230568D01*
X285967920Y-3230568D02*
X286006968Y-3074377D01*
X286006968Y-3074377D02*
X286006968Y-2957234D01*
X286006968Y-2957234D02*
X285967920Y-2801044D01*
X285967920Y-2801044D02*
X285928873Y-2722948D01*
X285928873Y-2722948D02*
X285850777Y-2644853D01*
X285850777Y-2644853D02*
X285733634Y-2605805D01*
X285733634Y-2605805D02*
X285655539Y-2605805D01*
X285655539Y-2605805D02*
X285538396Y-2644853D01*
X285538396Y-2644853D02*
X285499348Y-2683901D01*
X285186967Y-2683901D02*
X285147919Y-2644853D01*
X285147919Y-2644853D02*
X285069824Y-2605805D01*
X285069824Y-2605805D02*
X284874586Y-2605805D01*
X284874586Y-2605805D02*
X284796490Y-2644853D01*
X284796490Y-2644853D02*
X284757443Y-2683901D01*
X284757443Y-2683901D02*
X284718395Y-2761996D01*
X284718395Y-2761996D02*
X284718395Y-2840091D01*
X284718395Y-2840091D02*
X284757443Y-2957234D01*
X284757443Y-2957234D02*
X285226015Y-3425806D01*
X285226015Y-3425806D02*
X284718395Y-3425806D01*
X284249823Y-2957234D02*
X284327919Y-2918187D01*
X284327919Y-2918187D02*
X284366966Y-2879139D01*
X284366966Y-2879139D02*
X284406014Y-2801044D01*
X284406014Y-2801044D02*
X284406014Y-2761996D01*
X284406014Y-2761996D02*
X284366966Y-2683901D01*
X284366966Y-2683901D02*
X284327919Y-2644853D01*
X284327919Y-2644853D02*
X284249823Y-2605805D01*
X284249823Y-2605805D02*
X284093633Y-2605805D01*
X284093633Y-2605805D02*
X284015537Y-2644853D01*
X284015537Y-2644853D02*
X283976490Y-2683901D01*
X283976490Y-2683901D02*
X283937442Y-2761996D01*
X283937442Y-2761996D02*
X283937442Y-2801044D01*
X283937442Y-2801044D02*
X283976490Y-2879139D01*
X283976490Y-2879139D02*
X284015537Y-2918187D01*
X284015537Y-2918187D02*
X284093633Y-2957234D01*
X284093633Y-2957234D02*
X284249823Y-2957234D01*
X284249823Y-2957234D02*
X284327919Y-2996282D01*
X284327919Y-2996282D02*
X284366966Y-3035330D01*
X284366966Y-3035330D02*
X284406014Y-3113425D01*
X284406014Y-3113425D02*
X284406014Y-3269616D01*
X284406014Y-3269616D02*
X284366966Y-3347711D01*
X284366966Y-3347711D02*
X284327919Y-3386759D01*
X284327919Y-3386759D02*
X284249823Y-3425806D01*
X284249823Y-3425806D02*
X284093633Y-3425806D01*
X284093633Y-3425806D02*
X284015537Y-3386759D01*
X284015537Y-3386759D02*
X283976490Y-3347711D01*
X283976490Y-3347711D02*
X283937442Y-3269616D01*
X283937442Y-3269616D02*
X283937442Y-3113425D01*
X283937442Y-3113425D02*
X283976490Y-3035330D01*
X283976490Y-3035330D02*
X284015537Y-2996282D01*
X284015537Y-2996282D02*
X284093633Y-2957234D01*
X295088489Y-23050651D02*
X294698013Y-22777318D01*
X295088489Y-22582080D02*
X294268489Y-22582080D01*
X294268489Y-22582080D02*
X294268489Y-22894461D01*
X294268489Y-22894461D02*
X294307537Y-22972556D01*
X294307537Y-22972556D02*
X294346584Y-23011603D01*
X294346584Y-23011603D02*
X294424680Y-23050651D01*
X294424680Y-23050651D02*
X294541822Y-23050651D01*
X294541822Y-23050651D02*
X294619918Y-23011603D01*
X294619918Y-23011603D02*
X294658965Y-22972556D01*
X294658965Y-22972556D02*
X294698013Y-22894461D01*
X294698013Y-22894461D02*
X294698013Y-22582080D01*
X294346584Y-23363032D02*
X294307537Y-23402080D01*
X294307537Y-23402080D02*
X294268489Y-23480175D01*
X294268489Y-23480175D02*
X294268489Y-23675413D01*
X294268489Y-23675413D02*
X294307537Y-23753508D01*
X294307537Y-23753508D02*
X294346584Y-23792556D01*
X294346584Y-23792556D02*
X294424680Y-23831603D01*
X294424680Y-23831603D02*
X294502775Y-23831603D01*
X294502775Y-23831603D02*
X294619918Y-23792556D01*
X294619918Y-23792556D02*
X295088489Y-23323984D01*
X295088489Y-23323984D02*
X295088489Y-23831603D01*
X295088489Y-24222079D02*
X295088489Y-24378270D01*
X295088489Y-24378270D02*
X295049442Y-24456365D01*
X295049442Y-24456365D02*
X295010394Y-24495413D01*
X295010394Y-24495413D02*
X294893251Y-24573508D01*
X294893251Y-24573508D02*
X294737061Y-24612555D01*
X294737061Y-24612555D02*
X294424680Y-24612555D01*
X294424680Y-24612555D02*
X294346584Y-24573508D01*
X294346584Y-24573508D02*
X294307537Y-24534460D01*
X294307537Y-24534460D02*
X294268489Y-24456365D01*
X294268489Y-24456365D02*
X294268489Y-24300174D01*
X294268489Y-24300174D02*
X294307537Y-24222079D01*
X294307537Y-24222079D02*
X294346584Y-24183032D01*
X294346584Y-24183032D02*
X294424680Y-24143984D01*
X294424680Y-24143984D02*
X294619918Y-24143984D01*
X294619918Y-24143984D02*
X294698013Y-24183032D01*
X294698013Y-24183032D02*
X294737061Y-24222079D01*
X294737061Y-24222079D02*
X294776108Y-24300174D01*
X294776108Y-24300174D02*
X294776108Y-24456365D01*
X294776108Y-24456365D02*
X294737061Y-24534460D01*
X294737061Y-24534460D02*
X294698013Y-24573508D01*
X294698013Y-24573508D02*
X294619918Y-24612555D01*
D11*
X289709819Y-12838095D02*
X290519342Y-12838095D01*
X290519342Y-12838095D02*
X290614580Y-12885714D01*
X290614580Y-12885714D02*
X290662200Y-12933333D01*
X290662200Y-12933333D02*
X290709819Y-13028571D01*
X290709819Y-13028571D02*
X290709819Y-13219047D01*
X290709819Y-13219047D02*
X290662200Y-13314285D01*
X290662200Y-13314285D02*
X290614580Y-13361904D01*
X290614580Y-13361904D02*
X290519342Y-13409523D01*
X290519342Y-13409523D02*
X289709819Y-13409523D01*
X289709819Y-14314285D02*
X289709819Y-14123809D01*
X289709819Y-14123809D02*
X289757438Y-14028571D01*
X289757438Y-14028571D02*
X289805057Y-13980952D01*
X289805057Y-13980952D02*
X289947914Y-13885714D01*
X289947914Y-13885714D02*
X290138390Y-13838095D01*
X290138390Y-13838095D02*
X290519342Y-13838095D01*
X290519342Y-13838095D02*
X290614580Y-13885714D01*
X290614580Y-13885714D02*
X290662200Y-13933333D01*
X290662200Y-13933333D02*
X290709819Y-14028571D01*
X290709819Y-14028571D02*
X290709819Y-14219047D01*
X290709819Y-14219047D02*
X290662200Y-14314285D01*
X290662200Y-14314285D02*
X290614580Y-14361904D01*
X290614580Y-14361904D02*
X290519342Y-14409523D01*
X290519342Y-14409523D02*
X290281247Y-14409523D01*
X290281247Y-14409523D02*
X290186009Y-14361904D01*
X290186009Y-14361904D02*
X290138390Y-14314285D01*
X290138390Y-14314285D02*
X290090771Y-14219047D01*
X290090771Y-14219047D02*
X290090771Y-14028571D01*
X290090771Y-14028571D02*
X290138390Y-13933333D01*
X290138390Y-13933333D02*
X290186009Y-13885714D01*
X290186009Y-13885714D02*
X290281247Y-13838095D01*
X239967857Y-82404819D02*
X240301190Y-81928628D01*
X240539285Y-82404819D02*
X240539285Y-81404819D01*
X240539285Y-81404819D02*
X240158333Y-81404819D01*
X240158333Y-81404819D02*
X240063095Y-81452438D01*
X240063095Y-81452438D02*
X240015476Y-81500057D01*
X240015476Y-81500057D02*
X239967857Y-81595295D01*
X239967857Y-81595295D02*
X239967857Y-81738152D01*
X239967857Y-81738152D02*
X240015476Y-81833390D01*
X240015476Y-81833390D02*
X240063095Y-81881009D01*
X240063095Y-81881009D02*
X240158333Y-81928628D01*
X240158333Y-81928628D02*
X240539285Y-81928628D01*
X239586904Y-81500057D02*
X239539285Y-81452438D01*
X239539285Y-81452438D02*
X239444047Y-81404819D01*
X239444047Y-81404819D02*
X239205952Y-81404819D01*
X239205952Y-81404819D02*
X239110714Y-81452438D01*
X239110714Y-81452438D02*
X239063095Y-81500057D01*
X239063095Y-81500057D02*
X239015476Y-81595295D01*
X239015476Y-81595295D02*
X239015476Y-81690533D01*
X239015476Y-81690533D02*
X239063095Y-81833390D01*
X239063095Y-81833390D02*
X239634523Y-82404819D01*
X239634523Y-82404819D02*
X239015476Y-82404819D01*
X238444047Y-81833390D02*
X238539285Y-81785771D01*
X238539285Y-81785771D02*
X238586904Y-81738152D01*
X238586904Y-81738152D02*
X238634523Y-81642914D01*
X238634523Y-81642914D02*
X238634523Y-81595295D01*
X238634523Y-81595295D02*
X238586904Y-81500057D01*
X238586904Y-81500057D02*
X238539285Y-81452438D01*
X238539285Y-81452438D02*
X238444047Y-81404819D01*
X238444047Y-81404819D02*
X238253571Y-81404819D01*
X238253571Y-81404819D02*
X238158333Y-81452438D01*
X238158333Y-81452438D02*
X238110714Y-81500057D01*
X238110714Y-81500057D02*
X238063095Y-81595295D01*
X238063095Y-81595295D02*
X238063095Y-81642914D01*
X238063095Y-81642914D02*
X238110714Y-81738152D01*
X238110714Y-81738152D02*
X238158333Y-81785771D01*
X238158333Y-81785771D02*
X238253571Y-81833390D01*
X238253571Y-81833390D02*
X238444047Y-81833390D01*
X238444047Y-81833390D02*
X238539285Y-81881009D01*
X238539285Y-81881009D02*
X238586904Y-81928628D01*
X238586904Y-81928628D02*
X238634523Y-82023866D01*
X238634523Y-82023866D02*
X238634523Y-82214342D01*
X238634523Y-82214342D02*
X238586904Y-82309580D01*
X238586904Y-82309580D02*
X238539285Y-82357200D01*
X238539285Y-82357200D02*
X238444047Y-82404819D01*
X238444047Y-82404819D02*
X238253571Y-82404819D01*
X238253571Y-82404819D02*
X238158333Y-82357200D01*
X238158333Y-82357200D02*
X238110714Y-82309580D01*
X238110714Y-82309580D02*
X238063095Y-82214342D01*
X238063095Y-82214342D02*
X238063095Y-82023866D01*
X238063095Y-82023866D02*
X238110714Y-81928628D01*
X238110714Y-81928628D02*
X238158333Y-81881009D01*
X238158333Y-81881009D02*
X238253571Y-81833390D01*
D10*
X285330759Y-23050651D02*
X284940283Y-22777318D01*
X285330759Y-22582080D02*
X284510759Y-22582080D01*
X284510759Y-22582080D02*
X284510759Y-22894461D01*
X284510759Y-22894461D02*
X284549807Y-22972556D01*
X284549807Y-22972556D02*
X284588854Y-23011603D01*
X284588854Y-23011603D02*
X284666950Y-23050651D01*
X284666950Y-23050651D02*
X284784092Y-23050651D01*
X284784092Y-23050651D02*
X284862188Y-23011603D01*
X284862188Y-23011603D02*
X284901235Y-22972556D01*
X284901235Y-22972556D02*
X284940283Y-22894461D01*
X284940283Y-22894461D02*
X284940283Y-22582080D01*
X285330759Y-23831603D02*
X285330759Y-23363032D01*
X285330759Y-23597318D02*
X284510759Y-23597318D01*
X284510759Y-23597318D02*
X284627902Y-23519222D01*
X284627902Y-23519222D02*
X284705997Y-23441127D01*
X284705997Y-23441127D02*
X284745045Y-23363032D01*
X284862188Y-24300174D02*
X284823140Y-24222079D01*
X284823140Y-24222079D02*
X284784092Y-24183032D01*
X284784092Y-24183032D02*
X284705997Y-24143984D01*
X284705997Y-24143984D02*
X284666950Y-24143984D01*
X284666950Y-24143984D02*
X284588854Y-24183032D01*
X284588854Y-24183032D02*
X284549807Y-24222079D01*
X284549807Y-24222079D02*
X284510759Y-24300174D01*
X284510759Y-24300174D02*
X284510759Y-24456365D01*
X284510759Y-24456365D02*
X284549807Y-24534460D01*
X284549807Y-24534460D02*
X284588854Y-24573508D01*
X284588854Y-24573508D02*
X284666950Y-24612555D01*
X284666950Y-24612555D02*
X284705997Y-24612555D01*
X284705997Y-24612555D02*
X284784092Y-24573508D01*
X284784092Y-24573508D02*
X284823140Y-24534460D01*
X284823140Y-24534460D02*
X284862188Y-24456365D01*
X284862188Y-24456365D02*
X284862188Y-24300174D01*
X284862188Y-24300174D02*
X284901235Y-24222079D01*
X284901235Y-24222079D02*
X284940283Y-24183032D01*
X284940283Y-24183032D02*
X285018378Y-24143984D01*
X285018378Y-24143984D02*
X285174569Y-24143984D01*
X285174569Y-24143984D02*
X285252664Y-24183032D01*
X285252664Y-24183032D02*
X285291712Y-24222079D01*
X285291712Y-24222079D02*
X285330759Y-24300174D01*
X285330759Y-24300174D02*
X285330759Y-24456365D01*
X285330759Y-24456365D02*
X285291712Y-24534460D01*
X285291712Y-24534460D02*
X285252664Y-24573508D01*
X285252664Y-24573508D02*
X285174569Y-24612555D01*
X285174569Y-24612555D02*
X285018378Y-24612555D01*
X285018378Y-24612555D02*
X284940283Y-24573508D01*
X284940283Y-24573508D02*
X284901235Y-24534460D01*
X284901235Y-24534460D02*
X284862188Y-24456365D01*
D11*
X263606904Y-1154819D02*
X263606904Y-1964342D01*
X263606904Y-1964342D02*
X263559285Y-2059580D01*
X263559285Y-2059580D02*
X263511666Y-2107200D01*
X263511666Y-2107200D02*
X263416428Y-2154819D01*
X263416428Y-2154819D02*
X263225952Y-2154819D01*
X263225952Y-2154819D02*
X263130714Y-2107200D01*
X263130714Y-2107200D02*
X263083095Y-2059580D01*
X263083095Y-2059580D02*
X263035476Y-1964342D01*
X263035476Y-1964342D02*
X263035476Y-1154819D01*
X262416428Y-1583390D02*
X262511666Y-1535771D01*
X262511666Y-1535771D02*
X262559285Y-1488152D01*
X262559285Y-1488152D02*
X262606904Y-1392914D01*
X262606904Y-1392914D02*
X262606904Y-1345295D01*
X262606904Y-1345295D02*
X262559285Y-1250057D01*
X262559285Y-1250057D02*
X262511666Y-1202438D01*
X262511666Y-1202438D02*
X262416428Y-1154819D01*
X262416428Y-1154819D02*
X262225952Y-1154819D01*
X262225952Y-1154819D02*
X262130714Y-1202438D01*
X262130714Y-1202438D02*
X262083095Y-1250057D01*
X262083095Y-1250057D02*
X262035476Y-1345295D01*
X262035476Y-1345295D02*
X262035476Y-1392914D01*
X262035476Y-1392914D02*
X262083095Y-1488152D01*
X262083095Y-1488152D02*
X262130714Y-1535771D01*
X262130714Y-1535771D02*
X262225952Y-1583390D01*
X262225952Y-1583390D02*
X262416428Y-1583390D01*
X262416428Y-1583390D02*
X262511666Y-1631009D01*
X262511666Y-1631009D02*
X262559285Y-1678628D01*
X262559285Y-1678628D02*
X262606904Y-1773866D01*
X262606904Y-1773866D02*
X262606904Y-1964342D01*
X262606904Y-1964342D02*
X262559285Y-2059580D01*
X262559285Y-2059580D02*
X262511666Y-2107200D01*
X262511666Y-2107200D02*
X262416428Y-2154819D01*
X262416428Y-2154819D02*
X262225952Y-2154819D01*
X262225952Y-2154819D02*
X262130714Y-2107200D01*
X262130714Y-2107200D02*
X262083095Y-2059580D01*
X262083095Y-2059580D02*
X262035476Y-1964342D01*
X262035476Y-1964342D02*
X262035476Y-1773866D01*
X262035476Y-1773866D02*
X262083095Y-1678628D01*
X262083095Y-1678628D02*
X262130714Y-1631009D01*
X262130714Y-1631009D02*
X262225952Y-1583390D01*
D10*
X287292305Y-19850651D02*
X286901829Y-19577318D01*
X287292305Y-19382080D02*
X286472305Y-19382080D01*
X286472305Y-19382080D02*
X286472305Y-19694461D01*
X286472305Y-19694461D02*
X286511353Y-19772556D01*
X286511353Y-19772556D02*
X286550400Y-19811603D01*
X286550400Y-19811603D02*
X286628496Y-19850651D01*
X286628496Y-19850651D02*
X286745638Y-19850651D01*
X286745638Y-19850651D02*
X286823734Y-19811603D01*
X286823734Y-19811603D02*
X286862781Y-19772556D01*
X286862781Y-19772556D02*
X286901829Y-19694461D01*
X286901829Y-19694461D02*
X286901829Y-19382080D01*
X287292305Y-20631603D02*
X287292305Y-20163032D01*
X287292305Y-20397318D02*
X286472305Y-20397318D01*
X286472305Y-20397318D02*
X286589448Y-20319222D01*
X286589448Y-20319222D02*
X286667543Y-20241127D01*
X286667543Y-20241127D02*
X286706591Y-20163032D01*
X286550400Y-20943984D02*
X286511353Y-20983032D01*
X286511353Y-20983032D02*
X286472305Y-21061127D01*
X286472305Y-21061127D02*
X286472305Y-21256365D01*
X286472305Y-21256365D02*
X286511353Y-21334460D01*
X286511353Y-21334460D02*
X286550400Y-21373508D01*
X286550400Y-21373508D02*
X286628496Y-21412555D01*
X286628496Y-21412555D02*
X286706591Y-21412555D01*
X286706591Y-21412555D02*
X286823734Y-21373508D01*
X286823734Y-21373508D02*
X287292305Y-20904936D01*
X287292305Y-20904936D02*
X287292305Y-21412555D01*
X284143259Y-19350651D02*
X283752783Y-19077318D01*
X284143259Y-18882080D02*
X283323259Y-18882080D01*
X283323259Y-18882080D02*
X283323259Y-19194461D01*
X283323259Y-19194461D02*
X283362307Y-19272556D01*
X283362307Y-19272556D02*
X283401354Y-19311603D01*
X283401354Y-19311603D02*
X283479450Y-19350651D01*
X283479450Y-19350651D02*
X283596592Y-19350651D01*
X283596592Y-19350651D02*
X283674688Y-19311603D01*
X283674688Y-19311603D02*
X283713735Y-19272556D01*
X283713735Y-19272556D02*
X283752783Y-19194461D01*
X283752783Y-19194461D02*
X283752783Y-18882080D01*
X283401354Y-19663032D02*
X283362307Y-19702080D01*
X283362307Y-19702080D02*
X283323259Y-19780175D01*
X283323259Y-19780175D02*
X283323259Y-19975413D01*
X283323259Y-19975413D02*
X283362307Y-20053508D01*
X283362307Y-20053508D02*
X283401354Y-20092556D01*
X283401354Y-20092556D02*
X283479450Y-20131603D01*
X283479450Y-20131603D02*
X283557545Y-20131603D01*
X283557545Y-20131603D02*
X283674688Y-20092556D01*
X283674688Y-20092556D02*
X284143259Y-19623984D01*
X284143259Y-19623984D02*
X284143259Y-20131603D01*
X288045495Y-19350651D02*
X287655019Y-19077318D01*
X288045495Y-18882080D02*
X287225495Y-18882080D01*
X287225495Y-18882080D02*
X287225495Y-19194461D01*
X287225495Y-19194461D02*
X287264543Y-19272556D01*
X287264543Y-19272556D02*
X287303590Y-19311603D01*
X287303590Y-19311603D02*
X287381686Y-19350651D01*
X287381686Y-19350651D02*
X287498828Y-19350651D01*
X287498828Y-19350651D02*
X287576924Y-19311603D01*
X287576924Y-19311603D02*
X287615971Y-19272556D01*
X287615971Y-19272556D02*
X287655019Y-19194461D01*
X287655019Y-19194461D02*
X287655019Y-18882080D01*
X287225495Y-20092556D02*
X287225495Y-19702080D01*
X287225495Y-19702080D02*
X287615971Y-19663032D01*
X287615971Y-19663032D02*
X287576924Y-19702080D01*
X287576924Y-19702080D02*
X287537876Y-19780175D01*
X287537876Y-19780175D02*
X287537876Y-19975413D01*
X287537876Y-19975413D02*
X287576924Y-20053508D01*
X287576924Y-20053508D02*
X287615971Y-20092556D01*
X287615971Y-20092556D02*
X287694067Y-20131603D01*
X287694067Y-20131603D02*
X287889305Y-20131603D01*
X287889305Y-20131603D02*
X287967400Y-20092556D01*
X287967400Y-20092556D02*
X288006448Y-20053508D01*
X288006448Y-20053508D02*
X288045495Y-19975413D01*
X288045495Y-19975413D02*
X288045495Y-19780175D01*
X288045495Y-19780175D02*
X288006448Y-19702080D01*
X288006448Y-19702080D02*
X287967400Y-19663032D01*
X289894541Y-19550651D02*
X289504065Y-19277318D01*
X289894541Y-19082080D02*
X289074541Y-19082080D01*
X289074541Y-19082080D02*
X289074541Y-19394461D01*
X289074541Y-19394461D02*
X289113589Y-19472556D01*
X289113589Y-19472556D02*
X289152636Y-19511603D01*
X289152636Y-19511603D02*
X289230732Y-19550651D01*
X289230732Y-19550651D02*
X289347874Y-19550651D01*
X289347874Y-19550651D02*
X289425970Y-19511603D01*
X289425970Y-19511603D02*
X289465017Y-19472556D01*
X289465017Y-19472556D02*
X289504065Y-19394461D01*
X289504065Y-19394461D02*
X289504065Y-19082080D01*
X289074541Y-20253508D02*
X289074541Y-20097318D01*
X289074541Y-20097318D02*
X289113589Y-20019222D01*
X289113589Y-20019222D02*
X289152636Y-19980175D01*
X289152636Y-19980175D02*
X289269779Y-19902080D01*
X289269779Y-19902080D02*
X289425970Y-19863032D01*
X289425970Y-19863032D02*
X289738351Y-19863032D01*
X289738351Y-19863032D02*
X289816446Y-19902080D01*
X289816446Y-19902080D02*
X289855494Y-19941127D01*
X289855494Y-19941127D02*
X289894541Y-20019222D01*
X289894541Y-20019222D02*
X289894541Y-20175413D01*
X289894541Y-20175413D02*
X289855494Y-20253508D01*
X289855494Y-20253508D02*
X289816446Y-20292556D01*
X289816446Y-20292556D02*
X289738351Y-20331603D01*
X289738351Y-20331603D02*
X289543113Y-20331603D01*
X289543113Y-20331603D02*
X289465017Y-20292556D01*
X289465017Y-20292556D02*
X289425970Y-20253508D01*
X289425970Y-20253508D02*
X289386922Y-20175413D01*
X289386922Y-20175413D02*
X289386922Y-20019222D01*
X289386922Y-20019222D02*
X289425970Y-19941127D01*
X289425970Y-19941127D02*
X289465017Y-19902080D01*
X289465017Y-19902080D02*
X289543113Y-19863032D01*
D11*
X300248094Y-25479819D02*
X300248094Y-24479819D01*
X300248094Y-24479819D02*
X299867142Y-24479819D01*
X299867142Y-24479819D02*
X299771904Y-24527438D01*
X299771904Y-24527438D02*
X299724285Y-24575057D01*
X299724285Y-24575057D02*
X299676666Y-24670295D01*
X299676666Y-24670295D02*
X299676666Y-24813152D01*
X299676666Y-24813152D02*
X299724285Y-24908390D01*
X299724285Y-24908390D02*
X299771904Y-24956009D01*
X299771904Y-24956009D02*
X299867142Y-25003628D01*
X299867142Y-25003628D02*
X300248094Y-25003628D01*
X299343332Y-24479819D02*
X298724285Y-24479819D01*
X298724285Y-24479819D02*
X299057618Y-24860771D01*
X299057618Y-24860771D02*
X298914761Y-24860771D01*
X298914761Y-24860771D02*
X298819523Y-24908390D01*
X298819523Y-24908390D02*
X298771904Y-24956009D01*
X298771904Y-24956009D02*
X298724285Y-25051247D01*
X298724285Y-25051247D02*
X298724285Y-25289342D01*
X298724285Y-25289342D02*
X298771904Y-25384580D01*
X298771904Y-25384580D02*
X298819523Y-25432200D01*
X298819523Y-25432200D02*
X298914761Y-25479819D01*
X298914761Y-25479819D02*
X299200475Y-25479819D01*
X299200475Y-25479819D02*
X299295713Y-25432200D01*
X299295713Y-25432200D02*
X299343332Y-25384580D01*
D13*
X277213999Y-791768D02*
X277467999Y-791768D01*
X277467999Y-1190911D02*
X277467999Y-428911D01*
X277467999Y-428911D02*
X277105142Y-428911D01*
X276415713Y-1190911D02*
X276851142Y-1190911D01*
X276633427Y-1190911D02*
X276633427Y-428911D01*
X276633427Y-428911D02*
X276705999Y-537768D01*
X276705999Y-537768D02*
X276778570Y-610340D01*
X276778570Y-610340D02*
X276851142Y-646626D01*
X319112390Y-49801302D02*
X319366390Y-49438445D01*
X319547819Y-49801302D02*
X319547819Y-49039302D01*
X319547819Y-49039302D02*
X319257533Y-49039302D01*
X319257533Y-49039302D02*
X319184962Y-49075588D01*
X319184962Y-49075588D02*
X319148676Y-49111874D01*
X319148676Y-49111874D02*
X319112390Y-49184445D01*
X319112390Y-49184445D02*
X319112390Y-49293302D01*
X319112390Y-49293302D02*
X319148676Y-49365874D01*
X319148676Y-49365874D02*
X319184962Y-49402159D01*
X319184962Y-49402159D02*
X319257533Y-49438445D01*
X319257533Y-49438445D02*
X319547819Y-49438445D01*
X318459248Y-49293302D02*
X318459248Y-49801302D01*
X318640676Y-49003017D02*
X318822105Y-49547302D01*
X318822105Y-49547302D02*
X318350390Y-49547302D01*
D11*
X307808094Y-17919819D02*
X307808094Y-16919819D01*
X307808094Y-16919819D02*
X307427142Y-16919819D01*
X307427142Y-16919819D02*
X307331904Y-16967438D01*
X307331904Y-16967438D02*
X307284285Y-17015057D01*
X307284285Y-17015057D02*
X307236666Y-17110295D01*
X307236666Y-17110295D02*
X307236666Y-17253152D01*
X307236666Y-17253152D02*
X307284285Y-17348390D01*
X307284285Y-17348390D02*
X307331904Y-17396009D01*
X307331904Y-17396009D02*
X307427142Y-17443628D01*
X307427142Y-17443628D02*
X307808094Y-17443628D01*
X306903332Y-16919819D02*
X306236666Y-16919819D01*
X306236666Y-16919819D02*
X306665237Y-17919819D01*
D13*
X312696768Y-26741000D02*
X312696768Y-26487000D01*
X313095911Y-26487000D02*
X312333911Y-26487000D01*
X312333911Y-26487000D02*
X312333911Y-26849857D01*
X312406483Y-27103857D02*
X312370197Y-27140143D01*
X312370197Y-27140143D02*
X312333911Y-27212715D01*
X312333911Y-27212715D02*
X312333911Y-27394143D01*
X312333911Y-27394143D02*
X312370197Y-27466715D01*
X312370197Y-27466715D02*
X312406483Y-27503000D01*
X312406483Y-27503000D02*
X312479054Y-27539286D01*
X312479054Y-27539286D02*
X312551626Y-27539286D01*
X312551626Y-27539286D02*
X312660483Y-27503000D01*
X312660483Y-27503000D02*
X313095911Y-27067572D01*
X313095911Y-27067572D02*
X313095911Y-27539286D01*
X283453999Y-791768D02*
X283707999Y-791768D01*
X283707999Y-1190911D02*
X283707999Y-428911D01*
X283707999Y-428911D02*
X283345142Y-428911D01*
X282728285Y-682911D02*
X282728285Y-1190911D01*
X282909713Y-392626D02*
X283091142Y-936911D01*
X283091142Y-936911D02*
X282619427Y-936911D01*
D11*
X308284285Y-29829819D02*
X308284285Y-28829819D01*
X308284285Y-28829819D02*
X307903333Y-28829819D01*
X307903333Y-28829819D02*
X307808095Y-28877438D01*
X307808095Y-28877438D02*
X307760476Y-28925057D01*
X307760476Y-28925057D02*
X307712857Y-29020295D01*
X307712857Y-29020295D02*
X307712857Y-29163152D01*
X307712857Y-29163152D02*
X307760476Y-29258390D01*
X307760476Y-29258390D02*
X307808095Y-29306009D01*
X307808095Y-29306009D02*
X307903333Y-29353628D01*
X307903333Y-29353628D02*
X308284285Y-29353628D01*
X306760476Y-29829819D02*
X307331904Y-29829819D01*
X307046190Y-29829819D02*
X307046190Y-28829819D01*
X307046190Y-28829819D02*
X307141428Y-28972676D01*
X307141428Y-28972676D02*
X307236666Y-29067914D01*
X307236666Y-29067914D02*
X307331904Y-29115533D01*
X305855714Y-28829819D02*
X306331904Y-28829819D01*
X306331904Y-28829819D02*
X306379523Y-29306009D01*
X306379523Y-29306009D02*
X306331904Y-29258390D01*
X306331904Y-29258390D02*
X306236666Y-29210771D01*
X306236666Y-29210771D02*
X305998571Y-29210771D01*
X305998571Y-29210771D02*
X305903333Y-29258390D01*
X305903333Y-29258390D02*
X305855714Y-29306009D01*
X305855714Y-29306009D02*
X305808095Y-29401247D01*
X305808095Y-29401247D02*
X305808095Y-29639342D01*
X305808095Y-29639342D02*
X305855714Y-29734580D01*
X305855714Y-29734580D02*
X305903333Y-29782200D01*
X305903333Y-29782200D02*
X305998571Y-29829819D01*
X305998571Y-29829819D02*
X306236666Y-29829819D01*
X306236666Y-29829819D02*
X306331904Y-29782200D01*
X306331904Y-29782200D02*
X306379523Y-29734580D01*
X307808094Y-21699819D02*
X307808094Y-20699819D01*
X307808094Y-20699819D02*
X307427142Y-20699819D01*
X307427142Y-20699819D02*
X307331904Y-20747438D01*
X307331904Y-20747438D02*
X307284285Y-20795057D01*
X307284285Y-20795057D02*
X307236666Y-20890295D01*
X307236666Y-20890295D02*
X307236666Y-21033152D01*
X307236666Y-21033152D02*
X307284285Y-21128390D01*
X307284285Y-21128390D02*
X307331904Y-21176009D01*
X307331904Y-21176009D02*
X307427142Y-21223628D01*
X307427142Y-21223628D02*
X307808094Y-21223628D01*
X306665237Y-21128390D02*
X306760475Y-21080771D01*
X306760475Y-21080771D02*
X306808094Y-21033152D01*
X306808094Y-21033152D02*
X306855713Y-20937914D01*
X306855713Y-20937914D02*
X306855713Y-20890295D01*
X306855713Y-20890295D02*
X306808094Y-20795057D01*
X306808094Y-20795057D02*
X306760475Y-20747438D01*
X306760475Y-20747438D02*
X306665237Y-20699819D01*
X306665237Y-20699819D02*
X306474761Y-20699819D01*
X306474761Y-20699819D02*
X306379523Y-20747438D01*
X306379523Y-20747438D02*
X306331904Y-20795057D01*
X306331904Y-20795057D02*
X306284285Y-20890295D01*
X306284285Y-20890295D02*
X306284285Y-20937914D01*
X306284285Y-20937914D02*
X306331904Y-21033152D01*
X306331904Y-21033152D02*
X306379523Y-21080771D01*
X306379523Y-21080771D02*
X306474761Y-21128390D01*
X306474761Y-21128390D02*
X306665237Y-21128390D01*
X306665237Y-21128390D02*
X306760475Y-21176009D01*
X306760475Y-21176009D02*
X306808094Y-21223628D01*
X306808094Y-21223628D02*
X306855713Y-21318866D01*
X306855713Y-21318866D02*
X306855713Y-21509342D01*
X306855713Y-21509342D02*
X306808094Y-21604580D01*
X306808094Y-21604580D02*
X306760475Y-21652200D01*
X306760475Y-21652200D02*
X306665237Y-21699819D01*
X306665237Y-21699819D02*
X306474761Y-21699819D01*
X306474761Y-21699819D02*
X306379523Y-21652200D01*
X306379523Y-21652200D02*
X306331904Y-21604580D01*
X306331904Y-21604580D02*
X306284285Y-21509342D01*
X306284285Y-21509342D02*
X306284285Y-21318866D01*
X306284285Y-21318866D02*
X306331904Y-21223628D01*
X306331904Y-21223628D02*
X306379523Y-21176009D01*
X306379523Y-21176009D02*
X306474761Y-21128390D01*
X304028094Y-21699819D02*
X304028094Y-20699819D01*
X304028094Y-20699819D02*
X303647142Y-20699819D01*
X303647142Y-20699819D02*
X303551904Y-20747438D01*
X303551904Y-20747438D02*
X303504285Y-20795057D01*
X303504285Y-20795057D02*
X303456666Y-20890295D01*
X303456666Y-20890295D02*
X303456666Y-21033152D01*
X303456666Y-21033152D02*
X303504285Y-21128390D01*
X303504285Y-21128390D02*
X303551904Y-21176009D01*
X303551904Y-21176009D02*
X303647142Y-21223628D01*
X303647142Y-21223628D02*
X304028094Y-21223628D01*
X302551904Y-20699819D02*
X303028094Y-20699819D01*
X303028094Y-20699819D02*
X303075713Y-21176009D01*
X303075713Y-21176009D02*
X303028094Y-21128390D01*
X303028094Y-21128390D02*
X302932856Y-21080771D01*
X302932856Y-21080771D02*
X302694761Y-21080771D01*
X302694761Y-21080771D02*
X302599523Y-21128390D01*
X302599523Y-21128390D02*
X302551904Y-21176009D01*
X302551904Y-21176009D02*
X302504285Y-21271247D01*
X302504285Y-21271247D02*
X302504285Y-21509342D01*
X302504285Y-21509342D02*
X302551904Y-21604580D01*
X302551904Y-21604580D02*
X302599523Y-21652200D01*
X302599523Y-21652200D02*
X302694761Y-21699819D01*
X302694761Y-21699819D02*
X302932856Y-21699819D01*
X302932856Y-21699819D02*
X303028094Y-21652200D01*
X303028094Y-21652200D02*
X303075713Y-21604580D01*
X300248094Y-21699819D02*
X300248094Y-20699819D01*
X300248094Y-20699819D02*
X299867142Y-20699819D01*
X299867142Y-20699819D02*
X299771904Y-20747438D01*
X299771904Y-20747438D02*
X299724285Y-20795057D01*
X299724285Y-20795057D02*
X299676666Y-20890295D01*
X299676666Y-20890295D02*
X299676666Y-21033152D01*
X299676666Y-21033152D02*
X299724285Y-21128390D01*
X299724285Y-21128390D02*
X299771904Y-21176009D01*
X299771904Y-21176009D02*
X299867142Y-21223628D01*
X299867142Y-21223628D02*
X300248094Y-21223628D01*
X299295713Y-20795057D02*
X299248094Y-20747438D01*
X299248094Y-20747438D02*
X299152856Y-20699819D01*
X299152856Y-20699819D02*
X298914761Y-20699819D01*
X298914761Y-20699819D02*
X298819523Y-20747438D01*
X298819523Y-20747438D02*
X298771904Y-20795057D01*
X298771904Y-20795057D02*
X298724285Y-20890295D01*
X298724285Y-20890295D02*
X298724285Y-20985533D01*
X298724285Y-20985533D02*
X298771904Y-21128390D01*
X298771904Y-21128390D02*
X299343332Y-21699819D01*
X299343332Y-21699819D02*
X298724285Y-21699819D01*
X300248094Y-17919819D02*
X300248094Y-16919819D01*
X300248094Y-16919819D02*
X299867142Y-16919819D01*
X299867142Y-16919819D02*
X299771904Y-16967438D01*
X299771904Y-16967438D02*
X299724285Y-17015057D01*
X299724285Y-17015057D02*
X299676666Y-17110295D01*
X299676666Y-17110295D02*
X299676666Y-17253152D01*
X299676666Y-17253152D02*
X299724285Y-17348390D01*
X299724285Y-17348390D02*
X299771904Y-17396009D01*
X299771904Y-17396009D02*
X299867142Y-17443628D01*
X299867142Y-17443628D02*
X300248094Y-17443628D01*
X298724285Y-17919819D02*
X299295713Y-17919819D01*
X299009999Y-17919819D02*
X299009999Y-16919819D01*
X299009999Y-16919819D02*
X299105237Y-17062676D01*
X299105237Y-17062676D02*
X299200475Y-17157914D01*
X299200475Y-17157914D02*
X299295713Y-17205533D01*
X304028094Y-17919819D02*
X304028094Y-16919819D01*
X304028094Y-16919819D02*
X303647142Y-16919819D01*
X303647142Y-16919819D02*
X303551904Y-16967438D01*
X303551904Y-16967438D02*
X303504285Y-17015057D01*
X303504285Y-17015057D02*
X303456666Y-17110295D01*
X303456666Y-17110295D02*
X303456666Y-17253152D01*
X303456666Y-17253152D02*
X303504285Y-17348390D01*
X303504285Y-17348390D02*
X303551904Y-17396009D01*
X303551904Y-17396009D02*
X303647142Y-17443628D01*
X303647142Y-17443628D02*
X304028094Y-17443628D01*
X302599523Y-17253152D02*
X302599523Y-17919819D01*
X302837618Y-16872200D02*
X303075713Y-17586485D01*
X303075713Y-17586485D02*
X302456666Y-17586485D01*
X309125538Y-26333867D02*
X309125538Y-25333867D01*
X309125538Y-25333867D02*
X308744586Y-25333867D01*
X308744586Y-25333867D02*
X308649348Y-25381486D01*
X308649348Y-25381486D02*
X308601729Y-25429105D01*
X308601729Y-25429105D02*
X308554110Y-25524343D01*
X308554110Y-25524343D02*
X308554110Y-25667200D01*
X308554110Y-25667200D02*
X308601729Y-25762438D01*
X308601729Y-25762438D02*
X308649348Y-25810057D01*
X308649348Y-25810057D02*
X308744586Y-25857676D01*
X308744586Y-25857676D02*
X309125538Y-25857676D01*
X307601729Y-26333867D02*
X308173157Y-26333867D01*
X307887443Y-26333867D02*
X307887443Y-25333867D01*
X307887443Y-25333867D02*
X307982681Y-25476724D01*
X307982681Y-25476724D02*
X308077919Y-25571962D01*
X308077919Y-25571962D02*
X308173157Y-25619581D01*
X307030300Y-25762438D02*
X307125538Y-25714819D01*
X307125538Y-25714819D02*
X307173157Y-25667200D01*
X307173157Y-25667200D02*
X307220776Y-25571962D01*
X307220776Y-25571962D02*
X307220776Y-25524343D01*
X307220776Y-25524343D02*
X307173157Y-25429105D01*
X307173157Y-25429105D02*
X307125538Y-25381486D01*
X307125538Y-25381486D02*
X307030300Y-25333867D01*
X307030300Y-25333867D02*
X306839824Y-25333867D01*
X306839824Y-25333867D02*
X306744586Y-25381486D01*
X306744586Y-25381486D02*
X306696967Y-25429105D01*
X306696967Y-25429105D02*
X306649348Y-25524343D01*
X306649348Y-25524343D02*
X306649348Y-25571962D01*
X306649348Y-25571962D02*
X306696967Y-25667200D01*
X306696967Y-25667200D02*
X306744586Y-25714819D01*
X306744586Y-25714819D02*
X306839824Y-25762438D01*
X306839824Y-25762438D02*
X307030300Y-25762438D01*
X307030300Y-25762438D02*
X307125538Y-25810057D01*
X307125538Y-25810057D02*
X307173157Y-25857676D01*
X307173157Y-25857676D02*
X307220776Y-25952914D01*
X307220776Y-25952914D02*
X307220776Y-26143390D01*
X307220776Y-26143390D02*
X307173157Y-26238628D01*
X307173157Y-26238628D02*
X307125538Y-26286248D01*
X307125538Y-26286248D02*
X307030300Y-26333867D01*
X307030300Y-26333867D02*
X306839824Y-26333867D01*
X306839824Y-26333867D02*
X306744586Y-26286248D01*
X306744586Y-26286248D02*
X306696967Y-26238628D01*
X306696967Y-26238628D02*
X306649348Y-26143390D01*
X306649348Y-26143390D02*
X306649348Y-25952914D01*
X306649348Y-25952914D02*
X306696967Y-25857676D01*
X306696967Y-25857676D02*
X306744586Y-25810057D01*
X306744586Y-25810057D02*
X306839824Y-25762438D01*
X311591004Y-26102654D02*
X311591004Y-25102654D01*
X311591004Y-25102654D02*
X311210052Y-25102654D01*
X311210052Y-25102654D02*
X311114814Y-25150273D01*
X311114814Y-25150273D02*
X311067195Y-25197892D01*
X311067195Y-25197892D02*
X311019576Y-25293130D01*
X311019576Y-25293130D02*
X311019576Y-25435987D01*
X311019576Y-25435987D02*
X311067195Y-25531225D01*
X311067195Y-25531225D02*
X311114814Y-25578844D01*
X311114814Y-25578844D02*
X311210052Y-25626463D01*
X311210052Y-25626463D02*
X311591004Y-25626463D01*
X310067195Y-26102654D02*
X310638623Y-26102654D01*
X310352909Y-26102654D02*
X310352909Y-25102654D01*
X310352909Y-25102654D02*
X310448147Y-25245511D01*
X310448147Y-25245511D02*
X310543385Y-25340749D01*
X310543385Y-25340749D02*
X310638623Y-25388368D01*
X309733861Y-25102654D02*
X309067195Y-25102654D01*
X309067195Y-25102654D02*
X309495766Y-26102654D01*
D13*
X280333999Y-791768D02*
X280587999Y-791768D01*
X280587999Y-1190911D02*
X280587999Y-428911D01*
X280587999Y-428911D02*
X280225142Y-428911D01*
X280007427Y-428911D02*
X279535713Y-428911D01*
X279535713Y-428911D02*
X279789713Y-719197D01*
X279789713Y-719197D02*
X279680856Y-719197D01*
X279680856Y-719197D02*
X279608285Y-755483D01*
X279608285Y-755483D02*
X279571999Y-791768D01*
X279571999Y-791768D02*
X279535713Y-864340D01*
X279535713Y-864340D02*
X279535713Y-1045768D01*
X279535713Y-1045768D02*
X279571999Y-1118340D01*
X279571999Y-1118340D02*
X279608285Y-1154626D01*
X279608285Y-1154626D02*
X279680856Y-1190911D01*
X279680856Y-1190911D02*
X279898570Y-1190911D01*
X279898570Y-1190911D02*
X279971142Y-1154626D01*
X279971142Y-1154626D02*
X280007427Y-1118340D01*
D11*
X304028094Y-25479819D02*
X304028094Y-24479819D01*
X304028094Y-24479819D02*
X303647142Y-24479819D01*
X303647142Y-24479819D02*
X303551904Y-24527438D01*
X303551904Y-24527438D02*
X303504285Y-24575057D01*
X303504285Y-24575057D02*
X303456666Y-24670295D01*
X303456666Y-24670295D02*
X303456666Y-24813152D01*
X303456666Y-24813152D02*
X303504285Y-24908390D01*
X303504285Y-24908390D02*
X303551904Y-24956009D01*
X303551904Y-24956009D02*
X303647142Y-25003628D01*
X303647142Y-25003628D02*
X304028094Y-25003628D01*
X302599523Y-24479819D02*
X302789999Y-24479819D01*
X302789999Y-24479819D02*
X302885237Y-24527438D01*
X302885237Y-24527438D02*
X302932856Y-24575057D01*
X302932856Y-24575057D02*
X303028094Y-24717914D01*
X303028094Y-24717914D02*
X303075713Y-24908390D01*
X303075713Y-24908390D02*
X303075713Y-25289342D01*
X303075713Y-25289342D02*
X303028094Y-25384580D01*
X303028094Y-25384580D02*
X302980475Y-25432200D01*
X302980475Y-25432200D02*
X302885237Y-25479819D01*
X302885237Y-25479819D02*
X302694761Y-25479819D01*
X302694761Y-25479819D02*
X302599523Y-25432200D01*
X302599523Y-25432200D02*
X302551904Y-25384580D01*
X302551904Y-25384580D02*
X302504285Y-25289342D01*
X302504285Y-25289342D02*
X302504285Y-25051247D01*
X302504285Y-25051247D02*
X302551904Y-24956009D01*
X302551904Y-24956009D02*
X302599523Y-24908390D01*
X302599523Y-24908390D02*
X302694761Y-24860771D01*
X302694761Y-24860771D02*
X302885237Y-24860771D01*
X302885237Y-24860771D02*
X302980475Y-24908390D01*
X302980475Y-24908390D02*
X303028094Y-24956009D01*
X303028094Y-24956009D02*
X303075713Y-25051247D01*
D14*
G04 #@! TO.C,D4*
X284200000Y-275000D02*
X284200000Y3625000D01*
X284200000Y-275000D02*
X282200000Y-275000D01*
D10*
X283200000Y1425000D02*
X283200000Y1625000D01*
X283200000Y1625000D02*
X283550000Y2325000D01*
X283200000Y1625000D02*
X282850000Y2325000D01*
X283200000Y2325000D02*
X283200000Y2625000D01*
X282850000Y1625000D02*
X283550000Y1625000D01*
X282850000Y2325000D02*
X283550000Y2325000D01*
D14*
X282200000Y-275000D02*
X282200000Y3625000D01*
D12*
G04 #@! TO.C,C30*
X286475001Y-5334970D02*
X286475001Y-6084955D01*
D14*
G04 #@! TO.C,P16*
X312180000Y-18385000D02*
X312180000Y-21045000D01*
X311885538Y-21045000D02*
X312180000Y-21045000D01*
X311874373Y-18385000D02*
X312180000Y-18385000D01*
X309825627Y-21045000D02*
X309520000Y-21045000D01*
X309814462Y-18385000D02*
X309520000Y-18385000D01*
X309520000Y-21045000D02*
X309520000Y-18385000D01*
D12*
G04 #@! TO.C,C10*
X319265000Y675000D02*
X318265000Y675000D01*
G04 #@! TO.C,C27*
X296229910Y-87770001D02*
X296979895Y-87770001D01*
D14*
G04 #@! TO.C,R20*
X241502064Y-61830000D02*
X237147936Y-61830000D01*
X241502064Y-58410000D02*
X237147936Y-58410000D01*
G04 #@! TO.C,D8*
X318965000Y-90000000D02*
X318965000Y-90650000D01*
X318965000Y-90000000D02*
X318965000Y-89350000D01*
X315845000Y-90000000D02*
X315845000Y-90650000D01*
X315845000Y-90000000D02*
X315845000Y-88325000D01*
G04 #@! TO.C,G4*
X300972000Y6115000D02*
X308084000Y6115000D01*
X308084000Y-6077000D01*
X300972000Y-6077000D01*
X300972000Y6115000D01*
G04 #@! TO.C,U10*
X309115000Y-13600000D02*
X309115000Y-15550000D01*
X309115000Y-13600000D02*
X309115000Y-11650000D01*
X303995000Y-13600000D02*
X303995000Y-15550000D01*
X303995000Y-13600000D02*
X303995000Y-10150000D01*
D15*
G04 #@! TO.C,BT1*
X302101312Y24292610D02*
G75*
G02*
X302122370Y10463962I-2154015J-6917620D01*
G01*
X297649811Y10559566D02*
G75*
G02*
X297823344Y24246485I2297434J6815431D01*
G01*
X307059263Y10154943D02*
X302178373Y10154943D01*
X307059263Y13310969D02*
X307059263Y10154943D01*
X307059263Y13310969D02*
X306117863Y13310969D01*
X303503263Y13463395D02*
X301471263Y13463395D01*
X302487263Y14479395D02*
X302487263Y12447395D01*
X302487263Y21718395D02*
X302487263Y20194395D01*
X297716152Y10154943D02*
X292835263Y10154943D01*
X294035565Y13310969D02*
X292835263Y13310969D01*
X292835263Y13310969D02*
X292835263Y10154943D01*
D16*
G04 #@! TO.C,R34*
X291174584Y-29575000D02*
X291174574Y-29175000D01*
X290428749Y-29576056D02*
X290428738Y-29176057D01*
G04 #@! TO.C,R31*
X285327446Y-29575000D02*
X285327436Y-29175000D01*
X284581611Y-29576056D02*
X284581600Y-29176057D01*
D12*
G04 #@! TO.C,C33*
X302079865Y-87770001D02*
X302829850Y-87770001D01*
G04 #@! TO.C,C17*
X316015000Y-3325000D02*
X317015000Y-3325000D01*
D14*
G04 #@! TO.C,R21*
X241502064Y-66720000D02*
X237147936Y-66720000D01*
X241502064Y-63300000D02*
X237147936Y-63300000D01*
G04 #@! TO.C,R26*
X241502064Y-76500000D02*
X237147936Y-76500000D01*
X241502064Y-73080000D02*
X237147936Y-73080000D01*
D12*
G04 #@! TO.C,C7*
X312515000Y675000D02*
X311515000Y675000D01*
G04 #@! TO.C,C29*
X286475001Y-4134970D02*
X286475001Y-3384985D01*
G04 #@! TO.C,C1*
X309265000Y4675000D02*
X310265000Y4675000D01*
D14*
G04 #@! TO.C,U11*
X315565000Y-13600000D02*
X315565000Y-15550000D01*
X315565000Y-13600000D02*
X315565000Y-11650000D01*
X310445000Y-13600000D02*
X310445000Y-15550000D01*
X310445000Y-13600000D02*
X310445000Y-10150000D01*
D12*
G04 #@! TO.C,C31*
X298929880Y-87770001D02*
X298179895Y-87770001D01*
D14*
G04 #@! TO.C,F9*
X295735000Y-83887221D02*
X295735000Y-84212779D01*
X294715000Y-83887221D02*
X294715000Y-84212779D01*
D12*
G04 #@! TO.C,C19*
X310265000Y-7325000D02*
X309265000Y-7325000D01*
G04 #@! TO.C,C23*
X319265000Y-7325000D02*
X318265000Y-7325000D01*
D14*
G04 #@! TO.C,F6*
X288205000Y-83887221D02*
X288205000Y-84212779D01*
X287185000Y-83887221D02*
X287185000Y-84212779D01*
D12*
G04 #@! TO.C,C3*
X313765000Y4675000D02*
X314765000Y4675000D01*
D14*
G04 #@! TO.C,U4*
X289765000Y-13600000D02*
X289765000Y-15550000D01*
X289765000Y-13600000D02*
X289765000Y-11650000D01*
X284645000Y-13600000D02*
X284645000Y-15550000D01*
X284645000Y-13600000D02*
X284645000Y-10150000D01*
D12*
G04 #@! TO.C,C14*
X309265000Y-3325000D02*
X310265000Y-3325000D01*
D14*
G04 #@! TO.C,R27*
X241502064Y-81390000D02*
X237147936Y-81390000D01*
X241502064Y-77970000D02*
X237147936Y-77970000D01*
D12*
G04 #@! TO.C,C4*
X316015000Y4675000D02*
X317015000Y4675000D01*
D14*
G04 #@! TO.C,F10*
X298245000Y-83887221D02*
X298245000Y-84212779D01*
X297225000Y-83887221D02*
X297225000Y-84212779D01*
G04 #@! TO.C,D2*
X277960000Y-275000D02*
X277960000Y3625000D01*
X277960000Y-275000D02*
X275960000Y-275000D01*
D10*
X276960000Y1425000D02*
X276960000Y1625000D01*
X276960000Y1625000D02*
X277310000Y2325000D01*
X276960000Y1625000D02*
X276610000Y2325000D01*
X276960000Y2325000D02*
X276960000Y2625000D01*
X276610000Y1625000D02*
X277310000Y1625000D01*
X276610000Y2325000D02*
X277310000Y2325000D01*
D14*
X275960000Y-275000D02*
X275960000Y3625000D01*
D10*
G04 #@! TO.C,D1*
X315342997Y-29704995D02*
X315642997Y-29704995D01*
X315342997Y-29354995D02*
X315342997Y-30054995D01*
X314642997Y-29704995D02*
X315342997Y-30054995D01*
X314642997Y-29704995D02*
X315342997Y-29354995D01*
X314642997Y-29354995D02*
X314642997Y-30054995D01*
X314442997Y-29704995D02*
X314642997Y-29704995D01*
D11*
X313442997Y-29858990D02*
X313442997Y-30304995D01*
X313442997Y-29154995D02*
X313442000Y-29551000D01*
X313315000Y-30304995D02*
X316242998Y-30304995D01*
X313315000Y-29958995D02*
X313442000Y-29958995D01*
X313315000Y-29858990D02*
X313315000Y-30304995D01*
X313315000Y-29450995D02*
X313442997Y-29450995D01*
X313315000Y-29130000D02*
X316242997Y-29130000D01*
X313315000Y-29130000D02*
X313315000Y-29551000D01*
D16*
G04 #@! TO.C,R19*
X287276492Y-26275000D02*
X287276482Y-25875000D01*
X286530657Y-26276056D02*
X286530646Y-25876057D01*
G04 #@! TO.C,R33*
X289225527Y-29173944D02*
X289225538Y-29573943D01*
X288479692Y-29175000D02*
X288479702Y-29575000D01*
G04 #@! TO.C,R17*
X297021722Y-22975000D02*
X297021712Y-22575000D01*
X296275887Y-22976056D02*
X296275876Y-22576057D01*
D14*
G04 #@! TO.C,R22*
X241502064Y-71610000D02*
X237147936Y-71610000D01*
X241502064Y-68190000D02*
X237147936Y-68190000D01*
D16*
G04 #@! TO.C,R13*
X289225538Y-22975000D02*
X289225528Y-22575000D01*
X288479703Y-22976056D02*
X288479692Y-22576057D01*
D12*
G04 #@! TO.C,C21*
X314765000Y-7325000D02*
X313765000Y-7325000D01*
D16*
G04 #@! TO.C,R30*
X297021722Y-26275000D02*
X297021712Y-25875000D01*
X296275887Y-26276056D02*
X296275876Y-25876057D01*
G04 #@! TO.C,R25*
X293123630Y-26275000D02*
X293123620Y-25875000D01*
X292377795Y-26276056D02*
X292377784Y-25876057D01*
D12*
G04 #@! TO.C,C16*
X313765000Y-3325000D02*
X314765000Y-3325000D01*
D16*
G04 #@! TO.C,R3*
X287276492Y-19675000D02*
X287276482Y-19275000D01*
X286530657Y-19676056D02*
X286530646Y-19276057D01*
G04 #@! TO.C,R8*
X295072676Y-19675000D02*
X295072666Y-19275000D01*
X294326841Y-19676056D02*
X294326830Y-19276057D01*
D14*
G04 #@! TO.C,F8*
X293225000Y-83887221D02*
X293225000Y-84212779D01*
X292205000Y-83887221D02*
X292205000Y-84212779D01*
D16*
G04 #@! TO.C,R23*
X289225538Y-26275000D02*
X289225528Y-25875000D01*
X288479703Y-26276056D02*
X288479692Y-25876057D01*
G04 #@! TO.C,R24*
X291174584Y-26275000D02*
X291174574Y-25875000D01*
X290428749Y-26276056D02*
X290428738Y-25876057D01*
D12*
G04 #@! TO.C,C32*
X300879865Y-87770001D02*
X300129880Y-87770001D01*
D16*
G04 #@! TO.C,R7*
X293123630Y-19675000D02*
X293123620Y-19275000D01*
X292377795Y-19676056D02*
X292377784Y-19276057D01*
G04 #@! TO.C,R16*
X295072676Y-22975000D02*
X295072666Y-22575000D01*
X294326841Y-22976056D02*
X294326830Y-22576057D01*
D14*
G04 #@! TO.C,U9*
X302665000Y-13600000D02*
X302665000Y-15550000D01*
X302665000Y-13600000D02*
X302665000Y-11650000D01*
X297545000Y-13600000D02*
X297545000Y-15550000D01*
X297545000Y-13600000D02*
X297545000Y-10150000D01*
G04 #@! TO.C,L2*
X303265000Y-83887221D02*
X303265000Y-84212779D01*
X302245000Y-83887221D02*
X302245000Y-84212779D01*
G04 #@! TO.C,F7*
X290715000Y-83887221D02*
X290715000Y-84212779D01*
X289695000Y-83887221D02*
X289695000Y-84212779D01*
D12*
G04 #@! TO.C,C22*
X317015000Y-7325000D02*
X316015000Y-7325000D01*
D16*
G04 #@! TO.C,R15*
X293123630Y-22975000D02*
X293123620Y-22575000D01*
X292377795Y-22976056D02*
X292377784Y-22576057D01*
D12*
G04 #@! TO.C,C9*
X317015000Y675000D02*
X316015000Y675000D01*
G04 #@! TO.C,C8*
X314765000Y675000D02*
X313765000Y675000D01*
D14*
G04 #@! TO.C,L1*
X300755000Y-83887221D02*
X300755000Y-84212779D01*
X299735000Y-83887221D02*
X299735000Y-84212779D01*
G04 #@! TO.C,F5*
X285695000Y-83887221D02*
X285695000Y-84212779D01*
X284675000Y-83887221D02*
X284675000Y-84212779D01*
D16*
G04 #@! TO.C,R32*
X287276481Y-29173944D02*
X287276492Y-29573943D01*
X286530646Y-29175000D02*
X286530656Y-29575000D01*
D12*
G04 #@! TO.C,C28*
X286475001Y-2184985D02*
X286475001Y-1435000D01*
G04 #@! TO.C,C15*
X311515000Y-3325000D02*
X312515000Y-3325000D01*
D16*
G04 #@! TO.C,R29*
X295072676Y-26275000D02*
X295072666Y-25875000D01*
X294326841Y-26276056D02*
X294326830Y-25876057D01*
D12*
G04 #@! TO.C,C2*
X311515000Y4675000D02*
X312515000Y4675000D01*
D14*
G04 #@! TO.C,U6*
X296215000Y-13600000D02*
X296215000Y-15550000D01*
X296215000Y-13600000D02*
X296215000Y-11650000D01*
X291095000Y-13600000D02*
X291095000Y-15550000D01*
X291095000Y-13600000D02*
X291095000Y-10150000D01*
G04 #@! TO.C,R28*
X241502064Y-86280000D02*
X237147936Y-86280000D01*
X241502064Y-82860000D02*
X237147936Y-82860000D01*
D12*
G04 #@! TO.C,C5*
X318265000Y4675000D02*
X319265000Y4675000D01*
D16*
G04 #@! TO.C,R18*
X285327446Y-26275000D02*
X285327436Y-25875000D01*
X284581611Y-26276056D02*
X284581600Y-25876057D01*
D12*
G04 #@! TO.C,C6*
X310265000Y675000D02*
X309265000Y675000D01*
D14*
G04 #@! TO.C,U8*
X262845000Y-7660000D02*
X264795000Y-7660000D01*
X262845000Y-7660000D02*
X260895000Y-7660000D01*
X262845000Y-2540000D02*
X266295000Y-2540000D01*
X262845000Y-2540000D02*
X260895000Y-2540000D01*
D16*
G04 #@! TO.C,R12*
X287276492Y-22975000D02*
X287276482Y-22575000D01*
X286530657Y-22976056D02*
X286530646Y-22576057D01*
G04 #@! TO.C,R2*
X285327446Y-19675000D02*
X285327436Y-19275000D01*
X284581611Y-19676056D02*
X284581600Y-19276057D01*
G04 #@! TO.C,R5*
X289225527Y-19273944D02*
X289225538Y-19673943D01*
X288479692Y-19275000D02*
X288479702Y-19675000D01*
D12*
G04 #@! TO.C,C18*
X318265000Y-3325000D02*
X319265000Y-3325000D01*
G04 #@! TO.C,C20*
X312515000Y-7325000D02*
X311515000Y-7325000D01*
D16*
G04 #@! TO.C,R6*
X291174573Y-19273944D02*
X291174584Y-19673943D01*
X290428738Y-19275000D02*
X290428748Y-19675000D01*
D14*
G04 #@! TO.C,P3*
X300840000Y-25945000D02*
X300840000Y-28605000D01*
X300545538Y-28605000D02*
X300840000Y-28605000D01*
X300534373Y-25945000D02*
X300840000Y-25945000D01*
X298485627Y-28605000D02*
X298180000Y-28605000D01*
X298474462Y-25945000D02*
X298180000Y-25945000D01*
X298180000Y-28605000D02*
X298180000Y-25945000D01*
G04 #@! TO.C,F1*
X277960000Y-7295000D02*
G75*
G02*
X275960000Y-7295000I-1000000J0D01*
G01*
X275960000Y-2395000D02*
G75*
G02*
X277960000Y-2395000I1000000J0D01*
G01*
X277960000Y-7245000D02*
X277960000Y-2395000D01*
X275960000Y-7245000D02*
X275960000Y-2395000D01*
G04 #@! TO.C,R4*
X319785391Y-54530391D02*
G75*
G02*
X318181896Y-54538993I-800000J-330000D01*
G01*
X318183753Y-51376391D02*
G75*
G02*
X319785391Y-51380391I801638J326000D01*
G01*
D17*
X319785391Y-54479391D02*
X319785391Y-53463391D01*
X319785391Y-52447391D02*
X319785391Y-51431391D01*
X318185391Y-53463391D02*
X318185391Y-54479391D01*
X318185391Y-51431391D02*
X318185391Y-52447391D01*
G04 #@! TO.C,G3*
D14*
X292740000Y6115000D02*
X299852000Y6115000D01*
X299852000Y-6077000D01*
X292740000Y-6077000D01*
X292740000Y6115000D01*
G04 #@! TO.C,P7*
X308400000Y-18385000D02*
X308400000Y-21045000D01*
X308105538Y-21045000D02*
X308400000Y-21045000D01*
X308094373Y-18385000D02*
X308400000Y-18385000D01*
X306045627Y-21045000D02*
X305740000Y-21045000D01*
X306034462Y-18385000D02*
X305740000Y-18385000D01*
X305740000Y-21045000D02*
X305740000Y-18385000D01*
D12*
G04 #@! TO.C,M6*
X246080010Y-8774990D02*
X212280000Y-8774990D01*
X246080010Y27025000D02*
X246080010Y-8774990D01*
X246080010Y27025000D02*
X212280000Y27025000D01*
X212280000Y27025000D02*
X212280000Y-8774990D01*
G04 #@! TO.C,M4*
X233180000Y-81525000D02*
X233180000Y-67125000D01*
X233180000Y-67125000D02*
X226780000Y-67125000D01*
X223580000Y-82125000D02*
X228680000Y-82125000D01*
X223580000Y-67125000D02*
X224880000Y-67125000D01*
X223580000Y-67125000D02*
X223580000Y-82125000D01*
D14*
G04 #@! TO.C,F2*
X319200000Y-25995000D02*
G75*
G02*
X319200000Y-27995000I0J-1000000D01*
G01*
X314300000Y-27995000D02*
G75*
G02*
X314300000Y-25995000I0J1000000D01*
G01*
X319150000Y-27995000D02*
X314300000Y-27995000D01*
X319150000Y-25995000D02*
X314300000Y-25995000D01*
G04 #@! TO.C,F4*
X284200000Y-7295000D02*
G75*
G02*
X282200000Y-7295000I-1000000J0D01*
G01*
X282200000Y-2395000D02*
G75*
G02*
X284200000Y-2395000I1000000J0D01*
G01*
X284200000Y-7245000D02*
X284200000Y-2395000D01*
X282200000Y-7245000D02*
X282200000Y-2395000D01*
G04 #@! TO.C,P15*
X308400000Y-25945000D02*
X308400000Y-28605000D01*
X308105538Y-28605000D02*
X308400000Y-28605000D01*
X308094373Y-25945000D02*
X308400000Y-25945000D01*
X306045627Y-28605000D02*
X305740000Y-28605000D01*
X306034462Y-25945000D02*
X305740000Y-25945000D01*
X305740000Y-28605000D02*
X305740000Y-25945000D01*
D12*
G04 #@! TO.C,M3*
X222130000Y-81525000D02*
X222130000Y-67125000D01*
X222130000Y-67125000D02*
X215730000Y-67125000D01*
X212530000Y-82125000D02*
X217630000Y-82125000D01*
X212530000Y-67125000D02*
X213830000Y-67125000D01*
X212530000Y-67125000D02*
X212530000Y-82125000D01*
D14*
G04 #@! TO.C,P8*
X308400000Y-22165000D02*
X308400000Y-24825000D01*
X308105538Y-24825000D02*
X308400000Y-24825000D01*
X308094373Y-22165000D02*
X308400000Y-22165000D01*
X306045627Y-24825000D02*
X305740000Y-24825000D01*
X306034462Y-22165000D02*
X305740000Y-22165000D01*
X305740000Y-24825000D02*
X305740000Y-22165000D01*
G04 #@! TO.C,M5*
D12*
X269180000Y-62595000D02*
X283080000Y-62595000D01*
X283080000Y-90095000D01*
X269180000Y-90095000D01*
X269180000Y-62595000D01*
D14*
G04 #@! TO.C,P5*
X304620000Y-22165000D02*
X304620000Y-24825000D01*
X304325538Y-24825000D02*
X304620000Y-24825000D01*
X304314373Y-22165000D02*
X304620000Y-22165000D01*
X302265627Y-24825000D02*
X301960000Y-24825000D01*
X302254462Y-22165000D02*
X301960000Y-22165000D01*
X301960000Y-24825000D02*
X301960000Y-22165000D01*
G04 #@! TO.C,P2*
X300840000Y-22165000D02*
X300840000Y-24825000D01*
X300545538Y-24825000D02*
X300840000Y-24825000D01*
X300534373Y-22165000D02*
X300840000Y-22165000D01*
X298485627Y-24825000D02*
X298180000Y-24825000D01*
X298474462Y-22165000D02*
X298180000Y-22165000D01*
X298180000Y-24825000D02*
X298180000Y-22165000D01*
G04 #@! TO.C,P1*
X300840000Y-18385000D02*
X300840000Y-21045000D01*
X300545538Y-21045000D02*
X300840000Y-21045000D01*
X300534373Y-18385000D02*
X300840000Y-18385000D01*
X298485627Y-21045000D02*
X298180000Y-21045000D01*
X298474462Y-18385000D02*
X298180000Y-18385000D01*
X298180000Y-21045000D02*
X298180000Y-18385000D01*
G04 #@! TO.C,P4*
X304620000Y-18385000D02*
X304620000Y-21045000D01*
X304325538Y-21045000D02*
X304620000Y-21045000D01*
X304314373Y-18385000D02*
X304620000Y-18385000D01*
X302265627Y-21045000D02*
X301960000Y-21045000D01*
X302254462Y-18385000D02*
X301960000Y-18385000D01*
X301960000Y-21045000D02*
X301960000Y-18385000D01*
G04 #@! TO.C,P18*
X312180000Y-25945000D02*
X312180000Y-28605000D01*
X311885538Y-28605000D02*
X312180000Y-28605000D01*
X311874373Y-25945000D02*
X312180000Y-25945000D01*
X309825627Y-28605000D02*
X309520000Y-28605000D01*
X309814462Y-25945000D02*
X309520000Y-25945000D01*
X309520000Y-28605000D02*
X309520000Y-25945000D01*
D12*
G04 #@! TO.C,M1*
X264779999Y-69325000D02*
X264779999Y-69025002D01*
X264779997Y-88175002D02*
X264780002Y-86625002D01*
X264779997Y-84625000D02*
X264779997Y-83524997D01*
X264779997Y-81925002D02*
X264779997Y-79225002D01*
X264779997Y-75725000D02*
X264779997Y-70925000D01*
X249480000Y-69025004D02*
X264779999Y-69025002D01*
X247980000Y-89625002D02*
X263380000Y-89625002D01*
X247980000Y-89625002D02*
X247980000Y-89325002D01*
X247980000Y-87725002D02*
X247980000Y-77325000D01*
X247980000Y-75625002D02*
X247980000Y-72424999D01*
D14*
G04 #@! TO.C,P17*
X312180000Y-22165000D02*
X312180000Y-24825000D01*
X311885538Y-24825000D02*
X312180000Y-24825000D01*
X311874373Y-22165000D02*
X312180000Y-22165000D01*
X309825627Y-24825000D02*
X309520000Y-24825000D01*
X309814462Y-22165000D02*
X309520000Y-22165000D01*
X309520000Y-24825000D02*
X309520000Y-22165000D01*
D12*
G04 #@! TO.C,M7*
X274767827Y3725003D02*
X274806674Y-7449997D01*
X269070005Y3725003D02*
X274767827Y3725003D01*
X269070005Y3725003D02*
X268794999Y3449999D01*
X267970000Y3449999D02*
X268794999Y3449999D01*
X267970000Y3449999D02*
X267920000Y3393797D01*
X267920000Y3393797D02*
X267920000Y-7449997D01*
X267913797Y-7449997D02*
X274806674Y-7449997D01*
D14*
G04 #@! TO.C,F3*
X281080000Y-7295000D02*
G75*
G02*
X279080000Y-7295000I-1000000J0D01*
G01*
X279080000Y-2395000D02*
G75*
G02*
X281080000Y-2395000I1000000J0D01*
G01*
X281080000Y-7245000D02*
X281080000Y-2395000D01*
X279080000Y-7245000D02*
X279080000Y-2395000D01*
D12*
G04 #@! TO.C,M2*
X319130003Y-77855000D02*
X319130003Y-86955000D01*
X316030000Y-77855000D02*
X317030002Y-77855000D01*
X316030000Y-77855000D02*
X316030000Y-86955000D01*
D14*
G04 #@! TO.C,P6*
X304620000Y-25945000D02*
X304620000Y-28605000D01*
X304325538Y-28605000D02*
X304620000Y-28605000D01*
X304314373Y-25945000D02*
X304620000Y-25945000D01*
X302265627Y-28605000D02*
X301960000Y-28605000D01*
X302254462Y-25945000D02*
X301960000Y-25945000D01*
X301960000Y-28605000D02*
X301960000Y-25945000D01*
G04 #@! TD*
M02*
