G04 #@! TF.GenerationSoftware,KiCad,Pcbnew,8.0.8*
G04 #@! TF.CreationDate,2025-12-05T18:20:35-05:00*
G04 #@! TF.ProjectId,hellen121vag,68656c6c-656e-4313-9231-7661672e6b69,d*
G04 #@! TF.SameCoordinates,PX2b953a0PY6943058*
G04 #@! TF.FileFunction,Paste,Top*
G04 #@! TF.FilePolarity,Positive*
%FSLAX46Y46*%
G04 Gerber Fmt 4.6, Leading zero omitted, Abs format (unit mm)*
G04 Created by KiCad (PCBNEW 8.0.8) date 2025-12-05 18:20:35*
%MOMM*%
%LPD*%
G01*
G04 APERTURE LIST*
%ADD10R,0.690000X1.350000*%
%ADD11R,1.300000X1.000000*%
%ADD12R,2.000000X0.650000*%
%ADD13R,1.950000X1.160000*%
%ADD14R,0.300000X1.150000*%
%ADD15O,0.000001X0.000001*%
G04 APERTURE END LIST*
D10*
G04 #@! TO.C,U3*
X279392000Y-42393000D03*
X278122000Y-42393000D03*
X276852000Y-42393000D03*
X276852000Y-52235500D03*
X278122000Y-52235500D03*
X279392000Y-52235500D03*
X280662000Y-52235500D03*
X280662000Y-42393000D03*
G04 #@! TD*
G04 #@! TO.C,C12*
G36*
G01*
X287169971Y-87405000D02*
X286489971Y-87405000D01*
G75*
G02*
X286404971Y-87320000I0J85000D01*
G01*
X286404971Y-86640000D01*
G75*
G02*
X286489971Y-86555000I85000J0D01*
G01*
X287169971Y-86555000D01*
G75*
G02*
X287254971Y-86640000I0J-85000D01*
G01*
X287254971Y-87320000D01*
G75*
G02*
X287169971Y-87405000I-85000J0D01*
G01*
G37*
G36*
G01*
X287169971Y-88985002D02*
X286489971Y-88985002D01*
G75*
G02*
X286404971Y-88900002I0J85000D01*
G01*
X286404971Y-88220002D01*
G75*
G02*
X286489971Y-88135002I85000J0D01*
G01*
X287169971Y-88135002D01*
G75*
G02*
X287254971Y-88220002I0J-85000D01*
G01*
X287254971Y-88900002D01*
G75*
G02*
X287169971Y-88985002I-85000J0D01*
G01*
G37*
G04 #@! TD*
G04 #@! TO.C,R11*
G36*
G01*
X284562451Y-23225000D02*
X285342451Y-23225000D01*
G75*
G02*
X285412451Y-23295000I0J-70000D01*
G01*
X285412451Y-23855000D01*
G75*
G02*
X285342451Y-23925000I-70000J0D01*
G01*
X284562451Y-23925000D01*
G75*
G02*
X284492451Y-23855000I0J70000D01*
G01*
X284492451Y-23295000D01*
G75*
G02*
X284562451Y-23225000I70000J0D01*
G01*
G37*
G36*
G01*
X284562451Y-21625000D02*
X285342451Y-21625000D01*
G75*
G02*
X285412451Y-21695000I0J-70000D01*
G01*
X285412451Y-22255000D01*
G75*
G02*
X285342451Y-22325000I-70000J0D01*
G01*
X284562451Y-22325000D01*
G75*
G02*
X284492451Y-22255000I0J70000D01*
G01*
X284492451Y-21695000D01*
G75*
G02*
X284562451Y-21625000I70000J0D01*
G01*
G37*
G04 #@! TD*
D11*
G04 #@! TO.C,U5*
X296715000Y-53600000D03*
X296715000Y-52100000D03*
X296715000Y-50600000D03*
X296715000Y-49100000D03*
X296715000Y-47600000D03*
X296715000Y-46100000D03*
X296715000Y-44600000D03*
X296715000Y-43100000D03*
X296715000Y-41600000D03*
X296715000Y-40100000D03*
X296715000Y-38600000D03*
X296715000Y-37100000D03*
X296715000Y-35600000D03*
X309415000Y-35600000D03*
X309415000Y-37100000D03*
X309415000Y-38600000D03*
X309415000Y-40100000D03*
X309415000Y-41600000D03*
X309415000Y-43100000D03*
X309415000Y-44600000D03*
X309415000Y-46100000D03*
X309415000Y-47600000D03*
X309415000Y-49100000D03*
X309415000Y-50600000D03*
X309415000Y-52100000D03*
X309415000Y-53600000D03*
G04 #@! TD*
D12*
G04 #@! TO.C,U1*
X319135000Y25550000D03*
X319135000Y24550000D03*
X319135000Y23550000D03*
X319135000Y22550000D03*
X319135000Y21550000D03*
X319135000Y20550000D03*
X309535000Y20550000D03*
X309535000Y21550000D03*
X309535000Y22550000D03*
X309535000Y23550000D03*
X309535000Y24550000D03*
X309535000Y25550000D03*
D13*
X315460000Y20130000D03*
X315460000Y21590000D03*
X315460000Y23050000D03*
X315460000Y24510000D03*
X315460000Y25970000D03*
X313210000Y20130000D03*
X313210000Y21590000D03*
X313210000Y23050000D03*
X313210000Y24510000D03*
X313210000Y25970000D03*
G04 #@! TD*
D12*
G04 #@! TO.C,U2*
X319135000Y15900000D03*
X319135000Y14900000D03*
X319135000Y13900000D03*
X319135000Y12900000D03*
X319135000Y11900000D03*
X319135000Y10900000D03*
X309535000Y10900000D03*
X309535000Y11900000D03*
X309535000Y12900000D03*
X309535000Y13900000D03*
X309535000Y14900000D03*
X309535000Y15900000D03*
D13*
X315460000Y10480000D03*
X315460000Y11940000D03*
X315460000Y13400000D03*
X315460000Y14860000D03*
X315460000Y16320000D03*
X313210000Y10480000D03*
X313210000Y11940000D03*
X313210000Y13400000D03*
X313210000Y14860000D03*
X313210000Y16320000D03*
G04 #@! TD*
G04 #@! TO.C,R35*
G36*
G01*
X317580022Y-63870001D02*
X317580022Y-62620001D01*
G75*
G02*
X317680022Y-62520001I100000J0D01*
G01*
X318480022Y-62520001D01*
G75*
G02*
X318580022Y-62620001I0J-100000D01*
G01*
X318580022Y-63870001D01*
G75*
G02*
X318480022Y-63970001I-100000J0D01*
G01*
X317680022Y-63970001D01*
G75*
G02*
X317580022Y-63870001I0J100000D01*
G01*
G37*
G36*
G01*
X315680000Y-63870001D02*
X315680000Y-62620001D01*
G75*
G02*
X315780000Y-62520001I100000J0D01*
G01*
X316580000Y-62520001D01*
G75*
G02*
X316680000Y-62620001I0J-100000D01*
G01*
X316680000Y-63870001D01*
G75*
G02*
X316580000Y-63970001I-100000J0D01*
G01*
X315780000Y-63970001D01*
G75*
G02*
X315680000Y-63870001I0J100000D01*
G01*
G37*
G04 #@! TD*
G04 #@! TO.C,R36*
G36*
G01*
X317580022Y-66372929D02*
X317580022Y-65122929D01*
G75*
G02*
X317680022Y-65022929I100000J0D01*
G01*
X318480022Y-65022929D01*
G75*
G02*
X318580022Y-65122929I0J-100000D01*
G01*
X318580022Y-66372929D01*
G75*
G02*
X318480022Y-66472929I-100000J0D01*
G01*
X317680022Y-66472929D01*
G75*
G02*
X317580022Y-66372929I0J100000D01*
G01*
G37*
G36*
G01*
X315680000Y-66372929D02*
X315680000Y-65122929D01*
G75*
G02*
X315780000Y-65022929I100000J0D01*
G01*
X316580000Y-65022929D01*
G75*
G02*
X316680000Y-65122929I0J-100000D01*
G01*
X316680000Y-66372929D01*
G75*
G02*
X316580000Y-66472929I-100000J0D01*
G01*
X315780000Y-66472929D01*
G75*
G02*
X315680000Y-66372929I0J100000D01*
G01*
G37*
G04 #@! TD*
G04 #@! TO.C,Q9*
G36*
G01*
X246355000Y-26870000D02*
X246355000Y-27570000D01*
G75*
G02*
X246105000Y-27820000I-250000J0D01*
G01*
X244405000Y-27820000D01*
G75*
G02*
X244155000Y-27570000I0J250000D01*
G01*
X244155000Y-26870000D01*
G75*
G02*
X244405000Y-26620000I250000J0D01*
G01*
X246105000Y-26620000D01*
G75*
G02*
X246355000Y-26870000I0J-250000D01*
G01*
G37*
G36*
G01*
X238805000Y-26850000D02*
X238805000Y-29100000D01*
G75*
G02*
X238555000Y-29350000I-250000J0D01*
G01*
X236005000Y-29350000D01*
G75*
G02*
X235755000Y-29100000I0J250000D01*
G01*
X235755000Y-26850000D01*
G75*
G02*
X236005000Y-26600000I250000J0D01*
G01*
X238555000Y-26600000D01*
G75*
G02*
X238805000Y-26850000I0J-250000D01*
G01*
G37*
G36*
G01*
X238805000Y-29900000D02*
X238805000Y-32150000D01*
G75*
G02*
X238555000Y-32400000I-250000J0D01*
G01*
X236005000Y-32400000D01*
G75*
G02*
X235755000Y-32150000I0J250000D01*
G01*
X235755000Y-29900000D01*
G75*
G02*
X236005000Y-29650000I250000J0D01*
G01*
X238555000Y-29650000D01*
G75*
G02*
X238805000Y-29900000I0J-250000D01*
G01*
G37*
G36*
G01*
X242155000Y-26850000D02*
X242155000Y-29100000D01*
G75*
G02*
X241905000Y-29350000I-250000J0D01*
G01*
X239355000Y-29350000D01*
G75*
G02*
X239105000Y-29100000I0J250000D01*
G01*
X239105000Y-26850000D01*
G75*
G02*
X239355000Y-26600000I250000J0D01*
G01*
X241905000Y-26600000D01*
G75*
G02*
X242155000Y-26850000I0J-250000D01*
G01*
G37*
G36*
G01*
X242155000Y-29900000D02*
X242155000Y-32150000D01*
G75*
G02*
X241905000Y-32400000I-250000J0D01*
G01*
X239355000Y-32400000D01*
G75*
G02*
X239105000Y-32150000I0J250000D01*
G01*
X239105000Y-29900000D01*
G75*
G02*
X239355000Y-29650000I250000J0D01*
G01*
X241905000Y-29650000D01*
G75*
G02*
X242155000Y-29900000I0J-250000D01*
G01*
G37*
G36*
G01*
X246355000Y-31430000D02*
X246355000Y-32130000D01*
G75*
G02*
X246105000Y-32380000I-250000J0D01*
G01*
X244405000Y-32380000D01*
G75*
G02*
X244155000Y-32130000I0J250000D01*
G01*
X244155000Y-31430000D01*
G75*
G02*
X244405000Y-31180000I250000J0D01*
G01*
X246105000Y-31180000D01*
G75*
G02*
X246355000Y-31430000I0J-250000D01*
G01*
G37*
G04 #@! TD*
G04 #@! TO.C,F1*
G36*
G01*
X276060000Y-6640010D02*
X276060000Y-5950010D01*
G75*
G02*
X276290000Y-5720010I230000J0D01*
G01*
X277630000Y-5720010D01*
G75*
G02*
X277860000Y-5950010I0J-230000D01*
G01*
X277860000Y-6640010D01*
G75*
G02*
X277630000Y-6870010I-230000J0D01*
G01*
X276290000Y-6870010D01*
G75*
G02*
X276060000Y-6640010I0J230000D01*
G01*
G37*
G36*
G01*
X276060000Y-3739990D02*
X276060000Y-3049990D01*
G75*
G02*
X276290000Y-2819990I230000J0D01*
G01*
X277630000Y-2819990D01*
G75*
G02*
X277860000Y-3049990I0J-230000D01*
G01*
X277860000Y-3739990D01*
G75*
G02*
X277630000Y-3969990I-230000J0D01*
G01*
X276290000Y-3969990D01*
G75*
G02*
X276060000Y-3739990I0J230000D01*
G01*
G37*
G04 #@! TD*
G04 #@! TO.C,R38*
G36*
G01*
X317580022Y-71378785D02*
X317580022Y-70128785D01*
G75*
G02*
X317680022Y-70028785I100000J0D01*
G01*
X318480022Y-70028785D01*
G75*
G02*
X318580022Y-70128785I0J-100000D01*
G01*
X318580022Y-71378785D01*
G75*
G02*
X318480022Y-71478785I-100000J0D01*
G01*
X317680022Y-71478785D01*
G75*
G02*
X317580022Y-71378785I0J100000D01*
G01*
G37*
G36*
G01*
X315680000Y-71378785D02*
X315680000Y-70128785D01*
G75*
G02*
X315780000Y-70028785I100000J0D01*
G01*
X316580000Y-70028785D01*
G75*
G02*
X316680000Y-70128785I0J-100000D01*
G01*
X316680000Y-71378785D01*
G75*
G02*
X316580000Y-71478785I-100000J0D01*
G01*
X315780000Y-71478785D01*
G75*
G02*
X315680000Y-71378785I0J100000D01*
G01*
G37*
G04 #@! TD*
G04 #@! TO.C,R4*
G36*
G01*
X318360391Y-53405412D02*
X319610391Y-53405412D01*
G75*
G02*
X319710391Y-53505412I0J-100000D01*
G01*
X319710391Y-54305412D01*
G75*
G02*
X319610391Y-54405412I-100000J0D01*
G01*
X318360391Y-54405412D01*
G75*
G02*
X318260391Y-54305412I0J100000D01*
G01*
X318260391Y-53505412D01*
G75*
G02*
X318360391Y-53405412I100000J0D01*
G01*
G37*
G36*
G01*
X318360391Y-51505390D02*
X319610391Y-51505390D01*
G75*
G02*
X319710391Y-51605390I0J-100000D01*
G01*
X319710391Y-52405390D01*
G75*
G02*
X319610391Y-52505390I-100000J0D01*
G01*
X318360391Y-52505390D01*
G75*
G02*
X318260391Y-52405390I0J100000D01*
G01*
X318260391Y-51605390D01*
G75*
G02*
X318360391Y-51505390I100000J0D01*
G01*
G37*
G04 #@! TD*
G04 #@! TO.C,D3*
G36*
G01*
X280590000Y3175000D02*
X279570000Y3175000D01*
G75*
G02*
X279480000Y3265000I0J90000D01*
G01*
X279480000Y3985000D01*
G75*
G02*
X279570000Y4075000I90000J0D01*
G01*
X280590000Y4075000D01*
G75*
G02*
X280680000Y3985000I0J-90000D01*
G01*
X280680000Y3265000D01*
G75*
G02*
X280590000Y3175000I-90000J0D01*
G01*
G37*
G36*
G01*
X280590000Y-125000D02*
X279570000Y-125000D01*
G75*
G02*
X279480000Y-35000I0J90000D01*
G01*
X279480000Y685000D01*
G75*
G02*
X279570000Y775000I90000J0D01*
G01*
X280590000Y775000D01*
G75*
G02*
X280680000Y685000I0J-90000D01*
G01*
X280680000Y-35000D01*
G75*
G02*
X280590000Y-125000I-90000J0D01*
G01*
G37*
G04 #@! TD*
G04 #@! TO.C,Q11*
G36*
G01*
X246355000Y-42970000D02*
X246355000Y-43670000D01*
G75*
G02*
X246105000Y-43920000I-250000J0D01*
G01*
X244405000Y-43920000D01*
G75*
G02*
X244155000Y-43670000I0J250000D01*
G01*
X244155000Y-42970000D01*
G75*
G02*
X244405000Y-42720000I250000J0D01*
G01*
X246105000Y-42720000D01*
G75*
G02*
X246355000Y-42970000I0J-250000D01*
G01*
G37*
G36*
G01*
X238805000Y-42950000D02*
X238805000Y-45200000D01*
G75*
G02*
X238555000Y-45450000I-250000J0D01*
G01*
X236005000Y-45450000D01*
G75*
G02*
X235755000Y-45200000I0J250000D01*
G01*
X235755000Y-42950000D01*
G75*
G02*
X236005000Y-42700000I250000J0D01*
G01*
X238555000Y-42700000D01*
G75*
G02*
X238805000Y-42950000I0J-250000D01*
G01*
G37*
G36*
G01*
X238805000Y-46000000D02*
X238805000Y-48250000D01*
G75*
G02*
X238555000Y-48500000I-250000J0D01*
G01*
X236005000Y-48500000D01*
G75*
G02*
X235755000Y-48250000I0J250000D01*
G01*
X235755000Y-46000000D01*
G75*
G02*
X236005000Y-45750000I250000J0D01*
G01*
X238555000Y-45750000D01*
G75*
G02*
X238805000Y-46000000I0J-250000D01*
G01*
G37*
G36*
G01*
X242155000Y-42950000D02*
X242155000Y-45200000D01*
G75*
G02*
X241905000Y-45450000I-250000J0D01*
G01*
X239355000Y-45450000D01*
G75*
G02*
X239105000Y-45200000I0J250000D01*
G01*
X239105000Y-42950000D01*
G75*
G02*
X239355000Y-42700000I250000J0D01*
G01*
X241905000Y-42700000D01*
G75*
G02*
X242155000Y-42950000I0J-250000D01*
G01*
G37*
G36*
G01*
X242155000Y-46000000D02*
X242155000Y-48250000D01*
G75*
G02*
X241905000Y-48500000I-250000J0D01*
G01*
X239355000Y-48500000D01*
G75*
G02*
X239105000Y-48250000I0J250000D01*
G01*
X239105000Y-46000000D01*
G75*
G02*
X239355000Y-45750000I250000J0D01*
G01*
X241905000Y-45750000D01*
G75*
G02*
X242155000Y-46000000I0J-250000D01*
G01*
G37*
G36*
G01*
X246355000Y-47530000D02*
X246355000Y-48230000D01*
G75*
G02*
X246105000Y-48480000I-250000J0D01*
G01*
X244405000Y-48480000D01*
G75*
G02*
X244155000Y-48230000I0J250000D01*
G01*
X244155000Y-47530000D01*
G75*
G02*
X244405000Y-47280000I250000J0D01*
G01*
X246105000Y-47280000D01*
G75*
G02*
X246355000Y-47530000I0J-250000D01*
G01*
G37*
G04 #@! TD*
D14*
G04 #@! TO.C,J9*
X249725000Y2970000D03*
X250525000Y2970000D03*
X251025000Y2970000D03*
X252025000Y2970000D03*
X253525000Y2970000D03*
X254525000Y2970000D03*
X255025000Y2970000D03*
X255825000Y2970000D03*
X256125000Y2970000D03*
X255325000Y2970000D03*
X254025000Y2970000D03*
X253025000Y2970000D03*
X252525000Y2970000D03*
X251525000Y2970000D03*
X250225000Y2970000D03*
X249425000Y2970000D03*
G04 #@! TD*
G04 #@! TO.C,F2*
G36*
G01*
X318545010Y-27895000D02*
X317855010Y-27895000D01*
G75*
G02*
X317625010Y-27665000I0J230000D01*
G01*
X317625010Y-26325000D01*
G75*
G02*
X317855010Y-26095000I230000J0D01*
G01*
X318545010Y-26095000D01*
G75*
G02*
X318775010Y-26325000I0J-230000D01*
G01*
X318775010Y-27665000D01*
G75*
G02*
X318545010Y-27895000I-230000J0D01*
G01*
G37*
G36*
G01*
X315644990Y-27895000D02*
X314954990Y-27895000D01*
G75*
G02*
X314724990Y-27665000I0J230000D01*
G01*
X314724990Y-26325000D01*
G75*
G02*
X314954990Y-26095000I230000J0D01*
G01*
X315644990Y-26095000D01*
G75*
G02*
X315874990Y-26325000I0J-230000D01*
G01*
X315874990Y-27665000D01*
G75*
G02*
X315644990Y-27895000I-230000J0D01*
G01*
G37*
G04 #@! TD*
G04 #@! TO.C,D5*
G36*
G01*
X286830000Y3175000D02*
X285810000Y3175000D01*
G75*
G02*
X285720000Y3265000I0J90000D01*
G01*
X285720000Y3985000D01*
G75*
G02*
X285810000Y4075000I90000J0D01*
G01*
X286830000Y4075000D01*
G75*
G02*
X286920000Y3985000I0J-90000D01*
G01*
X286920000Y3265000D01*
G75*
G02*
X286830000Y3175000I-90000J0D01*
G01*
G37*
G36*
G01*
X286830000Y-125000D02*
X285810000Y-125000D01*
G75*
G02*
X285720000Y-35000I0J90000D01*
G01*
X285720000Y685000D01*
G75*
G02*
X285810000Y775000I90000J0D01*
G01*
X286830000Y775000D01*
G75*
G02*
X286920000Y685000I0J-90000D01*
G01*
X286920000Y-35000D01*
G75*
G02*
X286830000Y-125000I-90000J0D01*
G01*
G37*
G04 #@! TD*
G04 #@! TO.C,R14*
G36*
G01*
X290409589Y-23225000D02*
X291189589Y-23225000D01*
G75*
G02*
X291259589Y-23295000I0J-70000D01*
G01*
X291259589Y-23855000D01*
G75*
G02*
X291189589Y-23925000I-70000J0D01*
G01*
X290409589Y-23925000D01*
G75*
G02*
X290339589Y-23855000I0J70000D01*
G01*
X290339589Y-23295000D01*
G75*
G02*
X290409589Y-23225000I70000J0D01*
G01*
G37*
G36*
G01*
X290409589Y-21625000D02*
X291189589Y-21625000D01*
G75*
G02*
X291259589Y-21695000I0J-70000D01*
G01*
X291259589Y-22255000D01*
G75*
G02*
X291189589Y-22325000I-70000J0D01*
G01*
X290409589Y-22325000D01*
G75*
G02*
X290339589Y-22255000I0J70000D01*
G01*
X290339589Y-21695000D01*
G75*
G02*
X290409589Y-21625000I70000J0D01*
G01*
G37*
G04 #@! TD*
G04 #@! TO.C,Q8*
G36*
G01*
X246355000Y-18820000D02*
X246355000Y-19520000D01*
G75*
G02*
X246105000Y-19770000I-250000J0D01*
G01*
X244405000Y-19770000D01*
G75*
G02*
X244155000Y-19520000I0J250000D01*
G01*
X244155000Y-18820000D01*
G75*
G02*
X244405000Y-18570000I250000J0D01*
G01*
X246105000Y-18570000D01*
G75*
G02*
X246355000Y-18820000I0J-250000D01*
G01*
G37*
G36*
G01*
X238805000Y-18800000D02*
X238805000Y-21050000D01*
G75*
G02*
X238555000Y-21300000I-250000J0D01*
G01*
X236005000Y-21300000D01*
G75*
G02*
X235755000Y-21050000I0J250000D01*
G01*
X235755000Y-18800000D01*
G75*
G02*
X236005000Y-18550000I250000J0D01*
G01*
X238555000Y-18550000D01*
G75*
G02*
X238805000Y-18800000I0J-250000D01*
G01*
G37*
G36*
G01*
X238805000Y-21850000D02*
X238805000Y-24100000D01*
G75*
G02*
X238555000Y-24350000I-250000J0D01*
G01*
X236005000Y-24350000D01*
G75*
G02*
X235755000Y-24100000I0J250000D01*
G01*
X235755000Y-21850000D01*
G75*
G02*
X236005000Y-21600000I250000J0D01*
G01*
X238555000Y-21600000D01*
G75*
G02*
X238805000Y-21850000I0J-250000D01*
G01*
G37*
G36*
G01*
X242155000Y-18800000D02*
X242155000Y-21050000D01*
G75*
G02*
X241905000Y-21300000I-250000J0D01*
G01*
X239355000Y-21300000D01*
G75*
G02*
X239105000Y-21050000I0J250000D01*
G01*
X239105000Y-18800000D01*
G75*
G02*
X239355000Y-18550000I250000J0D01*
G01*
X241905000Y-18550000D01*
G75*
G02*
X242155000Y-18800000I0J-250000D01*
G01*
G37*
G36*
G01*
X242155000Y-21850000D02*
X242155000Y-24100000D01*
G75*
G02*
X241905000Y-24350000I-250000J0D01*
G01*
X239355000Y-24350000D01*
G75*
G02*
X239105000Y-24100000I0J250000D01*
G01*
X239105000Y-21850000D01*
G75*
G02*
X239355000Y-21600000I250000J0D01*
G01*
X241905000Y-21600000D01*
G75*
G02*
X242155000Y-21850000I0J-250000D01*
G01*
G37*
G36*
G01*
X246355000Y-23380000D02*
X246355000Y-24080000D01*
G75*
G02*
X246105000Y-24330000I-250000J0D01*
G01*
X244405000Y-24330000D01*
G75*
G02*
X244155000Y-24080000I0J250000D01*
G01*
X244155000Y-23380000D01*
G75*
G02*
X244405000Y-23130000I250000J0D01*
G01*
X246105000Y-23130000D01*
G75*
G02*
X246355000Y-23380000I0J-250000D01*
G01*
G37*
G04 #@! TD*
G04 #@! TO.C,F4*
G36*
G01*
X282300000Y-6640010D02*
X282300000Y-5950010D01*
G75*
G02*
X282530000Y-5720010I230000J0D01*
G01*
X283870000Y-5720010D01*
G75*
G02*
X284100000Y-5950010I0J-230000D01*
G01*
X284100000Y-6640010D01*
G75*
G02*
X283870000Y-6870010I-230000J0D01*
G01*
X282530000Y-6870010D01*
G75*
G02*
X282300000Y-6640010I0J230000D01*
G01*
G37*
G36*
G01*
X282300000Y-3739990D02*
X282300000Y-3049990D01*
G75*
G02*
X282530000Y-2819990I230000J0D01*
G01*
X283870000Y-2819990D01*
G75*
G02*
X284100000Y-3049990I0J-230000D01*
G01*
X284100000Y-3739990D01*
G75*
G02*
X283870000Y-3969990I-230000J0D01*
G01*
X282530000Y-3969990D01*
G75*
G02*
X282300000Y-3739990I0J230000D01*
G01*
G37*
G04 #@! TD*
G04 #@! TO.C,C26*
G36*
G01*
X294339924Y-88135002D02*
X295019924Y-88135002D01*
G75*
G02*
X295104924Y-88220002I0J-85000D01*
G01*
X295104924Y-88900002D01*
G75*
G02*
X295019924Y-88985002I-85000J0D01*
G01*
X294339924Y-88985002D01*
G75*
G02*
X294254924Y-88900002I0J85000D01*
G01*
X294254924Y-88220002D01*
G75*
G02*
X294339924Y-88135002I85000J0D01*
G01*
G37*
G36*
G01*
X294339924Y-86555000D02*
X295019924Y-86555000D01*
G75*
G02*
X295104924Y-86640000I0J-85000D01*
G01*
X295104924Y-87320000D01*
G75*
G02*
X295019924Y-87405000I-85000J0D01*
G01*
X294339924Y-87405000D01*
G75*
G02*
X294254924Y-87320000I0J85000D01*
G01*
X294254924Y-86640000D01*
G75*
G02*
X294339924Y-86555000I85000J0D01*
G01*
G37*
G04 #@! TD*
G04 #@! TO.C,Q7*
G36*
G01*
X246355000Y-10770000D02*
X246355000Y-11470000D01*
G75*
G02*
X246105000Y-11720000I-250000J0D01*
G01*
X244405000Y-11720000D01*
G75*
G02*
X244155000Y-11470000I0J250000D01*
G01*
X244155000Y-10770000D01*
G75*
G02*
X244405000Y-10520000I250000J0D01*
G01*
X246105000Y-10520000D01*
G75*
G02*
X246355000Y-10770000I0J-250000D01*
G01*
G37*
G36*
G01*
X238805000Y-10750000D02*
X238805000Y-13000000D01*
G75*
G02*
X238555000Y-13250000I-250000J0D01*
G01*
X236005000Y-13250000D01*
G75*
G02*
X235755000Y-13000000I0J250000D01*
G01*
X235755000Y-10750000D01*
G75*
G02*
X236005000Y-10500000I250000J0D01*
G01*
X238555000Y-10500000D01*
G75*
G02*
X238805000Y-10750000I0J-250000D01*
G01*
G37*
G36*
G01*
X238805000Y-13800000D02*
X238805000Y-16050000D01*
G75*
G02*
X238555000Y-16300000I-250000J0D01*
G01*
X236005000Y-16300000D01*
G75*
G02*
X235755000Y-16050000I0J250000D01*
G01*
X235755000Y-13800000D01*
G75*
G02*
X236005000Y-13550000I250000J0D01*
G01*
X238555000Y-13550000D01*
G75*
G02*
X238805000Y-13800000I0J-250000D01*
G01*
G37*
G36*
G01*
X242155000Y-10750000D02*
X242155000Y-13000000D01*
G75*
G02*
X241905000Y-13250000I-250000J0D01*
G01*
X239355000Y-13250000D01*
G75*
G02*
X239105000Y-13000000I0J250000D01*
G01*
X239105000Y-10750000D01*
G75*
G02*
X239355000Y-10500000I250000J0D01*
G01*
X241905000Y-10500000D01*
G75*
G02*
X242155000Y-10750000I0J-250000D01*
G01*
G37*
G36*
G01*
X242155000Y-13800000D02*
X242155000Y-16050000D01*
G75*
G02*
X241905000Y-16300000I-250000J0D01*
G01*
X239355000Y-16300000D01*
G75*
G02*
X239105000Y-16050000I0J250000D01*
G01*
X239105000Y-13800000D01*
G75*
G02*
X239355000Y-13550000I250000J0D01*
G01*
X241905000Y-13550000D01*
G75*
G02*
X242155000Y-13800000I0J-250000D01*
G01*
G37*
G36*
G01*
X246355000Y-15330000D02*
X246355000Y-16030000D01*
G75*
G02*
X246105000Y-16280000I-250000J0D01*
G01*
X244405000Y-16280000D01*
G75*
G02*
X244155000Y-16030000I0J250000D01*
G01*
X244155000Y-15330000D01*
G75*
G02*
X244405000Y-15080000I250000J0D01*
G01*
X246105000Y-15080000D01*
G75*
G02*
X246355000Y-15330000I0J-250000D01*
G01*
G37*
G04 #@! TD*
G04 #@! TO.C,C13*
G36*
G01*
X288489969Y-88135002D02*
X289169969Y-88135002D01*
G75*
G02*
X289254969Y-88220002I0J-85000D01*
G01*
X289254969Y-88900002D01*
G75*
G02*
X289169969Y-88985002I-85000J0D01*
G01*
X288489969Y-88985002D01*
G75*
G02*
X288404969Y-88900002I0J85000D01*
G01*
X288404969Y-88220002D01*
G75*
G02*
X288489969Y-88135002I85000J0D01*
G01*
G37*
G36*
G01*
X288489969Y-86555000D02*
X289169969Y-86555000D01*
G75*
G02*
X289254969Y-86640000I0J-85000D01*
G01*
X289254969Y-87320000D01*
G75*
G02*
X289169969Y-87405000I-85000J0D01*
G01*
X288489969Y-87405000D01*
G75*
G02*
X288404969Y-87320000I0J85000D01*
G01*
X288404969Y-86640000D01*
G75*
G02*
X288489969Y-86555000I85000J0D01*
G01*
G37*
G04 #@! TD*
G04 #@! TO.C,R1*
G36*
G01*
X289390000Y-1417451D02*
X289390000Y-2197451D01*
G75*
G02*
X289320000Y-2267451I-70000J0D01*
G01*
X288760000Y-2267451D01*
G75*
G02*
X288690000Y-2197451I0J70000D01*
G01*
X288690000Y-1417451D01*
G75*
G02*
X288760000Y-1347451I70000J0D01*
G01*
X289320000Y-1347451D01*
G75*
G02*
X289390000Y-1417451I0J-70000D01*
G01*
G37*
G36*
G01*
X290990000Y-1417451D02*
X290990000Y-2197451D01*
G75*
G02*
X290920000Y-2267451I-70000J0D01*
G01*
X290360000Y-2267451D01*
G75*
G02*
X290290000Y-2197451I0J70000D01*
G01*
X290290000Y-1417451D01*
G75*
G02*
X290360000Y-1347451I70000J0D01*
G01*
X290920000Y-1347451D01*
G75*
G02*
X290990000Y-1417451I0J-70000D01*
G01*
G37*
G04 #@! TD*
G04 #@! TO.C,R37*
G36*
G01*
X317580022Y-68875857D02*
X317580022Y-67625857D01*
G75*
G02*
X317680022Y-67525857I100000J0D01*
G01*
X318480022Y-67525857D01*
G75*
G02*
X318580022Y-67625857I0J-100000D01*
G01*
X318580022Y-68875857D01*
G75*
G02*
X318480022Y-68975857I-100000J0D01*
G01*
X317680022Y-68975857D01*
G75*
G02*
X317580022Y-68875857I0J100000D01*
G01*
G37*
G36*
G01*
X315680000Y-68875857D02*
X315680000Y-67625857D01*
G75*
G02*
X315780000Y-67525857I100000J0D01*
G01*
X316580000Y-67525857D01*
G75*
G02*
X316680000Y-67625857I0J-100000D01*
G01*
X316680000Y-68875857D01*
G75*
G02*
X316580000Y-68975857I-100000J0D01*
G01*
X315780000Y-68975857D01*
G75*
G02*
X315680000Y-68875857I0J100000D01*
G01*
G37*
G04 #@! TD*
G04 #@! TO.C,C11*
G36*
G01*
X284589999Y-88135002D02*
X285269999Y-88135002D01*
G75*
G02*
X285354999Y-88220002I0J-85000D01*
G01*
X285354999Y-88900002D01*
G75*
G02*
X285269999Y-88985002I-85000J0D01*
G01*
X284589999Y-88985002D01*
G75*
G02*
X284504999Y-88900002I0J85000D01*
G01*
X284504999Y-88220002D01*
G75*
G02*
X284589999Y-88135002I85000J0D01*
G01*
G37*
G36*
G01*
X284589999Y-86555000D02*
X285269999Y-86555000D01*
G75*
G02*
X285354999Y-86640000I0J-85000D01*
G01*
X285354999Y-87320000D01*
G75*
G02*
X285269999Y-87405000I-85000J0D01*
G01*
X284589999Y-87405000D01*
G75*
G02*
X284504999Y-87320000I0J85000D01*
G01*
X284504999Y-86640000D01*
G75*
G02*
X284589999Y-86555000I85000J0D01*
G01*
G37*
G04 #@! TD*
G04 #@! TO.C,R10*
G36*
G01*
X289390000Y-3366497D02*
X289390000Y-4146497D01*
G75*
G02*
X289320000Y-4216497I-70000J0D01*
G01*
X288760000Y-4216497D01*
G75*
G02*
X288690000Y-4146497I0J70000D01*
G01*
X288690000Y-3366497D01*
G75*
G02*
X288760000Y-3296497I70000J0D01*
G01*
X289320000Y-3296497D01*
G75*
G02*
X289390000Y-3366497I0J-70000D01*
G01*
G37*
G36*
G01*
X290990000Y-3366497D02*
X290990000Y-4146497D01*
G75*
G02*
X290920000Y-4216497I-70000J0D01*
G01*
X290360000Y-4216497D01*
G75*
G02*
X290290000Y-4146497I0J70000D01*
G01*
X290290000Y-3366497D01*
G75*
G02*
X290360000Y-3296497I70000J0D01*
G01*
X290920000Y-3296497D01*
G75*
G02*
X290990000Y-3366497I0J-70000D01*
G01*
G37*
G04 #@! TD*
G04 #@! TO.C,C25*
G36*
G01*
X293019926Y-87405000D02*
X292339926Y-87405000D01*
G75*
G02*
X292254926Y-87320000I0J85000D01*
G01*
X292254926Y-86640000D01*
G75*
G02*
X292339926Y-86555000I85000J0D01*
G01*
X293019926Y-86555000D01*
G75*
G02*
X293104926Y-86640000I0J-85000D01*
G01*
X293104926Y-87320000D01*
G75*
G02*
X293019926Y-87405000I-85000J0D01*
G01*
G37*
G36*
G01*
X293019926Y-88985002D02*
X292339926Y-88985002D01*
G75*
G02*
X292254926Y-88900002I0J85000D01*
G01*
X292254926Y-88220002D01*
G75*
G02*
X292339926Y-88135002I85000J0D01*
G01*
X293019926Y-88135002D01*
G75*
G02*
X293104926Y-88220002I0J-85000D01*
G01*
X293104926Y-88900002D01*
G75*
G02*
X293019926Y-88985002I-85000J0D01*
G01*
G37*
G04 #@! TD*
G04 #@! TO.C,Q12*
G36*
G01*
X246355000Y-51020000D02*
X246355000Y-51720000D01*
G75*
G02*
X246105000Y-51970000I-250000J0D01*
G01*
X244405000Y-51970000D01*
G75*
G02*
X244155000Y-51720000I0J250000D01*
G01*
X244155000Y-51020000D01*
G75*
G02*
X244405000Y-50770000I250000J0D01*
G01*
X246105000Y-50770000D01*
G75*
G02*
X246355000Y-51020000I0J-250000D01*
G01*
G37*
G36*
G01*
X238805000Y-51000000D02*
X238805000Y-53250000D01*
G75*
G02*
X238555000Y-53500000I-250000J0D01*
G01*
X236005000Y-53500000D01*
G75*
G02*
X235755000Y-53250000I0J250000D01*
G01*
X235755000Y-51000000D01*
G75*
G02*
X236005000Y-50750000I250000J0D01*
G01*
X238555000Y-50750000D01*
G75*
G02*
X238805000Y-51000000I0J-250000D01*
G01*
G37*
G36*
G01*
X238805000Y-54050000D02*
X238805000Y-56300000D01*
G75*
G02*
X238555000Y-56550000I-250000J0D01*
G01*
X236005000Y-56550000D01*
G75*
G02*
X235755000Y-56300000I0J250000D01*
G01*
X235755000Y-54050000D01*
G75*
G02*
X236005000Y-53800000I250000J0D01*
G01*
X238555000Y-53800000D01*
G75*
G02*
X238805000Y-54050000I0J-250000D01*
G01*
G37*
G36*
G01*
X242155000Y-51000000D02*
X242155000Y-53250000D01*
G75*
G02*
X241905000Y-53500000I-250000J0D01*
G01*
X239355000Y-53500000D01*
G75*
G02*
X239105000Y-53250000I0J250000D01*
G01*
X239105000Y-51000000D01*
G75*
G02*
X239355000Y-50750000I250000J0D01*
G01*
X241905000Y-50750000D01*
G75*
G02*
X242155000Y-51000000I0J-250000D01*
G01*
G37*
G36*
G01*
X242155000Y-54050000D02*
X242155000Y-56300000D01*
G75*
G02*
X241905000Y-56550000I-250000J0D01*
G01*
X239355000Y-56550000D01*
G75*
G02*
X239105000Y-56300000I0J250000D01*
G01*
X239105000Y-54050000D01*
G75*
G02*
X239355000Y-53800000I250000J0D01*
G01*
X241905000Y-53800000D01*
G75*
G02*
X242155000Y-54050000I0J-250000D01*
G01*
G37*
G36*
G01*
X246355000Y-55580000D02*
X246355000Y-56280000D01*
G75*
G02*
X246105000Y-56530000I-250000J0D01*
G01*
X244405000Y-56530000D01*
G75*
G02*
X244155000Y-56280000I0J250000D01*
G01*
X244155000Y-55580000D01*
G75*
G02*
X244405000Y-55330000I250000J0D01*
G01*
X246105000Y-55330000D01*
G75*
G02*
X246355000Y-55580000I0J-250000D01*
G01*
G37*
G04 #@! TD*
D15*
G04 #@! TO.C,M7*
X268095003Y-2549999D03*
G04 #@! TD*
G04 #@! TO.C,R9*
G36*
G01*
X296256727Y-19925000D02*
X297036727Y-19925000D01*
G75*
G02*
X297106727Y-19995000I0J-70000D01*
G01*
X297106727Y-20555000D01*
G75*
G02*
X297036727Y-20625000I-70000J0D01*
G01*
X296256727Y-20625000D01*
G75*
G02*
X296186727Y-20555000I0J70000D01*
G01*
X296186727Y-19995000D01*
G75*
G02*
X296256727Y-19925000I70000J0D01*
G01*
G37*
G36*
G01*
X296256727Y-18325000D02*
X297036727Y-18325000D01*
G75*
G02*
X297106727Y-18395000I0J-70000D01*
G01*
X297106727Y-18955000D01*
G75*
G02*
X297036727Y-19025000I-70000J0D01*
G01*
X296256727Y-19025000D01*
G75*
G02*
X296186727Y-18955000I0J70000D01*
G01*
X296186727Y-18395000D01*
G75*
G02*
X296256727Y-18325000I70000J0D01*
G01*
G37*
G04 #@! TD*
G04 #@! TO.C,F3*
G36*
G01*
X279180000Y-6640010D02*
X279180000Y-5950010D01*
G75*
G02*
X279410000Y-5720010I230000J0D01*
G01*
X280750000Y-5720010D01*
G75*
G02*
X280980000Y-5950010I0J-230000D01*
G01*
X280980000Y-6640010D01*
G75*
G02*
X280750000Y-6870010I-230000J0D01*
G01*
X279410000Y-6870010D01*
G75*
G02*
X279180000Y-6640010I0J230000D01*
G01*
G37*
G36*
G01*
X279180000Y-3739990D02*
X279180000Y-3049990D01*
G75*
G02*
X279410000Y-2819990I230000J0D01*
G01*
X280750000Y-2819990D01*
G75*
G02*
X280980000Y-3049990I0J-230000D01*
G01*
X280980000Y-3739990D01*
G75*
G02*
X280750000Y-3969990I-230000J0D01*
G01*
X279410000Y-3969990D01*
G75*
G02*
X279180000Y-3739990I0J230000D01*
G01*
G37*
G04 #@! TD*
G04 #@! TO.C,R40*
G36*
G01*
X317580022Y-76384641D02*
X317580022Y-75134641D01*
G75*
G02*
X317680022Y-75034641I100000J0D01*
G01*
X318480022Y-75034641D01*
G75*
G02*
X318580022Y-75134641I0J-100000D01*
G01*
X318580022Y-76384641D01*
G75*
G02*
X318480022Y-76484641I-100000J0D01*
G01*
X317680022Y-76484641D01*
G75*
G02*
X317580022Y-76384641I0J100000D01*
G01*
G37*
G36*
G01*
X315680000Y-76384641D02*
X315680000Y-75134641D01*
G75*
G02*
X315780000Y-75034641I100000J0D01*
G01*
X316580000Y-75034641D01*
G75*
G02*
X316680000Y-75134641I0J-100000D01*
G01*
X316680000Y-76384641D01*
G75*
G02*
X316580000Y-76484641I-100000J0D01*
G01*
X315780000Y-76484641D01*
G75*
G02*
X315680000Y-76384641I0J100000D01*
G01*
G37*
G04 #@! TD*
G04 #@! TO.C,U7*
G36*
G01*
X261345000Y-405000D02*
X261345000Y-705000D01*
G75*
G02*
X261195000Y-855000I-150000J0D01*
G01*
X259545000Y-855000D01*
G75*
G02*
X259395000Y-705000I0J150000D01*
G01*
X259395000Y-405000D01*
G75*
G02*
X259545000Y-255000I150000J0D01*
G01*
X261195000Y-255000D01*
G75*
G02*
X261345000Y-405000I0J-150000D01*
G01*
G37*
G36*
G01*
X261345000Y865000D02*
X261345000Y565000D01*
G75*
G02*
X261195000Y415000I-150000J0D01*
G01*
X259545000Y415000D01*
G75*
G02*
X259395000Y565000I0J150000D01*
G01*
X259395000Y865000D01*
G75*
G02*
X259545000Y1015000I150000J0D01*
G01*
X261195000Y1015000D01*
G75*
G02*
X261345000Y865000I0J-150000D01*
G01*
G37*
G36*
G01*
X261345000Y2135000D02*
X261345000Y1835000D01*
G75*
G02*
X261195000Y1685000I-150000J0D01*
G01*
X259545000Y1685000D01*
G75*
G02*
X259395000Y1835000I0J150000D01*
G01*
X259395000Y2135000D01*
G75*
G02*
X259545000Y2285000I150000J0D01*
G01*
X261195000Y2285000D01*
G75*
G02*
X261345000Y2135000I0J-150000D01*
G01*
G37*
G36*
G01*
X261345000Y3405000D02*
X261345000Y3105000D01*
G75*
G02*
X261195000Y2955000I-150000J0D01*
G01*
X259545000Y2955000D01*
G75*
G02*
X259395000Y3105000I0J150000D01*
G01*
X259395000Y3405000D01*
G75*
G02*
X259545000Y3555000I150000J0D01*
G01*
X261195000Y3555000D01*
G75*
G02*
X261345000Y3405000I0J-150000D01*
G01*
G37*
G36*
G01*
X266295000Y3405000D02*
X266295000Y3105000D01*
G75*
G02*
X266145000Y2955000I-150000J0D01*
G01*
X264495000Y2955000D01*
G75*
G02*
X264345000Y3105000I0J150000D01*
G01*
X264345000Y3405000D01*
G75*
G02*
X264495000Y3555000I150000J0D01*
G01*
X266145000Y3555000D01*
G75*
G02*
X266295000Y3405000I0J-150000D01*
G01*
G37*
G36*
G01*
X266295000Y2135000D02*
X266295000Y1835000D01*
G75*
G02*
X266145000Y1685000I-150000J0D01*
G01*
X264495000Y1685000D01*
G75*
G02*
X264345000Y1835000I0J150000D01*
G01*
X264345000Y2135000D01*
G75*
G02*
X264495000Y2285000I150000J0D01*
G01*
X266145000Y2285000D01*
G75*
G02*
X266295000Y2135000I0J-150000D01*
G01*
G37*
G36*
G01*
X266295000Y865000D02*
X266295000Y565000D01*
G75*
G02*
X266145000Y415000I-150000J0D01*
G01*
X264495000Y415000D01*
G75*
G02*
X264345000Y565000I0J150000D01*
G01*
X264345000Y865000D01*
G75*
G02*
X264495000Y1015000I150000J0D01*
G01*
X266145000Y1015000D01*
G75*
G02*
X266295000Y865000I0J-150000D01*
G01*
G37*
G36*
G01*
X266295000Y-405000D02*
X266295000Y-705000D01*
G75*
G02*
X266145000Y-855000I-150000J0D01*
G01*
X264495000Y-855000D01*
G75*
G02*
X264345000Y-705000I0J150000D01*
G01*
X264345000Y-405000D01*
G75*
G02*
X264495000Y-255000I150000J0D01*
G01*
X266145000Y-255000D01*
G75*
G02*
X266295000Y-405000I0J-150000D01*
G01*
G37*
G04 #@! TD*
G04 #@! TO.C,R39*
G36*
G01*
X317580022Y-73881713D02*
X317580022Y-72631713D01*
G75*
G02*
X317680022Y-72531713I100000J0D01*
G01*
X318480022Y-72531713D01*
G75*
G02*
X318580022Y-72631713I0J-100000D01*
G01*
X318580022Y-73881713D01*
G75*
G02*
X318480022Y-73981713I-100000J0D01*
G01*
X317680022Y-73981713D01*
G75*
G02*
X317580022Y-73881713I0J100000D01*
G01*
G37*
G36*
G01*
X315680000Y-73881713D02*
X315680000Y-72631713D01*
G75*
G02*
X315780000Y-72531713I100000J0D01*
G01*
X316580000Y-72531713D01*
G75*
G02*
X316680000Y-72631713I0J-100000D01*
G01*
X316680000Y-73881713D01*
G75*
G02*
X316580000Y-73981713I-100000J0D01*
G01*
X315780000Y-73981713D01*
G75*
G02*
X315680000Y-73881713I0J100000D01*
G01*
G37*
G04 #@! TD*
G04 #@! TO.C,Q10*
G36*
G01*
X246355000Y-34920000D02*
X246355000Y-35620000D01*
G75*
G02*
X246105000Y-35870000I-250000J0D01*
G01*
X244405000Y-35870000D01*
G75*
G02*
X244155000Y-35620000I0J250000D01*
G01*
X244155000Y-34920000D01*
G75*
G02*
X244405000Y-34670000I250000J0D01*
G01*
X246105000Y-34670000D01*
G75*
G02*
X246355000Y-34920000I0J-250000D01*
G01*
G37*
G36*
G01*
X238805000Y-34900000D02*
X238805000Y-37150000D01*
G75*
G02*
X238555000Y-37400000I-250000J0D01*
G01*
X236005000Y-37400000D01*
G75*
G02*
X235755000Y-37150000I0J250000D01*
G01*
X235755000Y-34900000D01*
G75*
G02*
X236005000Y-34650000I250000J0D01*
G01*
X238555000Y-34650000D01*
G75*
G02*
X238805000Y-34900000I0J-250000D01*
G01*
G37*
G36*
G01*
X238805000Y-37950000D02*
X238805000Y-40200000D01*
G75*
G02*
X238555000Y-40450000I-250000J0D01*
G01*
X236005000Y-40450000D01*
G75*
G02*
X235755000Y-40200000I0J250000D01*
G01*
X235755000Y-37950000D01*
G75*
G02*
X236005000Y-37700000I250000J0D01*
G01*
X238555000Y-37700000D01*
G75*
G02*
X238805000Y-37950000I0J-250000D01*
G01*
G37*
G36*
G01*
X242155000Y-34900000D02*
X242155000Y-37150000D01*
G75*
G02*
X241905000Y-37400000I-250000J0D01*
G01*
X239355000Y-37400000D01*
G75*
G02*
X239105000Y-37150000I0J250000D01*
G01*
X239105000Y-34900000D01*
G75*
G02*
X239355000Y-34650000I250000J0D01*
G01*
X241905000Y-34650000D01*
G75*
G02*
X242155000Y-34900000I0J-250000D01*
G01*
G37*
G36*
G01*
X242155000Y-37950000D02*
X242155000Y-40200000D01*
G75*
G02*
X241905000Y-40450000I-250000J0D01*
G01*
X239355000Y-40450000D01*
G75*
G02*
X239105000Y-40200000I0J250000D01*
G01*
X239105000Y-37950000D01*
G75*
G02*
X239355000Y-37700000I250000J0D01*
G01*
X241905000Y-37700000D01*
G75*
G02*
X242155000Y-37950000I0J-250000D01*
G01*
G37*
G36*
G01*
X246355000Y-39480000D02*
X246355000Y-40180000D01*
G75*
G02*
X246105000Y-40430000I-250000J0D01*
G01*
X244405000Y-40430000D01*
G75*
G02*
X244155000Y-40180000I0J250000D01*
G01*
X244155000Y-39480000D01*
G75*
G02*
X244405000Y-39230000I250000J0D01*
G01*
X246105000Y-39230000D01*
G75*
G02*
X246355000Y-39480000I0J-250000D01*
G01*
G37*
G04 #@! TD*
G04 #@! TO.C,C24*
G36*
G01*
X290439954Y-88135002D02*
X291119954Y-88135002D01*
G75*
G02*
X291204954Y-88220002I0J-85000D01*
G01*
X291204954Y-88900002D01*
G75*
G02*
X291119954Y-88985002I-85000J0D01*
G01*
X290439954Y-88985002D01*
G75*
G02*
X290354954Y-88900002I0J85000D01*
G01*
X290354954Y-88220002D01*
G75*
G02*
X290439954Y-88135002I85000J0D01*
G01*
G37*
G36*
G01*
X290439954Y-86555000D02*
X291119954Y-86555000D01*
G75*
G02*
X291204954Y-86640000I0J-85000D01*
G01*
X291204954Y-87320000D01*
G75*
G02*
X291119954Y-87405000I-85000J0D01*
G01*
X290439954Y-87405000D01*
G75*
G02*
X290354954Y-87320000I0J85000D01*
G01*
X290354954Y-86640000D01*
G75*
G02*
X290439954Y-86555000I85000J0D01*
G01*
G37*
G04 #@! TD*
M02*
