G04 #@! TF.GenerationSoftware,KiCad,Pcbnew,8.0.8*
G04 #@! TF.CreationDate,2025-12-05T18:20:35-05:00*
G04 #@! TF.ProjectId,hellen121vag,68656c6c-656e-4313-9231-7661672e6b69,d*
G04 #@! TF.SameCoordinates,PX2b953a0PY6943058*
G04 #@! TF.FileFunction,Soldermask,Bot*
G04 #@! TF.FilePolarity,Negative*
%FSLAX46Y46*%
G04 Gerber Fmt 4.6, Leading zero omitted, Abs format (unit mm)*
G04 Created by KiCad (PCBNEW 8.0.8) date 2025-12-05 18:20:35*
%MOMM*%
%LPD*%
G01*
G04 APERTURE LIST*
%ADD10C,0.120000*%
%ADD11C,2.600000*%
%ADD12C,1.500000*%
%ADD13C,3.700000*%
%ADD14C,2.200000*%
%ADD15O,1.700000X1.700000*%
%ADD16R,1.700000X1.700000*%
%ADD17C,1.700000*%
%ADD18R,2.299995X3.999992*%
%ADD19R,2.299995X4.399991*%
%ADD20C,1.524000*%
%ADD21C,3.302000*%
%ADD22C,0.800000*%
%ADD23C,6.400000*%
%ADD24O,3.700000X2.700000*%
%ADD25C,3.000000*%
%ADD26O,1.000000X1.600000*%
%ADD27O,1.000000X2.100000*%
%ADD28C,0.650000*%
%ADD29C,0.600000*%
%ADD30O,2.700000X3.700000*%
%ADD31O,1.850000X1.700000*%
%ADD32O,2.400000X1.100000*%
%ADD33C,1.100000*%
%ADD34R,1.100000X1.100000*%
%ADD35C,0.599999*%
G04 APERTURE END LIST*
D10*
G04 #@! TO.C,U5*
X309565000Y-61175000D02*
X296565000Y-61175000D01*
X296565000Y-54175000D01*
X309565000Y-54175000D01*
X309565000Y-61175000D01*
G36*
X309565000Y-61175000D02*
G01*
X296565000Y-61175000D01*
X296565000Y-54175000D01*
X309565000Y-54175000D01*
X309565000Y-61175000D01*
G37*
G04 #@! TD*
D11*
G04 #@! TO.C,P1*
X138448000Y18622000D03*
X132548000Y18622000D03*
X126748000Y18622000D03*
X135548000Y12822000D03*
X129648000Y12822000D03*
X138448000Y10492000D03*
X132548000Y10492000D03*
X126748000Y10492000D03*
D12*
X118918000Y18622000D03*
X116378000Y18622000D03*
X113838000Y18622000D03*
X111298000Y18622000D03*
X108758000Y18622000D03*
X106218000Y18622000D03*
X103678000Y18622000D03*
X101138000Y18622000D03*
X118918000Y16082000D03*
X116378000Y16082000D03*
X113838000Y16082000D03*
X111298000Y16082000D03*
X108758000Y16082000D03*
X106218000Y16082000D03*
X103678000Y16082000D03*
X101138000Y16082000D03*
X118918000Y10032000D03*
X116378000Y10032000D03*
X113838000Y10032000D03*
X111298000Y10032000D03*
X108758000Y10032000D03*
X106218000Y10032000D03*
X103678000Y10032000D03*
X101138000Y10032000D03*
X118918000Y7492000D03*
X116378000Y7492000D03*
X113838000Y7492000D03*
X111298000Y7492000D03*
X108758000Y7492000D03*
X106218000Y7492000D03*
X103678000Y7492000D03*
X101138000Y7492000D03*
X39448000Y7492000D03*
X41988000Y7492000D03*
X44528000Y7492000D03*
X47068000Y7492000D03*
X49608000Y7492000D03*
X52148000Y7492000D03*
X54688000Y7492000D03*
X57228000Y7492000D03*
X59768000Y7492000D03*
X62308000Y7492000D03*
X64848000Y7492000D03*
X67388000Y7492000D03*
X69928000Y7492000D03*
X72468000Y7492000D03*
X75008000Y7492000D03*
X77548000Y7492000D03*
X80088000Y7492000D03*
X82628000Y7492000D03*
X85168000Y7492000D03*
X39448000Y10032000D03*
X41988000Y10032000D03*
X44528000Y10032000D03*
X47068000Y10032000D03*
X49608000Y10032000D03*
X52148000Y10032000D03*
X54688000Y10032000D03*
X57228000Y10032000D03*
X59768000Y10032000D03*
X62308000Y10032000D03*
X64848000Y10032000D03*
X67388000Y10032000D03*
X69928000Y10032000D03*
X72468000Y10032000D03*
X75008000Y10032000D03*
X77548000Y10032000D03*
X80088000Y10032000D03*
X82628000Y10032000D03*
X85168000Y10032000D03*
X39448000Y16082000D03*
X41988000Y16082000D03*
X44528000Y16082000D03*
X47068000Y16082000D03*
X49608000Y16082000D03*
X52148000Y16082000D03*
X54688000Y16082000D03*
X57228000Y16082000D03*
X59768000Y16082000D03*
X62308000Y16082000D03*
X64848000Y16082000D03*
X67388000Y16082000D03*
X69928000Y16082000D03*
X72468000Y16082000D03*
X75008000Y16082000D03*
X77548000Y16082000D03*
X80088000Y16082000D03*
X82628000Y16082000D03*
X85168000Y16082000D03*
X39448000Y18622000D03*
X41988000Y18622000D03*
X44528000Y18622000D03*
X47068000Y18622000D03*
X49608000Y18622000D03*
X52148000Y18622000D03*
X54688000Y18622000D03*
X57228000Y18622000D03*
X59768000Y18622000D03*
X62308000Y18622000D03*
X64848000Y18622000D03*
X67388000Y18622000D03*
X69928000Y18622000D03*
X72468000Y18622000D03*
X75008000Y18622000D03*
X77548000Y18622000D03*
X80088000Y18622000D03*
X82628000Y18622000D03*
X85168000Y18622000D03*
D11*
X31548000Y18622000D03*
X25748000Y18622000D03*
X28648000Y12822000D03*
X31548000Y10492000D03*
X25748000Y10492000D03*
D13*
X18648000Y5492000D03*
X93148000Y5492000D03*
X145348000Y5492000D03*
D14*
X142898000Y13292000D03*
X21098000Y13292000D03*
G04 #@! TD*
D15*
G04 #@! TO.C,J21*
X263755000Y-44690000D03*
X266295000Y-44690000D03*
X263755000Y-42150000D03*
D16*
X266295000Y-42150000D03*
G04 #@! TD*
G04 #@! TO.C,D4*
G36*
G01*
X283710000Y3175000D02*
X282690000Y3175000D01*
G75*
G02*
X282600000Y3265000I0J90000D01*
G01*
X282600000Y3985000D01*
G75*
G02*
X282690000Y4075000I90000J0D01*
G01*
X283710000Y4075000D01*
G75*
G02*
X283800000Y3985000I0J-90000D01*
G01*
X283800000Y3265000D01*
G75*
G02*
X283710000Y3175000I-90000J0D01*
G01*
G37*
G36*
G01*
X283710000Y-125000D02*
X282690000Y-125000D01*
G75*
G02*
X282600000Y-35000I0J90000D01*
G01*
X282600000Y685000D01*
G75*
G02*
X282690000Y775000I90000J0D01*
G01*
X283710000Y775000D01*
G75*
G02*
X283800000Y685000I0J-90000D01*
G01*
X283800000Y-35000D01*
G75*
G02*
X283710000Y-125000I-90000J0D01*
G01*
G37*
G04 #@! TD*
G04 #@! TO.C,C30*
G36*
G01*
X286110000Y-5344956D02*
X286110000Y-6024956D01*
G75*
G02*
X286025000Y-6109956I-85000J0D01*
G01*
X285345000Y-6109956D01*
G75*
G02*
X285260000Y-6024956I0J85000D01*
G01*
X285260000Y-5344956D01*
G75*
G02*
X285345000Y-5259956I85000J0D01*
G01*
X286025000Y-5259956D01*
G75*
G02*
X286110000Y-5344956I0J-85000D01*
G01*
G37*
G36*
G01*
X287690002Y-5344956D02*
X287690002Y-6024956D01*
G75*
G02*
X287605002Y-6109956I-85000J0D01*
G01*
X286925002Y-6109956D01*
G75*
G02*
X286840002Y-6024956I0J85000D01*
G01*
X286840002Y-5344956D01*
G75*
G02*
X286925002Y-5259956I85000J0D01*
G01*
X287605002Y-5259956D01*
G75*
G02*
X287690002Y-5344956I0J-85000D01*
G01*
G37*
G04 #@! TD*
D17*
G04 #@! TO.C,P16*
X310850000Y-19715000D03*
G04 #@! TD*
G04 #@! TO.C,C10*
G36*
G01*
X319290000Y1175000D02*
X318240000Y1175000D01*
G75*
G02*
X318140000Y1275000I0J100000D01*
G01*
X318140000Y2075000D01*
G75*
G02*
X318240000Y2175000I100000J0D01*
G01*
X319290000Y2175000D01*
G75*
G02*
X319390000Y2075000I0J-100000D01*
G01*
X319390000Y1275000D01*
G75*
G02*
X319290000Y1175000I-100000J0D01*
G01*
G37*
G36*
G01*
X319290000Y-825000D02*
X318240000Y-825000D01*
G75*
G02*
X318140000Y-725000I0J100000D01*
G01*
X318140000Y75000D01*
G75*
G02*
X318240000Y175000I100000J0D01*
G01*
X319290000Y175000D01*
G75*
G02*
X319390000Y75000I0J-100000D01*
G01*
X319390000Y-725000D01*
G75*
G02*
X319290000Y-825000I-100000J0D01*
G01*
G37*
G04 #@! TD*
G04 #@! TO.C,C27*
G36*
G01*
X296239896Y-88135002D02*
X296919896Y-88135002D01*
G75*
G02*
X297004896Y-88220002I0J-85000D01*
G01*
X297004896Y-88900002D01*
G75*
G02*
X296919896Y-88985002I-85000J0D01*
G01*
X296239896Y-88985002D01*
G75*
G02*
X296154896Y-88900002I0J85000D01*
G01*
X296154896Y-88220002D01*
G75*
G02*
X296239896Y-88135002I85000J0D01*
G01*
G37*
G36*
G01*
X296239896Y-86555000D02*
X296919896Y-86555000D01*
G75*
G02*
X297004896Y-86640000I0J-85000D01*
G01*
X297004896Y-87320000D01*
G75*
G02*
X296919896Y-87405000I-85000J0D01*
G01*
X296239896Y-87405000D01*
G75*
G02*
X296154896Y-87320000I0J85000D01*
G01*
X296154896Y-86640000D01*
G75*
G02*
X296239896Y-86555000I85000J0D01*
G01*
G37*
G04 #@! TD*
G04 #@! TO.C,R20*
G36*
G01*
X236975000Y-58695000D02*
X236975000Y-61545000D01*
G75*
G02*
X236725000Y-61795000I-250000J0D01*
G01*
X236000000Y-61795000D01*
G75*
G02*
X235750000Y-61545000I0J250000D01*
G01*
X235750000Y-58695000D01*
G75*
G02*
X236000000Y-58445000I250000J0D01*
G01*
X236725000Y-58445000D01*
G75*
G02*
X236975000Y-58695000I0J-250000D01*
G01*
G37*
G36*
G01*
X242900000Y-58695000D02*
X242900000Y-61545000D01*
G75*
G02*
X242650000Y-61795000I-250000J0D01*
G01*
X241925000Y-61795000D01*
G75*
G02*
X241675000Y-61545000I0J250000D01*
G01*
X241675000Y-58695000D01*
G75*
G02*
X241925000Y-58445000I250000J0D01*
G01*
X242650000Y-58445000D01*
G75*
G02*
X242900000Y-58695000I0J-250000D01*
G01*
G37*
G04 #@! TD*
G04 #@! TO.C,D8*
G36*
G01*
X317255000Y-90200000D02*
X317555000Y-90200000D01*
G75*
G02*
X317705000Y-90350000I0J-150000D01*
G01*
X317705000Y-91525000D01*
G75*
G02*
X317555000Y-91675000I-150000J0D01*
G01*
X317255000Y-91675000D01*
G75*
G02*
X317105000Y-91525000I0J150000D01*
G01*
X317105000Y-90350000D01*
G75*
G02*
X317255000Y-90200000I150000J0D01*
G01*
G37*
G36*
G01*
X318205000Y-88325000D02*
X318505000Y-88325000D01*
G75*
G02*
X318655000Y-88475000I0J-150000D01*
G01*
X318655000Y-89650000D01*
G75*
G02*
X318505000Y-89800000I-150000J0D01*
G01*
X318205000Y-89800000D01*
G75*
G02*
X318055000Y-89650000I0J150000D01*
G01*
X318055000Y-88475000D01*
G75*
G02*
X318205000Y-88325000I150000J0D01*
G01*
G37*
G36*
G01*
X316305000Y-88325000D02*
X316605000Y-88325000D01*
G75*
G02*
X316755000Y-88475000I0J-150000D01*
G01*
X316755000Y-89650000D01*
G75*
G02*
X316605000Y-89800000I-150000J0D01*
G01*
X316305000Y-89800000D01*
G75*
G02*
X316155000Y-89650000I0J150000D01*
G01*
X316155000Y-88475000D01*
G75*
G02*
X316305000Y-88325000I150000J0D01*
G01*
G37*
G04 #@! TD*
G04 #@! TO.C,G4*
X307068000Y5099000D03*
X307068000Y2559000D03*
X307068000Y19000D03*
X307068000Y-2521000D03*
X307068000Y-5061000D03*
X304528000Y5099000D03*
X304528000Y2559000D03*
X304528000Y19000D03*
X304528000Y-2521000D03*
X304528000Y-5061000D03*
X301988000Y5099000D03*
X301988000Y2559000D03*
X301988000Y19000D03*
X301988000Y-2521000D03*
X301988000Y-5061000D03*
G04 #@! TD*
G04 #@! TO.C,U10*
G36*
G01*
X304500000Y-15100000D02*
X304800000Y-15100000D01*
G75*
G02*
X304950000Y-15250000I0J-150000D01*
G01*
X304950000Y-16900000D01*
G75*
G02*
X304800000Y-17050000I-150000J0D01*
G01*
X304500000Y-17050000D01*
G75*
G02*
X304350000Y-16900000I0J150000D01*
G01*
X304350000Y-15250000D01*
G75*
G02*
X304500000Y-15100000I150000J0D01*
G01*
G37*
G36*
G01*
X305770000Y-15100000D02*
X306070000Y-15100000D01*
G75*
G02*
X306220000Y-15250000I0J-150000D01*
G01*
X306220000Y-16900000D01*
G75*
G02*
X306070000Y-17050000I-150000J0D01*
G01*
X305770000Y-17050000D01*
G75*
G02*
X305620000Y-16900000I0J150000D01*
G01*
X305620000Y-15250000D01*
G75*
G02*
X305770000Y-15100000I150000J0D01*
G01*
G37*
G36*
G01*
X307040000Y-15100000D02*
X307340000Y-15100000D01*
G75*
G02*
X307490000Y-15250000I0J-150000D01*
G01*
X307490000Y-16900000D01*
G75*
G02*
X307340000Y-17050000I-150000J0D01*
G01*
X307040000Y-17050000D01*
G75*
G02*
X306890000Y-16900000I0J150000D01*
G01*
X306890000Y-15250000D01*
G75*
G02*
X307040000Y-15100000I150000J0D01*
G01*
G37*
G36*
G01*
X308310000Y-15100000D02*
X308610000Y-15100000D01*
G75*
G02*
X308760000Y-15250000I0J-150000D01*
G01*
X308760000Y-16900000D01*
G75*
G02*
X308610000Y-17050000I-150000J0D01*
G01*
X308310000Y-17050000D01*
G75*
G02*
X308160000Y-16900000I0J150000D01*
G01*
X308160000Y-15250000D01*
G75*
G02*
X308310000Y-15100000I150000J0D01*
G01*
G37*
G36*
G01*
X308310000Y-10150000D02*
X308610000Y-10150000D01*
G75*
G02*
X308760000Y-10300000I0J-150000D01*
G01*
X308760000Y-11950000D01*
G75*
G02*
X308610000Y-12100000I-150000J0D01*
G01*
X308310000Y-12100000D01*
G75*
G02*
X308160000Y-11950000I0J150000D01*
G01*
X308160000Y-10300000D01*
G75*
G02*
X308310000Y-10150000I150000J0D01*
G01*
G37*
G36*
G01*
X307040000Y-10150000D02*
X307340000Y-10150000D01*
G75*
G02*
X307490000Y-10300000I0J-150000D01*
G01*
X307490000Y-11950000D01*
G75*
G02*
X307340000Y-12100000I-150000J0D01*
G01*
X307040000Y-12100000D01*
G75*
G02*
X306890000Y-11950000I0J150000D01*
G01*
X306890000Y-10300000D01*
G75*
G02*
X307040000Y-10150000I150000J0D01*
G01*
G37*
G36*
G01*
X305770000Y-10150000D02*
X306070000Y-10150000D01*
G75*
G02*
X306220000Y-10300000I0J-150000D01*
G01*
X306220000Y-11950000D01*
G75*
G02*
X306070000Y-12100000I-150000J0D01*
G01*
X305770000Y-12100000D01*
G75*
G02*
X305620000Y-11950000I0J150000D01*
G01*
X305620000Y-10300000D01*
G75*
G02*
X305770000Y-10150000I150000J0D01*
G01*
G37*
G36*
G01*
X304500000Y-10150000D02*
X304800000Y-10150000D01*
G75*
G02*
X304950000Y-10300000I0J-150000D01*
G01*
X304950000Y-11950000D01*
G75*
G02*
X304800000Y-12100000I-150000J0D01*
G01*
X304500000Y-12100000D01*
G75*
G02*
X304350000Y-11950000I0J150000D01*
G01*
X304350000Y-10300000D01*
G75*
G02*
X304500000Y-10150000I150000J0D01*
G01*
G37*
G04 #@! TD*
D18*
G04 #@! TO.C,BT1*
X299947263Y25375004D03*
D19*
X299947263Y9374985D03*
D12*
X299947263Y20974937D03*
X299947263Y13475079D03*
G04 #@! TD*
G04 #@! TO.C,R34*
G36*
G01*
X291189589Y-28925000D02*
X290409589Y-28925000D01*
G75*
G02*
X290339589Y-28855000I0J70000D01*
G01*
X290339589Y-28295000D01*
G75*
G02*
X290409589Y-28225000I70000J0D01*
G01*
X291189589Y-28225000D01*
G75*
G02*
X291259589Y-28295000I0J-70000D01*
G01*
X291259589Y-28855000D01*
G75*
G02*
X291189589Y-28925000I-70000J0D01*
G01*
G37*
G36*
G01*
X291189589Y-30525000D02*
X290409589Y-30525000D01*
G75*
G02*
X290339589Y-30455000I0J70000D01*
G01*
X290339589Y-29895000D01*
G75*
G02*
X290409589Y-29825000I70000J0D01*
G01*
X291189589Y-29825000D01*
G75*
G02*
X291259589Y-29895000I0J-70000D01*
G01*
X291259589Y-30455000D01*
G75*
G02*
X291189589Y-30525000I-70000J0D01*
G01*
G37*
G04 #@! TD*
G04 #@! TO.C,R31*
G36*
G01*
X285342451Y-28925000D02*
X284562451Y-28925000D01*
G75*
G02*
X284492451Y-28855000I0J70000D01*
G01*
X284492451Y-28295000D01*
G75*
G02*
X284562451Y-28225000I70000J0D01*
G01*
X285342451Y-28225000D01*
G75*
G02*
X285412451Y-28295000I0J-70000D01*
G01*
X285412451Y-28855000D01*
G75*
G02*
X285342451Y-28925000I-70000J0D01*
G01*
G37*
G36*
G01*
X285342451Y-30525000D02*
X284562451Y-30525000D01*
G75*
G02*
X284492451Y-30455000I0J70000D01*
G01*
X284492451Y-29895000D01*
G75*
G02*
X284562451Y-29825000I70000J0D01*
G01*
X285342451Y-29825000D01*
G75*
G02*
X285412451Y-29895000I0J-70000D01*
G01*
X285412451Y-30455000D01*
G75*
G02*
X285342451Y-30525000I-70000J0D01*
G01*
G37*
G04 #@! TD*
G04 #@! TO.C,C33*
G36*
G01*
X302089851Y-88135002D02*
X302769851Y-88135002D01*
G75*
G02*
X302854851Y-88220002I0J-85000D01*
G01*
X302854851Y-88900002D01*
G75*
G02*
X302769851Y-88985002I-85000J0D01*
G01*
X302089851Y-88985002D01*
G75*
G02*
X302004851Y-88900002I0J85000D01*
G01*
X302004851Y-88220002D01*
G75*
G02*
X302089851Y-88135002I85000J0D01*
G01*
G37*
G36*
G01*
X302089851Y-86555000D02*
X302769851Y-86555000D01*
G75*
G02*
X302854851Y-86640000I0J-85000D01*
G01*
X302854851Y-87320000D01*
G75*
G02*
X302769851Y-87405000I-85000J0D01*
G01*
X302089851Y-87405000D01*
G75*
G02*
X302004851Y-87320000I0J85000D01*
G01*
X302004851Y-86640000D01*
G75*
G02*
X302089851Y-86555000I85000J0D01*
G01*
G37*
G04 #@! TD*
G04 #@! TO.C,C17*
G36*
G01*
X315990000Y-3825000D02*
X317040000Y-3825000D01*
G75*
G02*
X317140000Y-3925000I0J-100000D01*
G01*
X317140000Y-4725000D01*
G75*
G02*
X317040000Y-4825000I-100000J0D01*
G01*
X315990000Y-4825000D01*
G75*
G02*
X315890000Y-4725000I0J100000D01*
G01*
X315890000Y-3925000D01*
G75*
G02*
X315990000Y-3825000I100000J0D01*
G01*
G37*
G36*
G01*
X315990000Y-1825000D02*
X317040000Y-1825000D01*
G75*
G02*
X317140000Y-1925000I0J-100000D01*
G01*
X317140000Y-2725000D01*
G75*
G02*
X317040000Y-2825000I-100000J0D01*
G01*
X315990000Y-2825000D01*
G75*
G02*
X315890000Y-2725000I0J100000D01*
G01*
X315890000Y-1925000D01*
G75*
G02*
X315990000Y-1825000I100000J0D01*
G01*
G37*
G04 #@! TD*
G04 #@! TO.C,R21*
G36*
G01*
X236975000Y-63585000D02*
X236975000Y-66435000D01*
G75*
G02*
X236725000Y-66685000I-250000J0D01*
G01*
X236000000Y-66685000D01*
G75*
G02*
X235750000Y-66435000I0J250000D01*
G01*
X235750000Y-63585000D01*
G75*
G02*
X236000000Y-63335000I250000J0D01*
G01*
X236725000Y-63335000D01*
G75*
G02*
X236975000Y-63585000I0J-250000D01*
G01*
G37*
G36*
G01*
X242900000Y-63585000D02*
X242900000Y-66435000D01*
G75*
G02*
X242650000Y-66685000I-250000J0D01*
G01*
X241925000Y-66685000D01*
G75*
G02*
X241675000Y-66435000I0J250000D01*
G01*
X241675000Y-63585000D01*
G75*
G02*
X241925000Y-63335000I250000J0D01*
G01*
X242650000Y-63335000D01*
G75*
G02*
X242900000Y-63585000I0J-250000D01*
G01*
G37*
G04 #@! TD*
D20*
G04 #@! TO.C,U3*
X269842000Y-53685500D03*
X269842000Y-51145500D03*
X269842000Y-48605500D03*
X269842000Y-46065500D03*
X269842000Y-43525500D03*
X269842000Y-40985500D03*
D21*
X282542000Y-58765500D03*
X282542000Y-35905500D03*
G04 #@! TD*
D15*
G04 #@! TO.C,J12*
X249455000Y-51840000D03*
X251995000Y-51840000D03*
X249455000Y-49300000D03*
D16*
X251995000Y-49300000D03*
G04 #@! TD*
G04 #@! TO.C,R26*
G36*
G01*
X236975000Y-73365000D02*
X236975000Y-76215000D01*
G75*
G02*
X236725000Y-76465000I-250000J0D01*
G01*
X236000000Y-76465000D01*
G75*
G02*
X235750000Y-76215000I0J250000D01*
G01*
X235750000Y-73365000D01*
G75*
G02*
X236000000Y-73115000I250000J0D01*
G01*
X236725000Y-73115000D01*
G75*
G02*
X236975000Y-73365000I0J-250000D01*
G01*
G37*
G36*
G01*
X242900000Y-73365000D02*
X242900000Y-76215000D01*
G75*
G02*
X242650000Y-76465000I-250000J0D01*
G01*
X241925000Y-76465000D01*
G75*
G02*
X241675000Y-76215000I0J250000D01*
G01*
X241675000Y-73365000D01*
G75*
G02*
X241925000Y-73115000I250000J0D01*
G01*
X242650000Y-73115000D01*
G75*
G02*
X242900000Y-73365000I0J-250000D01*
G01*
G37*
G04 #@! TD*
G04 #@! TO.C,C7*
G36*
G01*
X312540000Y1175000D02*
X311490000Y1175000D01*
G75*
G02*
X311390000Y1275000I0J100000D01*
G01*
X311390000Y2075000D01*
G75*
G02*
X311490000Y2175000I100000J0D01*
G01*
X312540000Y2175000D01*
G75*
G02*
X312640000Y2075000I0J-100000D01*
G01*
X312640000Y1275000D01*
G75*
G02*
X312540000Y1175000I-100000J0D01*
G01*
G37*
G36*
G01*
X312540000Y-825000D02*
X311490000Y-825000D01*
G75*
G02*
X311390000Y-725000I0J100000D01*
G01*
X311390000Y75000D01*
G75*
G02*
X311490000Y175000I100000J0D01*
G01*
X312540000Y175000D01*
G75*
G02*
X312640000Y75000I0J-100000D01*
G01*
X312640000Y-725000D01*
G75*
G02*
X312540000Y-825000I-100000J0D01*
G01*
G37*
G04 #@! TD*
G04 #@! TO.C,C29*
G36*
G01*
X286840002Y-4124984D02*
X286840002Y-3444984D01*
G75*
G02*
X286925002Y-3359984I85000J0D01*
G01*
X287605002Y-3359984D01*
G75*
G02*
X287690002Y-3444984I0J-85000D01*
G01*
X287690002Y-4124984D01*
G75*
G02*
X287605002Y-4209984I-85000J0D01*
G01*
X286925002Y-4209984D01*
G75*
G02*
X286840002Y-4124984I0J85000D01*
G01*
G37*
G36*
G01*
X285260000Y-4124984D02*
X285260000Y-3444984D01*
G75*
G02*
X285345000Y-3359984I85000J0D01*
G01*
X286025000Y-3359984D01*
G75*
G02*
X286110000Y-3444984I0J-85000D01*
G01*
X286110000Y-4124984D01*
G75*
G02*
X286025000Y-4209984I-85000J0D01*
G01*
X285345000Y-4209984D01*
G75*
G02*
X285260000Y-4124984I0J85000D01*
G01*
G37*
G04 #@! TD*
G04 #@! TO.C,C1*
G36*
G01*
X309240000Y4175000D02*
X310290000Y4175000D01*
G75*
G02*
X310390000Y4075000I0J-100000D01*
G01*
X310390000Y3275000D01*
G75*
G02*
X310290000Y3175000I-100000J0D01*
G01*
X309240000Y3175000D01*
G75*
G02*
X309140000Y3275000I0J100000D01*
G01*
X309140000Y4075000D01*
G75*
G02*
X309240000Y4175000I100000J0D01*
G01*
G37*
G36*
G01*
X309240000Y6175000D02*
X310290000Y6175000D01*
G75*
G02*
X310390000Y6075000I0J-100000D01*
G01*
X310390000Y5275000D01*
G75*
G02*
X310290000Y5175000I-100000J0D01*
G01*
X309240000Y5175000D01*
G75*
G02*
X309140000Y5275000I0J100000D01*
G01*
X309140000Y6075000D01*
G75*
G02*
X309240000Y6175000I100000J0D01*
G01*
G37*
G04 #@! TD*
G04 #@! TO.C,U11*
G36*
G01*
X310950000Y-15100000D02*
X311250000Y-15100000D01*
G75*
G02*
X311400000Y-15250000I0J-150000D01*
G01*
X311400000Y-16900000D01*
G75*
G02*
X311250000Y-17050000I-150000J0D01*
G01*
X310950000Y-17050000D01*
G75*
G02*
X310800000Y-16900000I0J150000D01*
G01*
X310800000Y-15250000D01*
G75*
G02*
X310950000Y-15100000I150000J0D01*
G01*
G37*
G36*
G01*
X312220000Y-15100000D02*
X312520000Y-15100000D01*
G75*
G02*
X312670000Y-15250000I0J-150000D01*
G01*
X312670000Y-16900000D01*
G75*
G02*
X312520000Y-17050000I-150000J0D01*
G01*
X312220000Y-17050000D01*
G75*
G02*
X312070000Y-16900000I0J150000D01*
G01*
X312070000Y-15250000D01*
G75*
G02*
X312220000Y-15100000I150000J0D01*
G01*
G37*
G36*
G01*
X313490000Y-15100000D02*
X313790000Y-15100000D01*
G75*
G02*
X313940000Y-15250000I0J-150000D01*
G01*
X313940000Y-16900000D01*
G75*
G02*
X313790000Y-17050000I-150000J0D01*
G01*
X313490000Y-17050000D01*
G75*
G02*
X313340000Y-16900000I0J150000D01*
G01*
X313340000Y-15250000D01*
G75*
G02*
X313490000Y-15100000I150000J0D01*
G01*
G37*
G36*
G01*
X314760000Y-15100000D02*
X315060000Y-15100000D01*
G75*
G02*
X315210000Y-15250000I0J-150000D01*
G01*
X315210000Y-16900000D01*
G75*
G02*
X315060000Y-17050000I-150000J0D01*
G01*
X314760000Y-17050000D01*
G75*
G02*
X314610000Y-16900000I0J150000D01*
G01*
X314610000Y-15250000D01*
G75*
G02*
X314760000Y-15100000I150000J0D01*
G01*
G37*
G36*
G01*
X314760000Y-10150000D02*
X315060000Y-10150000D01*
G75*
G02*
X315210000Y-10300000I0J-150000D01*
G01*
X315210000Y-11950000D01*
G75*
G02*
X315060000Y-12100000I-150000J0D01*
G01*
X314760000Y-12100000D01*
G75*
G02*
X314610000Y-11950000I0J150000D01*
G01*
X314610000Y-10300000D01*
G75*
G02*
X314760000Y-10150000I150000J0D01*
G01*
G37*
G36*
G01*
X313490000Y-10150000D02*
X313790000Y-10150000D01*
G75*
G02*
X313940000Y-10300000I0J-150000D01*
G01*
X313940000Y-11950000D01*
G75*
G02*
X313790000Y-12100000I-150000J0D01*
G01*
X313490000Y-12100000D01*
G75*
G02*
X313340000Y-11950000I0J150000D01*
G01*
X313340000Y-10300000D01*
G75*
G02*
X313490000Y-10150000I150000J0D01*
G01*
G37*
G36*
G01*
X312220000Y-10150000D02*
X312520000Y-10150000D01*
G75*
G02*
X312670000Y-10300000I0J-150000D01*
G01*
X312670000Y-11950000D01*
G75*
G02*
X312520000Y-12100000I-150000J0D01*
G01*
X312220000Y-12100000D01*
G75*
G02*
X312070000Y-11950000I0J150000D01*
G01*
X312070000Y-10300000D01*
G75*
G02*
X312220000Y-10150000I150000J0D01*
G01*
G37*
G36*
G01*
X310950000Y-10150000D02*
X311250000Y-10150000D01*
G75*
G02*
X311400000Y-10300000I0J-150000D01*
G01*
X311400000Y-11950000D01*
G75*
G02*
X311250000Y-12100000I-150000J0D01*
G01*
X310950000Y-12100000D01*
G75*
G02*
X310800000Y-11950000I0J150000D01*
G01*
X310800000Y-10300000D01*
G75*
G02*
X310950000Y-10150000I150000J0D01*
G01*
G37*
G04 #@! TD*
G04 #@! TO.C,C31*
G36*
G01*
X298919894Y-87405000D02*
X298239894Y-87405000D01*
G75*
G02*
X298154894Y-87320000I0J85000D01*
G01*
X298154894Y-86640000D01*
G75*
G02*
X298239894Y-86555000I85000J0D01*
G01*
X298919894Y-86555000D01*
G75*
G02*
X299004894Y-86640000I0J-85000D01*
G01*
X299004894Y-87320000D01*
G75*
G02*
X298919894Y-87405000I-85000J0D01*
G01*
G37*
G36*
G01*
X298919894Y-88985002D02*
X298239894Y-88985002D01*
G75*
G02*
X298154894Y-88900002I0J85000D01*
G01*
X298154894Y-88220002D01*
G75*
G02*
X298239894Y-88135002I85000J0D01*
G01*
X298919894Y-88135002D01*
G75*
G02*
X299004894Y-88220002I0J-85000D01*
G01*
X299004894Y-88900002D01*
G75*
G02*
X298919894Y-88985002I-85000J0D01*
G01*
G37*
G04 #@! TD*
G04 #@! TO.C,F9*
G36*
G01*
X294968750Y-84400000D02*
X295481250Y-84400000D01*
G75*
G02*
X295700000Y-84618750I0J-218750D01*
G01*
X295700000Y-85056250D01*
G75*
G02*
X295481250Y-85275000I-218750J0D01*
G01*
X294968750Y-85275000D01*
G75*
G02*
X294750000Y-85056250I0J218750D01*
G01*
X294750000Y-84618750D01*
G75*
G02*
X294968750Y-84400000I218750J0D01*
G01*
G37*
G36*
G01*
X294968750Y-82825000D02*
X295481250Y-82825000D01*
G75*
G02*
X295700000Y-83043750I0J-218750D01*
G01*
X295700000Y-83481250D01*
G75*
G02*
X295481250Y-83700000I-218750J0D01*
G01*
X294968750Y-83700000D01*
G75*
G02*
X294750000Y-83481250I0J218750D01*
G01*
X294750000Y-83043750D01*
G75*
G02*
X294968750Y-82825000I218750J0D01*
G01*
G37*
G04 #@! TD*
G04 #@! TO.C,C19*
G36*
G01*
X310290000Y-6825000D02*
X309240000Y-6825000D01*
G75*
G02*
X309140000Y-6725000I0J100000D01*
G01*
X309140000Y-5925000D01*
G75*
G02*
X309240000Y-5825000I100000J0D01*
G01*
X310290000Y-5825000D01*
G75*
G02*
X310390000Y-5925000I0J-100000D01*
G01*
X310390000Y-6725000D01*
G75*
G02*
X310290000Y-6825000I-100000J0D01*
G01*
G37*
G36*
G01*
X310290000Y-8825000D02*
X309240000Y-8825000D01*
G75*
G02*
X309140000Y-8725000I0J100000D01*
G01*
X309140000Y-7925000D01*
G75*
G02*
X309240000Y-7825000I100000J0D01*
G01*
X310290000Y-7825000D01*
G75*
G02*
X310390000Y-7925000I0J-100000D01*
G01*
X310390000Y-8725000D01*
G75*
G02*
X310290000Y-8825000I-100000J0D01*
G01*
G37*
G04 #@! TD*
G04 #@! TO.C,C23*
G36*
G01*
X319290000Y-6825000D02*
X318240000Y-6825000D01*
G75*
G02*
X318140000Y-6725000I0J100000D01*
G01*
X318140000Y-5925000D01*
G75*
G02*
X318240000Y-5825000I100000J0D01*
G01*
X319290000Y-5825000D01*
G75*
G02*
X319390000Y-5925000I0J-100000D01*
G01*
X319390000Y-6725000D01*
G75*
G02*
X319290000Y-6825000I-100000J0D01*
G01*
G37*
G36*
G01*
X319290000Y-8825000D02*
X318240000Y-8825000D01*
G75*
G02*
X318140000Y-8725000I0J100000D01*
G01*
X318140000Y-7925000D01*
G75*
G02*
X318240000Y-7825000I100000J0D01*
G01*
X319290000Y-7825000D01*
G75*
G02*
X319390000Y-7925000I0J-100000D01*
G01*
X319390000Y-8725000D01*
G75*
G02*
X319290000Y-8825000I-100000J0D01*
G01*
G37*
G04 #@! TD*
G04 #@! TO.C,F6*
G36*
G01*
X287438750Y-84400000D02*
X287951250Y-84400000D01*
G75*
G02*
X288170000Y-84618750I0J-218750D01*
G01*
X288170000Y-85056250D01*
G75*
G02*
X287951250Y-85275000I-218750J0D01*
G01*
X287438750Y-85275000D01*
G75*
G02*
X287220000Y-85056250I0J218750D01*
G01*
X287220000Y-84618750D01*
G75*
G02*
X287438750Y-84400000I218750J0D01*
G01*
G37*
G36*
G01*
X287438750Y-82825000D02*
X287951250Y-82825000D01*
G75*
G02*
X288170000Y-83043750I0J-218750D01*
G01*
X288170000Y-83481250D01*
G75*
G02*
X287951250Y-83700000I-218750J0D01*
G01*
X287438750Y-83700000D01*
G75*
G02*
X287220000Y-83481250I0J218750D01*
G01*
X287220000Y-83043750D01*
G75*
G02*
X287438750Y-82825000I218750J0D01*
G01*
G37*
G04 #@! TD*
G04 #@! TO.C,C3*
G36*
G01*
X313740000Y4175000D02*
X314790000Y4175000D01*
G75*
G02*
X314890000Y4075000I0J-100000D01*
G01*
X314890000Y3275000D01*
G75*
G02*
X314790000Y3175000I-100000J0D01*
G01*
X313740000Y3175000D01*
G75*
G02*
X313640000Y3275000I0J100000D01*
G01*
X313640000Y4075000D01*
G75*
G02*
X313740000Y4175000I100000J0D01*
G01*
G37*
G36*
G01*
X313740000Y6175000D02*
X314790000Y6175000D01*
G75*
G02*
X314890000Y6075000I0J-100000D01*
G01*
X314890000Y5275000D01*
G75*
G02*
X314790000Y5175000I-100000J0D01*
G01*
X313740000Y5175000D01*
G75*
G02*
X313640000Y5275000I0J100000D01*
G01*
X313640000Y6075000D01*
G75*
G02*
X313740000Y6175000I100000J0D01*
G01*
G37*
G04 #@! TD*
G04 #@! TO.C,U4*
G36*
G01*
X285150000Y-15100000D02*
X285450000Y-15100000D01*
G75*
G02*
X285600000Y-15250000I0J-150000D01*
G01*
X285600000Y-16900000D01*
G75*
G02*
X285450000Y-17050000I-150000J0D01*
G01*
X285150000Y-17050000D01*
G75*
G02*
X285000000Y-16900000I0J150000D01*
G01*
X285000000Y-15250000D01*
G75*
G02*
X285150000Y-15100000I150000J0D01*
G01*
G37*
G36*
G01*
X286420000Y-15100000D02*
X286720000Y-15100000D01*
G75*
G02*
X286870000Y-15250000I0J-150000D01*
G01*
X286870000Y-16900000D01*
G75*
G02*
X286720000Y-17050000I-150000J0D01*
G01*
X286420000Y-17050000D01*
G75*
G02*
X286270000Y-16900000I0J150000D01*
G01*
X286270000Y-15250000D01*
G75*
G02*
X286420000Y-15100000I150000J0D01*
G01*
G37*
G36*
G01*
X287690000Y-15100000D02*
X287990000Y-15100000D01*
G75*
G02*
X288140000Y-15250000I0J-150000D01*
G01*
X288140000Y-16900000D01*
G75*
G02*
X287990000Y-17050000I-150000J0D01*
G01*
X287690000Y-17050000D01*
G75*
G02*
X287540000Y-16900000I0J150000D01*
G01*
X287540000Y-15250000D01*
G75*
G02*
X287690000Y-15100000I150000J0D01*
G01*
G37*
G36*
G01*
X288960000Y-15100000D02*
X289260000Y-15100000D01*
G75*
G02*
X289410000Y-15250000I0J-150000D01*
G01*
X289410000Y-16900000D01*
G75*
G02*
X289260000Y-17050000I-150000J0D01*
G01*
X288960000Y-17050000D01*
G75*
G02*
X288810000Y-16900000I0J150000D01*
G01*
X288810000Y-15250000D01*
G75*
G02*
X288960000Y-15100000I150000J0D01*
G01*
G37*
G36*
G01*
X288960000Y-10150000D02*
X289260000Y-10150000D01*
G75*
G02*
X289410000Y-10300000I0J-150000D01*
G01*
X289410000Y-11950000D01*
G75*
G02*
X289260000Y-12100000I-150000J0D01*
G01*
X288960000Y-12100000D01*
G75*
G02*
X288810000Y-11950000I0J150000D01*
G01*
X288810000Y-10300000D01*
G75*
G02*
X288960000Y-10150000I150000J0D01*
G01*
G37*
G36*
G01*
X287690000Y-10150000D02*
X287990000Y-10150000D01*
G75*
G02*
X288140000Y-10300000I0J-150000D01*
G01*
X288140000Y-11950000D01*
G75*
G02*
X287990000Y-12100000I-150000J0D01*
G01*
X287690000Y-12100000D01*
G75*
G02*
X287540000Y-11950000I0J150000D01*
G01*
X287540000Y-10300000D01*
G75*
G02*
X287690000Y-10150000I150000J0D01*
G01*
G37*
G36*
G01*
X286420000Y-10150000D02*
X286720000Y-10150000D01*
G75*
G02*
X286870000Y-10300000I0J-150000D01*
G01*
X286870000Y-11950000D01*
G75*
G02*
X286720000Y-12100000I-150000J0D01*
G01*
X286420000Y-12100000D01*
G75*
G02*
X286270000Y-11950000I0J150000D01*
G01*
X286270000Y-10300000D01*
G75*
G02*
X286420000Y-10150000I150000J0D01*
G01*
G37*
G36*
G01*
X285150000Y-10150000D02*
X285450000Y-10150000D01*
G75*
G02*
X285600000Y-10300000I0J-150000D01*
G01*
X285600000Y-11950000D01*
G75*
G02*
X285450000Y-12100000I-150000J0D01*
G01*
X285150000Y-12100000D01*
G75*
G02*
X285000000Y-11950000I0J150000D01*
G01*
X285000000Y-10300000D01*
G75*
G02*
X285150000Y-10150000I150000J0D01*
G01*
G37*
G04 #@! TD*
G04 #@! TO.C,C14*
G36*
G01*
X309240000Y-3825000D02*
X310290000Y-3825000D01*
G75*
G02*
X310390000Y-3925000I0J-100000D01*
G01*
X310390000Y-4725000D01*
G75*
G02*
X310290000Y-4825000I-100000J0D01*
G01*
X309240000Y-4825000D01*
G75*
G02*
X309140000Y-4725000I0J100000D01*
G01*
X309140000Y-3925000D01*
G75*
G02*
X309240000Y-3825000I100000J0D01*
G01*
G37*
G36*
G01*
X309240000Y-1825000D02*
X310290000Y-1825000D01*
G75*
G02*
X310390000Y-1925000I0J-100000D01*
G01*
X310390000Y-2725000D01*
G75*
G02*
X310290000Y-2825000I-100000J0D01*
G01*
X309240000Y-2825000D01*
G75*
G02*
X309140000Y-2725000I0J100000D01*
G01*
X309140000Y-1925000D01*
G75*
G02*
X309240000Y-1825000I100000J0D01*
G01*
G37*
G04 #@! TD*
G04 #@! TO.C,R27*
G36*
G01*
X236975000Y-78255000D02*
X236975000Y-81105000D01*
G75*
G02*
X236725000Y-81355000I-250000J0D01*
G01*
X236000000Y-81355000D01*
G75*
G02*
X235750000Y-81105000I0J250000D01*
G01*
X235750000Y-78255000D01*
G75*
G02*
X236000000Y-78005000I250000J0D01*
G01*
X236725000Y-78005000D01*
G75*
G02*
X236975000Y-78255000I0J-250000D01*
G01*
G37*
G36*
G01*
X242900000Y-78255000D02*
X242900000Y-81105000D01*
G75*
G02*
X242650000Y-81355000I-250000J0D01*
G01*
X241925000Y-81355000D01*
G75*
G02*
X241675000Y-81105000I0J250000D01*
G01*
X241675000Y-78255000D01*
G75*
G02*
X241925000Y-78005000I250000J0D01*
G01*
X242650000Y-78005000D01*
G75*
G02*
X242900000Y-78255000I0J-250000D01*
G01*
G37*
G04 #@! TD*
G04 #@! TO.C,C4*
G36*
G01*
X315990000Y4175000D02*
X317040000Y4175000D01*
G75*
G02*
X317140000Y4075000I0J-100000D01*
G01*
X317140000Y3275000D01*
G75*
G02*
X317040000Y3175000I-100000J0D01*
G01*
X315990000Y3175000D01*
G75*
G02*
X315890000Y3275000I0J100000D01*
G01*
X315890000Y4075000D01*
G75*
G02*
X315990000Y4175000I100000J0D01*
G01*
G37*
G36*
G01*
X315990000Y6175000D02*
X317040000Y6175000D01*
G75*
G02*
X317140000Y6075000I0J-100000D01*
G01*
X317140000Y5275000D01*
G75*
G02*
X317040000Y5175000I-100000J0D01*
G01*
X315990000Y5175000D01*
G75*
G02*
X315890000Y5275000I0J100000D01*
G01*
X315890000Y6075000D01*
G75*
G02*
X315990000Y6175000I100000J0D01*
G01*
G37*
G04 #@! TD*
G04 #@! TO.C,F10*
G36*
G01*
X297478750Y-84400000D02*
X297991250Y-84400000D01*
G75*
G02*
X298210000Y-84618750I0J-218750D01*
G01*
X298210000Y-85056250D01*
G75*
G02*
X297991250Y-85275000I-218750J0D01*
G01*
X297478750Y-85275000D01*
G75*
G02*
X297260000Y-85056250I0J218750D01*
G01*
X297260000Y-84618750D01*
G75*
G02*
X297478750Y-84400000I218750J0D01*
G01*
G37*
G36*
G01*
X297478750Y-82825000D02*
X297991250Y-82825000D01*
G75*
G02*
X298210000Y-83043750I0J-218750D01*
G01*
X298210000Y-83481250D01*
G75*
G02*
X297991250Y-83700000I-218750J0D01*
G01*
X297478750Y-83700000D01*
G75*
G02*
X297260000Y-83481250I0J218750D01*
G01*
X297260000Y-83043750D01*
G75*
G02*
X297478750Y-82825000I218750J0D01*
G01*
G37*
G04 #@! TD*
G04 #@! TO.C,D2*
G36*
G01*
X277470000Y3175000D02*
X276450000Y3175000D01*
G75*
G02*
X276360000Y3265000I0J90000D01*
G01*
X276360000Y3985000D01*
G75*
G02*
X276450000Y4075000I90000J0D01*
G01*
X277470000Y4075000D01*
G75*
G02*
X277560000Y3985000I0J-90000D01*
G01*
X277560000Y3265000D01*
G75*
G02*
X277470000Y3175000I-90000J0D01*
G01*
G37*
G36*
G01*
X277470000Y-125000D02*
X276450000Y-125000D01*
G75*
G02*
X276360000Y-35000I0J90000D01*
G01*
X276360000Y685000D01*
G75*
G02*
X276450000Y775000I90000J0D01*
G01*
X277470000Y775000D01*
G75*
G02*
X277560000Y685000I0J-90000D01*
G01*
X277560000Y-35000D01*
G75*
G02*
X277470000Y-125000I-90000J0D01*
G01*
G37*
G04 #@! TD*
G04 #@! TO.C,D1*
G36*
G01*
X316382997Y-30004995D02*
X315902997Y-30004995D01*
G75*
G02*
X315842997Y-29944995I0J60000D01*
G01*
X315842997Y-29464995D01*
G75*
G02*
X315902997Y-29404995I60000J0D01*
G01*
X316382997Y-29404995D01*
G75*
G02*
X316442997Y-29464995I0J-60000D01*
G01*
X316442997Y-29944995D01*
G75*
G02*
X316382997Y-30004995I-60000J0D01*
G01*
G37*
G36*
G01*
X314182997Y-30004995D02*
X313702997Y-30004995D01*
G75*
G02*
X313642997Y-29944995I0J60000D01*
G01*
X313642997Y-29464995D01*
G75*
G02*
X313702997Y-29404995I60000J0D01*
G01*
X314182997Y-29404995D01*
G75*
G02*
X314242997Y-29464995I0J-60000D01*
G01*
X314242997Y-29944995D01*
G75*
G02*
X314182997Y-30004995I-60000J0D01*
G01*
G37*
G04 #@! TD*
G04 #@! TO.C,R19*
G36*
G01*
X287291497Y-25625000D02*
X286511497Y-25625000D01*
G75*
G02*
X286441497Y-25555000I0J70000D01*
G01*
X286441497Y-24995000D01*
G75*
G02*
X286511497Y-24925000I70000J0D01*
G01*
X287291497Y-24925000D01*
G75*
G02*
X287361497Y-24995000I0J-70000D01*
G01*
X287361497Y-25555000D01*
G75*
G02*
X287291497Y-25625000I-70000J0D01*
G01*
G37*
G36*
G01*
X287291497Y-27225000D02*
X286511497Y-27225000D01*
G75*
G02*
X286441497Y-27155000I0J70000D01*
G01*
X286441497Y-26595000D01*
G75*
G02*
X286511497Y-26525000I70000J0D01*
G01*
X287291497Y-26525000D01*
G75*
G02*
X287361497Y-26595000I0J-70000D01*
G01*
X287361497Y-27155000D01*
G75*
G02*
X287291497Y-27225000I-70000J0D01*
G01*
G37*
G04 #@! TD*
G04 #@! TO.C,R33*
G36*
G01*
X288464687Y-29825000D02*
X289244687Y-29825000D01*
G75*
G02*
X289314687Y-29895000I0J-70000D01*
G01*
X289314687Y-30455000D01*
G75*
G02*
X289244687Y-30525000I-70000J0D01*
G01*
X288464687Y-30525000D01*
G75*
G02*
X288394687Y-30455000I0J70000D01*
G01*
X288394687Y-29895000D01*
G75*
G02*
X288464687Y-29825000I70000J0D01*
G01*
G37*
G36*
G01*
X288464687Y-28225000D02*
X289244687Y-28225000D01*
G75*
G02*
X289314687Y-28295000I0J-70000D01*
G01*
X289314687Y-28855000D01*
G75*
G02*
X289244687Y-28925000I-70000J0D01*
G01*
X288464687Y-28925000D01*
G75*
G02*
X288394687Y-28855000I0J70000D01*
G01*
X288394687Y-28295000D01*
G75*
G02*
X288464687Y-28225000I70000J0D01*
G01*
G37*
G04 #@! TD*
G04 #@! TO.C,R17*
G36*
G01*
X297036727Y-22325000D02*
X296256727Y-22325000D01*
G75*
G02*
X296186727Y-22255000I0J70000D01*
G01*
X296186727Y-21695000D01*
G75*
G02*
X296256727Y-21625000I70000J0D01*
G01*
X297036727Y-21625000D01*
G75*
G02*
X297106727Y-21695000I0J-70000D01*
G01*
X297106727Y-22255000D01*
G75*
G02*
X297036727Y-22325000I-70000J0D01*
G01*
G37*
G36*
G01*
X297036727Y-23925000D02*
X296256727Y-23925000D01*
G75*
G02*
X296186727Y-23855000I0J70000D01*
G01*
X296186727Y-23295000D01*
G75*
G02*
X296256727Y-23225000I70000J0D01*
G01*
X297036727Y-23225000D01*
G75*
G02*
X297106727Y-23295000I0J-70000D01*
G01*
X297106727Y-23855000D01*
G75*
G02*
X297036727Y-23925000I-70000J0D01*
G01*
G37*
G04 #@! TD*
G04 #@! TO.C,R22*
G36*
G01*
X236975000Y-68475000D02*
X236975000Y-71325000D01*
G75*
G02*
X236725000Y-71575000I-250000J0D01*
G01*
X236000000Y-71575000D01*
G75*
G02*
X235750000Y-71325000I0J250000D01*
G01*
X235750000Y-68475000D01*
G75*
G02*
X236000000Y-68225000I250000J0D01*
G01*
X236725000Y-68225000D01*
G75*
G02*
X236975000Y-68475000I0J-250000D01*
G01*
G37*
G36*
G01*
X242900000Y-68475000D02*
X242900000Y-71325000D01*
G75*
G02*
X242650000Y-71575000I-250000J0D01*
G01*
X241925000Y-71575000D01*
G75*
G02*
X241675000Y-71325000I0J250000D01*
G01*
X241675000Y-68475000D01*
G75*
G02*
X241925000Y-68225000I250000J0D01*
G01*
X242650000Y-68225000D01*
G75*
G02*
X242900000Y-68475000I0J-250000D01*
G01*
G37*
G04 #@! TD*
G04 #@! TO.C,R13*
G36*
G01*
X289240543Y-22325000D02*
X288460543Y-22325000D01*
G75*
G02*
X288390543Y-22255000I0J70000D01*
G01*
X288390543Y-21695000D01*
G75*
G02*
X288460543Y-21625000I70000J0D01*
G01*
X289240543Y-21625000D01*
G75*
G02*
X289310543Y-21695000I0J-70000D01*
G01*
X289310543Y-22255000D01*
G75*
G02*
X289240543Y-22325000I-70000J0D01*
G01*
G37*
G36*
G01*
X289240543Y-23925000D02*
X288460543Y-23925000D01*
G75*
G02*
X288390543Y-23855000I0J70000D01*
G01*
X288390543Y-23295000D01*
G75*
G02*
X288460543Y-23225000I70000J0D01*
G01*
X289240543Y-23225000D01*
G75*
G02*
X289310543Y-23295000I0J-70000D01*
G01*
X289310543Y-23855000D01*
G75*
G02*
X289240543Y-23925000I-70000J0D01*
G01*
G37*
G04 #@! TD*
G04 #@! TO.C,C21*
G36*
G01*
X314790000Y-6825000D02*
X313740000Y-6825000D01*
G75*
G02*
X313640000Y-6725000I0J100000D01*
G01*
X313640000Y-5925000D01*
G75*
G02*
X313740000Y-5825000I100000J0D01*
G01*
X314790000Y-5825000D01*
G75*
G02*
X314890000Y-5925000I0J-100000D01*
G01*
X314890000Y-6725000D01*
G75*
G02*
X314790000Y-6825000I-100000J0D01*
G01*
G37*
G36*
G01*
X314790000Y-8825000D02*
X313740000Y-8825000D01*
G75*
G02*
X313640000Y-8725000I0J100000D01*
G01*
X313640000Y-7925000D01*
G75*
G02*
X313740000Y-7825000I100000J0D01*
G01*
X314790000Y-7825000D01*
G75*
G02*
X314890000Y-7925000I0J-100000D01*
G01*
X314890000Y-8725000D01*
G75*
G02*
X314790000Y-8825000I-100000J0D01*
G01*
G37*
G04 #@! TD*
G04 #@! TO.C,R30*
G36*
G01*
X297036727Y-25625000D02*
X296256727Y-25625000D01*
G75*
G02*
X296186727Y-25555000I0J70000D01*
G01*
X296186727Y-24995000D01*
G75*
G02*
X296256727Y-24925000I70000J0D01*
G01*
X297036727Y-24925000D01*
G75*
G02*
X297106727Y-24995000I0J-70000D01*
G01*
X297106727Y-25555000D01*
G75*
G02*
X297036727Y-25625000I-70000J0D01*
G01*
G37*
G36*
G01*
X297036727Y-27225000D02*
X296256727Y-27225000D01*
G75*
G02*
X296186727Y-27155000I0J70000D01*
G01*
X296186727Y-26595000D01*
G75*
G02*
X296256727Y-26525000I70000J0D01*
G01*
X297036727Y-26525000D01*
G75*
G02*
X297106727Y-26595000I0J-70000D01*
G01*
X297106727Y-27155000D01*
G75*
G02*
X297036727Y-27225000I-70000J0D01*
G01*
G37*
G04 #@! TD*
G04 #@! TO.C,R25*
G36*
G01*
X293138635Y-25625000D02*
X292358635Y-25625000D01*
G75*
G02*
X292288635Y-25555000I0J70000D01*
G01*
X292288635Y-24995000D01*
G75*
G02*
X292358635Y-24925000I70000J0D01*
G01*
X293138635Y-24925000D01*
G75*
G02*
X293208635Y-24995000I0J-70000D01*
G01*
X293208635Y-25555000D01*
G75*
G02*
X293138635Y-25625000I-70000J0D01*
G01*
G37*
G36*
G01*
X293138635Y-27225000D02*
X292358635Y-27225000D01*
G75*
G02*
X292288635Y-27155000I0J70000D01*
G01*
X292288635Y-26595000D01*
G75*
G02*
X292358635Y-26525000I70000J0D01*
G01*
X293138635Y-26525000D01*
G75*
G02*
X293208635Y-26595000I0J-70000D01*
G01*
X293208635Y-27155000D01*
G75*
G02*
X293138635Y-27225000I-70000J0D01*
G01*
G37*
G04 #@! TD*
G04 #@! TO.C,C16*
G36*
G01*
X313740000Y-3825000D02*
X314790000Y-3825000D01*
G75*
G02*
X314890000Y-3925000I0J-100000D01*
G01*
X314890000Y-4725000D01*
G75*
G02*
X314790000Y-4825000I-100000J0D01*
G01*
X313740000Y-4825000D01*
G75*
G02*
X313640000Y-4725000I0J100000D01*
G01*
X313640000Y-3925000D01*
G75*
G02*
X313740000Y-3825000I100000J0D01*
G01*
G37*
G36*
G01*
X313740000Y-1825000D02*
X314790000Y-1825000D01*
G75*
G02*
X314890000Y-1925000I0J-100000D01*
G01*
X314890000Y-2725000D01*
G75*
G02*
X314790000Y-2825000I-100000J0D01*
G01*
X313740000Y-2825000D01*
G75*
G02*
X313640000Y-2725000I0J100000D01*
G01*
X313640000Y-1925000D01*
G75*
G02*
X313740000Y-1825000I100000J0D01*
G01*
G37*
G04 #@! TD*
G04 #@! TO.C,R3*
G36*
G01*
X287291497Y-19025000D02*
X286511497Y-19025000D01*
G75*
G02*
X286441497Y-18955000I0J70000D01*
G01*
X286441497Y-18395000D01*
G75*
G02*
X286511497Y-18325000I70000J0D01*
G01*
X287291497Y-18325000D01*
G75*
G02*
X287361497Y-18395000I0J-70000D01*
G01*
X287361497Y-18955000D01*
G75*
G02*
X287291497Y-19025000I-70000J0D01*
G01*
G37*
G36*
G01*
X287291497Y-20625000D02*
X286511497Y-20625000D01*
G75*
G02*
X286441497Y-20555000I0J70000D01*
G01*
X286441497Y-19995000D01*
G75*
G02*
X286511497Y-19925000I70000J0D01*
G01*
X287291497Y-19925000D01*
G75*
G02*
X287361497Y-19995000I0J-70000D01*
G01*
X287361497Y-20555000D01*
G75*
G02*
X287291497Y-20625000I-70000J0D01*
G01*
G37*
G04 #@! TD*
G04 #@! TO.C,R8*
G36*
G01*
X295087681Y-19025000D02*
X294307681Y-19025000D01*
G75*
G02*
X294237681Y-18955000I0J70000D01*
G01*
X294237681Y-18395000D01*
G75*
G02*
X294307681Y-18325000I70000J0D01*
G01*
X295087681Y-18325000D01*
G75*
G02*
X295157681Y-18395000I0J-70000D01*
G01*
X295157681Y-18955000D01*
G75*
G02*
X295087681Y-19025000I-70000J0D01*
G01*
G37*
G36*
G01*
X295087681Y-20625000D02*
X294307681Y-20625000D01*
G75*
G02*
X294237681Y-20555000I0J70000D01*
G01*
X294237681Y-19995000D01*
G75*
G02*
X294307681Y-19925000I70000J0D01*
G01*
X295087681Y-19925000D01*
G75*
G02*
X295157681Y-19995000I0J-70000D01*
G01*
X295157681Y-20555000D01*
G75*
G02*
X295087681Y-20625000I-70000J0D01*
G01*
G37*
G04 #@! TD*
G04 #@! TO.C,F8*
G36*
G01*
X292458750Y-84400000D02*
X292971250Y-84400000D01*
G75*
G02*
X293190000Y-84618750I0J-218750D01*
G01*
X293190000Y-85056250D01*
G75*
G02*
X292971250Y-85275000I-218750J0D01*
G01*
X292458750Y-85275000D01*
G75*
G02*
X292240000Y-85056250I0J218750D01*
G01*
X292240000Y-84618750D01*
G75*
G02*
X292458750Y-84400000I218750J0D01*
G01*
G37*
G36*
G01*
X292458750Y-82825000D02*
X292971250Y-82825000D01*
G75*
G02*
X293190000Y-83043750I0J-218750D01*
G01*
X293190000Y-83481250D01*
G75*
G02*
X292971250Y-83700000I-218750J0D01*
G01*
X292458750Y-83700000D01*
G75*
G02*
X292240000Y-83481250I0J218750D01*
G01*
X292240000Y-83043750D01*
G75*
G02*
X292458750Y-82825000I218750J0D01*
G01*
G37*
G04 #@! TD*
G04 #@! TO.C,R23*
G36*
G01*
X289240543Y-25625000D02*
X288460543Y-25625000D01*
G75*
G02*
X288390543Y-25555000I0J70000D01*
G01*
X288390543Y-24995000D01*
G75*
G02*
X288460543Y-24925000I70000J0D01*
G01*
X289240543Y-24925000D01*
G75*
G02*
X289310543Y-24995000I0J-70000D01*
G01*
X289310543Y-25555000D01*
G75*
G02*
X289240543Y-25625000I-70000J0D01*
G01*
G37*
G36*
G01*
X289240543Y-27225000D02*
X288460543Y-27225000D01*
G75*
G02*
X288390543Y-27155000I0J70000D01*
G01*
X288390543Y-26595000D01*
G75*
G02*
X288460543Y-26525000I70000J0D01*
G01*
X289240543Y-26525000D01*
G75*
G02*
X289310543Y-26595000I0J-70000D01*
G01*
X289310543Y-27155000D01*
G75*
G02*
X289240543Y-27225000I-70000J0D01*
G01*
G37*
G04 #@! TD*
G04 #@! TO.C,R24*
G36*
G01*
X291189589Y-25625000D02*
X290409589Y-25625000D01*
G75*
G02*
X290339589Y-25555000I0J70000D01*
G01*
X290339589Y-24995000D01*
G75*
G02*
X290409589Y-24925000I70000J0D01*
G01*
X291189589Y-24925000D01*
G75*
G02*
X291259589Y-24995000I0J-70000D01*
G01*
X291259589Y-25555000D01*
G75*
G02*
X291189589Y-25625000I-70000J0D01*
G01*
G37*
G36*
G01*
X291189589Y-27225000D02*
X290409589Y-27225000D01*
G75*
G02*
X290339589Y-27155000I0J70000D01*
G01*
X290339589Y-26595000D01*
G75*
G02*
X290409589Y-26525000I70000J0D01*
G01*
X291189589Y-26525000D01*
G75*
G02*
X291259589Y-26595000I0J-70000D01*
G01*
X291259589Y-27155000D01*
G75*
G02*
X291189589Y-27225000I-70000J0D01*
G01*
G37*
G04 #@! TD*
G04 #@! TO.C,C32*
G36*
G01*
X300869879Y-87405000D02*
X300189879Y-87405000D01*
G75*
G02*
X300104879Y-87320000I0J85000D01*
G01*
X300104879Y-86640000D01*
G75*
G02*
X300189879Y-86555000I85000J0D01*
G01*
X300869879Y-86555000D01*
G75*
G02*
X300954879Y-86640000I0J-85000D01*
G01*
X300954879Y-87320000D01*
G75*
G02*
X300869879Y-87405000I-85000J0D01*
G01*
G37*
G36*
G01*
X300869879Y-88985002D02*
X300189879Y-88985002D01*
G75*
G02*
X300104879Y-88900002I0J85000D01*
G01*
X300104879Y-88220002D01*
G75*
G02*
X300189879Y-88135002I85000J0D01*
G01*
X300869879Y-88135002D01*
G75*
G02*
X300954879Y-88220002I0J-85000D01*
G01*
X300954879Y-88900002D01*
G75*
G02*
X300869879Y-88985002I-85000J0D01*
G01*
G37*
G04 #@! TD*
G04 #@! TO.C,R7*
G36*
G01*
X293138635Y-19025000D02*
X292358635Y-19025000D01*
G75*
G02*
X292288635Y-18955000I0J70000D01*
G01*
X292288635Y-18395000D01*
G75*
G02*
X292358635Y-18325000I70000J0D01*
G01*
X293138635Y-18325000D01*
G75*
G02*
X293208635Y-18395000I0J-70000D01*
G01*
X293208635Y-18955000D01*
G75*
G02*
X293138635Y-19025000I-70000J0D01*
G01*
G37*
G36*
G01*
X293138635Y-20625000D02*
X292358635Y-20625000D01*
G75*
G02*
X292288635Y-20555000I0J70000D01*
G01*
X292288635Y-19995000D01*
G75*
G02*
X292358635Y-19925000I70000J0D01*
G01*
X293138635Y-19925000D01*
G75*
G02*
X293208635Y-19995000I0J-70000D01*
G01*
X293208635Y-20555000D01*
G75*
G02*
X293138635Y-20625000I-70000J0D01*
G01*
G37*
G04 #@! TD*
G04 #@! TO.C,R16*
G36*
G01*
X295087681Y-22325000D02*
X294307681Y-22325000D01*
G75*
G02*
X294237681Y-22255000I0J70000D01*
G01*
X294237681Y-21695000D01*
G75*
G02*
X294307681Y-21625000I70000J0D01*
G01*
X295087681Y-21625000D01*
G75*
G02*
X295157681Y-21695000I0J-70000D01*
G01*
X295157681Y-22255000D01*
G75*
G02*
X295087681Y-22325000I-70000J0D01*
G01*
G37*
G36*
G01*
X295087681Y-23925000D02*
X294307681Y-23925000D01*
G75*
G02*
X294237681Y-23855000I0J70000D01*
G01*
X294237681Y-23295000D01*
G75*
G02*
X294307681Y-23225000I70000J0D01*
G01*
X295087681Y-23225000D01*
G75*
G02*
X295157681Y-23295000I0J-70000D01*
G01*
X295157681Y-23855000D01*
G75*
G02*
X295087681Y-23925000I-70000J0D01*
G01*
G37*
G04 #@! TD*
G04 #@! TO.C,U9*
G36*
G01*
X298050000Y-15100000D02*
X298350000Y-15100000D01*
G75*
G02*
X298500000Y-15250000I0J-150000D01*
G01*
X298500000Y-16900000D01*
G75*
G02*
X298350000Y-17050000I-150000J0D01*
G01*
X298050000Y-17050000D01*
G75*
G02*
X297900000Y-16900000I0J150000D01*
G01*
X297900000Y-15250000D01*
G75*
G02*
X298050000Y-15100000I150000J0D01*
G01*
G37*
G36*
G01*
X299320000Y-15100000D02*
X299620000Y-15100000D01*
G75*
G02*
X299770000Y-15250000I0J-150000D01*
G01*
X299770000Y-16900000D01*
G75*
G02*
X299620000Y-17050000I-150000J0D01*
G01*
X299320000Y-17050000D01*
G75*
G02*
X299170000Y-16900000I0J150000D01*
G01*
X299170000Y-15250000D01*
G75*
G02*
X299320000Y-15100000I150000J0D01*
G01*
G37*
G36*
G01*
X300590000Y-15100000D02*
X300890000Y-15100000D01*
G75*
G02*
X301040000Y-15250000I0J-150000D01*
G01*
X301040000Y-16900000D01*
G75*
G02*
X300890000Y-17050000I-150000J0D01*
G01*
X300590000Y-17050000D01*
G75*
G02*
X300440000Y-16900000I0J150000D01*
G01*
X300440000Y-15250000D01*
G75*
G02*
X300590000Y-15100000I150000J0D01*
G01*
G37*
G36*
G01*
X301860000Y-15100000D02*
X302160000Y-15100000D01*
G75*
G02*
X302310000Y-15250000I0J-150000D01*
G01*
X302310000Y-16900000D01*
G75*
G02*
X302160000Y-17050000I-150000J0D01*
G01*
X301860000Y-17050000D01*
G75*
G02*
X301710000Y-16900000I0J150000D01*
G01*
X301710000Y-15250000D01*
G75*
G02*
X301860000Y-15100000I150000J0D01*
G01*
G37*
G36*
G01*
X301860000Y-10150000D02*
X302160000Y-10150000D01*
G75*
G02*
X302310000Y-10300000I0J-150000D01*
G01*
X302310000Y-11950000D01*
G75*
G02*
X302160000Y-12100000I-150000J0D01*
G01*
X301860000Y-12100000D01*
G75*
G02*
X301710000Y-11950000I0J150000D01*
G01*
X301710000Y-10300000D01*
G75*
G02*
X301860000Y-10150000I150000J0D01*
G01*
G37*
G36*
G01*
X300590000Y-10150000D02*
X300890000Y-10150000D01*
G75*
G02*
X301040000Y-10300000I0J-150000D01*
G01*
X301040000Y-11950000D01*
G75*
G02*
X300890000Y-12100000I-150000J0D01*
G01*
X300590000Y-12100000D01*
G75*
G02*
X300440000Y-11950000I0J150000D01*
G01*
X300440000Y-10300000D01*
G75*
G02*
X300590000Y-10150000I150000J0D01*
G01*
G37*
G36*
G01*
X299320000Y-10150000D02*
X299620000Y-10150000D01*
G75*
G02*
X299770000Y-10300000I0J-150000D01*
G01*
X299770000Y-11950000D01*
G75*
G02*
X299620000Y-12100000I-150000J0D01*
G01*
X299320000Y-12100000D01*
G75*
G02*
X299170000Y-11950000I0J150000D01*
G01*
X299170000Y-10300000D01*
G75*
G02*
X299320000Y-10150000I150000J0D01*
G01*
G37*
G36*
G01*
X298050000Y-10150000D02*
X298350000Y-10150000D01*
G75*
G02*
X298500000Y-10300000I0J-150000D01*
G01*
X298500000Y-11950000D01*
G75*
G02*
X298350000Y-12100000I-150000J0D01*
G01*
X298050000Y-12100000D01*
G75*
G02*
X297900000Y-11950000I0J150000D01*
G01*
X297900000Y-10300000D01*
G75*
G02*
X298050000Y-10150000I150000J0D01*
G01*
G37*
G04 #@! TD*
G04 #@! TO.C,L2*
G36*
G01*
X302498750Y-84400000D02*
X303011250Y-84400000D01*
G75*
G02*
X303230000Y-84618750I0J-218750D01*
G01*
X303230000Y-85056250D01*
G75*
G02*
X303011250Y-85275000I-218750J0D01*
G01*
X302498750Y-85275000D01*
G75*
G02*
X302280000Y-85056250I0J218750D01*
G01*
X302280000Y-84618750D01*
G75*
G02*
X302498750Y-84400000I218750J0D01*
G01*
G37*
G36*
G01*
X302498750Y-82825000D02*
X303011250Y-82825000D01*
G75*
G02*
X303230000Y-83043750I0J-218750D01*
G01*
X303230000Y-83481250D01*
G75*
G02*
X303011250Y-83700000I-218750J0D01*
G01*
X302498750Y-83700000D01*
G75*
G02*
X302280000Y-83481250I0J218750D01*
G01*
X302280000Y-83043750D01*
G75*
G02*
X302498750Y-82825000I218750J0D01*
G01*
G37*
G04 #@! TD*
G04 #@! TO.C,F7*
G36*
G01*
X289948750Y-84400000D02*
X290461250Y-84400000D01*
G75*
G02*
X290680000Y-84618750I0J-218750D01*
G01*
X290680000Y-85056250D01*
G75*
G02*
X290461250Y-85275000I-218750J0D01*
G01*
X289948750Y-85275000D01*
G75*
G02*
X289730000Y-85056250I0J218750D01*
G01*
X289730000Y-84618750D01*
G75*
G02*
X289948750Y-84400000I218750J0D01*
G01*
G37*
G36*
G01*
X289948750Y-82825000D02*
X290461250Y-82825000D01*
G75*
G02*
X290680000Y-83043750I0J-218750D01*
G01*
X290680000Y-83481250D01*
G75*
G02*
X290461250Y-83700000I-218750J0D01*
G01*
X289948750Y-83700000D01*
G75*
G02*
X289730000Y-83481250I0J218750D01*
G01*
X289730000Y-83043750D01*
G75*
G02*
X289948750Y-82825000I218750J0D01*
G01*
G37*
G04 #@! TD*
G04 #@! TO.C,C22*
G36*
G01*
X317040000Y-6825000D02*
X315990000Y-6825000D01*
G75*
G02*
X315890000Y-6725000I0J100000D01*
G01*
X315890000Y-5925000D01*
G75*
G02*
X315990000Y-5825000I100000J0D01*
G01*
X317040000Y-5825000D01*
G75*
G02*
X317140000Y-5925000I0J-100000D01*
G01*
X317140000Y-6725000D01*
G75*
G02*
X317040000Y-6825000I-100000J0D01*
G01*
G37*
G36*
G01*
X317040000Y-8825000D02*
X315990000Y-8825000D01*
G75*
G02*
X315890000Y-8725000I0J100000D01*
G01*
X315890000Y-7925000D01*
G75*
G02*
X315990000Y-7825000I100000J0D01*
G01*
X317040000Y-7825000D01*
G75*
G02*
X317140000Y-7925000I0J-100000D01*
G01*
X317140000Y-8725000D01*
G75*
G02*
X317040000Y-8825000I-100000J0D01*
G01*
G37*
G04 #@! TD*
G04 #@! TO.C,R15*
G36*
G01*
X293138635Y-22325000D02*
X292358635Y-22325000D01*
G75*
G02*
X292288635Y-22255000I0J70000D01*
G01*
X292288635Y-21695000D01*
G75*
G02*
X292358635Y-21625000I70000J0D01*
G01*
X293138635Y-21625000D01*
G75*
G02*
X293208635Y-21695000I0J-70000D01*
G01*
X293208635Y-22255000D01*
G75*
G02*
X293138635Y-22325000I-70000J0D01*
G01*
G37*
G36*
G01*
X293138635Y-23925000D02*
X292358635Y-23925000D01*
G75*
G02*
X292288635Y-23855000I0J70000D01*
G01*
X292288635Y-23295000D01*
G75*
G02*
X292358635Y-23225000I70000J0D01*
G01*
X293138635Y-23225000D01*
G75*
G02*
X293208635Y-23295000I0J-70000D01*
G01*
X293208635Y-23855000D01*
G75*
G02*
X293138635Y-23925000I-70000J0D01*
G01*
G37*
G04 #@! TD*
G04 #@! TO.C,C9*
G36*
G01*
X317040000Y1175000D02*
X315990000Y1175000D01*
G75*
G02*
X315890000Y1275000I0J100000D01*
G01*
X315890000Y2075000D01*
G75*
G02*
X315990000Y2175000I100000J0D01*
G01*
X317040000Y2175000D01*
G75*
G02*
X317140000Y2075000I0J-100000D01*
G01*
X317140000Y1275000D01*
G75*
G02*
X317040000Y1175000I-100000J0D01*
G01*
G37*
G36*
G01*
X317040000Y-825000D02*
X315990000Y-825000D01*
G75*
G02*
X315890000Y-725000I0J100000D01*
G01*
X315890000Y75000D01*
G75*
G02*
X315990000Y175000I100000J0D01*
G01*
X317040000Y175000D01*
G75*
G02*
X317140000Y75000I0J-100000D01*
G01*
X317140000Y-725000D01*
G75*
G02*
X317040000Y-825000I-100000J0D01*
G01*
G37*
G04 #@! TD*
G04 #@! TO.C,C8*
G36*
G01*
X314790000Y1175000D02*
X313740000Y1175000D01*
G75*
G02*
X313640000Y1275000I0J100000D01*
G01*
X313640000Y2075000D01*
G75*
G02*
X313740000Y2175000I100000J0D01*
G01*
X314790000Y2175000D01*
G75*
G02*
X314890000Y2075000I0J-100000D01*
G01*
X314890000Y1275000D01*
G75*
G02*
X314790000Y1175000I-100000J0D01*
G01*
G37*
G36*
G01*
X314790000Y-825000D02*
X313740000Y-825000D01*
G75*
G02*
X313640000Y-725000I0J100000D01*
G01*
X313640000Y75000D01*
G75*
G02*
X313740000Y175000I100000J0D01*
G01*
X314790000Y175000D01*
G75*
G02*
X314890000Y75000I0J-100000D01*
G01*
X314890000Y-725000D01*
G75*
G02*
X314790000Y-825000I-100000J0D01*
G01*
G37*
G04 #@! TD*
G04 #@! TO.C,L1*
G36*
G01*
X299988750Y-84400000D02*
X300501250Y-84400000D01*
G75*
G02*
X300720000Y-84618750I0J-218750D01*
G01*
X300720000Y-85056250D01*
G75*
G02*
X300501250Y-85275000I-218750J0D01*
G01*
X299988750Y-85275000D01*
G75*
G02*
X299770000Y-85056250I0J218750D01*
G01*
X299770000Y-84618750D01*
G75*
G02*
X299988750Y-84400000I218750J0D01*
G01*
G37*
G36*
G01*
X299988750Y-82825000D02*
X300501250Y-82825000D01*
G75*
G02*
X300720000Y-83043750I0J-218750D01*
G01*
X300720000Y-83481250D01*
G75*
G02*
X300501250Y-83700000I-218750J0D01*
G01*
X299988750Y-83700000D01*
G75*
G02*
X299770000Y-83481250I0J218750D01*
G01*
X299770000Y-83043750D01*
G75*
G02*
X299988750Y-82825000I218750J0D01*
G01*
G37*
G04 #@! TD*
G04 #@! TO.C,F5*
G36*
G01*
X284928750Y-84400000D02*
X285441250Y-84400000D01*
G75*
G02*
X285660000Y-84618750I0J-218750D01*
G01*
X285660000Y-85056250D01*
G75*
G02*
X285441250Y-85275000I-218750J0D01*
G01*
X284928750Y-85275000D01*
G75*
G02*
X284710000Y-85056250I0J218750D01*
G01*
X284710000Y-84618750D01*
G75*
G02*
X284928750Y-84400000I218750J0D01*
G01*
G37*
G36*
G01*
X284928750Y-82825000D02*
X285441250Y-82825000D01*
G75*
G02*
X285660000Y-83043750I0J-218750D01*
G01*
X285660000Y-83481250D01*
G75*
G02*
X285441250Y-83700000I-218750J0D01*
G01*
X284928750Y-83700000D01*
G75*
G02*
X284710000Y-83481250I0J218750D01*
G01*
X284710000Y-83043750D01*
G75*
G02*
X284928750Y-82825000I218750J0D01*
G01*
G37*
G04 #@! TD*
G04 #@! TO.C,R32*
G36*
G01*
X286515641Y-29825000D02*
X287295641Y-29825000D01*
G75*
G02*
X287365641Y-29895000I0J-70000D01*
G01*
X287365641Y-30455000D01*
G75*
G02*
X287295641Y-30525000I-70000J0D01*
G01*
X286515641Y-30525000D01*
G75*
G02*
X286445641Y-30455000I0J70000D01*
G01*
X286445641Y-29895000D01*
G75*
G02*
X286515641Y-29825000I70000J0D01*
G01*
G37*
G36*
G01*
X286515641Y-28225000D02*
X287295641Y-28225000D01*
G75*
G02*
X287365641Y-28295000I0J-70000D01*
G01*
X287365641Y-28855000D01*
G75*
G02*
X287295641Y-28925000I-70000J0D01*
G01*
X286515641Y-28925000D01*
G75*
G02*
X286445641Y-28855000I0J70000D01*
G01*
X286445641Y-28295000D01*
G75*
G02*
X286515641Y-28225000I70000J0D01*
G01*
G37*
G04 #@! TD*
G04 #@! TO.C,C28*
G36*
G01*
X286840002Y-2174999D02*
X286840002Y-1494999D01*
G75*
G02*
X286925002Y-1409999I85000J0D01*
G01*
X287605002Y-1409999D01*
G75*
G02*
X287690002Y-1494999I0J-85000D01*
G01*
X287690002Y-2174999D01*
G75*
G02*
X287605002Y-2259999I-85000J0D01*
G01*
X286925002Y-2259999D01*
G75*
G02*
X286840002Y-2174999I0J85000D01*
G01*
G37*
G36*
G01*
X285260000Y-2174999D02*
X285260000Y-1494999D01*
G75*
G02*
X285345000Y-1409999I85000J0D01*
G01*
X286025000Y-1409999D01*
G75*
G02*
X286110000Y-1494999I0J-85000D01*
G01*
X286110000Y-2174999D01*
G75*
G02*
X286025000Y-2259999I-85000J0D01*
G01*
X285345000Y-2259999D01*
G75*
G02*
X285260000Y-2174999I0J85000D01*
G01*
G37*
G04 #@! TD*
G04 #@! TO.C,C15*
G36*
G01*
X311490000Y-3825000D02*
X312540000Y-3825000D01*
G75*
G02*
X312640000Y-3925000I0J-100000D01*
G01*
X312640000Y-4725000D01*
G75*
G02*
X312540000Y-4825000I-100000J0D01*
G01*
X311490000Y-4825000D01*
G75*
G02*
X311390000Y-4725000I0J100000D01*
G01*
X311390000Y-3925000D01*
G75*
G02*
X311490000Y-3825000I100000J0D01*
G01*
G37*
G36*
G01*
X311490000Y-1825000D02*
X312540000Y-1825000D01*
G75*
G02*
X312640000Y-1925000I0J-100000D01*
G01*
X312640000Y-2725000D01*
G75*
G02*
X312540000Y-2825000I-100000J0D01*
G01*
X311490000Y-2825000D01*
G75*
G02*
X311390000Y-2725000I0J100000D01*
G01*
X311390000Y-1925000D01*
G75*
G02*
X311490000Y-1825000I100000J0D01*
G01*
G37*
G04 #@! TD*
G04 #@! TO.C,R29*
G36*
G01*
X295087681Y-25625000D02*
X294307681Y-25625000D01*
G75*
G02*
X294237681Y-25555000I0J70000D01*
G01*
X294237681Y-24995000D01*
G75*
G02*
X294307681Y-24925000I70000J0D01*
G01*
X295087681Y-24925000D01*
G75*
G02*
X295157681Y-24995000I0J-70000D01*
G01*
X295157681Y-25555000D01*
G75*
G02*
X295087681Y-25625000I-70000J0D01*
G01*
G37*
G36*
G01*
X295087681Y-27225000D02*
X294307681Y-27225000D01*
G75*
G02*
X294237681Y-27155000I0J70000D01*
G01*
X294237681Y-26595000D01*
G75*
G02*
X294307681Y-26525000I70000J0D01*
G01*
X295087681Y-26525000D01*
G75*
G02*
X295157681Y-26595000I0J-70000D01*
G01*
X295157681Y-27155000D01*
G75*
G02*
X295087681Y-27225000I-70000J0D01*
G01*
G37*
G04 #@! TD*
G04 #@! TO.C,C2*
G36*
G01*
X311490000Y4175000D02*
X312540000Y4175000D01*
G75*
G02*
X312640000Y4075000I0J-100000D01*
G01*
X312640000Y3275000D01*
G75*
G02*
X312540000Y3175000I-100000J0D01*
G01*
X311490000Y3175000D01*
G75*
G02*
X311390000Y3275000I0J100000D01*
G01*
X311390000Y4075000D01*
G75*
G02*
X311490000Y4175000I100000J0D01*
G01*
G37*
G36*
G01*
X311490000Y6175000D02*
X312540000Y6175000D01*
G75*
G02*
X312640000Y6075000I0J-100000D01*
G01*
X312640000Y5275000D01*
G75*
G02*
X312540000Y5175000I-100000J0D01*
G01*
X311490000Y5175000D01*
G75*
G02*
X311390000Y5275000I0J100000D01*
G01*
X311390000Y6075000D01*
G75*
G02*
X311490000Y6175000I100000J0D01*
G01*
G37*
G04 #@! TD*
G04 #@! TO.C,U6*
G36*
G01*
X291600000Y-15100000D02*
X291900000Y-15100000D01*
G75*
G02*
X292050000Y-15250000I0J-150000D01*
G01*
X292050000Y-16900000D01*
G75*
G02*
X291900000Y-17050000I-150000J0D01*
G01*
X291600000Y-17050000D01*
G75*
G02*
X291450000Y-16900000I0J150000D01*
G01*
X291450000Y-15250000D01*
G75*
G02*
X291600000Y-15100000I150000J0D01*
G01*
G37*
G36*
G01*
X292870000Y-15100000D02*
X293170000Y-15100000D01*
G75*
G02*
X293320000Y-15250000I0J-150000D01*
G01*
X293320000Y-16900000D01*
G75*
G02*
X293170000Y-17050000I-150000J0D01*
G01*
X292870000Y-17050000D01*
G75*
G02*
X292720000Y-16900000I0J150000D01*
G01*
X292720000Y-15250000D01*
G75*
G02*
X292870000Y-15100000I150000J0D01*
G01*
G37*
G36*
G01*
X294140000Y-15100000D02*
X294440000Y-15100000D01*
G75*
G02*
X294590000Y-15250000I0J-150000D01*
G01*
X294590000Y-16900000D01*
G75*
G02*
X294440000Y-17050000I-150000J0D01*
G01*
X294140000Y-17050000D01*
G75*
G02*
X293990000Y-16900000I0J150000D01*
G01*
X293990000Y-15250000D01*
G75*
G02*
X294140000Y-15100000I150000J0D01*
G01*
G37*
G36*
G01*
X295410000Y-15100000D02*
X295710000Y-15100000D01*
G75*
G02*
X295860000Y-15250000I0J-150000D01*
G01*
X295860000Y-16900000D01*
G75*
G02*
X295710000Y-17050000I-150000J0D01*
G01*
X295410000Y-17050000D01*
G75*
G02*
X295260000Y-16900000I0J150000D01*
G01*
X295260000Y-15250000D01*
G75*
G02*
X295410000Y-15100000I150000J0D01*
G01*
G37*
G36*
G01*
X295410000Y-10150000D02*
X295710000Y-10150000D01*
G75*
G02*
X295860000Y-10300000I0J-150000D01*
G01*
X295860000Y-11950000D01*
G75*
G02*
X295710000Y-12100000I-150000J0D01*
G01*
X295410000Y-12100000D01*
G75*
G02*
X295260000Y-11950000I0J150000D01*
G01*
X295260000Y-10300000D01*
G75*
G02*
X295410000Y-10150000I150000J0D01*
G01*
G37*
G36*
G01*
X294140000Y-10150000D02*
X294440000Y-10150000D01*
G75*
G02*
X294590000Y-10300000I0J-150000D01*
G01*
X294590000Y-11950000D01*
G75*
G02*
X294440000Y-12100000I-150000J0D01*
G01*
X294140000Y-12100000D01*
G75*
G02*
X293990000Y-11950000I0J150000D01*
G01*
X293990000Y-10300000D01*
G75*
G02*
X294140000Y-10150000I150000J0D01*
G01*
G37*
G36*
G01*
X292870000Y-10150000D02*
X293170000Y-10150000D01*
G75*
G02*
X293320000Y-10300000I0J-150000D01*
G01*
X293320000Y-11950000D01*
G75*
G02*
X293170000Y-12100000I-150000J0D01*
G01*
X292870000Y-12100000D01*
G75*
G02*
X292720000Y-11950000I0J150000D01*
G01*
X292720000Y-10300000D01*
G75*
G02*
X292870000Y-10150000I150000J0D01*
G01*
G37*
G36*
G01*
X291600000Y-10150000D02*
X291900000Y-10150000D01*
G75*
G02*
X292050000Y-10300000I0J-150000D01*
G01*
X292050000Y-11950000D01*
G75*
G02*
X291900000Y-12100000I-150000J0D01*
G01*
X291600000Y-12100000D01*
G75*
G02*
X291450000Y-11950000I0J150000D01*
G01*
X291450000Y-10300000D01*
G75*
G02*
X291600000Y-10150000I150000J0D01*
G01*
G37*
G04 #@! TD*
G04 #@! TO.C,R28*
G36*
G01*
X236975000Y-83145000D02*
X236975000Y-85995000D01*
G75*
G02*
X236725000Y-86245000I-250000J0D01*
G01*
X236000000Y-86245000D01*
G75*
G02*
X235750000Y-85995000I0J250000D01*
G01*
X235750000Y-83145000D01*
G75*
G02*
X236000000Y-82895000I250000J0D01*
G01*
X236725000Y-82895000D01*
G75*
G02*
X236975000Y-83145000I0J-250000D01*
G01*
G37*
G36*
G01*
X242900000Y-83145000D02*
X242900000Y-85995000D01*
G75*
G02*
X242650000Y-86245000I-250000J0D01*
G01*
X241925000Y-86245000D01*
G75*
G02*
X241675000Y-85995000I0J250000D01*
G01*
X241675000Y-83145000D01*
G75*
G02*
X241925000Y-82895000I250000J0D01*
G01*
X242650000Y-82895000D01*
G75*
G02*
X242900000Y-83145000I0J-250000D01*
G01*
G37*
G04 #@! TD*
G04 #@! TO.C,C5*
G36*
G01*
X318240000Y4175000D02*
X319290000Y4175000D01*
G75*
G02*
X319390000Y4075000I0J-100000D01*
G01*
X319390000Y3275000D01*
G75*
G02*
X319290000Y3175000I-100000J0D01*
G01*
X318240000Y3175000D01*
G75*
G02*
X318140000Y3275000I0J100000D01*
G01*
X318140000Y4075000D01*
G75*
G02*
X318240000Y4175000I100000J0D01*
G01*
G37*
G36*
G01*
X318240000Y6175000D02*
X319290000Y6175000D01*
G75*
G02*
X319390000Y6075000I0J-100000D01*
G01*
X319390000Y5275000D01*
G75*
G02*
X319290000Y5175000I-100000J0D01*
G01*
X318240000Y5175000D01*
G75*
G02*
X318140000Y5275000I0J100000D01*
G01*
X318140000Y6075000D01*
G75*
G02*
X318240000Y6175000I100000J0D01*
G01*
G37*
G04 #@! TD*
G04 #@! TO.C,R18*
G36*
G01*
X285342451Y-25625000D02*
X284562451Y-25625000D01*
G75*
G02*
X284492451Y-25555000I0J70000D01*
G01*
X284492451Y-24995000D01*
G75*
G02*
X284562451Y-24925000I70000J0D01*
G01*
X285342451Y-24925000D01*
G75*
G02*
X285412451Y-24995000I0J-70000D01*
G01*
X285412451Y-25555000D01*
G75*
G02*
X285342451Y-25625000I-70000J0D01*
G01*
G37*
G36*
G01*
X285342451Y-27225000D02*
X284562451Y-27225000D01*
G75*
G02*
X284492451Y-27155000I0J70000D01*
G01*
X284492451Y-26595000D01*
G75*
G02*
X284562451Y-26525000I70000J0D01*
G01*
X285342451Y-26525000D01*
G75*
G02*
X285412451Y-26595000I0J-70000D01*
G01*
X285412451Y-27155000D01*
G75*
G02*
X285342451Y-27225000I-70000J0D01*
G01*
G37*
G04 #@! TD*
G04 #@! TO.C,C6*
G36*
G01*
X310290000Y1175000D02*
X309240000Y1175000D01*
G75*
G02*
X309140000Y1275000I0J100000D01*
G01*
X309140000Y2075000D01*
G75*
G02*
X309240000Y2175000I100000J0D01*
G01*
X310290000Y2175000D01*
G75*
G02*
X310390000Y2075000I0J-100000D01*
G01*
X310390000Y1275000D01*
G75*
G02*
X310290000Y1175000I-100000J0D01*
G01*
G37*
G36*
G01*
X310290000Y-825000D02*
X309240000Y-825000D01*
G75*
G02*
X309140000Y-725000I0J100000D01*
G01*
X309140000Y75000D01*
G75*
G02*
X309240000Y175000I100000J0D01*
G01*
X310290000Y175000D01*
G75*
G02*
X310390000Y75000I0J-100000D01*
G01*
X310390000Y-725000D01*
G75*
G02*
X310290000Y-825000I-100000J0D01*
G01*
G37*
G04 #@! TD*
G04 #@! TO.C,U8*
G36*
G01*
X261345000Y-3045000D02*
X261345000Y-3345000D01*
G75*
G02*
X261195000Y-3495000I-150000J0D01*
G01*
X259545000Y-3495000D01*
G75*
G02*
X259395000Y-3345000I0J150000D01*
G01*
X259395000Y-3045000D01*
G75*
G02*
X259545000Y-2895000I150000J0D01*
G01*
X261195000Y-2895000D01*
G75*
G02*
X261345000Y-3045000I0J-150000D01*
G01*
G37*
G36*
G01*
X261345000Y-4315000D02*
X261345000Y-4615000D01*
G75*
G02*
X261195000Y-4765000I-150000J0D01*
G01*
X259545000Y-4765000D01*
G75*
G02*
X259395000Y-4615000I0J150000D01*
G01*
X259395000Y-4315000D01*
G75*
G02*
X259545000Y-4165000I150000J0D01*
G01*
X261195000Y-4165000D01*
G75*
G02*
X261345000Y-4315000I0J-150000D01*
G01*
G37*
G36*
G01*
X261345000Y-5585000D02*
X261345000Y-5885000D01*
G75*
G02*
X261195000Y-6035000I-150000J0D01*
G01*
X259545000Y-6035000D01*
G75*
G02*
X259395000Y-5885000I0J150000D01*
G01*
X259395000Y-5585000D01*
G75*
G02*
X259545000Y-5435000I150000J0D01*
G01*
X261195000Y-5435000D01*
G75*
G02*
X261345000Y-5585000I0J-150000D01*
G01*
G37*
G36*
G01*
X261345000Y-6855000D02*
X261345000Y-7155000D01*
G75*
G02*
X261195000Y-7305000I-150000J0D01*
G01*
X259545000Y-7305000D01*
G75*
G02*
X259395000Y-7155000I0J150000D01*
G01*
X259395000Y-6855000D01*
G75*
G02*
X259545000Y-6705000I150000J0D01*
G01*
X261195000Y-6705000D01*
G75*
G02*
X261345000Y-6855000I0J-150000D01*
G01*
G37*
G36*
G01*
X266295000Y-6855000D02*
X266295000Y-7155000D01*
G75*
G02*
X266145000Y-7305000I-150000J0D01*
G01*
X264495000Y-7305000D01*
G75*
G02*
X264345000Y-7155000I0J150000D01*
G01*
X264345000Y-6855000D01*
G75*
G02*
X264495000Y-6705000I150000J0D01*
G01*
X266145000Y-6705000D01*
G75*
G02*
X266295000Y-6855000I0J-150000D01*
G01*
G37*
G36*
G01*
X266295000Y-5585000D02*
X266295000Y-5885000D01*
G75*
G02*
X266145000Y-6035000I-150000J0D01*
G01*
X264495000Y-6035000D01*
G75*
G02*
X264345000Y-5885000I0J150000D01*
G01*
X264345000Y-5585000D01*
G75*
G02*
X264495000Y-5435000I150000J0D01*
G01*
X266145000Y-5435000D01*
G75*
G02*
X266295000Y-5585000I0J-150000D01*
G01*
G37*
G36*
G01*
X266295000Y-4315000D02*
X266295000Y-4615000D01*
G75*
G02*
X266145000Y-4765000I-150000J0D01*
G01*
X264495000Y-4765000D01*
G75*
G02*
X264345000Y-4615000I0J150000D01*
G01*
X264345000Y-4315000D01*
G75*
G02*
X264495000Y-4165000I150000J0D01*
G01*
X266145000Y-4165000D01*
G75*
G02*
X266295000Y-4315000I0J-150000D01*
G01*
G37*
G36*
G01*
X266295000Y-3045000D02*
X266295000Y-3345000D01*
G75*
G02*
X266145000Y-3495000I-150000J0D01*
G01*
X264495000Y-3495000D01*
G75*
G02*
X264345000Y-3345000I0J150000D01*
G01*
X264345000Y-3045000D01*
G75*
G02*
X264495000Y-2895000I150000J0D01*
G01*
X266145000Y-2895000D01*
G75*
G02*
X266295000Y-3045000I0J-150000D01*
G01*
G37*
G04 #@! TD*
G04 #@! TO.C,R12*
G36*
G01*
X287291497Y-22325000D02*
X286511497Y-22325000D01*
G75*
G02*
X286441497Y-22255000I0J70000D01*
G01*
X286441497Y-21695000D01*
G75*
G02*
X286511497Y-21625000I70000J0D01*
G01*
X287291497Y-21625000D01*
G75*
G02*
X287361497Y-21695000I0J-70000D01*
G01*
X287361497Y-22255000D01*
G75*
G02*
X287291497Y-22325000I-70000J0D01*
G01*
G37*
G36*
G01*
X287291497Y-23925000D02*
X286511497Y-23925000D01*
G75*
G02*
X286441497Y-23855000I0J70000D01*
G01*
X286441497Y-23295000D01*
G75*
G02*
X286511497Y-23225000I70000J0D01*
G01*
X287291497Y-23225000D01*
G75*
G02*
X287361497Y-23295000I0J-70000D01*
G01*
X287361497Y-23855000D01*
G75*
G02*
X287291497Y-23925000I-70000J0D01*
G01*
G37*
G04 #@! TD*
G04 #@! TO.C,R2*
G36*
G01*
X285342451Y-19025000D02*
X284562451Y-19025000D01*
G75*
G02*
X284492451Y-18955000I0J70000D01*
G01*
X284492451Y-18395000D01*
G75*
G02*
X284562451Y-18325000I70000J0D01*
G01*
X285342451Y-18325000D01*
G75*
G02*
X285412451Y-18395000I0J-70000D01*
G01*
X285412451Y-18955000D01*
G75*
G02*
X285342451Y-19025000I-70000J0D01*
G01*
G37*
G36*
G01*
X285342451Y-20625000D02*
X284562451Y-20625000D01*
G75*
G02*
X284492451Y-20555000I0J70000D01*
G01*
X284492451Y-19995000D01*
G75*
G02*
X284562451Y-19925000I70000J0D01*
G01*
X285342451Y-19925000D01*
G75*
G02*
X285412451Y-19995000I0J-70000D01*
G01*
X285412451Y-20555000D01*
G75*
G02*
X285342451Y-20625000I-70000J0D01*
G01*
G37*
G04 #@! TD*
G04 #@! TO.C,R5*
G36*
G01*
X288464687Y-19925000D02*
X289244687Y-19925000D01*
G75*
G02*
X289314687Y-19995000I0J-70000D01*
G01*
X289314687Y-20555000D01*
G75*
G02*
X289244687Y-20625000I-70000J0D01*
G01*
X288464687Y-20625000D01*
G75*
G02*
X288394687Y-20555000I0J70000D01*
G01*
X288394687Y-19995000D01*
G75*
G02*
X288464687Y-19925000I70000J0D01*
G01*
G37*
G36*
G01*
X288464687Y-18325000D02*
X289244687Y-18325000D01*
G75*
G02*
X289314687Y-18395000I0J-70000D01*
G01*
X289314687Y-18955000D01*
G75*
G02*
X289244687Y-19025000I-70000J0D01*
G01*
X288464687Y-19025000D01*
G75*
G02*
X288394687Y-18955000I0J70000D01*
G01*
X288394687Y-18395000D01*
G75*
G02*
X288464687Y-18325000I70000J0D01*
G01*
G37*
G04 #@! TD*
G04 #@! TO.C,C18*
G36*
G01*
X318240000Y-3825000D02*
X319290000Y-3825000D01*
G75*
G02*
X319390000Y-3925000I0J-100000D01*
G01*
X319390000Y-4725000D01*
G75*
G02*
X319290000Y-4825000I-100000J0D01*
G01*
X318240000Y-4825000D01*
G75*
G02*
X318140000Y-4725000I0J100000D01*
G01*
X318140000Y-3925000D01*
G75*
G02*
X318240000Y-3825000I100000J0D01*
G01*
G37*
G36*
G01*
X318240000Y-1825000D02*
X319290000Y-1825000D01*
G75*
G02*
X319390000Y-1925000I0J-100000D01*
G01*
X319390000Y-2725000D01*
G75*
G02*
X319290000Y-2825000I-100000J0D01*
G01*
X318240000Y-2825000D01*
G75*
G02*
X318140000Y-2725000I0J100000D01*
G01*
X318140000Y-1925000D01*
G75*
G02*
X318240000Y-1825000I100000J0D01*
G01*
G37*
G04 #@! TD*
G04 #@! TO.C,C20*
G36*
G01*
X312540000Y-6825000D02*
X311490000Y-6825000D01*
G75*
G02*
X311390000Y-6725000I0J100000D01*
G01*
X311390000Y-5925000D01*
G75*
G02*
X311490000Y-5825000I100000J0D01*
G01*
X312540000Y-5825000D01*
G75*
G02*
X312640000Y-5925000I0J-100000D01*
G01*
X312640000Y-6725000D01*
G75*
G02*
X312540000Y-6825000I-100000J0D01*
G01*
G37*
G36*
G01*
X312540000Y-8825000D02*
X311490000Y-8825000D01*
G75*
G02*
X311390000Y-8725000I0J100000D01*
G01*
X311390000Y-7925000D01*
G75*
G02*
X311490000Y-7825000I100000J0D01*
G01*
X312540000Y-7825000D01*
G75*
G02*
X312640000Y-7925000I0J-100000D01*
G01*
X312640000Y-8725000D01*
G75*
G02*
X312540000Y-8825000I-100000J0D01*
G01*
G37*
G04 #@! TD*
G04 #@! TO.C,R6*
G36*
G01*
X290413733Y-19925000D02*
X291193733Y-19925000D01*
G75*
G02*
X291263733Y-19995000I0J-70000D01*
G01*
X291263733Y-20555000D01*
G75*
G02*
X291193733Y-20625000I-70000J0D01*
G01*
X290413733Y-20625000D01*
G75*
G02*
X290343733Y-20555000I0J70000D01*
G01*
X290343733Y-19995000D01*
G75*
G02*
X290413733Y-19925000I70000J0D01*
G01*
G37*
G36*
G01*
X290413733Y-18325000D02*
X291193733Y-18325000D01*
G75*
G02*
X291263733Y-18395000I0J-70000D01*
G01*
X291263733Y-18955000D01*
G75*
G02*
X291193733Y-19025000I-70000J0D01*
G01*
X290413733Y-19025000D01*
G75*
G02*
X290343733Y-18955000I0J70000D01*
G01*
X290343733Y-18395000D01*
G75*
G02*
X290413733Y-18325000I70000J0D01*
G01*
G37*
G04 #@! TD*
D17*
G04 #@! TO.C,P3*
X299510000Y-27275000D03*
G04 #@! TD*
D15*
G04 #@! TO.C,J24*
X263755000Y-58990000D03*
X266295000Y-58990000D03*
X263755000Y-56450000D03*
D16*
X266295000Y-56450000D03*
G04 #@! TD*
D22*
G04 #@! TO.C,H3*
X313605000Y-81870000D03*
X312902056Y-83567056D03*
X312902056Y-80172944D03*
X311205000Y-84270000D03*
D23*
X311205000Y-81870000D03*
D22*
X311205000Y-79470000D03*
X309507944Y-83567056D03*
X309507944Y-80172944D03*
X308805000Y-81870000D03*
G04 #@! TD*
D15*
G04 #@! TO.C,J16*
X256605000Y-44690000D03*
X259145000Y-44690000D03*
X256605000Y-42150000D03*
D16*
X259145000Y-42150000D03*
G04 #@! TD*
D20*
G04 #@! TO.C,F1*
X276960000Y-7295000D03*
X276960000Y-2395000D03*
G04 #@! TD*
D24*
G04 #@! TO.C,J5*
X232105000Y-13100000D03*
X232105000Y-17300000D03*
X232105000Y-21500000D03*
X232105000Y-25700000D03*
X232105000Y-29900000D03*
X232105000Y-34100000D03*
X232105000Y-38300000D03*
X232105000Y-42500000D03*
X232105000Y-46700000D03*
X226605000Y-13100000D03*
X226605000Y-17300000D03*
X226605000Y-21500000D03*
X226605000Y-25700000D03*
X226605000Y-29900000D03*
X226605000Y-34100000D03*
X226605000Y-38300000D03*
X226605000Y-42500000D03*
G36*
G01*
X228204999Y-48050000D02*
X225005001Y-48050000D01*
G75*
G02*
X224755000Y-47799999I0J250001D01*
G01*
X224755000Y-45600001D01*
G75*
G02*
X225005001Y-45350000I250001J0D01*
G01*
X228204999Y-45350000D01*
G75*
G02*
X228455000Y-45600001I0J-250001D01*
G01*
X228455000Y-47799999D01*
G75*
G02*
X228204999Y-48050000I-250001J0D01*
G01*
G37*
D25*
X219305000Y-13100000D03*
X219305000Y-46700000D03*
G04 #@! TD*
D20*
G04 #@! TO.C,R4*
X318985391Y-54860391D03*
X318985391Y-51050391D03*
G04 #@! TD*
D24*
G04 #@! TO.C,J3*
X214555000Y-62550000D03*
X214555000Y-58350000D03*
X214555000Y-54150000D03*
X220055000Y-62550000D03*
X220055000Y-58350000D03*
G36*
G01*
X218455001Y-52800000D02*
X221654999Y-52800000D01*
G75*
G02*
X221905000Y-53050001I0J-250001D01*
G01*
X221905000Y-55249999D01*
G75*
G02*
X221654999Y-55500000I-250001J0D01*
G01*
X218455001Y-55500000D01*
G75*
G02*
X218205000Y-55249999I0J250001D01*
G01*
X218205000Y-53050001D01*
G75*
G02*
X218455001Y-52800000I250001J0D01*
G01*
G37*
D25*
X227355000Y-62550000D03*
X227355000Y-54150000D03*
G04 #@! TD*
D17*
G04 #@! TO.C,G3*
X298836000Y5099000D03*
X298836000Y2559000D03*
X298836000Y19000D03*
X298836000Y-2521000D03*
X298836000Y-5061000D03*
X296296000Y5099000D03*
X296296000Y2559000D03*
X296296000Y19000D03*
X296296000Y-2521000D03*
X296296000Y-5061000D03*
X293756000Y5099000D03*
X293756000Y2559000D03*
X293756000Y19000D03*
X293756000Y-2521000D03*
X293756000Y-5061000D03*
G04 #@! TD*
D15*
G04 #@! TO.C,J1*
X249455000Y-37540000D03*
X251995000Y-37540000D03*
X249455000Y-35000000D03*
D16*
X251995000Y-35000000D03*
G04 #@! TD*
D17*
G04 #@! TO.C,P7*
X307070000Y-19715000D03*
G04 #@! TD*
D24*
G04 #@! TO.C,J4*
X304355000Y-65720000D03*
X304355000Y-69920000D03*
X304355000Y-74120000D03*
X304355000Y-78320000D03*
X298855000Y-65720000D03*
X298855000Y-69920000D03*
X298855000Y-74120000D03*
G36*
G01*
X300454999Y-79670000D02*
X297255001Y-79670000D01*
G75*
G02*
X297005000Y-79419999I0J250001D01*
G01*
X297005000Y-77220001D01*
G75*
G02*
X297255001Y-76970000I250001J0D01*
G01*
X300454999Y-76970000D01*
G75*
G02*
X300705000Y-77220001I0J-250001D01*
G01*
X300705000Y-79419999D01*
G75*
G02*
X300454999Y-79670000I-250001J0D01*
G01*
G37*
D25*
X291555000Y-65720000D03*
X291555000Y-78320000D03*
G04 #@! TD*
D15*
G04 #@! TO.C,J13*
X249455000Y-58990000D03*
X251995000Y-58990000D03*
X249455000Y-56450000D03*
D16*
X251995000Y-56450000D03*
G04 #@! TD*
D26*
G04 #@! TO.C,J9*
X257095000Y-1775000D03*
D27*
X257095000Y2405000D03*
D26*
X248455000Y-1775000D03*
D27*
X248455000Y2405000D03*
D28*
X255665000Y1905000D03*
X249885000Y1905000D03*
G04 #@! TD*
D29*
G04 #@! TO.C,M4*
X225320000Y-67400000D03*
X226320000Y-67400000D03*
X232780000Y-81825000D03*
X231580000Y-81825000D03*
X229180000Y-81825000D03*
X230380000Y-81825000D03*
G04 #@! TD*
D15*
G04 #@! TO.C,J14*
X249455000Y-66140000D03*
X251995000Y-66140000D03*
X249455000Y-63600000D03*
D16*
X251995000Y-63600000D03*
G04 #@! TD*
D20*
G04 #@! TO.C,F2*
X319200000Y-26995000D03*
X314300000Y-26995000D03*
G04 #@! TD*
D15*
G04 #@! TO.C,J15*
X256605000Y-37540000D03*
X259145000Y-37540000D03*
X256605000Y-35000000D03*
D16*
X259145000Y-35000000D03*
G04 #@! TD*
D15*
G04 #@! TO.C,J6*
X286255000Y-91810000D03*
X288795000Y-91810000D03*
X291335000Y-91810000D03*
X293875000Y-91810000D03*
X296415000Y-91810000D03*
D16*
X298955000Y-91810000D03*
G04 #@! TD*
D15*
G04 #@! TO.C,J19*
X256605000Y-66140000D03*
X259145000Y-66140000D03*
X256605000Y-63600000D03*
D16*
X259145000Y-63600000D03*
G04 #@! TD*
D15*
G04 #@! TO.C,J22*
X263755000Y-51840000D03*
X266295000Y-51840000D03*
X263755000Y-49300000D03*
D16*
X266295000Y-49300000D03*
G04 #@! TD*
D15*
G04 #@! TO.C,J18*
X256605000Y-58990000D03*
X259145000Y-58990000D03*
X256605000Y-56450000D03*
D16*
X259145000Y-56450000D03*
G04 #@! TD*
D30*
G04 #@! TO.C,J10*
X280255000Y-29800000D03*
X276055000Y-29800000D03*
X271855000Y-29800000D03*
X267655000Y-29800000D03*
X263455000Y-29800000D03*
X259255000Y-29800000D03*
X255055000Y-29800000D03*
X250855000Y-29800000D03*
X280255000Y-24300000D03*
X276055000Y-24300000D03*
X271855000Y-24300000D03*
X267655000Y-24300000D03*
X263455000Y-24300000D03*
X259255000Y-24300000D03*
X255055000Y-24300000D03*
G36*
G01*
X249505000Y-25899999D02*
X249505000Y-22700001D01*
G75*
G02*
X249755001Y-22450000I250001J0D01*
G01*
X251954999Y-22450000D01*
G75*
G02*
X252205000Y-22700001I0J-250001D01*
G01*
X252205000Y-25899999D01*
G75*
G02*
X251954999Y-26150000I-250001J0D01*
G01*
X249755001Y-26150000D01*
G75*
G02*
X249505000Y-25899999I0J250001D01*
G01*
G37*
D25*
X280255000Y-17000000D03*
X250855000Y-17000000D03*
G04 #@! TD*
D20*
G04 #@! TO.C,F4*
X283200000Y-7295000D03*
X283200000Y-2395000D03*
G04 #@! TD*
D22*
G04 #@! TO.C,H4*
X313605000Y-89820000D03*
X312902056Y-91517056D03*
X312902056Y-88122944D03*
X311205000Y-92220000D03*
D23*
X311205000Y-89820000D03*
D22*
X311205000Y-87420000D03*
X309507944Y-91517056D03*
X309507944Y-88122944D03*
X308805000Y-89820000D03*
G04 #@! TD*
D17*
G04 #@! TO.C,P15*
X307070000Y-27275000D03*
G04 #@! TD*
D29*
G04 #@! TO.C,M3*
X214270000Y-67400000D03*
X215270000Y-67400000D03*
X221730000Y-81825000D03*
X220530000Y-81825000D03*
X218130000Y-81825000D03*
X219330000Y-81825000D03*
G04 #@! TD*
D17*
G04 #@! TO.C,P8*
X307070000Y-23495000D03*
G04 #@! TD*
D15*
G04 #@! TO.C,J20*
X263755000Y-37540000D03*
X266295000Y-37540000D03*
X263755000Y-35000000D03*
D16*
X266295000Y-35000000D03*
G04 #@! TD*
D17*
G04 #@! TO.C,P5*
X303290000Y-23495000D03*
G04 #@! TD*
D15*
G04 #@! TO.C,J17*
X256605000Y-51840000D03*
X259145000Y-51840000D03*
X256605000Y-49300000D03*
D16*
X259145000Y-49300000D03*
G04 #@! TD*
D17*
G04 #@! TO.C,P2*
X299510000Y-23495000D03*
G04 #@! TD*
D22*
G04 #@! TO.C,H1*
X313605000Y-65970000D03*
X312902056Y-67667056D03*
X312902056Y-64272944D03*
X311205000Y-68370000D03*
D23*
X311205000Y-65970000D03*
D22*
X311205000Y-63570000D03*
X309507944Y-67667056D03*
X309507944Y-64272944D03*
X308805000Y-65970000D03*
G04 #@! TD*
D30*
G04 #@! TO.C,J2*
X288455000Y7450000D03*
X284255000Y7450000D03*
X280055000Y7450000D03*
X275855000Y7450000D03*
X271655000Y7450000D03*
X267455000Y7450000D03*
X263255000Y7450000D03*
X259055000Y7450000D03*
X254855000Y7450000D03*
X250655000Y7450000D03*
X288455000Y12950000D03*
X284255000Y12950000D03*
X280055000Y12950000D03*
X275855000Y12950000D03*
X271655000Y12950000D03*
X267455000Y12950000D03*
X263255000Y12950000D03*
X259055000Y12950000D03*
X254855000Y12950000D03*
G36*
G01*
X249305000Y11350001D02*
X249305000Y14549999D01*
G75*
G02*
X249555001Y14800000I250001J0D01*
G01*
X251754999Y14800000D01*
G75*
G02*
X252005000Y14549999I0J-250001D01*
G01*
X252005000Y11350001D01*
G75*
G02*
X251754999Y11100000I-250001J0D01*
G01*
X249555001Y11100000D01*
G75*
G02*
X249305000Y11350001I0J250001D01*
G01*
G37*
D25*
X288455000Y20250000D03*
X250655000Y20250000D03*
G04 #@! TD*
D17*
G04 #@! TO.C,P1*
X299510000Y-19715000D03*
G04 #@! TD*
D31*
G04 #@! TO.C,J7*
X315885000Y-36150000D03*
X315885000Y-38650000D03*
X315885000Y-41150000D03*
X315885000Y-43650000D03*
G36*
G01*
X316560000Y-47000000D02*
X315210000Y-47000000D01*
G75*
G02*
X314960000Y-46750000I0J250000D01*
G01*
X314960000Y-45550000D01*
G75*
G02*
X315210000Y-45300000I250000J0D01*
G01*
X316560000Y-45300000D01*
G75*
G02*
X316810000Y-45550000I0J-250000D01*
G01*
X316810000Y-46750000D01*
G75*
G02*
X316560000Y-47000000I-250000J0D01*
G01*
G37*
G04 #@! TD*
D17*
G04 #@! TO.C,P4*
X303290000Y-19715000D03*
G04 #@! TD*
D22*
G04 #@! TO.C,H2*
X313605000Y-73920000D03*
X312902056Y-75617056D03*
X312902056Y-72222944D03*
X311205000Y-76320000D03*
D23*
X311205000Y-73920000D03*
D22*
X311205000Y-71520000D03*
X309507944Y-75617056D03*
X309507944Y-72222944D03*
X308805000Y-73920000D03*
G04 #@! TD*
D32*
G04 #@! TO.C,J8*
X314610000Y-50900000D03*
X314610000Y-58200000D03*
D33*
X315485000Y-52950000D03*
X313735000Y-53750000D03*
X315485000Y-54550000D03*
X313735000Y-55350000D03*
D34*
X315485000Y-56150000D03*
G04 #@! TD*
D17*
G04 #@! TO.C,P18*
X310850000Y-27275000D03*
G04 #@! TD*
D12*
G04 #@! TO.C,M1*
X248629999Y-88525000D03*
X248629999Y-76475002D03*
X248629999Y-71524999D03*
X248629999Y-69675000D03*
X264129996Y-88975002D03*
D29*
X264579995Y-86125000D03*
X264579995Y-85124999D03*
D12*
X264129996Y-82725002D03*
X264129996Y-78425002D03*
X264129996Y-76524999D03*
X264129996Y-70125002D03*
G04 #@! TD*
D17*
G04 #@! TO.C,P17*
X310850000Y-23495000D03*
G04 #@! TD*
D35*
G04 #@! TO.C,M7*
X274019998Y-4099996D03*
X270469997Y-4174999D03*
X269719999Y-2999995D03*
X269194999Y-3874997D03*
G04 #@! TD*
D20*
G04 #@! TO.C,F3*
X280080000Y-7295000D03*
X280080000Y-2395000D03*
G04 #@! TD*
D15*
G04 #@! TO.C,J11*
X249455000Y-44690000D03*
X251995000Y-44690000D03*
X249455000Y-42150000D03*
D16*
X251995000Y-42150000D03*
G04 #@! TD*
D29*
G04 #@! TO.C,M2*
X318530000Y-78055000D03*
X317630000Y-78055000D03*
X316630002Y-86755000D03*
X317580000Y-86755000D03*
X318530000Y-86755000D03*
G04 #@! TD*
D17*
G04 #@! TO.C,P6*
X303290000Y-27275000D03*
G04 #@! TD*
M02*
