G04 #@! TF.GenerationSoftware,KiCad,Pcbnew,8.0.8*
G04 #@! TF.CreationDate,2025-12-05T20:32:17-05:00*
G04 #@! TF.ProjectId,hellen121vag,68656c6c-656e-4313-9231-7661672e6b69,d*
G04 #@! TF.SameCoordinates,PX2b953a0PY6943058*
G04 #@! TF.FileFunction,Paste,Top*
G04 #@! TF.FilePolarity,Positive*
%FSLAX46Y46*%
G04 Gerber Fmt 4.6, Leading zero omitted, Abs format (unit mm)*
G04 Created by KiCad (PCBNEW 8.0.8) date 2025-12-05 20:32:17*
%MOMM*%
%LPD*%
G01*
G04 APERTURE LIST*
%ADD10R,0.690000X1.350000*%
%ADD11R,1.300000X1.000000*%
%ADD12R,1.950000X1.160000*%
%ADD13R,2.000000X0.650000*%
%ADD14O,0.000001X0.000001*%
G04 APERTURE END LIST*
G04 #@! TO.C,U10*
G36*
G01*
X49140000Y60950000D02*
X48840000Y60950000D01*
G75*
G02*
X48690000Y61100000I0J150000D01*
G01*
X48690000Y62750000D01*
G75*
G02*
X48840000Y62900000I150000J0D01*
G01*
X49140000Y62900000D01*
G75*
G02*
X49290000Y62750000I0J-150000D01*
G01*
X49290000Y61100000D01*
G75*
G02*
X49140000Y60950000I-150000J0D01*
G01*
G37*
G36*
G01*
X50410000Y60950000D02*
X50110000Y60950000D01*
G75*
G02*
X49960000Y61100000I0J150000D01*
G01*
X49960000Y62750000D01*
G75*
G02*
X50110000Y62900000I150000J0D01*
G01*
X50410000Y62900000D01*
G75*
G02*
X50560000Y62750000I0J-150000D01*
G01*
X50560000Y61100000D01*
G75*
G02*
X50410000Y60950000I-150000J0D01*
G01*
G37*
G36*
G01*
X51680000Y60950000D02*
X51380000Y60950000D01*
G75*
G02*
X51230000Y61100000I0J150000D01*
G01*
X51230000Y62750000D01*
G75*
G02*
X51380000Y62900000I150000J0D01*
G01*
X51680000Y62900000D01*
G75*
G02*
X51830000Y62750000I0J-150000D01*
G01*
X51830000Y61100000D01*
G75*
G02*
X51680000Y60950000I-150000J0D01*
G01*
G37*
G36*
G01*
X52950000Y60950000D02*
X52650000Y60950000D01*
G75*
G02*
X52500000Y61100000I0J150000D01*
G01*
X52500000Y62750000D01*
G75*
G02*
X52650000Y62900000I150000J0D01*
G01*
X52950000Y62900000D01*
G75*
G02*
X53100000Y62750000I0J-150000D01*
G01*
X53100000Y61100000D01*
G75*
G02*
X52950000Y60950000I-150000J0D01*
G01*
G37*
G36*
G01*
X52950000Y65900000D02*
X52650000Y65900000D01*
G75*
G02*
X52500000Y66050000I0J150000D01*
G01*
X52500000Y67700000D01*
G75*
G02*
X52650000Y67850000I150000J0D01*
G01*
X52950000Y67850000D01*
G75*
G02*
X53100000Y67700000I0J-150000D01*
G01*
X53100000Y66050000D01*
G75*
G02*
X52950000Y65900000I-150000J0D01*
G01*
G37*
G36*
G01*
X51680000Y65900000D02*
X51380000Y65900000D01*
G75*
G02*
X51230000Y66050000I0J150000D01*
G01*
X51230000Y67700000D01*
G75*
G02*
X51380000Y67850000I150000J0D01*
G01*
X51680000Y67850000D01*
G75*
G02*
X51830000Y67700000I0J-150000D01*
G01*
X51830000Y66050000D01*
G75*
G02*
X51680000Y65900000I-150000J0D01*
G01*
G37*
G36*
G01*
X50410000Y65900000D02*
X50110000Y65900000D01*
G75*
G02*
X49960000Y66050000I0J150000D01*
G01*
X49960000Y67700000D01*
G75*
G02*
X50110000Y67850000I150000J0D01*
G01*
X50410000Y67850000D01*
G75*
G02*
X50560000Y67700000I0J-150000D01*
G01*
X50560000Y66050000D01*
G75*
G02*
X50410000Y65900000I-150000J0D01*
G01*
G37*
G36*
G01*
X49140000Y65900000D02*
X48840000Y65900000D01*
G75*
G02*
X48690000Y66050000I0J150000D01*
G01*
X48690000Y67700000D01*
G75*
G02*
X48840000Y67850000I150000J0D01*
G01*
X49140000Y67850000D01*
G75*
G02*
X49290000Y67700000I0J-150000D01*
G01*
X49290000Y66050000D01*
G75*
G02*
X49140000Y65900000I-150000J0D01*
G01*
G37*
G04 #@! TD*
D10*
G04 #@! TO.C,U3*
X105800000Y39875000D03*
X105800000Y30032500D03*
X104530000Y30032500D03*
X103260000Y30032500D03*
X101990000Y30032500D03*
X101990000Y39875000D03*
X103260000Y39875000D03*
X104530000Y39875000D03*
G04 #@! TD*
G04 #@! TO.C,U11*
G36*
G01*
X43140000Y60950000D02*
X42840000Y60950000D01*
G75*
G02*
X42690000Y61100000I0J150000D01*
G01*
X42690000Y62750000D01*
G75*
G02*
X42840000Y62900000I150000J0D01*
G01*
X43140000Y62900000D01*
G75*
G02*
X43290000Y62750000I0J-150000D01*
G01*
X43290000Y61100000D01*
G75*
G02*
X43140000Y60950000I-150000J0D01*
G01*
G37*
G36*
G01*
X44410000Y60950000D02*
X44110000Y60950000D01*
G75*
G02*
X43960000Y61100000I0J150000D01*
G01*
X43960000Y62750000D01*
G75*
G02*
X44110000Y62900000I150000J0D01*
G01*
X44410000Y62900000D01*
G75*
G02*
X44560000Y62750000I0J-150000D01*
G01*
X44560000Y61100000D01*
G75*
G02*
X44410000Y60950000I-150000J0D01*
G01*
G37*
G36*
G01*
X45680000Y60950000D02*
X45380000Y60950000D01*
G75*
G02*
X45230000Y61100000I0J150000D01*
G01*
X45230000Y62750000D01*
G75*
G02*
X45380000Y62900000I150000J0D01*
G01*
X45680000Y62900000D01*
G75*
G02*
X45830000Y62750000I0J-150000D01*
G01*
X45830000Y61100000D01*
G75*
G02*
X45680000Y60950000I-150000J0D01*
G01*
G37*
G36*
G01*
X46950000Y60950000D02*
X46650000Y60950000D01*
G75*
G02*
X46500000Y61100000I0J150000D01*
G01*
X46500000Y62750000D01*
G75*
G02*
X46650000Y62900000I150000J0D01*
G01*
X46950000Y62900000D01*
G75*
G02*
X47100000Y62750000I0J-150000D01*
G01*
X47100000Y61100000D01*
G75*
G02*
X46950000Y60950000I-150000J0D01*
G01*
G37*
G36*
G01*
X46950000Y65900000D02*
X46650000Y65900000D01*
G75*
G02*
X46500000Y66050000I0J150000D01*
G01*
X46500000Y67700000D01*
G75*
G02*
X46650000Y67850000I150000J0D01*
G01*
X46950000Y67850000D01*
G75*
G02*
X47100000Y67700000I0J-150000D01*
G01*
X47100000Y66050000D01*
G75*
G02*
X46950000Y65900000I-150000J0D01*
G01*
G37*
G36*
G01*
X45680000Y65900000D02*
X45380000Y65900000D01*
G75*
G02*
X45230000Y66050000I0J150000D01*
G01*
X45230000Y67700000D01*
G75*
G02*
X45380000Y67850000I150000J0D01*
G01*
X45680000Y67850000D01*
G75*
G02*
X45830000Y67700000I0J-150000D01*
G01*
X45830000Y66050000D01*
G75*
G02*
X45680000Y65900000I-150000J0D01*
G01*
G37*
G36*
G01*
X44410000Y65900000D02*
X44110000Y65900000D01*
G75*
G02*
X43960000Y66050000I0J150000D01*
G01*
X43960000Y67700000D01*
G75*
G02*
X44110000Y67850000I150000J0D01*
G01*
X44410000Y67850000D01*
G75*
G02*
X44560000Y67700000I0J-150000D01*
G01*
X44560000Y66050000D01*
G75*
G02*
X44410000Y65900000I-150000J0D01*
G01*
G37*
G36*
G01*
X43140000Y65900000D02*
X42840000Y65900000D01*
G75*
G02*
X42690000Y66050000I0J150000D01*
G01*
X42690000Y67700000D01*
G75*
G02*
X42840000Y67850000I150000J0D01*
G01*
X43140000Y67850000D01*
G75*
G02*
X43290000Y67700000I0J-150000D01*
G01*
X43290000Y66050000D01*
G75*
G02*
X43140000Y65900000I-150000J0D01*
G01*
G37*
G04 #@! TD*
G04 #@! TO.C,U4*
G36*
G01*
X67140000Y60900000D02*
X66840000Y60900000D01*
G75*
G02*
X66690000Y61050000I0J150000D01*
G01*
X66690000Y62700000D01*
G75*
G02*
X66840000Y62850000I150000J0D01*
G01*
X67140000Y62850000D01*
G75*
G02*
X67290000Y62700000I0J-150000D01*
G01*
X67290000Y61050000D01*
G75*
G02*
X67140000Y60900000I-150000J0D01*
G01*
G37*
G36*
G01*
X68410000Y60900000D02*
X68110000Y60900000D01*
G75*
G02*
X67960000Y61050000I0J150000D01*
G01*
X67960000Y62700000D01*
G75*
G02*
X68110000Y62850000I150000J0D01*
G01*
X68410000Y62850000D01*
G75*
G02*
X68560000Y62700000I0J-150000D01*
G01*
X68560000Y61050000D01*
G75*
G02*
X68410000Y60900000I-150000J0D01*
G01*
G37*
G36*
G01*
X69680000Y60900000D02*
X69380000Y60900000D01*
G75*
G02*
X69230000Y61050000I0J150000D01*
G01*
X69230000Y62700000D01*
G75*
G02*
X69380000Y62850000I150000J0D01*
G01*
X69680000Y62850000D01*
G75*
G02*
X69830000Y62700000I0J-150000D01*
G01*
X69830000Y61050000D01*
G75*
G02*
X69680000Y60900000I-150000J0D01*
G01*
G37*
G36*
G01*
X70950000Y60900000D02*
X70650000Y60900000D01*
G75*
G02*
X70500000Y61050000I0J150000D01*
G01*
X70500000Y62700000D01*
G75*
G02*
X70650000Y62850000I150000J0D01*
G01*
X70950000Y62850000D01*
G75*
G02*
X71100000Y62700000I0J-150000D01*
G01*
X71100000Y61050000D01*
G75*
G02*
X70950000Y60900000I-150000J0D01*
G01*
G37*
G36*
G01*
X70950000Y65850000D02*
X70650000Y65850000D01*
G75*
G02*
X70500000Y66000000I0J150000D01*
G01*
X70500000Y67650000D01*
G75*
G02*
X70650000Y67800000I150000J0D01*
G01*
X70950000Y67800000D01*
G75*
G02*
X71100000Y67650000I0J-150000D01*
G01*
X71100000Y66000000D01*
G75*
G02*
X70950000Y65850000I-150000J0D01*
G01*
G37*
G36*
G01*
X69680000Y65850000D02*
X69380000Y65850000D01*
G75*
G02*
X69230000Y66000000I0J150000D01*
G01*
X69230000Y67650000D01*
G75*
G02*
X69380000Y67800000I150000J0D01*
G01*
X69680000Y67800000D01*
G75*
G02*
X69830000Y67650000I0J-150000D01*
G01*
X69830000Y66000000D01*
G75*
G02*
X69680000Y65850000I-150000J0D01*
G01*
G37*
G36*
G01*
X68410000Y65850000D02*
X68110000Y65850000D01*
G75*
G02*
X67960000Y66000000I0J150000D01*
G01*
X67960000Y67650000D01*
G75*
G02*
X68110000Y67800000I150000J0D01*
G01*
X68410000Y67800000D01*
G75*
G02*
X68560000Y67650000I0J-150000D01*
G01*
X68560000Y66000000D01*
G75*
G02*
X68410000Y65850000I-150000J0D01*
G01*
G37*
G36*
G01*
X67140000Y65850000D02*
X66840000Y65850000D01*
G75*
G02*
X66690000Y66000000I0J150000D01*
G01*
X66690000Y67650000D01*
G75*
G02*
X66840000Y67800000I150000J0D01*
G01*
X67140000Y67800000D01*
G75*
G02*
X67290000Y67650000I0J-150000D01*
G01*
X67290000Y66000000D01*
G75*
G02*
X67140000Y65850000I-150000J0D01*
G01*
G37*
G04 #@! TD*
G04 #@! TO.C,U9*
G36*
G01*
X55045000Y65900000D02*
X54745000Y65900000D01*
G75*
G02*
X54595000Y66050000I0J150000D01*
G01*
X54595000Y67700000D01*
G75*
G02*
X54745000Y67850000I150000J0D01*
G01*
X55045000Y67850000D01*
G75*
G02*
X55195000Y67700000I0J-150000D01*
G01*
X55195000Y66050000D01*
G75*
G02*
X55045000Y65900000I-150000J0D01*
G01*
G37*
G36*
G01*
X56315000Y65900000D02*
X56015000Y65900000D01*
G75*
G02*
X55865000Y66050000I0J150000D01*
G01*
X55865000Y67700000D01*
G75*
G02*
X56015000Y67850000I150000J0D01*
G01*
X56315000Y67850000D01*
G75*
G02*
X56465000Y67700000I0J-150000D01*
G01*
X56465000Y66050000D01*
G75*
G02*
X56315000Y65900000I-150000J0D01*
G01*
G37*
G36*
G01*
X57585000Y65900000D02*
X57285000Y65900000D01*
G75*
G02*
X57135000Y66050000I0J150000D01*
G01*
X57135000Y67700000D01*
G75*
G02*
X57285000Y67850000I150000J0D01*
G01*
X57585000Y67850000D01*
G75*
G02*
X57735000Y67700000I0J-150000D01*
G01*
X57735000Y66050000D01*
G75*
G02*
X57585000Y65900000I-150000J0D01*
G01*
G37*
G36*
G01*
X58855000Y65900000D02*
X58555000Y65900000D01*
G75*
G02*
X58405000Y66050000I0J150000D01*
G01*
X58405000Y67700000D01*
G75*
G02*
X58555000Y67850000I150000J0D01*
G01*
X58855000Y67850000D01*
G75*
G02*
X59005000Y67700000I0J-150000D01*
G01*
X59005000Y66050000D01*
G75*
G02*
X58855000Y65900000I-150000J0D01*
G01*
G37*
G36*
G01*
X58855000Y60950000D02*
X58555000Y60950000D01*
G75*
G02*
X58405000Y61100000I0J150000D01*
G01*
X58405000Y62750000D01*
G75*
G02*
X58555000Y62900000I150000J0D01*
G01*
X58855000Y62900000D01*
G75*
G02*
X59005000Y62750000I0J-150000D01*
G01*
X59005000Y61100000D01*
G75*
G02*
X58855000Y60950000I-150000J0D01*
G01*
G37*
G36*
G01*
X57585000Y60950000D02*
X57285000Y60950000D01*
G75*
G02*
X57135000Y61100000I0J150000D01*
G01*
X57135000Y62750000D01*
G75*
G02*
X57285000Y62900000I150000J0D01*
G01*
X57585000Y62900000D01*
G75*
G02*
X57735000Y62750000I0J-150000D01*
G01*
X57735000Y61100000D01*
G75*
G02*
X57585000Y60950000I-150000J0D01*
G01*
G37*
G36*
G01*
X56315000Y60950000D02*
X56015000Y60950000D01*
G75*
G02*
X55865000Y61100000I0J150000D01*
G01*
X55865000Y62750000D01*
G75*
G02*
X56015000Y62900000I150000J0D01*
G01*
X56315000Y62900000D01*
G75*
G02*
X56465000Y62750000I0J-150000D01*
G01*
X56465000Y61100000D01*
G75*
G02*
X56315000Y60950000I-150000J0D01*
G01*
G37*
G36*
G01*
X55045000Y60950000D02*
X54745000Y60950000D01*
G75*
G02*
X54595000Y61100000I0J150000D01*
G01*
X54595000Y62750000D01*
G75*
G02*
X54745000Y62900000I150000J0D01*
G01*
X55045000Y62900000D01*
G75*
G02*
X55195000Y62750000I0J-150000D01*
G01*
X55195000Y61100000D01*
G75*
G02*
X55045000Y60950000I-150000J0D01*
G01*
G37*
G04 #@! TD*
G04 #@! TO.C,U6*
G36*
G01*
X61045000Y60950000D02*
X60745000Y60950000D01*
G75*
G02*
X60595000Y61100000I0J150000D01*
G01*
X60595000Y62750000D01*
G75*
G02*
X60745000Y62900000I150000J0D01*
G01*
X61045000Y62900000D01*
G75*
G02*
X61195000Y62750000I0J-150000D01*
G01*
X61195000Y61100000D01*
G75*
G02*
X61045000Y60950000I-150000J0D01*
G01*
G37*
G36*
G01*
X62315000Y60950000D02*
X62015000Y60950000D01*
G75*
G02*
X61865000Y61100000I0J150000D01*
G01*
X61865000Y62750000D01*
G75*
G02*
X62015000Y62900000I150000J0D01*
G01*
X62315000Y62900000D01*
G75*
G02*
X62465000Y62750000I0J-150000D01*
G01*
X62465000Y61100000D01*
G75*
G02*
X62315000Y60950000I-150000J0D01*
G01*
G37*
G36*
G01*
X63585000Y60950000D02*
X63285000Y60950000D01*
G75*
G02*
X63135000Y61100000I0J150000D01*
G01*
X63135000Y62750000D01*
G75*
G02*
X63285000Y62900000I150000J0D01*
G01*
X63585000Y62900000D01*
G75*
G02*
X63735000Y62750000I0J-150000D01*
G01*
X63735000Y61100000D01*
G75*
G02*
X63585000Y60950000I-150000J0D01*
G01*
G37*
G36*
G01*
X64855000Y60950000D02*
X64555000Y60950000D01*
G75*
G02*
X64405000Y61100000I0J150000D01*
G01*
X64405000Y62750000D01*
G75*
G02*
X64555000Y62900000I150000J0D01*
G01*
X64855000Y62900000D01*
G75*
G02*
X65005000Y62750000I0J-150000D01*
G01*
X65005000Y61100000D01*
G75*
G02*
X64855000Y60950000I-150000J0D01*
G01*
G37*
G36*
G01*
X64855000Y65900000D02*
X64555000Y65900000D01*
G75*
G02*
X64405000Y66050000I0J150000D01*
G01*
X64405000Y67700000D01*
G75*
G02*
X64555000Y67850000I150000J0D01*
G01*
X64855000Y67850000D01*
G75*
G02*
X65005000Y67700000I0J-150000D01*
G01*
X65005000Y66050000D01*
G75*
G02*
X64855000Y65900000I-150000J0D01*
G01*
G37*
G36*
G01*
X63585000Y65900000D02*
X63285000Y65900000D01*
G75*
G02*
X63135000Y66050000I0J150000D01*
G01*
X63135000Y67700000D01*
G75*
G02*
X63285000Y67850000I150000J0D01*
G01*
X63585000Y67850000D01*
G75*
G02*
X63735000Y67700000I0J-150000D01*
G01*
X63735000Y66050000D01*
G75*
G02*
X63585000Y65900000I-150000J0D01*
G01*
G37*
G36*
G01*
X62315000Y65900000D02*
X62015000Y65900000D01*
G75*
G02*
X61865000Y66050000I0J150000D01*
G01*
X61865000Y67700000D01*
G75*
G02*
X62015000Y67850000I150000J0D01*
G01*
X62315000Y67850000D01*
G75*
G02*
X62465000Y67700000I0J-150000D01*
G01*
X62465000Y66050000D01*
G75*
G02*
X62315000Y65900000I-150000J0D01*
G01*
G37*
G36*
G01*
X61045000Y65900000D02*
X60745000Y65900000D01*
G75*
G02*
X60595000Y66050000I0J150000D01*
G01*
X60595000Y67700000D01*
G75*
G02*
X60745000Y67850000I150000J0D01*
G01*
X61045000Y67850000D01*
G75*
G02*
X61195000Y67700000I0J-150000D01*
G01*
X61195000Y66050000D01*
G75*
G02*
X61045000Y65900000I-150000J0D01*
G01*
G37*
G04 #@! TD*
G04 #@! TO.C,U8*
G36*
G01*
X73140000Y60790000D02*
X72840000Y60790000D01*
G75*
G02*
X72690000Y60940000I0J150000D01*
G01*
X72690000Y62590000D01*
G75*
G02*
X72840000Y62740000I150000J0D01*
G01*
X73140000Y62740000D01*
G75*
G02*
X73290000Y62590000I0J-150000D01*
G01*
X73290000Y60940000D01*
G75*
G02*
X73140000Y60790000I-150000J0D01*
G01*
G37*
G36*
G01*
X74410000Y60790000D02*
X74110000Y60790000D01*
G75*
G02*
X73960000Y60940000I0J150000D01*
G01*
X73960000Y62590000D01*
G75*
G02*
X74110000Y62740000I150000J0D01*
G01*
X74410000Y62740000D01*
G75*
G02*
X74560000Y62590000I0J-150000D01*
G01*
X74560000Y60940000D01*
G75*
G02*
X74410000Y60790000I-150000J0D01*
G01*
G37*
G36*
G01*
X75680000Y60790000D02*
X75380000Y60790000D01*
G75*
G02*
X75230000Y60940000I0J150000D01*
G01*
X75230000Y62590000D01*
G75*
G02*
X75380000Y62740000I150000J0D01*
G01*
X75680000Y62740000D01*
G75*
G02*
X75830000Y62590000I0J-150000D01*
G01*
X75830000Y60940000D01*
G75*
G02*
X75680000Y60790000I-150000J0D01*
G01*
G37*
G36*
G01*
X76950000Y60790000D02*
X76650000Y60790000D01*
G75*
G02*
X76500000Y60940000I0J150000D01*
G01*
X76500000Y62590000D01*
G75*
G02*
X76650000Y62740000I150000J0D01*
G01*
X76950000Y62740000D01*
G75*
G02*
X77100000Y62590000I0J-150000D01*
G01*
X77100000Y60940000D01*
G75*
G02*
X76950000Y60790000I-150000J0D01*
G01*
G37*
G36*
G01*
X76950000Y65740000D02*
X76650000Y65740000D01*
G75*
G02*
X76500000Y65890000I0J150000D01*
G01*
X76500000Y67540000D01*
G75*
G02*
X76650000Y67690000I150000J0D01*
G01*
X76950000Y67690000D01*
G75*
G02*
X77100000Y67540000I0J-150000D01*
G01*
X77100000Y65890000D01*
G75*
G02*
X76950000Y65740000I-150000J0D01*
G01*
G37*
G36*
G01*
X75680000Y65740000D02*
X75380000Y65740000D01*
G75*
G02*
X75230000Y65890000I0J150000D01*
G01*
X75230000Y67540000D01*
G75*
G02*
X75380000Y67690000I150000J0D01*
G01*
X75680000Y67690000D01*
G75*
G02*
X75830000Y67540000I0J-150000D01*
G01*
X75830000Y65890000D01*
G75*
G02*
X75680000Y65740000I-150000J0D01*
G01*
G37*
G36*
G01*
X74410000Y65740000D02*
X74110000Y65740000D01*
G75*
G02*
X73960000Y65890000I0J150000D01*
G01*
X73960000Y67540000D01*
G75*
G02*
X74110000Y67690000I150000J0D01*
G01*
X74410000Y67690000D01*
G75*
G02*
X74560000Y67540000I0J-150000D01*
G01*
X74560000Y65890000D01*
G75*
G02*
X74410000Y65740000I-150000J0D01*
G01*
G37*
G36*
G01*
X73140000Y65740000D02*
X72840000Y65740000D01*
G75*
G02*
X72690000Y65890000I0J150000D01*
G01*
X72690000Y67540000D01*
G75*
G02*
X72840000Y67690000I150000J0D01*
G01*
X73140000Y67690000D01*
G75*
G02*
X73290000Y67540000I0J-150000D01*
G01*
X73290000Y65890000D01*
G75*
G02*
X73140000Y65740000I-150000J0D01*
G01*
G37*
G04 #@! TD*
D11*
G04 #@! TO.C,U5*
X136650000Y27050000D03*
X136650000Y28550000D03*
X136650000Y30050000D03*
X136650000Y31550000D03*
X136650000Y33050000D03*
X136650000Y34550000D03*
X136650000Y36050000D03*
X136650000Y37550000D03*
X136650000Y39050000D03*
X136650000Y40550000D03*
X136650000Y42050000D03*
X136650000Y43550000D03*
X136650000Y45050000D03*
X123950000Y45050000D03*
X123950000Y43550000D03*
X123950000Y42050000D03*
X123950000Y40550000D03*
X123950000Y39050000D03*
X123950000Y37550000D03*
X123950000Y36050000D03*
X123950000Y34550000D03*
X123950000Y33050000D03*
X123950000Y31550000D03*
X123950000Y30050000D03*
X123950000Y28550000D03*
X123950000Y27050000D03*
G04 #@! TD*
D12*
G04 #@! TO.C,U1*
X115375000Y83795000D03*
X115375000Y82335000D03*
X115375000Y80875000D03*
X115375000Y79415000D03*
X115375000Y77955000D03*
X117625000Y83795000D03*
X117625000Y82335000D03*
X117625000Y80875000D03*
X117625000Y79415000D03*
X117625000Y77955000D03*
D13*
X111700000Y83375000D03*
X111700000Y82375000D03*
X111700000Y81375000D03*
X111700000Y80375000D03*
X111700000Y79375000D03*
X111700000Y78375000D03*
X121300000Y78375000D03*
X121300000Y79375000D03*
X121300000Y80375000D03*
X121300000Y81375000D03*
X121300000Y82375000D03*
X121300000Y83375000D03*
G04 #@! TD*
D12*
G04 #@! TO.C,U2*
X115375000Y72795000D03*
X115375000Y71335000D03*
X115375000Y69875000D03*
X115375000Y68415000D03*
X115375000Y66955000D03*
X117625000Y72795000D03*
X117625000Y71335000D03*
X117625000Y69875000D03*
X117625000Y68415000D03*
X117625000Y66955000D03*
D13*
X111700000Y72375000D03*
X111700000Y71375000D03*
X111700000Y70375000D03*
X111700000Y69375000D03*
X111700000Y68375000D03*
X111700000Y67375000D03*
X121300000Y67375000D03*
X121300000Y68375000D03*
X121300000Y69375000D03*
X121300000Y70375000D03*
X121300000Y71375000D03*
X121300000Y72375000D03*
G04 #@! TD*
G04 #@! TO.C,Q9*
G36*
G01*
X63870000Y74235000D02*
X63170000Y74235000D01*
G75*
G02*
X62920000Y74485000I0J250000D01*
G01*
X62920000Y76185000D01*
G75*
G02*
X63170000Y76435000I250000J0D01*
G01*
X63870000Y76435000D01*
G75*
G02*
X64120000Y76185000I0J-250000D01*
G01*
X64120000Y74485000D01*
G75*
G02*
X63870000Y74235000I-250000J0D01*
G01*
G37*
G36*
G01*
X65400000Y78435000D02*
X63150000Y78435000D01*
G75*
G02*
X62900000Y78685000I0J250000D01*
G01*
X62900000Y81235000D01*
G75*
G02*
X63150000Y81485000I250000J0D01*
G01*
X65400000Y81485000D01*
G75*
G02*
X65650000Y81235000I0J-250000D01*
G01*
X65650000Y78685000D01*
G75*
G02*
X65400000Y78435000I-250000J0D01*
G01*
G37*
G36*
G01*
X68450000Y78435000D02*
X66200000Y78435000D01*
G75*
G02*
X65950000Y78685000I0J250000D01*
G01*
X65950000Y81235000D01*
G75*
G02*
X66200000Y81485000I250000J0D01*
G01*
X68450000Y81485000D01*
G75*
G02*
X68700000Y81235000I0J-250000D01*
G01*
X68700000Y78685000D01*
G75*
G02*
X68450000Y78435000I-250000J0D01*
G01*
G37*
G36*
G01*
X65400000Y81785000D02*
X63150000Y81785000D01*
G75*
G02*
X62900000Y82035000I0J250000D01*
G01*
X62900000Y84585000D01*
G75*
G02*
X63150000Y84835000I250000J0D01*
G01*
X65400000Y84835000D01*
G75*
G02*
X65650000Y84585000I0J-250000D01*
G01*
X65650000Y82035000D01*
G75*
G02*
X65400000Y81785000I-250000J0D01*
G01*
G37*
G36*
G01*
X68450000Y81785000D02*
X66200000Y81785000D01*
G75*
G02*
X65950000Y82035000I0J250000D01*
G01*
X65950000Y84585000D01*
G75*
G02*
X66200000Y84835000I250000J0D01*
G01*
X68450000Y84835000D01*
G75*
G02*
X68700000Y84585000I0J-250000D01*
G01*
X68700000Y82035000D01*
G75*
G02*
X68450000Y81785000I-250000J0D01*
G01*
G37*
G36*
G01*
X68430000Y74235000D02*
X67730000Y74235000D01*
G75*
G02*
X67480000Y74485000I0J250000D01*
G01*
X67480000Y76185000D01*
G75*
G02*
X67730000Y76435000I250000J0D01*
G01*
X68430000Y76435000D01*
G75*
G02*
X68680000Y76185000I0J-250000D01*
G01*
X68680000Y74485000D01*
G75*
G02*
X68430000Y74235000I-250000J0D01*
G01*
G37*
G04 #@! TD*
G04 #@! TO.C,Q11*
G36*
G01*
X49870000Y74235000D02*
X49170000Y74235000D01*
G75*
G02*
X48920000Y74485000I0J250000D01*
G01*
X48920000Y76185000D01*
G75*
G02*
X49170000Y76435000I250000J0D01*
G01*
X49870000Y76435000D01*
G75*
G02*
X50120000Y76185000I0J-250000D01*
G01*
X50120000Y74485000D01*
G75*
G02*
X49870000Y74235000I-250000J0D01*
G01*
G37*
G36*
G01*
X51400000Y78435000D02*
X49150000Y78435000D01*
G75*
G02*
X48900000Y78685000I0J250000D01*
G01*
X48900000Y81235000D01*
G75*
G02*
X49150000Y81485000I250000J0D01*
G01*
X51400000Y81485000D01*
G75*
G02*
X51650000Y81235000I0J-250000D01*
G01*
X51650000Y78685000D01*
G75*
G02*
X51400000Y78435000I-250000J0D01*
G01*
G37*
G36*
G01*
X54450000Y78435000D02*
X52200000Y78435000D01*
G75*
G02*
X51950000Y78685000I0J250000D01*
G01*
X51950000Y81235000D01*
G75*
G02*
X52200000Y81485000I250000J0D01*
G01*
X54450000Y81485000D01*
G75*
G02*
X54700000Y81235000I0J-250000D01*
G01*
X54700000Y78685000D01*
G75*
G02*
X54450000Y78435000I-250000J0D01*
G01*
G37*
G36*
G01*
X51400000Y81785000D02*
X49150000Y81785000D01*
G75*
G02*
X48900000Y82035000I0J250000D01*
G01*
X48900000Y84585000D01*
G75*
G02*
X49150000Y84835000I250000J0D01*
G01*
X51400000Y84835000D01*
G75*
G02*
X51650000Y84585000I0J-250000D01*
G01*
X51650000Y82035000D01*
G75*
G02*
X51400000Y81785000I-250000J0D01*
G01*
G37*
G36*
G01*
X54450000Y81785000D02*
X52200000Y81785000D01*
G75*
G02*
X51950000Y82035000I0J250000D01*
G01*
X51950000Y84585000D01*
G75*
G02*
X52200000Y84835000I250000J0D01*
G01*
X54450000Y84835000D01*
G75*
G02*
X54700000Y84585000I0J-250000D01*
G01*
X54700000Y82035000D01*
G75*
G02*
X54450000Y81785000I-250000J0D01*
G01*
G37*
G36*
G01*
X54430000Y74235000D02*
X53730000Y74235000D01*
G75*
G02*
X53480000Y74485000I0J250000D01*
G01*
X53480000Y76185000D01*
G75*
G02*
X53730000Y76435000I250000J0D01*
G01*
X54430000Y76435000D01*
G75*
G02*
X54680000Y76185000I0J-250000D01*
G01*
X54680000Y74485000D01*
G75*
G02*
X54430000Y74235000I-250000J0D01*
G01*
G37*
G04 #@! TD*
G04 #@! TO.C,Q8*
G36*
G01*
X70870000Y74235000D02*
X70170000Y74235000D01*
G75*
G02*
X69920000Y74485000I0J250000D01*
G01*
X69920000Y76185000D01*
G75*
G02*
X70170000Y76435000I250000J0D01*
G01*
X70870000Y76435000D01*
G75*
G02*
X71120000Y76185000I0J-250000D01*
G01*
X71120000Y74485000D01*
G75*
G02*
X70870000Y74235000I-250000J0D01*
G01*
G37*
G36*
G01*
X72400000Y78435000D02*
X70150000Y78435000D01*
G75*
G02*
X69900000Y78685000I0J250000D01*
G01*
X69900000Y81235000D01*
G75*
G02*
X70150000Y81485000I250000J0D01*
G01*
X72400000Y81485000D01*
G75*
G02*
X72650000Y81235000I0J-250000D01*
G01*
X72650000Y78685000D01*
G75*
G02*
X72400000Y78435000I-250000J0D01*
G01*
G37*
G36*
G01*
X75450000Y78435000D02*
X73200000Y78435000D01*
G75*
G02*
X72950000Y78685000I0J250000D01*
G01*
X72950000Y81235000D01*
G75*
G02*
X73200000Y81485000I250000J0D01*
G01*
X75450000Y81485000D01*
G75*
G02*
X75700000Y81235000I0J-250000D01*
G01*
X75700000Y78685000D01*
G75*
G02*
X75450000Y78435000I-250000J0D01*
G01*
G37*
G36*
G01*
X72400000Y81785000D02*
X70150000Y81785000D01*
G75*
G02*
X69900000Y82035000I0J250000D01*
G01*
X69900000Y84585000D01*
G75*
G02*
X70150000Y84835000I250000J0D01*
G01*
X72400000Y84835000D01*
G75*
G02*
X72650000Y84585000I0J-250000D01*
G01*
X72650000Y82035000D01*
G75*
G02*
X72400000Y81785000I-250000J0D01*
G01*
G37*
G36*
G01*
X75450000Y81785000D02*
X73200000Y81785000D01*
G75*
G02*
X72950000Y82035000I0J250000D01*
G01*
X72950000Y84585000D01*
G75*
G02*
X73200000Y84835000I250000J0D01*
G01*
X75450000Y84835000D01*
G75*
G02*
X75700000Y84585000I0J-250000D01*
G01*
X75700000Y82035000D01*
G75*
G02*
X75450000Y81785000I-250000J0D01*
G01*
G37*
G36*
G01*
X75430000Y74235000D02*
X74730000Y74235000D01*
G75*
G02*
X74480000Y74485000I0J250000D01*
G01*
X74480000Y76185000D01*
G75*
G02*
X74730000Y76435000I250000J0D01*
G01*
X75430000Y76435000D01*
G75*
G02*
X75680000Y76185000I0J-250000D01*
G01*
X75680000Y74485000D01*
G75*
G02*
X75430000Y74235000I-250000J0D01*
G01*
G37*
G04 #@! TD*
G04 #@! TO.C,Q7*
G36*
G01*
X82430000Y74235000D02*
X81730000Y74235000D01*
G75*
G02*
X81480000Y74485000I0J250000D01*
G01*
X81480000Y76185000D01*
G75*
G02*
X81730000Y76435000I250000J0D01*
G01*
X82430000Y76435000D01*
G75*
G02*
X82680000Y76185000I0J-250000D01*
G01*
X82680000Y74485000D01*
G75*
G02*
X82430000Y74235000I-250000J0D01*
G01*
G37*
G36*
G01*
X82450000Y81785000D02*
X80200000Y81785000D01*
G75*
G02*
X79950000Y82035000I0J250000D01*
G01*
X79950000Y84585000D01*
G75*
G02*
X80200000Y84835000I250000J0D01*
G01*
X82450000Y84835000D01*
G75*
G02*
X82700000Y84585000I0J-250000D01*
G01*
X82700000Y82035000D01*
G75*
G02*
X82450000Y81785000I-250000J0D01*
G01*
G37*
G36*
G01*
X79400000Y81785000D02*
X77150000Y81785000D01*
G75*
G02*
X76900000Y82035000I0J250000D01*
G01*
X76900000Y84585000D01*
G75*
G02*
X77150000Y84835000I250000J0D01*
G01*
X79400000Y84835000D01*
G75*
G02*
X79650000Y84585000I0J-250000D01*
G01*
X79650000Y82035000D01*
G75*
G02*
X79400000Y81785000I-250000J0D01*
G01*
G37*
G36*
G01*
X82450000Y78435000D02*
X80200000Y78435000D01*
G75*
G02*
X79950000Y78685000I0J250000D01*
G01*
X79950000Y81235000D01*
G75*
G02*
X80200000Y81485000I250000J0D01*
G01*
X82450000Y81485000D01*
G75*
G02*
X82700000Y81235000I0J-250000D01*
G01*
X82700000Y78685000D01*
G75*
G02*
X82450000Y78435000I-250000J0D01*
G01*
G37*
G36*
G01*
X79400000Y78435000D02*
X77150000Y78435000D01*
G75*
G02*
X76900000Y78685000I0J250000D01*
G01*
X76900000Y81235000D01*
G75*
G02*
X77150000Y81485000I250000J0D01*
G01*
X79400000Y81485000D01*
G75*
G02*
X79650000Y81235000I0J-250000D01*
G01*
X79650000Y78685000D01*
G75*
G02*
X79400000Y78435000I-250000J0D01*
G01*
G37*
G36*
G01*
X77870000Y74235000D02*
X77170000Y74235000D01*
G75*
G02*
X76920000Y74485000I0J250000D01*
G01*
X76920000Y76185000D01*
G75*
G02*
X77170000Y76435000I250000J0D01*
G01*
X77870000Y76435000D01*
G75*
G02*
X78120000Y76185000I0J-250000D01*
G01*
X78120000Y74485000D01*
G75*
G02*
X77870000Y74235000I-250000J0D01*
G01*
G37*
G04 #@! TD*
G04 #@! TO.C,Q12*
G36*
G01*
X42870000Y74235000D02*
X42170000Y74235000D01*
G75*
G02*
X41920000Y74485000I0J250000D01*
G01*
X41920000Y76185000D01*
G75*
G02*
X42170000Y76435000I250000J0D01*
G01*
X42870000Y76435000D01*
G75*
G02*
X43120000Y76185000I0J-250000D01*
G01*
X43120000Y74485000D01*
G75*
G02*
X42870000Y74235000I-250000J0D01*
G01*
G37*
G36*
G01*
X44400000Y78435000D02*
X42150000Y78435000D01*
G75*
G02*
X41900000Y78685000I0J250000D01*
G01*
X41900000Y81235000D01*
G75*
G02*
X42150000Y81485000I250000J0D01*
G01*
X44400000Y81485000D01*
G75*
G02*
X44650000Y81235000I0J-250000D01*
G01*
X44650000Y78685000D01*
G75*
G02*
X44400000Y78435000I-250000J0D01*
G01*
G37*
G36*
G01*
X47450000Y78435000D02*
X45200000Y78435000D01*
G75*
G02*
X44950000Y78685000I0J250000D01*
G01*
X44950000Y81235000D01*
G75*
G02*
X45200000Y81485000I250000J0D01*
G01*
X47450000Y81485000D01*
G75*
G02*
X47700000Y81235000I0J-250000D01*
G01*
X47700000Y78685000D01*
G75*
G02*
X47450000Y78435000I-250000J0D01*
G01*
G37*
G36*
G01*
X44400000Y81785000D02*
X42150000Y81785000D01*
G75*
G02*
X41900000Y82035000I0J250000D01*
G01*
X41900000Y84585000D01*
G75*
G02*
X42150000Y84835000I250000J0D01*
G01*
X44400000Y84835000D01*
G75*
G02*
X44650000Y84585000I0J-250000D01*
G01*
X44650000Y82035000D01*
G75*
G02*
X44400000Y81785000I-250000J0D01*
G01*
G37*
G36*
G01*
X47450000Y81785000D02*
X45200000Y81785000D01*
G75*
G02*
X44950000Y82035000I0J250000D01*
G01*
X44950000Y84585000D01*
G75*
G02*
X45200000Y84835000I250000J0D01*
G01*
X47450000Y84835000D01*
G75*
G02*
X47700000Y84585000I0J-250000D01*
G01*
X47700000Y82035000D01*
G75*
G02*
X47450000Y81785000I-250000J0D01*
G01*
G37*
G36*
G01*
X47430000Y74235000D02*
X46730000Y74235000D01*
G75*
G02*
X46480000Y74485000I0J250000D01*
G01*
X46480000Y76185000D01*
G75*
G02*
X46730000Y76435000I250000J0D01*
G01*
X47430000Y76435000D01*
G75*
G02*
X47680000Y76185000I0J-250000D01*
G01*
X47680000Y74485000D01*
G75*
G02*
X47430000Y74235000I-250000J0D01*
G01*
G37*
G04 #@! TD*
D14*
G04 #@! TO.C,M7*
X42000001Y24775003D03*
G04 #@! TD*
G04 #@! TO.C,U7*
G36*
G01*
X78950000Y60832298D02*
X78650000Y60832298D01*
G75*
G02*
X78500000Y60982298I0J150000D01*
G01*
X78500000Y62632298D01*
G75*
G02*
X78650000Y62782298I150000J0D01*
G01*
X78950000Y62782298D01*
G75*
G02*
X79100000Y62632298I0J-150000D01*
G01*
X79100000Y60982298D01*
G75*
G02*
X78950000Y60832298I-150000J0D01*
G01*
G37*
G36*
G01*
X80220000Y60832298D02*
X79920000Y60832298D01*
G75*
G02*
X79770000Y60982298I0J150000D01*
G01*
X79770000Y62632298D01*
G75*
G02*
X79920000Y62782298I150000J0D01*
G01*
X80220000Y62782298D01*
G75*
G02*
X80370000Y62632298I0J-150000D01*
G01*
X80370000Y60982298D01*
G75*
G02*
X80220000Y60832298I-150000J0D01*
G01*
G37*
G36*
G01*
X81490000Y60832298D02*
X81190000Y60832298D01*
G75*
G02*
X81040000Y60982298I0J150000D01*
G01*
X81040000Y62632298D01*
G75*
G02*
X81190000Y62782298I150000J0D01*
G01*
X81490000Y62782298D01*
G75*
G02*
X81640000Y62632298I0J-150000D01*
G01*
X81640000Y60982298D01*
G75*
G02*
X81490000Y60832298I-150000J0D01*
G01*
G37*
G36*
G01*
X82760000Y60832298D02*
X82460000Y60832298D01*
G75*
G02*
X82310000Y60982298I0J150000D01*
G01*
X82310000Y62632298D01*
G75*
G02*
X82460000Y62782298I150000J0D01*
G01*
X82760000Y62782298D01*
G75*
G02*
X82910000Y62632298I0J-150000D01*
G01*
X82910000Y60982298D01*
G75*
G02*
X82760000Y60832298I-150000J0D01*
G01*
G37*
G36*
G01*
X82760000Y65782298D02*
X82460000Y65782298D01*
G75*
G02*
X82310000Y65932298I0J150000D01*
G01*
X82310000Y67582298D01*
G75*
G02*
X82460000Y67732298I150000J0D01*
G01*
X82760000Y67732298D01*
G75*
G02*
X82910000Y67582298I0J-150000D01*
G01*
X82910000Y65932298D01*
G75*
G02*
X82760000Y65782298I-150000J0D01*
G01*
G37*
G36*
G01*
X81490000Y65782298D02*
X81190000Y65782298D01*
G75*
G02*
X81040000Y65932298I0J150000D01*
G01*
X81040000Y67582298D01*
G75*
G02*
X81190000Y67732298I150000J0D01*
G01*
X81490000Y67732298D01*
G75*
G02*
X81640000Y67582298I0J-150000D01*
G01*
X81640000Y65932298D01*
G75*
G02*
X81490000Y65782298I-150000J0D01*
G01*
G37*
G36*
G01*
X80220000Y65782298D02*
X79920000Y65782298D01*
G75*
G02*
X79770000Y65932298I0J150000D01*
G01*
X79770000Y67582298D01*
G75*
G02*
X79920000Y67732298I150000J0D01*
G01*
X80220000Y67732298D01*
G75*
G02*
X80370000Y67582298I0J-150000D01*
G01*
X80370000Y65932298D01*
G75*
G02*
X80220000Y65782298I-150000J0D01*
G01*
G37*
G36*
G01*
X78950000Y65782298D02*
X78650000Y65782298D01*
G75*
G02*
X78500000Y65932298I0J150000D01*
G01*
X78500000Y67582298D01*
G75*
G02*
X78650000Y67732298I150000J0D01*
G01*
X78950000Y67732298D01*
G75*
G02*
X79100000Y67582298I0J-150000D01*
G01*
X79100000Y65932298D01*
G75*
G02*
X78950000Y65782298I-150000J0D01*
G01*
G37*
G04 #@! TD*
G04 #@! TO.C,Q10*
G36*
G01*
X56870000Y74235000D02*
X56170000Y74235000D01*
G75*
G02*
X55920000Y74485000I0J250000D01*
G01*
X55920000Y76185000D01*
G75*
G02*
X56170000Y76435000I250000J0D01*
G01*
X56870000Y76435000D01*
G75*
G02*
X57120000Y76185000I0J-250000D01*
G01*
X57120000Y74485000D01*
G75*
G02*
X56870000Y74235000I-250000J0D01*
G01*
G37*
G36*
G01*
X58400000Y78435000D02*
X56150000Y78435000D01*
G75*
G02*
X55900000Y78685000I0J250000D01*
G01*
X55900000Y81235000D01*
G75*
G02*
X56150000Y81485000I250000J0D01*
G01*
X58400000Y81485000D01*
G75*
G02*
X58650000Y81235000I0J-250000D01*
G01*
X58650000Y78685000D01*
G75*
G02*
X58400000Y78435000I-250000J0D01*
G01*
G37*
G36*
G01*
X61450000Y78435000D02*
X59200000Y78435000D01*
G75*
G02*
X58950000Y78685000I0J250000D01*
G01*
X58950000Y81235000D01*
G75*
G02*
X59200000Y81485000I250000J0D01*
G01*
X61450000Y81485000D01*
G75*
G02*
X61700000Y81235000I0J-250000D01*
G01*
X61700000Y78685000D01*
G75*
G02*
X61450000Y78435000I-250000J0D01*
G01*
G37*
G36*
G01*
X58400000Y81785000D02*
X56150000Y81785000D01*
G75*
G02*
X55900000Y82035000I0J250000D01*
G01*
X55900000Y84585000D01*
G75*
G02*
X56150000Y84835000I250000J0D01*
G01*
X58400000Y84835000D01*
G75*
G02*
X58650000Y84585000I0J-250000D01*
G01*
X58650000Y82035000D01*
G75*
G02*
X58400000Y81785000I-250000J0D01*
G01*
G37*
G36*
G01*
X61450000Y81785000D02*
X59200000Y81785000D01*
G75*
G02*
X58950000Y82035000I0J250000D01*
G01*
X58950000Y84585000D01*
G75*
G02*
X59200000Y84835000I250000J0D01*
G01*
X61450000Y84835000D01*
G75*
G02*
X61700000Y84585000I0J-250000D01*
G01*
X61700000Y82035000D01*
G75*
G02*
X61450000Y81785000I-250000J0D01*
G01*
G37*
G36*
G01*
X61430000Y74235000D02*
X60730000Y74235000D01*
G75*
G02*
X60480000Y74485000I0J250000D01*
G01*
X60480000Y76185000D01*
G75*
G02*
X60730000Y76435000I250000J0D01*
G01*
X61430000Y76435000D01*
G75*
G02*
X61680000Y76185000I0J-250000D01*
G01*
X61680000Y74485000D01*
G75*
G02*
X61430000Y74235000I-250000J0D01*
G01*
G37*
G04 #@! TD*
M02*
