G04 #@! TF.GenerationSoftware,KiCad,Pcbnew,8.0.8*
G04 #@! TF.CreationDate,2025-12-05T18:20:35-05:00*
G04 #@! TF.ProjectId,hellen121vag,68656c6c-656e-4313-9231-7661672e6b69,d*
G04 #@! TF.SameCoordinates,PX2b953a0PY6943058*
G04 #@! TF.FileFunction,Soldermask,Top*
G04 #@! TF.FilePolarity,Negative*
%FSLAX46Y46*%
G04 Gerber Fmt 4.6, Leading zero omitted, Abs format (unit mm)*
G04 Created by KiCad (PCBNEW 8.0.8) date 2025-12-05 18:20:35*
%MOMM*%
%LPD*%
G01*
G04 APERTURE LIST*
%ADD10C,0.120000*%
%ADD11C,2.600000*%
%ADD12C,1.500000*%
%ADD13C,3.700000*%
%ADD14C,2.200000*%
%ADD15O,1.700000X1.700000*%
%ADD16R,1.700000X1.700000*%
%ADD17C,1.700000*%
%ADD18C,1.524000*%
%ADD19R,0.690000X1.350000*%
%ADD20C,3.302000*%
%ADD21R,1.300000X1.000000*%
%ADD22R,4.500000X8.100000*%
%ADD23R,2.000000X0.650000*%
%ADD24C,0.800000*%
%ADD25C,6.400000*%
%ADD26O,3.700000X2.700000*%
%ADD27C,3.000000*%
%ADD28O,1.000000X1.600000*%
%ADD29O,1.000000X2.100000*%
%ADD30R,0.300000X1.150000*%
%ADD31C,0.650000*%
%ADD32C,0.600000*%
%ADD33O,2.700000X3.700000*%
%ADD34O,1.850000X1.700000*%
%ADD35O,2.400000X1.100000*%
%ADD36C,1.100000*%
%ADD37R,1.100000X1.100000*%
%ADD38C,0.599999*%
%ADD39O,0.499999X0.250000*%
%ADD40O,0.250000X0.499999*%
G04 APERTURE END LIST*
D10*
G04 #@! TO.C,U5*
X309565000Y-61175000D02*
X296565000Y-61175000D01*
X296565000Y-54175000D01*
X309565000Y-54175000D01*
X309565000Y-61175000D01*
G36*
X309565000Y-61175000D02*
G01*
X296565000Y-61175000D01*
X296565000Y-54175000D01*
X309565000Y-54175000D01*
X309565000Y-61175000D01*
G37*
G04 #@! TD*
D11*
G04 #@! TO.C,P1*
X138448000Y18622000D03*
X132548000Y18622000D03*
X126748000Y18622000D03*
X135548000Y12822000D03*
X129648000Y12822000D03*
X138448000Y10492000D03*
X132548000Y10492000D03*
X126748000Y10492000D03*
D12*
X118918000Y18622000D03*
X116378000Y18622000D03*
X113838000Y18622000D03*
X111298000Y18622000D03*
X108758000Y18622000D03*
X106218000Y18622000D03*
X103678000Y18622000D03*
X101138000Y18622000D03*
X118918000Y16082000D03*
X116378000Y16082000D03*
X113838000Y16082000D03*
X111298000Y16082000D03*
X108758000Y16082000D03*
X106218000Y16082000D03*
X103678000Y16082000D03*
X101138000Y16082000D03*
X118918000Y10032000D03*
X116378000Y10032000D03*
X113838000Y10032000D03*
X111298000Y10032000D03*
X108758000Y10032000D03*
X106218000Y10032000D03*
X103678000Y10032000D03*
X101138000Y10032000D03*
X118918000Y7492000D03*
X116378000Y7492000D03*
X113838000Y7492000D03*
X111298000Y7492000D03*
X108758000Y7492000D03*
X106218000Y7492000D03*
X103678000Y7492000D03*
X101138000Y7492000D03*
X39448000Y7492000D03*
X41988000Y7492000D03*
X44528000Y7492000D03*
X47068000Y7492000D03*
X49608000Y7492000D03*
X52148000Y7492000D03*
X54688000Y7492000D03*
X57228000Y7492000D03*
X59768000Y7492000D03*
X62308000Y7492000D03*
X64848000Y7492000D03*
X67388000Y7492000D03*
X69928000Y7492000D03*
X72468000Y7492000D03*
X75008000Y7492000D03*
X77548000Y7492000D03*
X80088000Y7492000D03*
X82628000Y7492000D03*
X85168000Y7492000D03*
X39448000Y10032000D03*
X41988000Y10032000D03*
X44528000Y10032000D03*
X47068000Y10032000D03*
X49608000Y10032000D03*
X52148000Y10032000D03*
X54688000Y10032000D03*
X57228000Y10032000D03*
X59768000Y10032000D03*
X62308000Y10032000D03*
X64848000Y10032000D03*
X67388000Y10032000D03*
X69928000Y10032000D03*
X72468000Y10032000D03*
X75008000Y10032000D03*
X77548000Y10032000D03*
X80088000Y10032000D03*
X82628000Y10032000D03*
X85168000Y10032000D03*
X39448000Y16082000D03*
X41988000Y16082000D03*
X44528000Y16082000D03*
X47068000Y16082000D03*
X49608000Y16082000D03*
X52148000Y16082000D03*
X54688000Y16082000D03*
X57228000Y16082000D03*
X59768000Y16082000D03*
X62308000Y16082000D03*
X64848000Y16082000D03*
X67388000Y16082000D03*
X69928000Y16082000D03*
X72468000Y16082000D03*
X75008000Y16082000D03*
X77548000Y16082000D03*
X80088000Y16082000D03*
X82628000Y16082000D03*
X85168000Y16082000D03*
X39448000Y18622000D03*
X41988000Y18622000D03*
X44528000Y18622000D03*
X47068000Y18622000D03*
X49608000Y18622000D03*
X52148000Y18622000D03*
X54688000Y18622000D03*
X57228000Y18622000D03*
X59768000Y18622000D03*
X62308000Y18622000D03*
X64848000Y18622000D03*
X67388000Y18622000D03*
X69928000Y18622000D03*
X72468000Y18622000D03*
X75008000Y18622000D03*
X77548000Y18622000D03*
X80088000Y18622000D03*
X82628000Y18622000D03*
X85168000Y18622000D03*
D11*
X31548000Y18622000D03*
X25748000Y18622000D03*
X28648000Y12822000D03*
X31548000Y10492000D03*
X25748000Y10492000D03*
D13*
X18648000Y5492000D03*
X93148000Y5492000D03*
X145348000Y5492000D03*
D14*
X142898000Y13292000D03*
X21098000Y13292000D03*
G04 #@! TD*
D15*
G04 #@! TO.C,J21*
X263755000Y-44690000D03*
X266295000Y-44690000D03*
X263755000Y-42150000D03*
D16*
X266295000Y-42150000D03*
G04 #@! TD*
D17*
G04 #@! TO.C,P16*
X310850000Y-19715000D03*
G04 #@! TD*
G04 #@! TO.C,G4*
X307068000Y5099000D03*
X307068000Y2559000D03*
X307068000Y19000D03*
X307068000Y-2521000D03*
X307068000Y-5061000D03*
X304528000Y5099000D03*
X304528000Y2559000D03*
X304528000Y19000D03*
X304528000Y-2521000D03*
X304528000Y-5061000D03*
X301988000Y5099000D03*
X301988000Y2559000D03*
X301988000Y19000D03*
X301988000Y-2521000D03*
X301988000Y-5061000D03*
G04 #@! TD*
D12*
G04 #@! TO.C,BT1*
X299947263Y20974937D03*
X299947263Y13475079D03*
G04 #@! TD*
D18*
G04 #@! TO.C,U3*
X269842000Y-53685500D03*
X269842000Y-51145500D03*
X269842000Y-48605500D03*
X269842000Y-46065500D03*
D19*
X279392000Y-42393000D03*
D18*
X269842000Y-43525500D03*
D19*
X278122000Y-42393000D03*
X276852000Y-42393000D03*
D18*
X269842000Y-40985500D03*
D19*
X276852000Y-52235500D03*
X278122000Y-52235500D03*
X279392000Y-52235500D03*
X280662000Y-52235500D03*
X280662000Y-42393000D03*
D20*
X282542000Y-58765500D03*
X282542000Y-35905500D03*
G04 #@! TD*
D15*
G04 #@! TO.C,J12*
X249455000Y-51840000D03*
X251995000Y-51840000D03*
X249455000Y-49300000D03*
D16*
X251995000Y-49300000D03*
G04 #@! TD*
G04 #@! TO.C,C12*
G36*
G01*
X287169971Y-87405000D02*
X286489971Y-87405000D01*
G75*
G02*
X286404971Y-87320000I0J85000D01*
G01*
X286404971Y-86640000D01*
G75*
G02*
X286489971Y-86555000I85000J0D01*
G01*
X287169971Y-86555000D01*
G75*
G02*
X287254971Y-86640000I0J-85000D01*
G01*
X287254971Y-87320000D01*
G75*
G02*
X287169971Y-87405000I-85000J0D01*
G01*
G37*
G36*
G01*
X287169971Y-88985002D02*
X286489971Y-88985002D01*
G75*
G02*
X286404971Y-88900002I0J85000D01*
G01*
X286404971Y-88220002D01*
G75*
G02*
X286489971Y-88135002I85000J0D01*
G01*
X287169971Y-88135002D01*
G75*
G02*
X287254971Y-88220002I0J-85000D01*
G01*
X287254971Y-88900002D01*
G75*
G02*
X287169971Y-88985002I-85000J0D01*
G01*
G37*
G04 #@! TD*
D17*
G04 #@! TO.C,P3*
X299510000Y-27275000D03*
G04 #@! TD*
G04 #@! TO.C,R11*
G36*
G01*
X284562451Y-23225000D02*
X285342451Y-23225000D01*
G75*
G02*
X285412451Y-23295000I0J-70000D01*
G01*
X285412451Y-23855000D01*
G75*
G02*
X285342451Y-23925000I-70000J0D01*
G01*
X284562451Y-23925000D01*
G75*
G02*
X284492451Y-23855000I0J70000D01*
G01*
X284492451Y-23295000D01*
G75*
G02*
X284562451Y-23225000I70000J0D01*
G01*
G37*
G36*
G01*
X284562451Y-21625000D02*
X285342451Y-21625000D01*
G75*
G02*
X285412451Y-21695000I0J-70000D01*
G01*
X285412451Y-22255000D01*
G75*
G02*
X285342451Y-22325000I-70000J0D01*
G01*
X284562451Y-22325000D01*
G75*
G02*
X284492451Y-22255000I0J70000D01*
G01*
X284492451Y-21695000D01*
G75*
G02*
X284562451Y-21625000I70000J0D01*
G01*
G37*
G04 #@! TD*
D21*
G04 #@! TO.C,U5*
X296715000Y-53600000D03*
X296715000Y-52100000D03*
X296715000Y-50600000D03*
X296715000Y-49100000D03*
X296715000Y-47600000D03*
X296715000Y-46100000D03*
X296715000Y-44600000D03*
X296715000Y-43100000D03*
X296715000Y-41600000D03*
X296715000Y-40100000D03*
X296715000Y-38600000D03*
X296715000Y-37100000D03*
X296715000Y-35600000D03*
X309415000Y-35600000D03*
X309415000Y-37100000D03*
X309415000Y-38600000D03*
X309415000Y-40100000D03*
X309415000Y-41600000D03*
X309415000Y-43100000D03*
X309415000Y-44600000D03*
X309415000Y-46100000D03*
X309415000Y-47600000D03*
X309415000Y-49100000D03*
X309415000Y-50600000D03*
X309415000Y-52100000D03*
X309415000Y-53600000D03*
G04 #@! TD*
D22*
G04 #@! TO.C,U1*
X314335000Y23050000D03*
D23*
X319135000Y25550000D03*
X319135000Y24550000D03*
X319135000Y23550000D03*
X319135000Y22550000D03*
X319135000Y21550000D03*
X319135000Y20550000D03*
X309535000Y20550000D03*
X309535000Y21550000D03*
X309535000Y22550000D03*
X309535000Y23550000D03*
X309535000Y24550000D03*
X309535000Y25550000D03*
G04 #@! TD*
D15*
G04 #@! TO.C,J24*
X263755000Y-58990000D03*
X266295000Y-58990000D03*
X263755000Y-56450000D03*
D16*
X266295000Y-56450000D03*
G04 #@! TD*
D22*
G04 #@! TO.C,U2*
X314335000Y13400000D03*
D23*
X319135000Y15900000D03*
X319135000Y14900000D03*
X319135000Y13900000D03*
X319135000Y12900000D03*
X319135000Y11900000D03*
X319135000Y10900000D03*
X309535000Y10900000D03*
X309535000Y11900000D03*
X309535000Y12900000D03*
X309535000Y13900000D03*
X309535000Y14900000D03*
X309535000Y15900000D03*
G04 #@! TD*
G04 #@! TO.C,R35*
G36*
G01*
X317580022Y-63870001D02*
X317580022Y-62620001D01*
G75*
G02*
X317680022Y-62520001I100000J0D01*
G01*
X318480022Y-62520001D01*
G75*
G02*
X318580022Y-62620001I0J-100000D01*
G01*
X318580022Y-63870001D01*
G75*
G02*
X318480022Y-63970001I-100000J0D01*
G01*
X317680022Y-63970001D01*
G75*
G02*
X317580022Y-63870001I0J100000D01*
G01*
G37*
G36*
G01*
X315680000Y-63870001D02*
X315680000Y-62620001D01*
G75*
G02*
X315780000Y-62520001I100000J0D01*
G01*
X316580000Y-62520001D01*
G75*
G02*
X316680000Y-62620001I0J-100000D01*
G01*
X316680000Y-63870001D01*
G75*
G02*
X316580000Y-63970001I-100000J0D01*
G01*
X315780000Y-63970001D01*
G75*
G02*
X315680000Y-63870001I0J100000D01*
G01*
G37*
G04 #@! TD*
D24*
G04 #@! TO.C,H3*
X313605000Y-81870000D03*
X312902056Y-83567056D03*
X312902056Y-80172944D03*
X311205000Y-84270000D03*
D25*
X311205000Y-81870000D03*
D24*
X311205000Y-79470000D03*
X309507944Y-83567056D03*
X309507944Y-80172944D03*
X308805000Y-81870000D03*
G04 #@! TD*
G04 #@! TO.C,R36*
G36*
G01*
X317580022Y-66372929D02*
X317580022Y-65122929D01*
G75*
G02*
X317680022Y-65022929I100000J0D01*
G01*
X318480022Y-65022929D01*
G75*
G02*
X318580022Y-65122929I0J-100000D01*
G01*
X318580022Y-66372929D01*
G75*
G02*
X318480022Y-66472929I-100000J0D01*
G01*
X317680022Y-66472929D01*
G75*
G02*
X317580022Y-66372929I0J100000D01*
G01*
G37*
G36*
G01*
X315680000Y-66372929D02*
X315680000Y-65122929D01*
G75*
G02*
X315780000Y-65022929I100000J0D01*
G01*
X316580000Y-65022929D01*
G75*
G02*
X316680000Y-65122929I0J-100000D01*
G01*
X316680000Y-66372929D01*
G75*
G02*
X316580000Y-66472929I-100000J0D01*
G01*
X315780000Y-66472929D01*
G75*
G02*
X315680000Y-66372929I0J100000D01*
G01*
G37*
G04 #@! TD*
G04 #@! TO.C,Q9*
G36*
G01*
X246355000Y-26870000D02*
X246355000Y-27570000D01*
G75*
G02*
X246105000Y-27820000I-250000J0D01*
G01*
X244405000Y-27820000D01*
G75*
G02*
X244155000Y-27570000I0J250000D01*
G01*
X244155000Y-26870000D01*
G75*
G02*
X244405000Y-26620000I250000J0D01*
G01*
X246105000Y-26620000D01*
G75*
G02*
X246355000Y-26870000I0J-250000D01*
G01*
G37*
G36*
G01*
X242155000Y-26849997D02*
X242155000Y-32150003D01*
G75*
G02*
X241905003Y-32400000I-249997J0D01*
G01*
X236004997Y-32400000D01*
G75*
G02*
X235755000Y-32150003I0J249997D01*
G01*
X235755000Y-26849997D01*
G75*
G02*
X236004997Y-26600000I249997J0D01*
G01*
X241905003Y-26600000D01*
G75*
G02*
X242155000Y-26849997I0J-249997D01*
G01*
G37*
G36*
G01*
X246355000Y-31430000D02*
X246355000Y-32130000D01*
G75*
G02*
X246105000Y-32380000I-250000J0D01*
G01*
X244405000Y-32380000D01*
G75*
G02*
X244155000Y-32130000I0J250000D01*
G01*
X244155000Y-31430000D01*
G75*
G02*
X244405000Y-31180000I250000J0D01*
G01*
X246105000Y-31180000D01*
G75*
G02*
X246355000Y-31430000I0J-250000D01*
G01*
G37*
G04 #@! TD*
D15*
G04 #@! TO.C,J16*
X256605000Y-44690000D03*
X259145000Y-44690000D03*
X256605000Y-42150000D03*
D16*
X259145000Y-42150000D03*
G04 #@! TD*
D18*
G04 #@! TO.C,F1*
X276960000Y-7295000D03*
G36*
G01*
X276060000Y-6640010D02*
X276060000Y-5950010D01*
G75*
G02*
X276290000Y-5720010I230000J0D01*
G01*
X277630000Y-5720010D01*
G75*
G02*
X277860000Y-5950010I0J-230000D01*
G01*
X277860000Y-6640010D01*
G75*
G02*
X277630000Y-6870010I-230000J0D01*
G01*
X276290000Y-6870010D01*
G75*
G02*
X276060000Y-6640010I0J230000D01*
G01*
G37*
G36*
G01*
X276060000Y-3739990D02*
X276060000Y-3049990D01*
G75*
G02*
X276290000Y-2819990I230000J0D01*
G01*
X277630000Y-2819990D01*
G75*
G02*
X277860000Y-3049990I0J-230000D01*
G01*
X277860000Y-3739990D01*
G75*
G02*
X277630000Y-3969990I-230000J0D01*
G01*
X276290000Y-3969990D01*
G75*
G02*
X276060000Y-3739990I0J230000D01*
G01*
G37*
X276960000Y-2395000D03*
G04 #@! TD*
D26*
G04 #@! TO.C,J5*
X232105000Y-13100000D03*
X232105000Y-17300000D03*
X232105000Y-21500000D03*
X232105000Y-25700000D03*
X232105000Y-29900000D03*
X232105000Y-34100000D03*
X232105000Y-38300000D03*
X232105000Y-42500000D03*
X232105000Y-46700000D03*
X226605000Y-13100000D03*
X226605000Y-17300000D03*
X226605000Y-21500000D03*
X226605000Y-25700000D03*
X226605000Y-29900000D03*
X226605000Y-34100000D03*
X226605000Y-38300000D03*
X226605000Y-42500000D03*
G36*
G01*
X228204999Y-48050000D02*
X225005001Y-48050000D01*
G75*
G02*
X224755000Y-47799999I0J250001D01*
G01*
X224755000Y-45600001D01*
G75*
G02*
X225005001Y-45350000I250001J0D01*
G01*
X228204999Y-45350000D01*
G75*
G02*
X228455000Y-45600001I0J-250001D01*
G01*
X228455000Y-47799999D01*
G75*
G02*
X228204999Y-48050000I-250001J0D01*
G01*
G37*
D27*
X219305000Y-13100000D03*
X219305000Y-46700000D03*
G04 #@! TD*
G04 #@! TO.C,R38*
G36*
G01*
X317580022Y-71378785D02*
X317580022Y-70128785D01*
G75*
G02*
X317680022Y-70028785I100000J0D01*
G01*
X318480022Y-70028785D01*
G75*
G02*
X318580022Y-70128785I0J-100000D01*
G01*
X318580022Y-71378785D01*
G75*
G02*
X318480022Y-71478785I-100000J0D01*
G01*
X317680022Y-71478785D01*
G75*
G02*
X317580022Y-71378785I0J100000D01*
G01*
G37*
G36*
G01*
X315680000Y-71378785D02*
X315680000Y-70128785D01*
G75*
G02*
X315780000Y-70028785I100000J0D01*
G01*
X316580000Y-70028785D01*
G75*
G02*
X316680000Y-70128785I0J-100000D01*
G01*
X316680000Y-71378785D01*
G75*
G02*
X316580000Y-71478785I-100000J0D01*
G01*
X315780000Y-71478785D01*
G75*
G02*
X315680000Y-71378785I0J100000D01*
G01*
G37*
G04 #@! TD*
D18*
G04 #@! TO.C,R4*
X318985391Y-54860391D03*
G36*
G01*
X318360391Y-53405412D02*
X319610391Y-53405412D01*
G75*
G02*
X319710391Y-53505412I0J-100000D01*
G01*
X319710391Y-54305412D01*
G75*
G02*
X319610391Y-54405412I-100000J0D01*
G01*
X318360391Y-54405412D01*
G75*
G02*
X318260391Y-54305412I0J100000D01*
G01*
X318260391Y-53505412D01*
G75*
G02*
X318360391Y-53405412I100000J0D01*
G01*
G37*
G36*
G01*
X318360391Y-51505390D02*
X319610391Y-51505390D01*
G75*
G02*
X319710391Y-51605390I0J-100000D01*
G01*
X319710391Y-52405390D01*
G75*
G02*
X319610391Y-52505390I-100000J0D01*
G01*
X318360391Y-52505390D01*
G75*
G02*
X318260391Y-52405390I0J100000D01*
G01*
X318260391Y-51605390D01*
G75*
G02*
X318360391Y-51505390I100000J0D01*
G01*
G37*
X318985391Y-51050391D03*
G04 #@! TD*
D26*
G04 #@! TO.C,J3*
X214555000Y-62550000D03*
X214555000Y-58350000D03*
X214555000Y-54150000D03*
X220055000Y-62550000D03*
X220055000Y-58350000D03*
G36*
G01*
X218455001Y-52800000D02*
X221654999Y-52800000D01*
G75*
G02*
X221905000Y-53050001I0J-250001D01*
G01*
X221905000Y-55249999D01*
G75*
G02*
X221654999Y-55500000I-250001J0D01*
G01*
X218455001Y-55500000D01*
G75*
G02*
X218205000Y-55249999I0J250001D01*
G01*
X218205000Y-53050001D01*
G75*
G02*
X218455001Y-52800000I250001J0D01*
G01*
G37*
D27*
X227355000Y-62550000D03*
X227355000Y-54150000D03*
G04 #@! TD*
D17*
G04 #@! TO.C,G3*
X298836000Y5099000D03*
X298836000Y2559000D03*
X298836000Y19000D03*
X298836000Y-2521000D03*
X298836000Y-5061000D03*
X296296000Y5099000D03*
X296296000Y2559000D03*
X296296000Y19000D03*
X296296000Y-2521000D03*
X296296000Y-5061000D03*
X293756000Y5099000D03*
X293756000Y2559000D03*
X293756000Y19000D03*
X293756000Y-2521000D03*
X293756000Y-5061000D03*
G04 #@! TD*
D15*
G04 #@! TO.C,J1*
X249455000Y-37540000D03*
X251995000Y-37540000D03*
X249455000Y-35000000D03*
D16*
X251995000Y-35000000D03*
G04 #@! TD*
G04 #@! TO.C,D3*
G36*
G01*
X280590000Y3175000D02*
X279570000Y3175000D01*
G75*
G02*
X279480000Y3265000I0J90000D01*
G01*
X279480000Y3985000D01*
G75*
G02*
X279570000Y4075000I90000J0D01*
G01*
X280590000Y4075000D01*
G75*
G02*
X280680000Y3985000I0J-90000D01*
G01*
X280680000Y3265000D01*
G75*
G02*
X280590000Y3175000I-90000J0D01*
G01*
G37*
G36*
G01*
X280590000Y-125000D02*
X279570000Y-125000D01*
G75*
G02*
X279480000Y-35000I0J90000D01*
G01*
X279480000Y685000D01*
G75*
G02*
X279570000Y775000I90000J0D01*
G01*
X280590000Y775000D01*
G75*
G02*
X280680000Y685000I0J-90000D01*
G01*
X280680000Y-35000D01*
G75*
G02*
X280590000Y-125000I-90000J0D01*
G01*
G37*
G04 #@! TD*
D17*
G04 #@! TO.C,P7*
X307070000Y-19715000D03*
G04 #@! TD*
D26*
G04 #@! TO.C,J4*
X304355000Y-65720000D03*
X304355000Y-69920000D03*
X304355000Y-74120000D03*
X304355000Y-78320000D03*
X298855000Y-65720000D03*
X298855000Y-69920000D03*
X298855000Y-74120000D03*
G36*
G01*
X300454999Y-79670000D02*
X297255001Y-79670000D01*
G75*
G02*
X297005000Y-79419999I0J250001D01*
G01*
X297005000Y-77220001D01*
G75*
G02*
X297255001Y-76970000I250001J0D01*
G01*
X300454999Y-76970000D01*
G75*
G02*
X300705000Y-77220001I0J-250001D01*
G01*
X300705000Y-79419999D01*
G75*
G02*
X300454999Y-79670000I-250001J0D01*
G01*
G37*
D27*
X291555000Y-65720000D03*
X291555000Y-78320000D03*
G04 #@! TD*
G04 #@! TO.C,Q11*
G36*
G01*
X246355000Y-42970000D02*
X246355000Y-43670000D01*
G75*
G02*
X246105000Y-43920000I-250000J0D01*
G01*
X244405000Y-43920000D01*
G75*
G02*
X244155000Y-43670000I0J250000D01*
G01*
X244155000Y-42970000D01*
G75*
G02*
X244405000Y-42720000I250000J0D01*
G01*
X246105000Y-42720000D01*
G75*
G02*
X246355000Y-42970000I0J-250000D01*
G01*
G37*
G36*
G01*
X242155000Y-42949997D02*
X242155000Y-48250003D01*
G75*
G02*
X241905003Y-48500000I-249997J0D01*
G01*
X236004997Y-48500000D01*
G75*
G02*
X235755000Y-48250003I0J249997D01*
G01*
X235755000Y-42949997D01*
G75*
G02*
X236004997Y-42700000I249997J0D01*
G01*
X241905003Y-42700000D01*
G75*
G02*
X242155000Y-42949997I0J-249997D01*
G01*
G37*
G36*
G01*
X246355000Y-47530000D02*
X246355000Y-48230000D01*
G75*
G02*
X246105000Y-48480000I-250000J0D01*
G01*
X244405000Y-48480000D01*
G75*
G02*
X244155000Y-48230000I0J250000D01*
G01*
X244155000Y-47530000D01*
G75*
G02*
X244405000Y-47280000I250000J0D01*
G01*
X246105000Y-47280000D01*
G75*
G02*
X246355000Y-47530000I0J-250000D01*
G01*
G37*
G04 #@! TD*
D15*
G04 #@! TO.C,J13*
X249455000Y-58990000D03*
X251995000Y-58990000D03*
X249455000Y-56450000D03*
D16*
X251995000Y-56450000D03*
G04 #@! TD*
D28*
G04 #@! TO.C,J9*
X257095000Y-1775000D03*
D29*
X257095000Y2405000D03*
D28*
X248455000Y-1775000D03*
D29*
X248455000Y2405000D03*
D30*
X249725000Y2970000D03*
X250525000Y2970000D03*
X251025000Y2970000D03*
X252025000Y2970000D03*
X253525000Y2970000D03*
X254525000Y2970000D03*
X255025000Y2970000D03*
X255825000Y2970000D03*
X256125000Y2970000D03*
X255325000Y2970000D03*
X254025000Y2970000D03*
X253025000Y2970000D03*
X252525000Y2970000D03*
X251525000Y2970000D03*
X250225000Y2970000D03*
X249425000Y2970000D03*
D31*
X255665000Y1905000D03*
X249885000Y1905000D03*
G04 #@! TD*
D32*
G04 #@! TO.C,M4*
X225320000Y-67400000D03*
X226320000Y-67400000D03*
X232780000Y-81825000D03*
X231580000Y-81825000D03*
X229180000Y-81825000D03*
X230380000Y-81825000D03*
G04 #@! TD*
D15*
G04 #@! TO.C,J14*
X249455000Y-66140000D03*
X251995000Y-66140000D03*
X249455000Y-63600000D03*
D16*
X251995000Y-63600000D03*
G04 #@! TD*
D18*
G04 #@! TO.C,F2*
X319200000Y-26995000D03*
G36*
G01*
X318545010Y-27895000D02*
X317855010Y-27895000D01*
G75*
G02*
X317625010Y-27665000I0J230000D01*
G01*
X317625010Y-26325000D01*
G75*
G02*
X317855010Y-26095000I230000J0D01*
G01*
X318545010Y-26095000D01*
G75*
G02*
X318775010Y-26325000I0J-230000D01*
G01*
X318775010Y-27665000D01*
G75*
G02*
X318545010Y-27895000I-230000J0D01*
G01*
G37*
G36*
G01*
X315644990Y-27895000D02*
X314954990Y-27895000D01*
G75*
G02*
X314724990Y-27665000I0J230000D01*
G01*
X314724990Y-26325000D01*
G75*
G02*
X314954990Y-26095000I230000J0D01*
G01*
X315644990Y-26095000D01*
G75*
G02*
X315874990Y-26325000I0J-230000D01*
G01*
X315874990Y-27665000D01*
G75*
G02*
X315644990Y-27895000I-230000J0D01*
G01*
G37*
X314300000Y-26995000D03*
G04 #@! TD*
D15*
G04 #@! TO.C,J15*
X256605000Y-37540000D03*
X259145000Y-37540000D03*
X256605000Y-35000000D03*
D16*
X259145000Y-35000000D03*
G04 #@! TD*
G04 #@! TO.C,D5*
G36*
G01*
X286830000Y3175000D02*
X285810000Y3175000D01*
G75*
G02*
X285720000Y3265000I0J90000D01*
G01*
X285720000Y3985000D01*
G75*
G02*
X285810000Y4075000I90000J0D01*
G01*
X286830000Y4075000D01*
G75*
G02*
X286920000Y3985000I0J-90000D01*
G01*
X286920000Y3265000D01*
G75*
G02*
X286830000Y3175000I-90000J0D01*
G01*
G37*
G36*
G01*
X286830000Y-125000D02*
X285810000Y-125000D01*
G75*
G02*
X285720000Y-35000I0J90000D01*
G01*
X285720000Y685000D01*
G75*
G02*
X285810000Y775000I90000J0D01*
G01*
X286830000Y775000D01*
G75*
G02*
X286920000Y685000I0J-90000D01*
G01*
X286920000Y-35000D01*
G75*
G02*
X286830000Y-125000I-90000J0D01*
G01*
G37*
G04 #@! TD*
D15*
G04 #@! TO.C,J6*
X286255000Y-91810000D03*
X288795000Y-91810000D03*
X291335000Y-91810000D03*
X293875000Y-91810000D03*
X296415000Y-91810000D03*
D16*
X298955000Y-91810000D03*
G04 #@! TD*
D15*
G04 #@! TO.C,J19*
X256605000Y-66140000D03*
X259145000Y-66140000D03*
X256605000Y-63600000D03*
D16*
X259145000Y-63600000D03*
G04 #@! TD*
D15*
G04 #@! TO.C,J22*
X263755000Y-51840000D03*
X266295000Y-51840000D03*
X263755000Y-49300000D03*
D16*
X266295000Y-49300000D03*
G04 #@! TD*
D15*
G04 #@! TO.C,J18*
X256605000Y-58990000D03*
X259145000Y-58990000D03*
X256605000Y-56450000D03*
D16*
X259145000Y-56450000D03*
G04 #@! TD*
G04 #@! TO.C,R14*
G36*
G01*
X290409589Y-23225000D02*
X291189589Y-23225000D01*
G75*
G02*
X291259589Y-23295000I0J-70000D01*
G01*
X291259589Y-23855000D01*
G75*
G02*
X291189589Y-23925000I-70000J0D01*
G01*
X290409589Y-23925000D01*
G75*
G02*
X290339589Y-23855000I0J70000D01*
G01*
X290339589Y-23295000D01*
G75*
G02*
X290409589Y-23225000I70000J0D01*
G01*
G37*
G36*
G01*
X290409589Y-21625000D02*
X291189589Y-21625000D01*
G75*
G02*
X291259589Y-21695000I0J-70000D01*
G01*
X291259589Y-22255000D01*
G75*
G02*
X291189589Y-22325000I-70000J0D01*
G01*
X290409589Y-22325000D01*
G75*
G02*
X290339589Y-22255000I0J70000D01*
G01*
X290339589Y-21695000D01*
G75*
G02*
X290409589Y-21625000I70000J0D01*
G01*
G37*
G04 #@! TD*
G04 #@! TO.C,Q8*
G36*
G01*
X246355000Y-18820000D02*
X246355000Y-19520000D01*
G75*
G02*
X246105000Y-19770000I-250000J0D01*
G01*
X244405000Y-19770000D01*
G75*
G02*
X244155000Y-19520000I0J250000D01*
G01*
X244155000Y-18820000D01*
G75*
G02*
X244405000Y-18570000I250000J0D01*
G01*
X246105000Y-18570000D01*
G75*
G02*
X246355000Y-18820000I0J-250000D01*
G01*
G37*
G36*
G01*
X242155000Y-18799997D02*
X242155000Y-24100003D01*
G75*
G02*
X241905003Y-24350000I-249997J0D01*
G01*
X236004997Y-24350000D01*
G75*
G02*
X235755000Y-24100003I0J249997D01*
G01*
X235755000Y-18799997D01*
G75*
G02*
X236004997Y-18550000I249997J0D01*
G01*
X241905003Y-18550000D01*
G75*
G02*
X242155000Y-18799997I0J-249997D01*
G01*
G37*
G36*
G01*
X246355000Y-23380000D02*
X246355000Y-24080000D01*
G75*
G02*
X246105000Y-24330000I-250000J0D01*
G01*
X244405000Y-24330000D01*
G75*
G02*
X244155000Y-24080000I0J250000D01*
G01*
X244155000Y-23380000D01*
G75*
G02*
X244405000Y-23130000I250000J0D01*
G01*
X246105000Y-23130000D01*
G75*
G02*
X246355000Y-23380000I0J-250000D01*
G01*
G37*
G04 #@! TD*
D33*
G04 #@! TO.C,J10*
X280255000Y-29800000D03*
X276055000Y-29800000D03*
X271855000Y-29800000D03*
X267655000Y-29800000D03*
X263455000Y-29800000D03*
X259255000Y-29800000D03*
X255055000Y-29800000D03*
X250855000Y-29800000D03*
X280255000Y-24300000D03*
X276055000Y-24300000D03*
X271855000Y-24300000D03*
X267655000Y-24300000D03*
X263455000Y-24300000D03*
X259255000Y-24300000D03*
X255055000Y-24300000D03*
G36*
G01*
X249505000Y-25899999D02*
X249505000Y-22700001D01*
G75*
G02*
X249755001Y-22450000I250001J0D01*
G01*
X251954999Y-22450000D01*
G75*
G02*
X252205000Y-22700001I0J-250001D01*
G01*
X252205000Y-25899999D01*
G75*
G02*
X251954999Y-26150000I-250001J0D01*
G01*
X249755001Y-26150000D01*
G75*
G02*
X249505000Y-25899999I0J250001D01*
G01*
G37*
D27*
X280255000Y-17000000D03*
X250855000Y-17000000D03*
G04 #@! TD*
D18*
G04 #@! TO.C,F4*
X283200000Y-7295000D03*
G36*
G01*
X282300000Y-6640010D02*
X282300000Y-5950010D01*
G75*
G02*
X282530000Y-5720010I230000J0D01*
G01*
X283870000Y-5720010D01*
G75*
G02*
X284100000Y-5950010I0J-230000D01*
G01*
X284100000Y-6640010D01*
G75*
G02*
X283870000Y-6870010I-230000J0D01*
G01*
X282530000Y-6870010D01*
G75*
G02*
X282300000Y-6640010I0J230000D01*
G01*
G37*
G36*
G01*
X282300000Y-3739990D02*
X282300000Y-3049990D01*
G75*
G02*
X282530000Y-2819990I230000J0D01*
G01*
X283870000Y-2819990D01*
G75*
G02*
X284100000Y-3049990I0J-230000D01*
G01*
X284100000Y-3739990D01*
G75*
G02*
X283870000Y-3969990I-230000J0D01*
G01*
X282530000Y-3969990D01*
G75*
G02*
X282300000Y-3739990I0J230000D01*
G01*
G37*
X283200000Y-2395000D03*
G04 #@! TD*
D24*
G04 #@! TO.C,H4*
X313605000Y-89820000D03*
X312902056Y-91517056D03*
X312902056Y-88122944D03*
X311205000Y-92220000D03*
D25*
X311205000Y-89820000D03*
D24*
X311205000Y-87420000D03*
X309507944Y-91517056D03*
X309507944Y-88122944D03*
X308805000Y-89820000D03*
G04 #@! TD*
G04 #@! TO.C,C26*
G36*
G01*
X294339924Y-88135002D02*
X295019924Y-88135002D01*
G75*
G02*
X295104924Y-88220002I0J-85000D01*
G01*
X295104924Y-88900002D01*
G75*
G02*
X295019924Y-88985002I-85000J0D01*
G01*
X294339924Y-88985002D01*
G75*
G02*
X294254924Y-88900002I0J85000D01*
G01*
X294254924Y-88220002D01*
G75*
G02*
X294339924Y-88135002I85000J0D01*
G01*
G37*
G36*
G01*
X294339924Y-86555000D02*
X295019924Y-86555000D01*
G75*
G02*
X295104924Y-86640000I0J-85000D01*
G01*
X295104924Y-87320000D01*
G75*
G02*
X295019924Y-87405000I-85000J0D01*
G01*
X294339924Y-87405000D01*
G75*
G02*
X294254924Y-87320000I0J85000D01*
G01*
X294254924Y-86640000D01*
G75*
G02*
X294339924Y-86555000I85000J0D01*
G01*
G37*
G04 #@! TD*
D17*
G04 #@! TO.C,P15*
X307070000Y-27275000D03*
G04 #@! TD*
D32*
G04 #@! TO.C,M3*
X214270000Y-67400000D03*
X215270000Y-67400000D03*
X221730000Y-81825000D03*
X220530000Y-81825000D03*
X218130000Y-81825000D03*
X219330000Y-81825000D03*
G04 #@! TD*
D17*
G04 #@! TO.C,P8*
X307070000Y-23495000D03*
G04 #@! TD*
D15*
G04 #@! TO.C,J20*
X263755000Y-37540000D03*
X266295000Y-37540000D03*
X263755000Y-35000000D03*
D16*
X266295000Y-35000000D03*
G04 #@! TD*
D17*
G04 #@! TO.C,P5*
X303290000Y-23495000D03*
G04 #@! TD*
G04 #@! TO.C,Q7*
G36*
G01*
X246355000Y-10770000D02*
X246355000Y-11470000D01*
G75*
G02*
X246105000Y-11720000I-250000J0D01*
G01*
X244405000Y-11720000D01*
G75*
G02*
X244155000Y-11470000I0J250000D01*
G01*
X244155000Y-10770000D01*
G75*
G02*
X244405000Y-10520000I250000J0D01*
G01*
X246105000Y-10520000D01*
G75*
G02*
X246355000Y-10770000I0J-250000D01*
G01*
G37*
G36*
G01*
X242155000Y-10749997D02*
X242155000Y-16050003D01*
G75*
G02*
X241905003Y-16300000I-249997J0D01*
G01*
X236004997Y-16300000D01*
G75*
G02*
X235755000Y-16050003I0J249997D01*
G01*
X235755000Y-10749997D01*
G75*
G02*
X236004997Y-10500000I249997J0D01*
G01*
X241905003Y-10500000D01*
G75*
G02*
X242155000Y-10749997I0J-249997D01*
G01*
G37*
G36*
G01*
X246355000Y-15330000D02*
X246355000Y-16030000D01*
G75*
G02*
X246105000Y-16280000I-250000J0D01*
G01*
X244405000Y-16280000D01*
G75*
G02*
X244155000Y-16030000I0J250000D01*
G01*
X244155000Y-15330000D01*
G75*
G02*
X244405000Y-15080000I250000J0D01*
G01*
X246105000Y-15080000D01*
G75*
G02*
X246355000Y-15330000I0J-250000D01*
G01*
G37*
G04 #@! TD*
D15*
G04 #@! TO.C,J17*
X256605000Y-51840000D03*
X259145000Y-51840000D03*
X256605000Y-49300000D03*
D16*
X259145000Y-49300000D03*
G04 #@! TD*
D17*
G04 #@! TO.C,P2*
X299510000Y-23495000D03*
G04 #@! TD*
D24*
G04 #@! TO.C,H1*
X313605000Y-65970000D03*
X312902056Y-67667056D03*
X312902056Y-64272944D03*
X311205000Y-68370000D03*
D25*
X311205000Y-65970000D03*
D24*
X311205000Y-63570000D03*
X309507944Y-67667056D03*
X309507944Y-64272944D03*
X308805000Y-65970000D03*
G04 #@! TD*
D33*
G04 #@! TO.C,J2*
X288455000Y7450000D03*
X284255000Y7450000D03*
X280055000Y7450000D03*
X275855000Y7450000D03*
X271655000Y7450000D03*
X267455000Y7450000D03*
X263255000Y7450000D03*
X259055000Y7450000D03*
X254855000Y7450000D03*
X250655000Y7450000D03*
X288455000Y12950000D03*
X284255000Y12950000D03*
X280055000Y12950000D03*
X275855000Y12950000D03*
X271655000Y12950000D03*
X267455000Y12950000D03*
X263255000Y12950000D03*
X259055000Y12950000D03*
X254855000Y12950000D03*
G36*
G01*
X249305000Y11350001D02*
X249305000Y14549999D01*
G75*
G02*
X249555001Y14800000I250001J0D01*
G01*
X251754999Y14800000D01*
G75*
G02*
X252005000Y14549999I0J-250001D01*
G01*
X252005000Y11350001D01*
G75*
G02*
X251754999Y11100000I-250001J0D01*
G01*
X249555001Y11100000D01*
G75*
G02*
X249305000Y11350001I0J250001D01*
G01*
G37*
D27*
X288455000Y20250000D03*
X250655000Y20250000D03*
G04 #@! TD*
G04 #@! TO.C,C13*
G36*
G01*
X288489969Y-88135002D02*
X289169969Y-88135002D01*
G75*
G02*
X289254969Y-88220002I0J-85000D01*
G01*
X289254969Y-88900002D01*
G75*
G02*
X289169969Y-88985002I-85000J0D01*
G01*
X288489969Y-88985002D01*
G75*
G02*
X288404969Y-88900002I0J85000D01*
G01*
X288404969Y-88220002D01*
G75*
G02*
X288489969Y-88135002I85000J0D01*
G01*
G37*
G36*
G01*
X288489969Y-86555000D02*
X289169969Y-86555000D01*
G75*
G02*
X289254969Y-86640000I0J-85000D01*
G01*
X289254969Y-87320000D01*
G75*
G02*
X289169969Y-87405000I-85000J0D01*
G01*
X288489969Y-87405000D01*
G75*
G02*
X288404969Y-87320000I0J85000D01*
G01*
X288404969Y-86640000D01*
G75*
G02*
X288489969Y-86555000I85000J0D01*
G01*
G37*
G04 #@! TD*
D17*
G04 #@! TO.C,P1*
X299510000Y-19715000D03*
G04 #@! TD*
G04 #@! TO.C,R1*
G36*
G01*
X289390000Y-1417451D02*
X289390000Y-2197451D01*
G75*
G02*
X289320000Y-2267451I-70000J0D01*
G01*
X288760000Y-2267451D01*
G75*
G02*
X288690000Y-2197451I0J70000D01*
G01*
X288690000Y-1417451D01*
G75*
G02*
X288760000Y-1347451I70000J0D01*
G01*
X289320000Y-1347451D01*
G75*
G02*
X289390000Y-1417451I0J-70000D01*
G01*
G37*
G36*
G01*
X290990000Y-1417451D02*
X290990000Y-2197451D01*
G75*
G02*
X290920000Y-2267451I-70000J0D01*
G01*
X290360000Y-2267451D01*
G75*
G02*
X290290000Y-2197451I0J70000D01*
G01*
X290290000Y-1417451D01*
G75*
G02*
X290360000Y-1347451I70000J0D01*
G01*
X290920000Y-1347451D01*
G75*
G02*
X290990000Y-1417451I0J-70000D01*
G01*
G37*
G04 #@! TD*
G04 #@! TO.C,R37*
G36*
G01*
X317580022Y-68875857D02*
X317580022Y-67625857D01*
G75*
G02*
X317680022Y-67525857I100000J0D01*
G01*
X318480022Y-67525857D01*
G75*
G02*
X318580022Y-67625857I0J-100000D01*
G01*
X318580022Y-68875857D01*
G75*
G02*
X318480022Y-68975857I-100000J0D01*
G01*
X317680022Y-68975857D01*
G75*
G02*
X317580022Y-68875857I0J100000D01*
G01*
G37*
G36*
G01*
X315680000Y-68875857D02*
X315680000Y-67625857D01*
G75*
G02*
X315780000Y-67525857I100000J0D01*
G01*
X316580000Y-67525857D01*
G75*
G02*
X316680000Y-67625857I0J-100000D01*
G01*
X316680000Y-68875857D01*
G75*
G02*
X316580000Y-68975857I-100000J0D01*
G01*
X315780000Y-68975857D01*
G75*
G02*
X315680000Y-68875857I0J100000D01*
G01*
G37*
G04 #@! TD*
G04 #@! TO.C,C11*
G36*
G01*
X284589999Y-88135002D02*
X285269999Y-88135002D01*
G75*
G02*
X285354999Y-88220002I0J-85000D01*
G01*
X285354999Y-88900002D01*
G75*
G02*
X285269999Y-88985002I-85000J0D01*
G01*
X284589999Y-88985002D01*
G75*
G02*
X284504999Y-88900002I0J85000D01*
G01*
X284504999Y-88220002D01*
G75*
G02*
X284589999Y-88135002I85000J0D01*
G01*
G37*
G36*
G01*
X284589999Y-86555000D02*
X285269999Y-86555000D01*
G75*
G02*
X285354999Y-86640000I0J-85000D01*
G01*
X285354999Y-87320000D01*
G75*
G02*
X285269999Y-87405000I-85000J0D01*
G01*
X284589999Y-87405000D01*
G75*
G02*
X284504999Y-87320000I0J85000D01*
G01*
X284504999Y-86640000D01*
G75*
G02*
X284589999Y-86555000I85000J0D01*
G01*
G37*
G04 #@! TD*
D34*
G04 #@! TO.C,J7*
X315885000Y-36150000D03*
X315885000Y-38650000D03*
X315885000Y-41150000D03*
X315885000Y-43650000D03*
G36*
G01*
X316560000Y-47000000D02*
X315210000Y-47000000D01*
G75*
G02*
X314960000Y-46750000I0J250000D01*
G01*
X314960000Y-45550000D01*
G75*
G02*
X315210000Y-45300000I250000J0D01*
G01*
X316560000Y-45300000D01*
G75*
G02*
X316810000Y-45550000I0J-250000D01*
G01*
X316810000Y-46750000D01*
G75*
G02*
X316560000Y-47000000I-250000J0D01*
G01*
G37*
G04 #@! TD*
D17*
G04 #@! TO.C,P4*
X303290000Y-19715000D03*
G04 #@! TD*
D24*
G04 #@! TO.C,H2*
X313605000Y-73920000D03*
X312902056Y-75617056D03*
X312902056Y-72222944D03*
X311205000Y-76320000D03*
D25*
X311205000Y-73920000D03*
D24*
X311205000Y-71520000D03*
X309507944Y-75617056D03*
X309507944Y-72222944D03*
X308805000Y-73920000D03*
G04 #@! TD*
G04 #@! TO.C,R10*
G36*
G01*
X289390000Y-3366497D02*
X289390000Y-4146497D01*
G75*
G02*
X289320000Y-4216497I-70000J0D01*
G01*
X288760000Y-4216497D01*
G75*
G02*
X288690000Y-4146497I0J70000D01*
G01*
X288690000Y-3366497D01*
G75*
G02*
X288760000Y-3296497I70000J0D01*
G01*
X289320000Y-3296497D01*
G75*
G02*
X289390000Y-3366497I0J-70000D01*
G01*
G37*
G36*
G01*
X290990000Y-3366497D02*
X290990000Y-4146497D01*
G75*
G02*
X290920000Y-4216497I-70000J0D01*
G01*
X290360000Y-4216497D01*
G75*
G02*
X290290000Y-4146497I0J70000D01*
G01*
X290290000Y-3366497D01*
G75*
G02*
X290360000Y-3296497I70000J0D01*
G01*
X290920000Y-3296497D01*
G75*
G02*
X290990000Y-3366497I0J-70000D01*
G01*
G37*
G04 #@! TD*
D35*
G04 #@! TO.C,J8*
X314610000Y-50900000D03*
X314610000Y-58200000D03*
D36*
X315485000Y-52950000D03*
X313735000Y-53750000D03*
X315485000Y-54550000D03*
X313735000Y-55350000D03*
D37*
X315485000Y-56150000D03*
G04 #@! TD*
G04 #@! TO.C,C25*
G36*
G01*
X293019926Y-87405000D02*
X292339926Y-87405000D01*
G75*
G02*
X292254926Y-87320000I0J85000D01*
G01*
X292254926Y-86640000D01*
G75*
G02*
X292339926Y-86555000I85000J0D01*
G01*
X293019926Y-86555000D01*
G75*
G02*
X293104926Y-86640000I0J-85000D01*
G01*
X293104926Y-87320000D01*
G75*
G02*
X293019926Y-87405000I-85000J0D01*
G01*
G37*
G36*
G01*
X293019926Y-88985002D02*
X292339926Y-88985002D01*
G75*
G02*
X292254926Y-88900002I0J85000D01*
G01*
X292254926Y-88220002D01*
G75*
G02*
X292339926Y-88135002I85000J0D01*
G01*
X293019926Y-88135002D01*
G75*
G02*
X293104926Y-88220002I0J-85000D01*
G01*
X293104926Y-88900002D01*
G75*
G02*
X293019926Y-88985002I-85000J0D01*
G01*
G37*
G04 #@! TD*
D17*
G04 #@! TO.C,P18*
X310850000Y-27275000D03*
G04 #@! TD*
D12*
G04 #@! TO.C,M1*
X248629999Y-88525000D03*
X248629999Y-76475002D03*
X248629999Y-71524999D03*
X248629999Y-69675000D03*
X264129996Y-88975002D03*
D32*
X264579995Y-86125000D03*
X264579995Y-85124999D03*
D12*
X264129996Y-82725002D03*
X264129996Y-78425002D03*
X264129996Y-76524999D03*
X264129996Y-70125002D03*
G04 #@! TD*
G04 #@! TO.C,Q12*
G36*
G01*
X246355000Y-51020000D02*
X246355000Y-51720000D01*
G75*
G02*
X246105000Y-51970000I-250000J0D01*
G01*
X244405000Y-51970000D01*
G75*
G02*
X244155000Y-51720000I0J250000D01*
G01*
X244155000Y-51020000D01*
G75*
G02*
X244405000Y-50770000I250000J0D01*
G01*
X246105000Y-50770000D01*
G75*
G02*
X246355000Y-51020000I0J-250000D01*
G01*
G37*
G36*
G01*
X242155000Y-50999997D02*
X242155000Y-56300003D01*
G75*
G02*
X241905003Y-56550000I-249997J0D01*
G01*
X236004997Y-56550000D01*
G75*
G02*
X235755000Y-56300003I0J249997D01*
G01*
X235755000Y-50999997D01*
G75*
G02*
X236004997Y-50750000I249997J0D01*
G01*
X241905003Y-50750000D01*
G75*
G02*
X242155000Y-50999997I0J-249997D01*
G01*
G37*
G36*
G01*
X246355000Y-55580000D02*
X246355000Y-56280000D01*
G75*
G02*
X246105000Y-56530000I-250000J0D01*
G01*
X244405000Y-56530000D01*
G75*
G02*
X244155000Y-56280000I0J250000D01*
G01*
X244155000Y-55580000D01*
G75*
G02*
X244405000Y-55330000I250000J0D01*
G01*
X246105000Y-55330000D01*
G75*
G02*
X246355000Y-55580000I0J-250000D01*
G01*
G37*
G04 #@! TD*
D17*
G04 #@! TO.C,P17*
X310850000Y-23495000D03*
G04 #@! TD*
D38*
G04 #@! TO.C,M7*
X274019998Y-4099996D03*
X270469997Y-4174999D03*
X269719999Y-2999995D03*
X269194999Y-3874997D03*
D39*
X268145001Y2675000D03*
X268145001Y3175001D03*
D40*
X268095003Y-7174993D03*
G04 #@! TD*
G04 #@! TO.C,R9*
G36*
G01*
X296256727Y-19925000D02*
X297036727Y-19925000D01*
G75*
G02*
X297106727Y-19995000I0J-70000D01*
G01*
X297106727Y-20555000D01*
G75*
G02*
X297036727Y-20625000I-70000J0D01*
G01*
X296256727Y-20625000D01*
G75*
G02*
X296186727Y-20555000I0J70000D01*
G01*
X296186727Y-19995000D01*
G75*
G02*
X296256727Y-19925000I70000J0D01*
G01*
G37*
G36*
G01*
X296256727Y-18325000D02*
X297036727Y-18325000D01*
G75*
G02*
X297106727Y-18395000I0J-70000D01*
G01*
X297106727Y-18955000D01*
G75*
G02*
X297036727Y-19025000I-70000J0D01*
G01*
X296256727Y-19025000D01*
G75*
G02*
X296186727Y-18955000I0J70000D01*
G01*
X296186727Y-18395000D01*
G75*
G02*
X296256727Y-18325000I70000J0D01*
G01*
G37*
G04 #@! TD*
D18*
G04 #@! TO.C,F3*
X280080000Y-7295000D03*
G36*
G01*
X279180000Y-6640010D02*
X279180000Y-5950010D01*
G75*
G02*
X279410000Y-5720010I230000J0D01*
G01*
X280750000Y-5720010D01*
G75*
G02*
X280980000Y-5950010I0J-230000D01*
G01*
X280980000Y-6640010D01*
G75*
G02*
X280750000Y-6870010I-230000J0D01*
G01*
X279410000Y-6870010D01*
G75*
G02*
X279180000Y-6640010I0J230000D01*
G01*
G37*
G36*
G01*
X279180000Y-3739990D02*
X279180000Y-3049990D01*
G75*
G02*
X279410000Y-2819990I230000J0D01*
G01*
X280750000Y-2819990D01*
G75*
G02*
X280980000Y-3049990I0J-230000D01*
G01*
X280980000Y-3739990D01*
G75*
G02*
X280750000Y-3969990I-230000J0D01*
G01*
X279410000Y-3969990D01*
G75*
G02*
X279180000Y-3739990I0J230000D01*
G01*
G37*
X280080000Y-2395000D03*
G04 #@! TD*
D15*
G04 #@! TO.C,J11*
X249455000Y-44690000D03*
X251995000Y-44690000D03*
X249455000Y-42150000D03*
D16*
X251995000Y-42150000D03*
G04 #@! TD*
D32*
G04 #@! TO.C,M2*
X318530000Y-78055000D03*
X317630000Y-78055000D03*
X316630002Y-86755000D03*
X317580000Y-86755000D03*
X318530000Y-86755000D03*
G04 #@! TD*
D17*
G04 #@! TO.C,P6*
X303290000Y-27275000D03*
G04 #@! TD*
G04 #@! TO.C,R40*
G36*
G01*
X317580022Y-76384641D02*
X317580022Y-75134641D01*
G75*
G02*
X317680022Y-75034641I100000J0D01*
G01*
X318480022Y-75034641D01*
G75*
G02*
X318580022Y-75134641I0J-100000D01*
G01*
X318580022Y-76384641D01*
G75*
G02*
X318480022Y-76484641I-100000J0D01*
G01*
X317680022Y-76484641D01*
G75*
G02*
X317580022Y-76384641I0J100000D01*
G01*
G37*
G36*
G01*
X315680000Y-76384641D02*
X315680000Y-75134641D01*
G75*
G02*
X315780000Y-75034641I100000J0D01*
G01*
X316580000Y-75034641D01*
G75*
G02*
X316680000Y-75134641I0J-100000D01*
G01*
X316680000Y-76384641D01*
G75*
G02*
X316580000Y-76484641I-100000J0D01*
G01*
X315780000Y-76484641D01*
G75*
G02*
X315680000Y-76384641I0J100000D01*
G01*
G37*
G04 #@! TD*
G04 #@! TO.C,U7*
G36*
G01*
X261345000Y-405000D02*
X261345000Y-705000D01*
G75*
G02*
X261195000Y-855000I-150000J0D01*
G01*
X259545000Y-855000D01*
G75*
G02*
X259395000Y-705000I0J150000D01*
G01*
X259395000Y-405000D01*
G75*
G02*
X259545000Y-255000I150000J0D01*
G01*
X261195000Y-255000D01*
G75*
G02*
X261345000Y-405000I0J-150000D01*
G01*
G37*
G36*
G01*
X261345000Y865000D02*
X261345000Y565000D01*
G75*
G02*
X261195000Y415000I-150000J0D01*
G01*
X259545000Y415000D01*
G75*
G02*
X259395000Y565000I0J150000D01*
G01*
X259395000Y865000D01*
G75*
G02*
X259545000Y1015000I150000J0D01*
G01*
X261195000Y1015000D01*
G75*
G02*
X261345000Y865000I0J-150000D01*
G01*
G37*
G36*
G01*
X261345000Y2135000D02*
X261345000Y1835000D01*
G75*
G02*
X261195000Y1685000I-150000J0D01*
G01*
X259545000Y1685000D01*
G75*
G02*
X259395000Y1835000I0J150000D01*
G01*
X259395000Y2135000D01*
G75*
G02*
X259545000Y2285000I150000J0D01*
G01*
X261195000Y2285000D01*
G75*
G02*
X261345000Y2135000I0J-150000D01*
G01*
G37*
G36*
G01*
X261345000Y3405000D02*
X261345000Y3105000D01*
G75*
G02*
X261195000Y2955000I-150000J0D01*
G01*
X259545000Y2955000D01*
G75*
G02*
X259395000Y3105000I0J150000D01*
G01*
X259395000Y3405000D01*
G75*
G02*
X259545000Y3555000I150000J0D01*
G01*
X261195000Y3555000D01*
G75*
G02*
X261345000Y3405000I0J-150000D01*
G01*
G37*
G36*
G01*
X266295000Y3405000D02*
X266295000Y3105000D01*
G75*
G02*
X266145000Y2955000I-150000J0D01*
G01*
X264495000Y2955000D01*
G75*
G02*
X264345000Y3105000I0J150000D01*
G01*
X264345000Y3405000D01*
G75*
G02*
X264495000Y3555000I150000J0D01*
G01*
X266145000Y3555000D01*
G75*
G02*
X266295000Y3405000I0J-150000D01*
G01*
G37*
G36*
G01*
X266295000Y2135000D02*
X266295000Y1835000D01*
G75*
G02*
X266145000Y1685000I-150000J0D01*
G01*
X264495000Y1685000D01*
G75*
G02*
X264345000Y1835000I0J150000D01*
G01*
X264345000Y2135000D01*
G75*
G02*
X264495000Y2285000I150000J0D01*
G01*
X266145000Y2285000D01*
G75*
G02*
X266295000Y2135000I0J-150000D01*
G01*
G37*
G36*
G01*
X266295000Y865000D02*
X266295000Y565000D01*
G75*
G02*
X266145000Y415000I-150000J0D01*
G01*
X264495000Y415000D01*
G75*
G02*
X264345000Y565000I0J150000D01*
G01*
X264345000Y865000D01*
G75*
G02*
X264495000Y1015000I150000J0D01*
G01*
X266145000Y1015000D01*
G75*
G02*
X266295000Y865000I0J-150000D01*
G01*
G37*
G36*
G01*
X266295000Y-405000D02*
X266295000Y-705000D01*
G75*
G02*
X266145000Y-855000I-150000J0D01*
G01*
X264495000Y-855000D01*
G75*
G02*
X264345000Y-705000I0J150000D01*
G01*
X264345000Y-405000D01*
G75*
G02*
X264495000Y-255000I150000J0D01*
G01*
X266145000Y-255000D01*
G75*
G02*
X266295000Y-405000I0J-150000D01*
G01*
G37*
G04 #@! TD*
G04 #@! TO.C,R39*
G36*
G01*
X317580022Y-73881713D02*
X317580022Y-72631713D01*
G75*
G02*
X317680022Y-72531713I100000J0D01*
G01*
X318480022Y-72531713D01*
G75*
G02*
X318580022Y-72631713I0J-100000D01*
G01*
X318580022Y-73881713D01*
G75*
G02*
X318480022Y-73981713I-100000J0D01*
G01*
X317680022Y-73981713D01*
G75*
G02*
X317580022Y-73881713I0J100000D01*
G01*
G37*
G36*
G01*
X315680000Y-73881713D02*
X315680000Y-72631713D01*
G75*
G02*
X315780000Y-72531713I100000J0D01*
G01*
X316580000Y-72531713D01*
G75*
G02*
X316680000Y-72631713I0J-100000D01*
G01*
X316680000Y-73881713D01*
G75*
G02*
X316580000Y-73981713I-100000J0D01*
G01*
X315780000Y-73981713D01*
G75*
G02*
X315680000Y-73881713I0J100000D01*
G01*
G37*
G04 #@! TD*
G04 #@! TO.C,Q10*
G36*
G01*
X246355000Y-34920000D02*
X246355000Y-35620000D01*
G75*
G02*
X246105000Y-35870000I-250000J0D01*
G01*
X244405000Y-35870000D01*
G75*
G02*
X244155000Y-35620000I0J250000D01*
G01*
X244155000Y-34920000D01*
G75*
G02*
X244405000Y-34670000I250000J0D01*
G01*
X246105000Y-34670000D01*
G75*
G02*
X246355000Y-34920000I0J-250000D01*
G01*
G37*
G36*
G01*
X242155000Y-34899997D02*
X242155000Y-40200003D01*
G75*
G02*
X241905003Y-40450000I-249997J0D01*
G01*
X236004997Y-40450000D01*
G75*
G02*
X235755000Y-40200003I0J249997D01*
G01*
X235755000Y-34899997D01*
G75*
G02*
X236004997Y-34650000I249997J0D01*
G01*
X241905003Y-34650000D01*
G75*
G02*
X242155000Y-34899997I0J-249997D01*
G01*
G37*
G36*
G01*
X246355000Y-39480000D02*
X246355000Y-40180000D01*
G75*
G02*
X246105000Y-40430000I-250000J0D01*
G01*
X244405000Y-40430000D01*
G75*
G02*
X244155000Y-40180000I0J250000D01*
G01*
X244155000Y-39480000D01*
G75*
G02*
X244405000Y-39230000I250000J0D01*
G01*
X246105000Y-39230000D01*
G75*
G02*
X246355000Y-39480000I0J-250000D01*
G01*
G37*
G04 #@! TD*
G04 #@! TO.C,C24*
G36*
G01*
X290439954Y-88135002D02*
X291119954Y-88135002D01*
G75*
G02*
X291204954Y-88220002I0J-85000D01*
G01*
X291204954Y-88900002D01*
G75*
G02*
X291119954Y-88985002I-85000J0D01*
G01*
X290439954Y-88985002D01*
G75*
G02*
X290354954Y-88900002I0J85000D01*
G01*
X290354954Y-88220002D01*
G75*
G02*
X290439954Y-88135002I85000J0D01*
G01*
G37*
G36*
G01*
X290439954Y-86555000D02*
X291119954Y-86555000D01*
G75*
G02*
X291204954Y-86640000I0J-85000D01*
G01*
X291204954Y-87320000D01*
G75*
G02*
X291119954Y-87405000I-85000J0D01*
G01*
X290439954Y-87405000D01*
G75*
G02*
X290354954Y-87320000I0J85000D01*
G01*
X290354954Y-86640000D01*
G75*
G02*
X290439954Y-86555000I85000J0D01*
G01*
G37*
G04 #@! TD*
G36*
X157926578Y105418042D02*
G01*
X157992825Y105400291D01*
X158044140Y105366967D01*
X158056462Y105334866D01*
X158066287Y105325000D01*
X158325856Y105325000D01*
X158345170Y105323098D01*
X158673544Y105257781D01*
X158673550Y105257780D01*
X159257594Y105180889D01*
X159845432Y105142361D01*
X159845442Y105142360D01*
X160140022Y105140001D01*
X162544779Y105140001D01*
X162602970Y105121094D01*
X162614783Y105111005D01*
X163771004Y103954784D01*
X163798781Y103900267D01*
X163800000Y103884780D01*
X163800000Y80249001D01*
X163781093Y80190810D01*
X163731593Y80154846D01*
X163701000Y80150001D01*
X161700005Y80150001D01*
X161575916Y80147439D01*
X161331144Y80106594D01*
X161096420Y80026014D01*
X160878170Y79907902D01*
X160878167Y79907900D01*
X160682339Y79755481D01*
X160514259Y79572898D01*
X160378527Y79365143D01*
X160278842Y79137885D01*
X160217921Y78897314D01*
X160197429Y78650000D01*
X160217921Y78402687D01*
X160278842Y78162116D01*
X160378527Y77934858D01*
X160514259Y77727103D01*
X160682339Y77544520D01*
X160878167Y77392101D01*
X160878170Y77392099D01*
X161096420Y77273987D01*
X161331144Y77193407D01*
X161575917Y77152562D01*
X161700003Y77150001D01*
X163701000Y77150001D01*
X163759191Y77131094D01*
X163795155Y77081594D01*
X163800000Y77051001D01*
X163800000Y14214430D01*
X163781093Y14156239D01*
X163772892Y14146367D01*
X162504095Y12806178D01*
X162450359Y12776920D01*
X162431650Y12775243D01*
X158098028Y12799454D01*
X158039944Y12818686D01*
X158004257Y12868386D01*
X157999581Y12898452D01*
X157999973Y99677146D01*
X157882246Y99697328D01*
X157828087Y99725796D01*
X157801004Y99780661D01*
X157799974Y99794905D01*
X157799999Y105313845D01*
X157802481Y105335874D01*
X157804437Y105344444D01*
X157835819Y105396969D01*
X157892080Y105421016D01*
X157926578Y105418042D01*
G37*
G36*
X6010874Y105372518D02*
G01*
X6064745Y105360223D01*
X6104444Y105341105D01*
X6138700Y105313786D01*
X6166169Y105279341D01*
X6187684Y105234665D01*
X6196867Y105202782D01*
X6199377Y105180480D01*
X6199998Y105169381D01*
X6198682Y100363141D01*
X6179759Y100304955D01*
X6130249Y100269005D01*
X6112766Y100265036D01*
X6001098Y100250147D01*
X5998893Y100249879D01*
X5998652Y100249853D01*
X5998651Y100249852D01*
X5975000Y13824987D01*
X5975000Y12749002D01*
X5956093Y12690811D01*
X5906593Y12654847D01*
X5876000Y12650002D01*
X1455221Y12650001D01*
X1397030Y12668908D01*
X1385217Y12678997D01*
X220281Y13843933D01*
X192504Y13898450D01*
X191285Y13913946D01*
X197315Y77051009D01*
X216228Y77109198D01*
X265731Y77145158D01*
X296315Y77150000D01*
X2300018Y77150000D01*
X2424098Y77152408D01*
X2424104Y77152409D01*
X2668915Y77193234D01*
X2668925Y77193237D01*
X2903680Y77273804D01*
X2903681Y77273805D01*
X3121984Y77391921D01*
X3317858Y77544356D01*
X3317865Y77544362D01*
X3485977Y77726961D01*
X3621736Y77934735D01*
X3621742Y77934747D01*
X3721449Y78162038D01*
X3782383Y78402640D01*
X3782384Y78402645D01*
X3802881Y78650000D01*
X3782384Y78897356D01*
X3782383Y78897361D01*
X3721449Y79137963D01*
X3621742Y79365254D01*
X3621736Y79365266D01*
X3485977Y79573040D01*
X3317865Y79755639D01*
X3317858Y79755645D01*
X3121984Y79908080D01*
X2903681Y80026196D01*
X2903680Y80026197D01*
X2668925Y80106764D01*
X2668915Y80106767D01*
X2424104Y80147592D01*
X2424098Y80147593D01*
X2300018Y80150000D01*
X296620Y80150000D01*
X238429Y80168907D01*
X202465Y80218407D01*
X197620Y80249009D01*
X199876Y103884666D01*
X218789Y103942855D01*
X228873Y103954661D01*
X1385219Y105111004D01*
X1439735Y105138781D01*
X1455222Y105140000D01*
X3859962Y105140000D01*
X4154562Y105142411D01*
X4648545Y105174788D01*
X4655020Y105175000D01*
X5774999Y105175000D01*
X5775000Y105175001D01*
X5775000Y105265807D01*
X5793907Y105323998D01*
X5843407Y105359962D01*
X5854687Y105362905D01*
X5905824Y105373076D01*
X5905885Y105372767D01*
X5925231Y105375000D01*
X5988846Y105375000D01*
X6010874Y105372518D01*
G37*
G36*
X149884564Y117800232D02*
G01*
X149942751Y117781314D01*
X149954550Y117771236D01*
X151111004Y116614783D01*
X151138781Y116560266D01*
X151140000Y116544779D01*
X151140000Y114140023D01*
X151142358Y113845443D01*
X151142359Y113845433D01*
X151174788Y113350670D01*
X151175000Y113344195D01*
X151175000Y112094801D01*
X151175001Y112094800D01*
X151276000Y112094800D01*
X151334191Y112075893D01*
X151370155Y112026393D01*
X151375000Y111995800D01*
X151375000Y111986154D01*
X151372518Y111964124D01*
X151360222Y111910252D01*
X151341104Y111870555D01*
X151313785Y111836299D01*
X151279341Y111808831D01*
X151234660Y111787313D01*
X151202785Y111778130D01*
X151180518Y111775622D01*
X151169437Y111775000D01*
X146317138Y111775000D01*
X146258947Y111793907D01*
X146222983Y111843407D01*
X146219009Y111860898D01*
X146217961Y111868747D01*
X146217695Y111870917D01*
X146206131Y111975000D01*
X18182857Y111975000D01*
X18162675Y111857272D01*
X18134207Y111803113D01*
X18079342Y111776030D01*
X18065098Y111775000D01*
X12670311Y111775000D01*
X12612120Y111793907D01*
X12576156Y111843407D01*
X12574684Y111899623D01*
X12627241Y112095771D01*
X12742168Y112673552D01*
X12742169Y112673558D01*
X12819061Y113257614D01*
X12857589Y113845437D01*
X12860000Y114140038D01*
X12860000Y116544778D01*
X12878907Y116602969D01*
X12888996Y116614782D01*
X14069926Y117795712D01*
X14124443Y117823489D01*
X14139948Y117824708D01*
X149884564Y117800232D01*
G37*
G36*
X151134191Y112275893D02*
G01*
X151170155Y112226393D01*
X151175000Y112195800D01*
X151175000Y112094801D01*
X151175001Y112094800D01*
X151297000Y112094800D01*
X151355191Y112075893D01*
X151391155Y112026393D01*
X151392627Y112021423D01*
X151525183Y111526715D01*
X151714544Y110968880D01*
X151939985Y110424617D01*
X151939990Y110424606D01*
X152200539Y109896265D01*
X152495089Y109386091D01*
X152495093Y109386084D01*
X152822383Y108896261D01*
X153180982Y108428925D01*
X153181010Y108428892D01*
X153569408Y107986007D01*
X153569427Y107985987D01*
X153985985Y107569429D01*
X153986005Y107569410D01*
X154428891Y107181011D01*
X154428924Y107180983D01*
X154896260Y106822384D01*
X155386079Y106495097D01*
X155386093Y106495088D01*
X155896269Y106200538D01*
X156424605Y105939992D01*
X156424616Y105939987D01*
X156968883Y105714543D01*
X157526709Y105525187D01*
X157992825Y105400291D01*
X158044139Y105366967D01*
X158056461Y105334866D01*
X158066287Y105325000D01*
X158166877Y105325000D01*
X158225068Y105306093D01*
X158261032Y105256593D01*
X158265876Y105225589D01*
X158242865Y99680127D01*
X158240292Y99658109D01*
X158227772Y99604284D01*
X158208490Y99564666D01*
X158181031Y99530526D01*
X158146480Y99503204D01*
X158141566Y99500862D01*
X158080902Y99492894D01*
X158027140Y99522106D01*
X158000816Y99577339D01*
X157999973Y99590232D01*
X157999973Y99677146D01*
X157171175Y99819225D01*
X157164503Y99820607D01*
X156245492Y100044151D01*
X156240180Y100045601D01*
X155421279Y100293752D01*
X155414451Y100296096D01*
X154770007Y100543960D01*
X154765675Y100545745D01*
X154144431Y100819092D01*
X154141262Y100820553D01*
X153420611Y101168453D01*
X153415115Y101171322D01*
X152621972Y101617465D01*
X152613901Y101622532D01*
X151794678Y102193506D01*
X151791050Y102196158D01*
X151046345Y102767098D01*
X151039551Y102772808D01*
X150419346Y103343397D01*
X150416371Y103346250D01*
X149720991Y104041630D01*
X149714941Y104048256D01*
X149095063Y104792110D01*
X149090775Y104797642D01*
X148643860Y105418357D01*
X148641829Y105421288D01*
X148194599Y106092133D01*
X148191220Y106097575D01*
X147818963Y106742820D01*
X147816781Y106746810D01*
X147444551Y107466455D01*
X147441347Y107473274D01*
X147093642Y108292864D01*
X147092083Y108296767D01*
X146719695Y109289802D01*
X146716494Y109299974D01*
X146468760Y110266136D01*
X146467164Y110273520D01*
X146318183Y111117747D01*
X146317545Y111121868D01*
X146217958Y111868765D01*
X146217695Y111870917D01*
X146206131Y111975000D01*
X146093834Y111975000D01*
X146035643Y111993907D01*
X145999679Y112043407D01*
X145995474Y112085236D01*
X146001581Y112138695D01*
X146016197Y112180260D01*
X146039566Y112217324D01*
X146070767Y112248429D01*
X146110399Y112273247D01*
X146146434Y112286955D01*
X146184626Y112293414D01*
X146201134Y112294800D01*
X151076000Y112294800D01*
X151134191Y112275893D01*
G37*
G36*
X18189673Y112275044D02*
G01*
X18211691Y112272471D01*
X18265516Y112259951D01*
X18305134Y112240669D01*
X18339274Y112213210D01*
X18366600Y112178651D01*
X18386104Y112137718D01*
X18395699Y112097634D01*
X18396233Y112076501D01*
X18378802Y112017851D01*
X18330226Y111980648D01*
X18297265Y111975000D01*
X18182857Y111975000D01*
X18050575Y111203354D01*
X18049193Y111196682D01*
X17825649Y110277672D01*
X17824199Y110272360D01*
X17576048Y109453459D01*
X17573704Y109446631D01*
X17325840Y108802187D01*
X17324055Y108797855D01*
X17050708Y108176611D01*
X17049247Y108173442D01*
X16701347Y107452791D01*
X16698478Y107447295D01*
X16252335Y106654152D01*
X16247268Y106646081D01*
X15676294Y105826858D01*
X15673642Y105823230D01*
X15102702Y105078525D01*
X15096992Y105071731D01*
X14526403Y104451525D01*
X14523550Y104448550D01*
X13828170Y103753170D01*
X13821544Y103747120D01*
X13077690Y103127243D01*
X13072158Y103122955D01*
X12451443Y102676040D01*
X12448512Y102674009D01*
X11777667Y102226779D01*
X11772225Y102223400D01*
X11126980Y101851143D01*
X11122990Y101848961D01*
X10403345Y101476731D01*
X10396526Y101473527D01*
X9576936Y101125822D01*
X9573033Y101124263D01*
X8579998Y100751875D01*
X8569826Y100748674D01*
X7603664Y100500940D01*
X7596280Y100499344D01*
X6752052Y100350363D01*
X6747931Y100349725D01*
X6001098Y100250147D01*
X5998893Y100249879D01*
X5998653Y100249853D01*
X5998652Y100249852D01*
X5998620Y100137198D01*
X5979696Y100079012D01*
X5930186Y100043063D01*
X5910554Y100038832D01*
X5808173Y100027455D01*
X5786002Y100027489D01*
X5731103Y100033761D01*
X5689539Y100048377D01*
X5652475Y100071746D01*
X5621370Y100102947D01*
X5596552Y100142579D01*
X5582844Y100178616D01*
X5576386Y100216807D01*
X5575000Y100233313D01*
X5575000Y105076000D01*
X5593907Y105134191D01*
X5643407Y105170155D01*
X5674000Y105175000D01*
X5774999Y105175000D01*
X5775000Y105175001D01*
X5775000Y105265807D01*
X5793907Y105323998D01*
X5843407Y105359962D01*
X5854687Y105362905D01*
X5904225Y105372759D01*
X6473270Y105525233D01*
X7031102Y105714593D01*
X7575362Y105940033D01*
X7575373Y105940038D01*
X8103700Y106200580D01*
X8613879Y106495131D01*
X8613893Y106495140D01*
X9103687Y106822410D01*
X9103717Y106822431D01*
X9571043Y107181023D01*
X9571076Y107181051D01*
X10013959Y107569447D01*
X10013979Y107569466D01*
X10430534Y107986021D01*
X10430553Y107986041D01*
X10818949Y108428924D01*
X10818977Y108428957D01*
X11177569Y108896283D01*
X11177590Y108896313D01*
X11504860Y109386107D01*
X11504869Y109386121D01*
X11799420Y109896300D01*
X12059962Y110424626D01*
X12059967Y110424637D01*
X12285407Y110968897D01*
X12474767Y111526729D01*
X12627241Y112095774D01*
X12651540Y112217933D01*
X12681436Y112271318D01*
X12737001Y112296934D01*
X12749049Y112297619D01*
X18189673Y112275044D01*
G37*
M02*
