G04 #@! TF.GenerationSoftware,KiCad,Pcbnew,8.0.8*
G04 #@! TF.CreationDate,2025-12-03T20:50:17-05:00*
G04 #@! TF.ProjectId,hellen121vag,68656c6c-656e-4313-9231-7661672e6b69,d*
G04 #@! TF.SameCoordinates,PX2b953a0PY6943058*
G04 #@! TF.FileFunction,Soldermask,Bot*
G04 #@! TF.FilePolarity,Negative*
%FSLAX46Y46*%
G04 Gerber Fmt 4.6, Leading zero omitted, Abs format (unit mm)*
G04 Created by KiCad (PCBNEW 8.0.8) date 2025-12-03 20:50:17*
%MOMM*%
%LPD*%
G01*
G04 APERTURE LIST*
%ADD10C,1.500000*%
%ADD11C,0.600000*%
%ADD12C,2.000000*%
%ADD13C,1.700000*%
%ADD14C,1.524000*%
%ADD15R,1.100000X1.100000*%
%ADD16C,1.100000*%
%ADD17O,1.100000X2.400000*%
%ADD18C,0.599999*%
%ADD19C,3.700000*%
%ADD20C,2.200000*%
%ADD21C,2.600000*%
%ADD22R,1.700000X1.700000*%
%ADD23O,1.700000X1.700000*%
%ADD24O,1.000001X1.500000*%
%ADD25O,11.400000X1.100000*%
%ADD26O,0.399999X0.599999*%
%ADD27O,0.599999X0.800001*%
%ADD28O,0.599999X0.399999*%
%ADD29O,0.800001X0.599999*%
%ADD30O,0.399999X0.200000*%
%ADD31C,1.300000*%
G04 APERTURE END LIST*
D10*
G04 #@! TO.C,U4*
X11455000Y46510000D03*
G04 #@! TD*
D11*
G04 #@! TO.C,M5*
X38025000Y110149994D03*
X38025000Y109199994D03*
X38025000Y108249996D03*
X29325000Y109249994D03*
X29325000Y110149994D03*
G04 #@! TD*
G04 #@! TO.C,M1*
X136300000Y114375000D03*
X136300000Y113425000D03*
X136300000Y112475002D03*
X127600000Y113475000D03*
X127600000Y114375000D03*
G04 #@! TD*
D12*
G04 #@! TO.C,J6*
X13662000Y73079000D03*
G04 #@! TD*
D13*
G04 #@! TO.C,P43*
X39000000Y25875000D03*
G04 #@! TD*
D14*
G04 #@! TO.C,R11*
X11000000Y31880000D03*
X11000000Y28070000D03*
G04 #@! TD*
D15*
G04 #@! TO.C,J1*
X81450000Y102300000D03*
D16*
X82250000Y104050000D03*
X83050000Y102300000D03*
X83850000Y104050000D03*
X84650000Y102300000D03*
D17*
X86700000Y103175000D03*
X79400000Y103175000D03*
G04 #@! TD*
D18*
G04 #@! TO.C,M8*
X91915984Y57912112D03*
X83690984Y56587108D03*
X83708489Y51354614D03*
X85590985Y50862108D03*
X78240992Y49737122D03*
G04 #@! TD*
D13*
G04 #@! TO.C,P11*
X66144800Y30212600D03*
G04 #@! TD*
G04 #@! TO.C,G5*
X149860000Y73050000D03*
X149860000Y75590000D03*
X149860000Y78130000D03*
X149860000Y80670000D03*
X149860000Y83210000D03*
X152400000Y73050000D03*
X152400000Y75590000D03*
X152400000Y78130000D03*
X152400000Y80670000D03*
X152400000Y83210000D03*
X154940000Y73050000D03*
X154940000Y75590000D03*
X154940000Y78130000D03*
X154940000Y80670000D03*
X154940000Y83210000D03*
G04 #@! TD*
G04 #@! TO.C,P28*
X74094800Y30212600D03*
G04 #@! TD*
G04 #@! TO.C,G2*
X149860000Y86360000D03*
X149860000Y88900000D03*
X149860000Y91440000D03*
X149860000Y93980000D03*
X149860000Y96520000D03*
X152400000Y86360000D03*
X152400000Y88900000D03*
X152400000Y91440000D03*
X152400000Y93980000D03*
X152400000Y96520000D03*
X154940000Y86360000D03*
X154940000Y88900000D03*
X154940000Y91440000D03*
X154940000Y93980000D03*
X154940000Y96520000D03*
G04 #@! TD*
D14*
G04 #@! TO.C,R8*
X48350000Y29955000D03*
X48350000Y26145000D03*
G04 #@! TD*
D19*
G04 #@! TO.C,P1*
X145348000Y5492000D03*
X18648000Y5492000D03*
X93148000Y5492000D03*
D20*
X142898000Y13292000D03*
X21098000Y13292000D03*
D21*
X25748000Y10492000D03*
X31548000Y10492000D03*
X28648000Y12822000D03*
X25748000Y18622000D03*
X31548000Y18622000D03*
D10*
X85168000Y18622000D03*
X82628000Y18622000D03*
X80088000Y18622000D03*
X77548000Y18622000D03*
X75008000Y18622000D03*
X72468000Y18622000D03*
X69928000Y18622000D03*
X67388000Y18622000D03*
X64848000Y18622000D03*
X62308000Y18622000D03*
X59768000Y18622000D03*
X57228000Y18622000D03*
X54688000Y18622000D03*
X52148000Y18622000D03*
X49608000Y18622000D03*
X47068000Y18622000D03*
X44528000Y18622000D03*
X41988000Y18622000D03*
X39448000Y18622000D03*
X85168000Y16082000D03*
X82628000Y16082000D03*
X80088000Y16082000D03*
X77548000Y16082000D03*
X75008000Y16082000D03*
X72468000Y16082000D03*
X69928000Y16082000D03*
X67388000Y16082000D03*
X64848000Y16082000D03*
X62308000Y16082000D03*
X59768000Y16082000D03*
X57228000Y16082000D03*
X54688000Y16082000D03*
X52148000Y16082000D03*
X49608000Y16082000D03*
X47068000Y16082000D03*
X44528000Y16082000D03*
X41988000Y16082000D03*
X39448000Y16082000D03*
X85168000Y10032000D03*
X82628000Y10032000D03*
X80088000Y10032000D03*
X77548000Y10032000D03*
X75008000Y10032000D03*
X72468000Y10032000D03*
X69928000Y10032000D03*
X67388000Y10032000D03*
X64848000Y10032000D03*
X62308000Y10032000D03*
X59768000Y10032000D03*
X57228000Y10032000D03*
X54688000Y10032000D03*
X52148000Y10032000D03*
X49608000Y10032000D03*
X47068000Y10032000D03*
X44528000Y10032000D03*
X41988000Y10032000D03*
X39448000Y10032000D03*
X85168000Y7492000D03*
X82628000Y7492000D03*
X80088000Y7492000D03*
X77548000Y7492000D03*
X75008000Y7492000D03*
X72468000Y7492000D03*
X69928000Y7492000D03*
X67388000Y7492000D03*
X64848000Y7492000D03*
X62308000Y7492000D03*
X59768000Y7492000D03*
X57228000Y7492000D03*
X54688000Y7492000D03*
X52148000Y7492000D03*
X49608000Y7492000D03*
X47068000Y7492000D03*
X44528000Y7492000D03*
X41988000Y7492000D03*
X39448000Y7492000D03*
X101138000Y7492000D03*
X103678000Y7492000D03*
X106218000Y7492000D03*
X108758000Y7492000D03*
X111298000Y7492000D03*
X113838000Y7492000D03*
X116378000Y7492000D03*
X118918000Y7492000D03*
X101138000Y10032000D03*
X103678000Y10032000D03*
X106218000Y10032000D03*
X108758000Y10032000D03*
X111298000Y10032000D03*
X113838000Y10032000D03*
X116378000Y10032000D03*
X118918000Y10032000D03*
X101138000Y16082000D03*
X103678000Y16082000D03*
X106218000Y16082000D03*
X108758000Y16082000D03*
X111298000Y16082000D03*
X113838000Y16082000D03*
X116378000Y16082000D03*
X118918000Y16082000D03*
X101138000Y18622000D03*
X103678000Y18622000D03*
X106218000Y18622000D03*
X108758000Y18622000D03*
X111298000Y18622000D03*
X113838000Y18622000D03*
X116378000Y18622000D03*
X118918000Y18622000D03*
D21*
X126748000Y10492000D03*
X132548000Y10492000D03*
X138448000Y10492000D03*
X129648000Y12822000D03*
X135548000Y12822000D03*
X126748000Y18622000D03*
X132548000Y18622000D03*
X138448000Y18622000D03*
G04 #@! TD*
D14*
G04 #@! TO.C,F1*
X124075000Y26775000D03*
X124075000Y31675000D03*
G04 #@! TD*
D22*
G04 #@! TO.C,J7*
X73280000Y99500000D03*
D23*
X70740000Y99500000D03*
X68200000Y99500000D03*
X65660000Y99500000D03*
X63120000Y99500000D03*
X60580000Y99500000D03*
X58040000Y99500000D03*
X55500000Y99500000D03*
G04 #@! TD*
D14*
G04 #@! TO.C,R3*
X41800000Y29910000D03*
X41800000Y26100000D03*
G04 #@! TD*
D13*
G04 #@! TO.C,P45*
X81575000Y25575000D03*
G04 #@! TD*
D18*
G04 #@! TO.C,M2*
X115187499Y98550019D03*
X100987500Y98550019D03*
X88724232Y98550019D03*
X126087498Y98550019D03*
X90112505Y94750007D03*
G04 #@! TD*
D14*
G04 #@! TO.C,F2*
X126975000Y26775000D03*
X126975000Y31675000D03*
G04 #@! TD*
D13*
G04 #@! TO.C,P74*
X45925000Y32675000D03*
G04 #@! TD*
G04 #@! TO.C,P40*
X48650000Y32650000D03*
G04 #@! TD*
G04 #@! TO.C,J10*
G36*
G01*
X93339340Y103360660D02*
X93339340Y103360660D01*
G75*
G02*
X95036396Y103360660I848528J-848528D01*
G01*
X95460660Y102936396D01*
G75*
G02*
X95460660Y101239340I-848528J-848528D01*
G01*
X95460660Y101239340D01*
G75*
G02*
X93763604Y101239340I-848528J848528D01*
G01*
X93339340Y101663604D01*
G75*
G02*
X93339340Y103360660I848528J848528D01*
G01*
G37*
G36*
G01*
X95239340Y105560660D02*
X95239340Y105560660D01*
G75*
G02*
X96936396Y105560660I848528J-848528D01*
G01*
X97360660Y105136396D01*
G75*
G02*
X97360660Y103439340I-848528J-848528D01*
G01*
X97360660Y103439340D01*
G75*
G02*
X95663604Y103439340I-848528J848528D01*
G01*
X95239340Y103863604D01*
G75*
G02*
X95239340Y105560660I848528J848528D01*
G01*
G37*
G36*
G01*
X101439340Y105560660D02*
X101439340Y105560660D01*
G75*
G02*
X103136396Y105560660I848528J-848528D01*
G01*
X103560660Y105136396D01*
G75*
G02*
X103560660Y103439340I-848528J-848528D01*
G01*
X103560660Y103439340D01*
G75*
G02*
X101863604Y103439340I-848528J848528D01*
G01*
X101439340Y103863604D01*
G75*
G02*
X101439340Y105560660I848528J848528D01*
G01*
G37*
G36*
G01*
X98939340Y103360660D02*
X98939340Y103360660D01*
G75*
G02*
X100636396Y103360660I848528J-848528D01*
G01*
X101060660Y102936396D01*
G75*
G02*
X101060660Y101239340I-848528J-848528D01*
G01*
X101060660Y101239340D01*
G75*
G02*
X99363604Y101239340I-848528J848528D01*
G01*
X98939340Y101663604D01*
G75*
G02*
X98939340Y103360660I848528J848528D01*
G01*
G37*
G36*
G01*
X89639340Y105560660D02*
X89639340Y105560660D01*
G75*
G02*
X91336396Y105560660I848528J-848528D01*
G01*
X91760660Y105136396D01*
G75*
G02*
X91760660Y103439340I-848528J-848528D01*
G01*
X91760660Y103439340D01*
G75*
G02*
X90063604Y103439340I-848528J848528D01*
G01*
X89639340Y103863604D01*
G75*
G02*
X89639340Y105560660I848528J848528D01*
G01*
G37*
G04 #@! TD*
G04 #@! TO.C,P20*
X51350000Y32650000D03*
G04 #@! TD*
G04 #@! TO.C,P41*
X43200000Y32675000D03*
G04 #@! TD*
G04 #@! TO.C,P15*
X77337600Y41363200D03*
G04 #@! TD*
G04 #@! TO.C,P46*
X78875000Y25575000D03*
G04 #@! TD*
G04 #@! TO.C,G1*
X149860000Y59640000D03*
X149860000Y62180000D03*
X149860000Y64720000D03*
X149860000Y67260000D03*
X149860000Y69800000D03*
X152400000Y59640000D03*
X152400000Y62180000D03*
X152400000Y64720000D03*
X152400000Y67260000D03*
X152400000Y69800000D03*
X154940000Y59640000D03*
X154940000Y62180000D03*
X154940000Y64720000D03*
X154940000Y67260000D03*
X154940000Y69800000D03*
G04 #@! TD*
G04 #@! TO.C,P10*
X68794800Y30212600D03*
G04 #@! TD*
D14*
G04 #@! TO.C,R9*
X51600000Y26145000D03*
X51600000Y29955000D03*
G04 #@! TD*
D13*
G04 #@! TO.C,P80*
X39000000Y28875000D03*
G04 #@! TD*
G04 #@! TO.C,P69*
X87446800Y30212600D03*
G04 #@! TD*
G04 #@! TO.C,P56*
X54782400Y32676400D03*
G04 #@! TD*
D14*
G04 #@! TO.C,R2*
X46325000Y26165000D03*
X46325000Y29975000D03*
G04 #@! TD*
D22*
G04 #@! TO.C,J8*
X13200000Y53550000D03*
D23*
X13200000Y56090000D03*
X13200000Y58630000D03*
X13200000Y61170000D03*
X13200000Y63710000D03*
X13200000Y66250000D03*
G04 #@! TD*
D13*
G04 #@! TO.C,G3*
X144900000Y104600000D03*
X144900000Y102060000D03*
X144900000Y99520000D03*
X144900000Y96980000D03*
X144900000Y94440000D03*
X142360000Y104600000D03*
X142360000Y102060000D03*
X142360000Y99520000D03*
X142360000Y96980000D03*
X142360000Y94440000D03*
X139820000Y104600000D03*
X139820000Y102060000D03*
X139820000Y99520000D03*
X139820000Y96980000D03*
X139820000Y94440000D03*
G04 #@! TD*
D14*
G04 #@! TO.C,R10*
X13300000Y31880000D03*
X13300000Y28070000D03*
G04 #@! TD*
D13*
G04 #@! TO.C,P7*
X90500000Y40325000D03*
G04 #@! TD*
G04 #@! TO.C,P9*
X71444800Y30212600D03*
G04 #@! TD*
G04 #@! TO.C,P64*
X84225000Y25575000D03*
G04 #@! TD*
G04 #@! TO.C,P49*
X72625000Y25575000D03*
G04 #@! TD*
G04 #@! TO.C,P3*
X47800000Y39175000D03*
G04 #@! TD*
D18*
G04 #@! TO.C,M10*
X24025003Y73650001D03*
X24900005Y73125001D03*
X23725001Y72375003D03*
X23800004Y68825002D03*
G04 #@! TD*
D13*
G04 #@! TO.C,P6*
X116936200Y34225800D03*
G04 #@! TD*
G04 #@! TO.C,P16*
X68000000Y37375000D03*
G04 #@! TD*
G04 #@! TO.C,P13*
X66575000Y25550000D03*
G04 #@! TD*
G04 #@! TO.C,P12*
X69300000Y25625000D03*
G04 #@! TD*
G04 #@! TO.C,P66*
X79419800Y30212600D03*
G04 #@! TD*
G04 #@! TO.C,P61*
X40675000Y32675000D03*
G04 #@! TD*
G04 #@! TO.C,P5*
X50675000Y39173941D03*
G04 #@! TD*
D24*
G04 #@! TO.C,M6*
X122376544Y44826214D03*
X121120679Y44826214D03*
D25*
X114676544Y44701213D03*
D26*
X108226552Y44401214D03*
D27*
X107251540Y44501219D03*
D26*
X106381783Y44401214D03*
X105651546Y44401214D03*
X104756783Y44401214D03*
X102681783Y44401214D03*
X101781787Y44401214D03*
X101071545Y44401214D03*
D27*
X100051544Y44501214D03*
X98876545Y44501214D03*
X97526546Y44501214D03*
X96351547Y44501214D03*
D28*
X95451546Y45431453D03*
X95451546Y46126212D03*
X95451546Y46806452D03*
D29*
X95546544Y47626214D03*
D28*
X95451546Y48931451D03*
D29*
X95546544Y49901216D03*
D28*
X95451546Y51176214D03*
X95451546Y51826216D03*
D29*
X95546544Y53026216D03*
X95546544Y54101220D03*
X95546544Y54976222D03*
D28*
X95451546Y55801214D03*
X95451546Y61651215D03*
D30*
X95346545Y65706185D03*
X95346545Y66366187D03*
X95346545Y67426215D03*
X95346545Y68130300D03*
X95346545Y68930339D03*
X95346545Y69730378D03*
X95346545Y70526214D03*
X95346545Y72721216D03*
X95346545Y73161215D03*
X95346545Y73601214D03*
X95346545Y74041216D03*
X95346545Y74481215D03*
X95346545Y74921214D03*
X95346545Y75361216D03*
X95346545Y75801215D03*
X95346545Y76926186D03*
X95346545Y77586184D03*
X95346545Y78246186D03*
X95346545Y78906184D03*
X95346545Y82311214D03*
X95346545Y82751213D03*
X95346545Y83191215D03*
X95346545Y83631214D03*
X95346545Y84071213D03*
X95346545Y84511215D03*
X95346545Y84951214D03*
G04 #@! TD*
D14*
G04 #@! TO.C,R4*
X54600000Y26295000D03*
X54600000Y30105000D03*
G04 #@! TD*
G04 #@! TO.C,M4*
G36*
G01*
X70087501Y47528522D02*
X69837501Y47528522D01*
G75*
G02*
X69712501Y47653522I0J125000D01*
G01*
X69712501Y47653522D01*
G75*
G02*
X69837501Y47778522I125000J0D01*
G01*
X70087501Y47778522D01*
G75*
G02*
X70212501Y47653522I0J-125000D01*
G01*
X70212501Y47653522D01*
G75*
G02*
X70087501Y47528522I-125000J0D01*
G01*
G37*
G36*
G01*
X70087501Y46868521D02*
X69837501Y46868521D01*
G75*
G02*
X69712501Y46993521I0J125000D01*
G01*
X69712501Y46993521D01*
G75*
G02*
X69837501Y47118521I125000J0D01*
G01*
X70087501Y47118521D01*
G75*
G02*
X70212501Y46993521I0J-125000D01*
G01*
X70212501Y46993521D01*
G75*
G02*
X70087501Y46868521I-125000J0D01*
G01*
G37*
G36*
G01*
X70087501Y46208520D02*
X69837501Y46208520D01*
G75*
G02*
X69712501Y46333520I0J125000D01*
G01*
X69712501Y46333520D01*
G75*
G02*
X69837501Y46458520I125000J0D01*
G01*
X70087501Y46458520D01*
G75*
G02*
X70212501Y46333520I0J-125000D01*
G01*
X70212501Y46333520D01*
G75*
G02*
X70087501Y46208520I-125000J0D01*
G01*
G37*
G36*
G01*
X70087501Y45548519D02*
X69837501Y45548519D01*
G75*
G02*
X69712501Y45673519I0J125000D01*
G01*
X69712501Y45673519D01*
G75*
G02*
X69837501Y45798519I125000J0D01*
G01*
X70087501Y45798519D01*
G75*
G02*
X70212501Y45673519I0J-125000D01*
G01*
X70212501Y45673519D01*
G75*
G02*
X70087501Y45548519I-125000J0D01*
G01*
G37*
G36*
G01*
X70087501Y42248512D02*
X69837501Y42248512D01*
G75*
G02*
X69712501Y42373512I0J125000D01*
G01*
X69712501Y42373512D01*
G75*
G02*
X69837501Y42498512I125000J0D01*
G01*
X70087501Y42498512D01*
G75*
G02*
X70212501Y42373512I0J-125000D01*
G01*
X70212501Y42373512D01*
G75*
G02*
X70087501Y42248512I-125000J0D01*
G01*
G37*
G36*
G01*
X41317499Y55747315D02*
X41317499Y55497315D01*
G75*
G02*
X41192499Y55372315I-125000J0D01*
G01*
X41192499Y55372315D01*
G75*
G02*
X41067499Y55497315I0J125000D01*
G01*
X41067499Y55747315D01*
G75*
G02*
X41192499Y55872315I125000J0D01*
G01*
X41192499Y55872315D01*
G75*
G02*
X41317499Y55747315I0J-125000D01*
G01*
G37*
G36*
G01*
X42167503Y55497315D02*
X42167503Y55747315D01*
G75*
G02*
X42292503Y55872315I125000J0D01*
G01*
X42292503Y55872315D01*
G75*
G02*
X42417503Y55747315I0J-125000D01*
G01*
X42417503Y55497315D01*
G75*
G02*
X42292503Y55372315I-125000J0D01*
G01*
X42292503Y55372315D01*
G75*
G02*
X42167503Y55497315I0J125000D01*
G01*
G37*
G36*
G01*
X43267504Y55497315D02*
X43267504Y55747315D01*
G75*
G02*
X43392504Y55872315I125000J0D01*
G01*
X43392504Y55872315D01*
G75*
G02*
X43517504Y55747315I0J-125000D01*
G01*
X43517504Y55497315D01*
G75*
G02*
X43392504Y55372315I-125000J0D01*
G01*
X43392504Y55372315D01*
G75*
G02*
X43267504Y55497315I0J125000D01*
G01*
G37*
G36*
G01*
X44367501Y55497315D02*
X44367501Y55747315D01*
G75*
G02*
X44492501Y55872315I125000J0D01*
G01*
X44492501Y55872315D01*
G75*
G02*
X44617501Y55747315I0J-125000D01*
G01*
X44617501Y55497315D01*
G75*
G02*
X44492501Y55372315I-125000J0D01*
G01*
X44492501Y55372315D01*
G75*
G02*
X44367501Y55497315I0J125000D01*
G01*
G37*
G36*
G01*
X45467499Y55497315D02*
X45467499Y55747315D01*
G75*
G02*
X45592499Y55872315I125000J0D01*
G01*
X45592499Y55872315D01*
G75*
G02*
X45717499Y55747315I0J-125000D01*
G01*
X45717499Y55497315D01*
G75*
G02*
X45592499Y55372315I-125000J0D01*
G01*
X45592499Y55372315D01*
G75*
G02*
X45467499Y55497315I0J125000D01*
G01*
G37*
G36*
G01*
X46567497Y55497315D02*
X46567497Y55747315D01*
G75*
G02*
X46692497Y55872315I125000J0D01*
G01*
X46692497Y55872315D01*
G75*
G02*
X46817497Y55747315I0J-125000D01*
G01*
X46817497Y55497315D01*
G75*
G02*
X46692497Y55372315I-125000J0D01*
G01*
X46692497Y55372315D01*
G75*
G02*
X46567497Y55497315I0J125000D01*
G01*
G37*
G36*
G01*
X47667495Y55497315D02*
X47667495Y55747315D01*
G75*
G02*
X47792495Y55872315I125000J0D01*
G01*
X47792495Y55872315D01*
G75*
G02*
X47917495Y55747315I0J-125000D01*
G01*
X47917495Y55497315D01*
G75*
G02*
X47792495Y55372315I-125000J0D01*
G01*
X47792495Y55372315D01*
G75*
G02*
X47667495Y55497315I0J125000D01*
G01*
G37*
G36*
G01*
X48767493Y55497315D02*
X48767493Y55747315D01*
G75*
G02*
X48892493Y55872315I125000J0D01*
G01*
X48892493Y55872315D01*
G75*
G02*
X49017493Y55747315I0J-125000D01*
G01*
X49017493Y55497315D01*
G75*
G02*
X48892493Y55372315I-125000J0D01*
G01*
X48892493Y55372315D01*
G75*
G02*
X48767493Y55497315I0J125000D01*
G01*
G37*
G36*
G01*
X49867490Y55497315D02*
X49867490Y55747315D01*
G75*
G02*
X49992490Y55872315I125000J0D01*
G01*
X49992490Y55872315D01*
G75*
G02*
X50117490Y55747315I0J-125000D01*
G01*
X50117490Y55497315D01*
G75*
G02*
X49992490Y55372315I-125000J0D01*
G01*
X49992490Y55372315D01*
G75*
G02*
X49867490Y55497315I0J125000D01*
G01*
G37*
G36*
G01*
X50967488Y55497315D02*
X50967488Y55747315D01*
G75*
G02*
X51092488Y55872315I125000J0D01*
G01*
X51092488Y55872315D01*
G75*
G02*
X51217488Y55747315I0J-125000D01*
G01*
X51217488Y55497315D01*
G75*
G02*
X51092488Y55372315I-125000J0D01*
G01*
X51092488Y55372315D01*
G75*
G02*
X50967488Y55497315I0J125000D01*
G01*
G37*
G36*
G01*
X52067486Y55497315D02*
X52067486Y55747315D01*
G75*
G02*
X52192486Y55872315I125000J0D01*
G01*
X52192486Y55872315D01*
G75*
G02*
X52317486Y55747315I0J-125000D01*
G01*
X52317486Y55497315D01*
G75*
G02*
X52192486Y55372315I-125000J0D01*
G01*
X52192486Y55372315D01*
G75*
G02*
X52067486Y55497315I0J125000D01*
G01*
G37*
G36*
G01*
X53167484Y55497315D02*
X53167484Y55747315D01*
G75*
G02*
X53292484Y55872315I125000J0D01*
G01*
X53292484Y55872315D01*
G75*
G02*
X53417484Y55747315I0J-125000D01*
G01*
X53417484Y55497315D01*
G75*
G02*
X53292484Y55372315I-125000J0D01*
G01*
X53292484Y55372315D01*
G75*
G02*
X53167484Y55497315I0J125000D01*
G01*
G37*
G36*
G01*
X54267482Y55497315D02*
X54267482Y55747315D01*
G75*
G02*
X54392482Y55872315I125000J0D01*
G01*
X54392482Y55872315D01*
G75*
G02*
X54517482Y55747315I0J-125000D01*
G01*
X54517482Y55497315D01*
G75*
G02*
X54392482Y55372315I-125000J0D01*
G01*
X54392482Y55372315D01*
G75*
G02*
X54267482Y55497315I0J125000D01*
G01*
G37*
G36*
G01*
X55367479Y55497315D02*
X55367479Y55747315D01*
G75*
G02*
X55492479Y55872315I125000J0D01*
G01*
X55492479Y55872315D01*
G75*
G02*
X55617479Y55747315I0J-125000D01*
G01*
X55617479Y55497315D01*
G75*
G02*
X55492479Y55372315I-125000J0D01*
G01*
X55492479Y55372315D01*
G75*
G02*
X55367479Y55497315I0J125000D01*
G01*
G37*
G36*
G01*
X56467477Y55497315D02*
X56467477Y55747315D01*
G75*
G02*
X56592477Y55872315I125000J0D01*
G01*
X56592477Y55872315D01*
G75*
G02*
X56717477Y55747315I0J-125000D01*
G01*
X56717477Y55497315D01*
G75*
G02*
X56592477Y55372315I-125000J0D01*
G01*
X56592477Y55372315D01*
G75*
G02*
X56467477Y55497315I0J125000D01*
G01*
G37*
G36*
G01*
X57567475Y55497315D02*
X57567475Y55747315D01*
G75*
G02*
X57692475Y55872315I125000J0D01*
G01*
X57692475Y55872315D01*
G75*
G02*
X57817475Y55747315I0J-125000D01*
G01*
X57817475Y55497315D01*
G75*
G02*
X57692475Y55372315I-125000J0D01*
G01*
X57692475Y55372315D01*
G75*
G02*
X57567475Y55497315I0J125000D01*
G01*
G37*
G36*
G01*
X58667473Y55497315D02*
X58667473Y55747315D01*
G75*
G02*
X58792473Y55872315I125000J0D01*
G01*
X58792473Y55872315D01*
G75*
G02*
X58917473Y55747315I0J-125000D01*
G01*
X58917473Y55497315D01*
G75*
G02*
X58792473Y55372315I-125000J0D01*
G01*
X58792473Y55372315D01*
G75*
G02*
X58667473Y55497315I0J125000D01*
G01*
G37*
G36*
G01*
X59767471Y55497315D02*
X59767471Y55747315D01*
G75*
G02*
X59892471Y55872315I125000J0D01*
G01*
X59892471Y55872315D01*
G75*
G02*
X60017471Y55747315I0J-125000D01*
G01*
X60017471Y55497315D01*
G75*
G02*
X59892471Y55372315I-125000J0D01*
G01*
X59892471Y55372315D01*
G75*
G02*
X59767471Y55497315I0J125000D01*
G01*
G37*
G36*
G01*
X60867468Y55497315D02*
X60867468Y55747315D01*
G75*
G02*
X60992468Y55872315I125000J0D01*
G01*
X60992468Y55872315D01*
G75*
G02*
X61117468Y55747315I0J-125000D01*
G01*
X61117468Y55497315D01*
G75*
G02*
X60992468Y55372315I-125000J0D01*
G01*
X60992468Y55372315D01*
G75*
G02*
X60867468Y55497315I0J125000D01*
G01*
G37*
G36*
G01*
X61967466Y55497315D02*
X61967466Y55747315D01*
G75*
G02*
X62092466Y55872315I125000J0D01*
G01*
X62092466Y55872315D01*
G75*
G02*
X62217466Y55747315I0J-125000D01*
G01*
X62217466Y55497315D01*
G75*
G02*
X62092466Y55372315I-125000J0D01*
G01*
X62092466Y55372315D01*
G75*
G02*
X61967466Y55497315I0J125000D01*
G01*
G37*
G36*
G01*
X63067464Y55497315D02*
X63067464Y55747315D01*
G75*
G02*
X63192464Y55872315I125000J0D01*
G01*
X63192464Y55872315D01*
G75*
G02*
X63317464Y55747315I0J-125000D01*
G01*
X63317464Y55497315D01*
G75*
G02*
X63192464Y55372315I-125000J0D01*
G01*
X63192464Y55372315D01*
G75*
G02*
X63067464Y55497315I0J125000D01*
G01*
G37*
G36*
G01*
X64167462Y55497315D02*
X64167462Y55747315D01*
G75*
G02*
X64292462Y55872315I125000J0D01*
G01*
X64292462Y55872315D01*
G75*
G02*
X64417462Y55747315I0J-125000D01*
G01*
X64417462Y55497315D01*
G75*
G02*
X64292462Y55372315I-125000J0D01*
G01*
X64292462Y55372315D01*
G75*
G02*
X64167462Y55497315I0J125000D01*
G01*
G37*
G36*
G01*
X65267460Y55497315D02*
X65267460Y55747315D01*
G75*
G02*
X65392460Y55872315I125000J0D01*
G01*
X65392460Y55872315D01*
G75*
G02*
X65517460Y55747315I0J-125000D01*
G01*
X65517460Y55497315D01*
G75*
G02*
X65392460Y55372315I-125000J0D01*
G01*
X65392460Y55372315D01*
G75*
G02*
X65267460Y55497315I0J125000D01*
G01*
G37*
G36*
G01*
X66367457Y55497315D02*
X66367457Y55747315D01*
G75*
G02*
X66492457Y55872315I125000J0D01*
G01*
X66492457Y55872315D01*
G75*
G02*
X66617457Y55747315I0J-125000D01*
G01*
X66617457Y55497315D01*
G75*
G02*
X66492457Y55372315I-125000J0D01*
G01*
X66492457Y55372315D01*
G75*
G02*
X66367457Y55497315I0J125000D01*
G01*
G37*
G36*
G01*
X67467455Y55497315D02*
X67467455Y55747315D01*
G75*
G02*
X67592455Y55872315I125000J0D01*
G01*
X67592455Y55872315D01*
G75*
G02*
X67717455Y55747315I0J-125000D01*
G01*
X67717455Y55497315D01*
G75*
G02*
X67592455Y55372315I-125000J0D01*
G01*
X67592455Y55372315D01*
G75*
G02*
X67467455Y55497315I0J125000D01*
G01*
G37*
G36*
G01*
X68567453Y55497315D02*
X68567453Y55747315D01*
G75*
G02*
X68692453Y55872315I125000J0D01*
G01*
X68692453Y55872315D01*
G75*
G02*
X68817453Y55747315I0J-125000D01*
G01*
X68817453Y55497315D01*
G75*
G02*
X68692453Y55372315I-125000J0D01*
G01*
X68692453Y55372315D01*
G75*
G02*
X68567453Y55497315I0J125000D01*
G01*
G37*
G36*
G01*
X68316509Y41535316D02*
X68316509Y41785316D01*
G75*
G02*
X68441509Y41910316I125000J0D01*
G01*
X68441509Y41910316D01*
G75*
G02*
X68566509Y41785316I0J-125000D01*
G01*
X68566509Y41535316D01*
G75*
G02*
X68441509Y41410316I-125000J0D01*
G01*
X68441509Y41410316D01*
G75*
G02*
X68316509Y41535316I0J125000D01*
G01*
G37*
G36*
G01*
X67656507Y41535316D02*
X67656507Y41785316D01*
G75*
G02*
X67781507Y41910316I125000J0D01*
G01*
X67781507Y41910316D01*
G75*
G02*
X67906507Y41785316I0J-125000D01*
G01*
X67906507Y41535316D01*
G75*
G02*
X67781507Y41410316I-125000J0D01*
G01*
X67781507Y41410316D01*
G75*
G02*
X67656507Y41535316I0J125000D01*
G01*
G37*
G36*
G01*
X66996506Y41535316D02*
X66996506Y41785316D01*
G75*
G02*
X67121506Y41910316I125000J0D01*
G01*
X67121506Y41910316D01*
G75*
G02*
X67246506Y41785316I0J-125000D01*
G01*
X67246506Y41535316D01*
G75*
G02*
X67121506Y41410316I-125000J0D01*
G01*
X67121506Y41410316D01*
G75*
G02*
X66996506Y41535316I0J125000D01*
G01*
G37*
G36*
G01*
X66336505Y41535316D02*
X66336505Y41785316D01*
G75*
G02*
X66461505Y41910316I125000J0D01*
G01*
X66461505Y41910316D01*
G75*
G02*
X66586505Y41785316I0J-125000D01*
G01*
X66586505Y41535316D01*
G75*
G02*
X66461505Y41410316I-125000J0D01*
G01*
X66461505Y41410316D01*
G75*
G02*
X66336505Y41535316I0J125000D01*
G01*
G37*
G36*
G01*
X65676504Y41535316D02*
X65676504Y41785316D01*
G75*
G02*
X65801504Y41910316I125000J0D01*
G01*
X65801504Y41910316D01*
G75*
G02*
X65926504Y41785316I0J-125000D01*
G01*
X65926504Y41535316D01*
G75*
G02*
X65801504Y41410316I-125000J0D01*
G01*
X65801504Y41410316D01*
G75*
G02*
X65676504Y41535316I0J125000D01*
G01*
G37*
G36*
G01*
X65016502Y41535316D02*
X65016502Y41785316D01*
G75*
G02*
X65141502Y41910316I125000J0D01*
G01*
X65141502Y41910316D01*
G75*
G02*
X65266502Y41785316I0J-125000D01*
G01*
X65266502Y41535316D01*
G75*
G02*
X65141502Y41410316I-125000J0D01*
G01*
X65141502Y41410316D01*
G75*
G02*
X65016502Y41535316I0J125000D01*
G01*
G37*
G36*
G01*
X63415505Y41535316D02*
X63415505Y41785316D01*
G75*
G02*
X63540505Y41910316I125000J0D01*
G01*
X63540505Y41910316D01*
G75*
G02*
X63665505Y41785316I0J-125000D01*
G01*
X63665505Y41535316D01*
G75*
G02*
X63540505Y41410316I-125000J0D01*
G01*
X63540505Y41410316D01*
G75*
G02*
X63415505Y41535316I0J125000D01*
G01*
G37*
G36*
G01*
X62755504Y41535316D02*
X62755504Y41785316D01*
G75*
G02*
X62880504Y41910316I125000J0D01*
G01*
X62880504Y41910316D01*
G75*
G02*
X63005504Y41785316I0J-125000D01*
G01*
X63005504Y41535316D01*
G75*
G02*
X62880504Y41410316I-125000J0D01*
G01*
X62880504Y41410316D01*
G75*
G02*
X62755504Y41535316I0J125000D01*
G01*
G37*
G36*
G01*
X62095502Y41535316D02*
X62095502Y41785316D01*
G75*
G02*
X62220502Y41910316I125000J0D01*
G01*
X62220502Y41910316D01*
G75*
G02*
X62345502Y41785316I0J-125000D01*
G01*
X62345502Y41535316D01*
G75*
G02*
X62220502Y41410316I-125000J0D01*
G01*
X62220502Y41410316D01*
G75*
G02*
X62095502Y41535316I0J125000D01*
G01*
G37*
G36*
G01*
X60974603Y41535316D02*
X60974603Y41785316D01*
G75*
G02*
X61099603Y41910316I125000J0D01*
G01*
X61099603Y41910316D01*
G75*
G02*
X61224603Y41785316I0J-125000D01*
G01*
X61224603Y41535316D01*
G75*
G02*
X61099603Y41410316I-125000J0D01*
G01*
X61099603Y41410316D01*
G75*
G02*
X60974603Y41535316I0J125000D01*
G01*
G37*
G36*
G01*
X60314602Y41535316D02*
X60314602Y41785316D01*
G75*
G02*
X60439602Y41910316I125000J0D01*
G01*
X60439602Y41910316D01*
G75*
G02*
X60564602Y41785316I0J-125000D01*
G01*
X60564602Y41535316D01*
G75*
G02*
X60439602Y41410316I-125000J0D01*
G01*
X60439602Y41410316D01*
G75*
G02*
X60314602Y41535316I0J125000D01*
G01*
G37*
G36*
G01*
X59654601Y41535316D02*
X59654601Y41785316D01*
G75*
G02*
X59779601Y41910316I125000J0D01*
G01*
X59779601Y41910316D01*
G75*
G02*
X59904601Y41785316I0J-125000D01*
G01*
X59904601Y41535316D01*
G75*
G02*
X59779601Y41410316I-125000J0D01*
G01*
X59779601Y41410316D01*
G75*
G02*
X59654601Y41535316I0J125000D01*
G01*
G37*
G36*
G01*
X58994599Y41535316D02*
X58994599Y41785316D01*
G75*
G02*
X59119599Y41910316I125000J0D01*
G01*
X59119599Y41910316D01*
G75*
G02*
X59244599Y41785316I0J-125000D01*
G01*
X59244599Y41535316D01*
G75*
G02*
X59119599Y41410316I-125000J0D01*
G01*
X59119599Y41410316D01*
G75*
G02*
X58994599Y41535316I0J125000D01*
G01*
G37*
G36*
G01*
X55668505Y41535316D02*
X55668505Y41785316D01*
G75*
G02*
X55793505Y41910316I125000J0D01*
G01*
X55793505Y41910316D01*
G75*
G02*
X55918505Y41785316I0J-125000D01*
G01*
X55918505Y41535316D01*
G75*
G02*
X55793505Y41410316I-125000J0D01*
G01*
X55793505Y41410316D01*
G75*
G02*
X55668505Y41535316I0J125000D01*
G01*
G37*
G36*
G01*
X55008504Y41535316D02*
X55008504Y41785316D01*
G75*
G02*
X55133504Y41910316I125000J0D01*
G01*
X55133504Y41910316D01*
G75*
G02*
X55258504Y41785316I0J-125000D01*
G01*
X55258504Y41535316D01*
G75*
G02*
X55133504Y41410316I-125000J0D01*
G01*
X55133504Y41410316D01*
G75*
G02*
X55008504Y41535316I0J125000D01*
G01*
G37*
G36*
G01*
X54348502Y41535316D02*
X54348502Y41785316D01*
G75*
G02*
X54473502Y41910316I125000J0D01*
G01*
X54473502Y41910316D01*
G75*
G02*
X54598502Y41785316I0J-125000D01*
G01*
X54598502Y41535316D01*
G75*
G02*
X54473502Y41410316I-125000J0D01*
G01*
X54473502Y41410316D01*
G75*
G02*
X54348502Y41535316I0J125000D01*
G01*
G37*
G36*
G01*
X51702511Y41535316D02*
X51702511Y41785316D01*
G75*
G02*
X51827511Y41910316I125000J0D01*
G01*
X51827511Y41910316D01*
G75*
G02*
X51952511Y41785316I0J-125000D01*
G01*
X51952511Y41535316D01*
G75*
G02*
X51827511Y41410316I-125000J0D01*
G01*
X51827511Y41410316D01*
G75*
G02*
X51702511Y41535316I0J125000D01*
G01*
G37*
G36*
G01*
X51042510Y41535316D02*
X51042510Y41785316D01*
G75*
G02*
X51167510Y41910316I125000J0D01*
G01*
X51167510Y41910316D01*
G75*
G02*
X51292510Y41785316I0J-125000D01*
G01*
X51292510Y41535316D01*
G75*
G02*
X51167510Y41410316I-125000J0D01*
G01*
X51167510Y41410316D01*
G75*
G02*
X51042510Y41535316I0J125000D01*
G01*
G37*
G36*
G01*
X50382508Y41535316D02*
X50382508Y41785316D01*
G75*
G02*
X50507508Y41910316I125000J0D01*
G01*
X50507508Y41910316D01*
G75*
G02*
X50632508Y41785316I0J-125000D01*
G01*
X50632508Y41535316D01*
G75*
G02*
X50507508Y41410316I-125000J0D01*
G01*
X50507508Y41410316D01*
G75*
G02*
X50382508Y41535316I0J125000D01*
G01*
G37*
G36*
G01*
X49722507Y41535316D02*
X49722507Y41785316D01*
G75*
G02*
X49847507Y41910316I125000J0D01*
G01*
X49847507Y41910316D01*
G75*
G02*
X49972507Y41785316I0J-125000D01*
G01*
X49972507Y41535316D01*
G75*
G02*
X49847507Y41410316I-125000J0D01*
G01*
X49847507Y41410316D01*
G75*
G02*
X49722507Y41535316I0J125000D01*
G01*
G37*
G36*
G01*
X49062506Y41535316D02*
X49062506Y41785316D01*
G75*
G02*
X49187506Y41910316I125000J0D01*
G01*
X49187506Y41910316D01*
G75*
G02*
X49312506Y41785316I0J-125000D01*
G01*
X49312506Y41535316D01*
G75*
G02*
X49187506Y41410316I-125000J0D01*
G01*
X49187506Y41410316D01*
G75*
G02*
X49062506Y41535316I0J125000D01*
G01*
G37*
G36*
G01*
X48402505Y41535316D02*
X48402505Y41785316D01*
G75*
G02*
X48527505Y41910316I125000J0D01*
G01*
X48527505Y41910316D01*
G75*
G02*
X48652505Y41785316I0J-125000D01*
G01*
X48652505Y41535316D01*
G75*
G02*
X48527505Y41410316I-125000J0D01*
G01*
X48527505Y41410316D01*
G75*
G02*
X48402505Y41535316I0J125000D01*
G01*
G37*
G36*
G01*
X47742503Y41535316D02*
X47742503Y41785316D01*
G75*
G02*
X47867503Y41910316I125000J0D01*
G01*
X47867503Y41910316D01*
G75*
G02*
X47992503Y41785316I0J-125000D01*
G01*
X47992503Y41535316D01*
G75*
G02*
X47867503Y41410316I-125000J0D01*
G01*
X47867503Y41410316D01*
G75*
G02*
X47742503Y41535316I0J125000D01*
G01*
G37*
G36*
G01*
X47082502Y41535316D02*
X47082502Y41785316D01*
G75*
G02*
X47207502Y41910316I125000J0D01*
G01*
X47207502Y41910316D01*
G75*
G02*
X47332502Y41785316I0J-125000D01*
G01*
X47332502Y41535316D01*
G75*
G02*
X47207502Y41410316I-125000J0D01*
G01*
X47207502Y41410316D01*
G75*
G02*
X47082502Y41535316I0J125000D01*
G01*
G37*
G36*
G01*
X46422501Y41535316D02*
X46422501Y41785316D01*
G75*
G02*
X46547501Y41910316I125000J0D01*
G01*
X46547501Y41910316D01*
G75*
G02*
X46672501Y41785316I0J-125000D01*
G01*
X46672501Y41535316D01*
G75*
G02*
X46547501Y41410316I-125000J0D01*
G01*
X46547501Y41410316D01*
G75*
G02*
X46422501Y41535316I0J125000D01*
G01*
G37*
G36*
G01*
X45762499Y41535316D02*
X45762499Y41785316D01*
G75*
G02*
X45887499Y41910316I125000J0D01*
G01*
X45887499Y41910316D01*
G75*
G02*
X46012499Y41785316I0J-125000D01*
G01*
X46012499Y41535316D01*
G75*
G02*
X45887499Y41410316I-125000J0D01*
G01*
X45887499Y41410316D01*
G75*
G02*
X45762499Y41535316I0J125000D01*
G01*
G37*
G04 #@! TD*
D13*
G04 #@! TO.C,P17*
X57200000Y28275000D03*
G04 #@! TD*
D18*
G04 #@! TO.C,M1*
X47237499Y98631662D03*
X46362497Y99156662D03*
X47537501Y99906660D03*
X47462498Y103456661D03*
G04 #@! TD*
D13*
G04 #@! TO.C,P4*
X53500000Y39173941D03*
G04 #@! TD*
G04 #@! TO.C,P8*
X80741200Y42785600D03*
G04 #@! TD*
D18*
G04 #@! TO.C,M11*
X96809400Y36036600D03*
X96809400Y28536600D03*
X96809400Y27736600D03*
X96809400Y26936600D03*
X114334400Y34136600D03*
X114334400Y35136600D03*
G04 #@! TD*
G04 #@! TO.C,M7*
X32507387Y93914190D03*
X34342397Y93489182D03*
X32292389Y92939185D03*
X32507384Y92064226D03*
X32582391Y91214203D03*
X34342397Y90889187D03*
X33032397Y89589220D03*
X34342397Y88939203D03*
X28417382Y96114206D03*
X32492388Y95814204D03*
G04 #@! TD*
D13*
G04 #@! TO.C,P68*
X84754400Y30212600D03*
G04 #@! TD*
D31*
G04 #@! TO.C,U1*
X137707000Y40492163D03*
X137707000Y46492163D03*
X142707000Y46492163D03*
X147707000Y43492163D03*
X142707000Y43492163D03*
X147707000Y46492163D03*
X137707000Y43492163D03*
X147707000Y40492163D03*
X142707000Y40492163D03*
G04 #@! TD*
D13*
G04 #@! TO.C,P44*
X76744800Y30212600D03*
G04 #@! TD*
D14*
G04 #@! TO.C,R13*
X8700000Y31830000D03*
X8700000Y28020000D03*
G04 #@! TD*
D13*
G04 #@! TO.C,P63*
X86775000Y25575000D03*
G04 #@! TD*
D14*
G04 #@! TO.C,R12*
X15600000Y31880021D03*
X15600000Y28070021D03*
G04 #@! TD*
D13*
G04 #@! TO.C,P2*
X44450000Y39198941D03*
G04 #@! TD*
G04 #@! TO.C,P67*
X82112800Y30212600D03*
G04 #@! TD*
G04 #@! TO.C,P48*
X75375000Y25575000D03*
G04 #@! TD*
G04 #@! TO.C,P14*
X63775000Y25625000D03*
G04 #@! TD*
M02*
