G75*
G70*
%OFA0B0*%
%FSLAX25Y25*%
%IPPOS*%
%LPD*%
%AMOC8*
5,1,8,0,0,1.08239X$1,22.5*
%
%ADD10C,0.10236*%
%ADD11C,0.05906*%
%ADD12C,0.14567*%
%ADD13C,0.08661*%
X0000000Y0000000D02*
%LPD*%
G01*
D10*
X0545071Y0073315D03*
X0521843Y0073315D03*
X0499008Y0073315D03*
X0533654Y0050480D03*
X0510425Y0050480D03*
X0545071Y0041307D03*
X0521843Y0041307D03*
X0499008Y0041307D03*
D11*
X0468181Y0073315D03*
X0458181Y0073315D03*
X0448181Y0073315D03*
X0438181Y0073315D03*
X0428181Y0073315D03*
X0418181Y0073315D03*
X0408181Y0073315D03*
X0398181Y0073315D03*
X0468181Y0063315D03*
X0458181Y0063315D03*
X0448181Y0063315D03*
X0438181Y0063315D03*
X0428181Y0063315D03*
X0418181Y0063315D03*
X0408181Y0063315D03*
X0398181Y0063315D03*
X0468181Y0039496D03*
X0458181Y0039496D03*
X0448181Y0039496D03*
X0438181Y0039496D03*
X0428181Y0039496D03*
X0418181Y0039496D03*
X0408181Y0039496D03*
X0398181Y0039496D03*
X0468181Y0029496D03*
X0458181Y0029496D03*
X0448181Y0029496D03*
X0438181Y0029496D03*
X0428181Y0029496D03*
X0418181Y0029496D03*
X0408181Y0029496D03*
X0398181Y0029496D03*
X0155307Y0029496D03*
X0165307Y0029496D03*
X0175307Y0029496D03*
X0185307Y0029496D03*
X0195307Y0029496D03*
X0205307Y0029496D03*
X0215307Y0029496D03*
X0225307Y0029496D03*
X0235307Y0029496D03*
X0245307Y0029496D03*
X0255307Y0029496D03*
X0265307Y0029496D03*
X0275307Y0029496D03*
X0285307Y0029496D03*
X0295307Y0029496D03*
X0305307Y0029496D03*
X0315307Y0029496D03*
X0325307Y0029496D03*
X0335307Y0029496D03*
X0155307Y0039496D03*
X0165307Y0039496D03*
X0175307Y0039496D03*
X0185307Y0039496D03*
X0195307Y0039496D03*
X0205307Y0039496D03*
X0215307Y0039496D03*
X0225307Y0039496D03*
X0235307Y0039496D03*
X0245307Y0039496D03*
X0255307Y0039496D03*
X0265307Y0039496D03*
X0275307Y0039496D03*
X0285307Y0039496D03*
X0295307Y0039496D03*
X0305307Y0039496D03*
X0315307Y0039496D03*
X0325307Y0039496D03*
X0335307Y0039496D03*
X0155307Y0063315D03*
X0165307Y0063315D03*
X0175307Y0063315D03*
X0185307Y0063315D03*
X0195307Y0063315D03*
X0205307Y0063315D03*
X0215307Y0063315D03*
X0225307Y0063315D03*
X0235307Y0063315D03*
X0245307Y0063315D03*
X0255307Y0063315D03*
X0265307Y0063315D03*
X0275307Y0063315D03*
X0285307Y0063315D03*
X0295307Y0063315D03*
X0305307Y0063315D03*
X0315307Y0063315D03*
X0325307Y0063315D03*
X0335307Y0063315D03*
X0155307Y0073315D03*
X0165307Y0073315D03*
X0175307Y0073315D03*
X0185307Y0073315D03*
X0195307Y0073315D03*
X0205307Y0073315D03*
X0215307Y0073315D03*
X0225307Y0073315D03*
X0235307Y0073315D03*
X0245307Y0073315D03*
X0255307Y0073315D03*
X0265307Y0073315D03*
X0275307Y0073315D03*
X0285307Y0073315D03*
X0295307Y0073315D03*
X0305307Y0073315D03*
X0315307Y0073315D03*
X0325307Y0073315D03*
X0335307Y0073315D03*
D10*
X0124205Y0073315D03*
X0101370Y0073315D03*
X0112787Y0050480D03*
X0124205Y0041307D03*
X0101370Y0041307D03*
D12*
X0073417Y0021622D03*
X0366724Y0021622D03*
X0572236Y0021622D03*
D13*
X0562591Y0052331D03*
X0083063Y0052331D03*
G36*
X0621758Y0415032D02*
G01*
X0622019Y0414962D01*
X0622221Y0414831D01*
X0622270Y0414704D01*
X0622308Y0414665D01*
X0623330Y0414665D01*
X0623406Y0414658D01*
X0624699Y0414401D01*
X0624699Y0414401D01*
X0626998Y0414098D01*
X0629313Y0413946D01*
X0629313Y0413946D01*
X0630473Y0413937D01*
X0639940Y0413937D01*
X0640169Y0413863D01*
X0640216Y0413823D01*
X0644768Y0409271D01*
X0644877Y0409056D01*
X0644882Y0408995D01*
X0644882Y0315941D01*
X0644807Y0315712D01*
X0644613Y0315570D01*
X0644492Y0315551D01*
X0636614Y0315551D01*
X0636126Y0315541D01*
X0635162Y0315380D01*
X0634238Y0315063D01*
X0633379Y0314598D01*
X0633379Y0314598D01*
X0632608Y0313998D01*
X0631946Y0313279D01*
X0631412Y0312461D01*
X0631019Y0311566D01*
X0630779Y0310619D01*
X0630699Y0309646D01*
X0630779Y0308672D01*
X0631019Y0307725D01*
X0631412Y0306830D01*
X0631946Y0306012D01*
X0632608Y0305293D01*
X0633379Y0304693D01*
X0633379Y0304693D01*
X0634238Y0304228D01*
X0635162Y0303911D01*
X0636126Y0303750D01*
X0636614Y0303740D01*
X0644492Y0303740D01*
X0644721Y0303666D01*
X0644863Y0303471D01*
X0644882Y0303350D01*
X0644882Y0055962D01*
X0644807Y0055733D01*
X0644775Y0055694D01*
X0639780Y0050418D01*
X0639568Y0050303D01*
X0639495Y0050296D01*
X0622433Y0050392D01*
X0622205Y0050467D01*
X0622064Y0050663D01*
X0622046Y0050781D01*
X0622047Y0392430D01*
X0621584Y0392509D01*
X0621370Y0392621D01*
X0621264Y0392837D01*
X0621260Y0392893D01*
X0621260Y0414621D01*
X0621270Y0414708D01*
X0621277Y0414742D01*
X0621401Y0414949D01*
X0621622Y0415043D01*
X0621758Y0415032D01*
G37*
G36*
X0595016Y0442031D02*
G01*
X0595158Y0441836D01*
X0595177Y0441716D01*
X0595177Y0441318D01*
X0595177Y0441318D01*
X0595657Y0441318D01*
X0595887Y0441244D01*
X0596028Y0441049D01*
X0596034Y0441029D01*
X0596556Y0439082D01*
X0597301Y0436885D01*
X0598189Y0434743D01*
X0598189Y0434743D01*
X0599215Y0432662D01*
X0600374Y0430654D01*
X0600374Y0430654D01*
X0601663Y0428725D01*
X0603075Y0426886D01*
X0603075Y0426885D01*
X0604604Y0425142D01*
X0604604Y0425142D01*
X0606244Y0423502D01*
X0606244Y0423502D01*
X0607988Y0421972D01*
X0607988Y0421972D01*
X0609828Y0420561D01*
X0611756Y0419272D01*
X0611756Y0419272D01*
X0613765Y0418112D01*
X0615845Y0417087D01*
X0615845Y0417087D01*
X0617988Y0416199D01*
X0620184Y0415453D01*
X0622019Y0414962D01*
X0622221Y0414831D01*
X0622270Y0414704D01*
X0622308Y0414665D01*
X0622704Y0414665D01*
X0622933Y0414591D01*
X0623075Y0414396D01*
X0623094Y0414274D01*
X0623003Y0392441D01*
X0622993Y0392355D01*
X0622944Y0392143D01*
X0622868Y0391987D01*
X0622760Y0391852D01*
X0622624Y0391745D01*
X0622605Y0391736D01*
X0622366Y0391704D01*
X0622154Y0391819D01*
X0622050Y0392037D01*
X0622047Y0392088D01*
X0622047Y0392430D01*
X0618784Y0392989D01*
X0618758Y0392995D01*
X0615140Y0393875D01*
X0615119Y0393880D01*
X0611895Y0394857D01*
X0611868Y0394867D01*
X0609331Y0395842D01*
X0609314Y0395849D01*
X0606868Y0396926D01*
X0606855Y0396931D01*
X0604018Y0398301D01*
X0603997Y0398312D01*
X0600874Y0400069D01*
X0600842Y0400089D01*
X0597617Y0402337D01*
X0597603Y0402347D01*
X0594671Y0404595D01*
X0594644Y0404617D01*
X0592202Y0406864D01*
X0592190Y0406875D01*
X0589453Y0409613D01*
X0589429Y0409639D01*
X0586988Y0412567D01*
X0586972Y0412589D01*
X0585212Y0415033D01*
X0585204Y0415044D01*
X0583443Y0417686D01*
X0583430Y0417707D01*
X0581964Y0420247D01*
X0581956Y0420263D01*
X0580490Y0423096D01*
X0580478Y0423123D01*
X0579109Y0426350D01*
X0579103Y0426365D01*
X0577637Y0430275D01*
X0577624Y0430315D01*
X0576649Y0434119D01*
X0576642Y0434148D01*
X0576056Y0437471D01*
X0576053Y0437488D01*
X0575661Y0440428D01*
X0575660Y0440437D01*
X0575615Y0440846D01*
X0575173Y0440846D01*
X0574943Y0440921D01*
X0574802Y0441116D01*
X0574785Y0441280D01*
X0574809Y0441491D01*
X0574867Y0441655D01*
X0574959Y0441800D01*
X0575082Y0441923D01*
X0575238Y0442021D01*
X0575380Y0442075D01*
X0575530Y0442100D01*
X0575595Y0442106D01*
X0594787Y0442106D01*
X0595016Y0442031D01*
G37*
G36*
X0023665Y0414852D02*
G01*
X0023877Y0414804D01*
X0024033Y0414729D01*
X0024168Y0414621D01*
X0024276Y0414486D01*
X0024361Y0414310D01*
X0024397Y0414184D01*
X0024407Y0414096D01*
X0024409Y0414053D01*
X0024404Y0395130D01*
X0024330Y0394901D01*
X0024135Y0394760D01*
X0024066Y0394744D01*
X0023626Y0394686D01*
X0023618Y0394685D01*
X0023617Y0394684D01*
X0023617Y0394684D01*
X0023524Y0054429D01*
X0023524Y0050193D01*
X0023449Y0049964D01*
X0023254Y0049822D01*
X0023134Y0049803D01*
X0005729Y0049803D01*
X0005500Y0049878D01*
X0005454Y0049917D01*
X0000867Y0054504D01*
X0000758Y0054718D01*
X0000753Y0054779D01*
X0000777Y0303350D01*
X0000851Y0303580D01*
X0001046Y0303721D01*
X0001167Y0303740D01*
X0009055Y0303740D01*
X0009544Y0303750D01*
X0009544Y0303750D01*
X0010508Y0303910D01*
X0010508Y0303910D01*
X0011432Y0304228D01*
X0011432Y0304228D01*
X0012291Y0304693D01*
X0013062Y0305293D01*
X0013062Y0305293D01*
X0013724Y0306012D01*
X0014259Y0306830D01*
X0014259Y0306830D01*
X0014651Y0307725D01*
X0014891Y0308672D01*
X0014891Y0308672D01*
X0014972Y0309646D01*
X0014891Y0310620D01*
X0014891Y0310620D01*
X0014651Y0311567D01*
X0014259Y0312462D01*
X0014259Y0312462D01*
X0013724Y0313280D01*
X0013062Y0313999D01*
X0013062Y0313999D01*
X0012291Y0314599D01*
X0011432Y0315064D01*
X0011432Y0315064D01*
X0010508Y0315381D01*
X0010508Y0315381D01*
X0009544Y0315542D01*
X0009544Y0315542D01*
X0009055Y0315551D01*
X0001168Y0315551D01*
X0000939Y0315626D01*
X0000797Y0315820D01*
X0000778Y0315941D01*
X0000787Y0408995D01*
X0000861Y0409224D01*
X0000901Y0409270D01*
X0005454Y0413823D01*
X0005668Y0413932D01*
X0005729Y0413937D01*
X0015197Y0413937D01*
X0016357Y0413947D01*
X0018301Y0414074D01*
X0018327Y0414075D01*
X0022736Y0414075D01*
X0022736Y0414075D01*
X0022736Y0414432D01*
X0022811Y0414661D01*
X0023006Y0414803D01*
X0023050Y0414815D01*
X0023251Y0414855D01*
X0023252Y0414853D01*
X0023328Y0414862D01*
X0023578Y0414862D01*
X0023665Y0414852D01*
G37*
G36*
X0590097Y0463780D02*
G01*
X0590326Y0463706D01*
X0590372Y0463666D01*
X0594925Y0459113D01*
X0595035Y0458899D01*
X0595039Y0458838D01*
X0595039Y0449370D01*
X0595049Y0448210D01*
X0595049Y0448210D01*
X0595176Y0446262D01*
X0595177Y0446237D01*
X0595177Y0441318D01*
X0595177Y0441318D01*
X0595575Y0441318D01*
X0595804Y0441244D01*
X0595945Y0441049D01*
X0595965Y0440928D01*
X0595965Y0440890D01*
X0595955Y0440804D01*
X0595906Y0440592D01*
X0595831Y0440435D01*
X0595724Y0440300D01*
X0595588Y0440192D01*
X0595412Y0440108D01*
X0595287Y0440071D01*
X0595199Y0440062D01*
X0595155Y0440059D01*
X0576052Y0440059D01*
X0575823Y0440133D01*
X0575681Y0440328D01*
X0575665Y0440397D01*
X0575661Y0440428D01*
X0575660Y0440437D01*
X0575615Y0440846D01*
X0071586Y0440846D01*
X0071507Y0440383D01*
X0071395Y0440170D01*
X0071179Y0440063D01*
X0071122Y0440059D01*
X0049883Y0440059D01*
X0049654Y0440133D01*
X0049512Y0440328D01*
X0049507Y0440550D01*
X0049714Y0441322D01*
X0050166Y0443597D01*
X0050166Y0443597D01*
X0050469Y0445896D01*
X0050620Y0448210D01*
X0050630Y0449370D01*
X0050630Y0458838D01*
X0050704Y0459067D01*
X0050744Y0459113D01*
X0055393Y0463763D01*
X0055608Y0463872D01*
X0055669Y0463877D01*
X0590097Y0463780D01*
G37*
G36*
X0071613Y0442028D02*
G01*
X0071700Y0442018D01*
X0071911Y0441968D01*
X0072067Y0441892D01*
X0072202Y0441784D01*
X0072309Y0441648D01*
X0072386Y0441487D01*
X0072424Y0441329D01*
X0072426Y0441246D01*
X0072357Y0441015D01*
X0072166Y0440869D01*
X0072036Y0440846D01*
X0071586Y0440846D01*
X0071065Y0437808D01*
X0071060Y0437782D01*
X0070180Y0434164D01*
X0070174Y0434143D01*
X0069197Y0430919D01*
X0069188Y0430892D01*
X0068212Y0428355D01*
X0068205Y0428338D01*
X0067129Y0425892D01*
X0067123Y0425880D01*
X0065753Y0423042D01*
X0065742Y0423021D01*
X0063986Y0419898D01*
X0063966Y0419866D01*
X0061718Y0416641D01*
X0061707Y0416627D01*
X0059459Y0413695D01*
X0059437Y0413668D01*
X0057191Y0411226D01*
X0057179Y0411215D01*
X0054442Y0408477D01*
X0054416Y0408453D01*
X0051487Y0406013D01*
X0051465Y0405996D01*
X0049021Y0404236D01*
X0049010Y0404228D01*
X0046369Y0402468D01*
X0046347Y0402454D01*
X0043807Y0400989D01*
X0043791Y0400980D01*
X0040958Y0399515D01*
X0040931Y0399502D01*
X0037704Y0398133D01*
X0037689Y0398127D01*
X0033780Y0396661D01*
X0033739Y0396648D01*
X0029936Y0395673D01*
X0029907Y0395667D01*
X0026583Y0395080D01*
X0026567Y0395078D01*
X0023626Y0394686D01*
X0023618Y0394685D01*
X0023617Y0394684D01*
X0023617Y0394684D01*
X0023617Y0394241D01*
X0023542Y0394012D01*
X0023347Y0393870D01*
X0023270Y0393854D01*
X0022867Y0393809D01*
X0022780Y0393809D01*
X0022563Y0393834D01*
X0022400Y0393891D01*
X0022254Y0393983D01*
X0022131Y0394106D01*
X0022034Y0394262D01*
X0021980Y0394404D01*
X0021954Y0394554D01*
X0021949Y0394619D01*
X0021949Y0413685D01*
X0022023Y0413914D01*
X0022218Y0414056D01*
X0022339Y0414075D01*
X0022736Y0414075D01*
X0022736Y0414075D01*
X0022736Y0414432D01*
X0022811Y0414661D01*
X0023006Y0414803D01*
X0023050Y0414815D01*
X0023245Y0414853D01*
X0025485Y0415454D01*
X0027682Y0416199D01*
X0029824Y0417087D01*
X0029824Y0417087D01*
X0031904Y0418113D01*
X0033913Y0419272D01*
X0033913Y0419272D01*
X0035841Y0420561D01*
X0035841Y0420561D01*
X0037681Y0421973D01*
X0037681Y0421973D01*
X0039425Y0423502D01*
X0039425Y0423502D01*
X0041065Y0425142D01*
X0041065Y0425142D01*
X0042594Y0426886D01*
X0042594Y0426886D01*
X0044006Y0428726D01*
X0044006Y0428726D01*
X0045295Y0430654D01*
X0045295Y0430654D01*
X0046454Y0432663D01*
X0047480Y0434743D01*
X0047480Y0434743D01*
X0048368Y0436885D01*
X0049113Y0439082D01*
X0049714Y0441322D01*
X0049809Y0441803D01*
X0049927Y0442013D01*
X0050146Y0442114D01*
X0050193Y0442117D01*
X0071613Y0442028D01*
G37*
M02*
